<svg width="84" height="31" viewBox="0 0 84 31" fill="none" xmlns="http://www.w3.org/2000/svg">
<g filter="url(#filter0_d)">
<path d="M35.324 3.172L35.17 3.304C33.366 4.56533 31.1293 6.94133 28.46 10.432L28.218 11.246C27.9687 12.0087 27.712 12.6687 27.448 13.226C27.184 13.7687 26.854 14.2673 26.458 14.722C26.062 15.1767 25.578 15.6093 25.006 16.02C24.786 16.1813 24.544 16.35 24.28 16.526C24.0893 16.922 23.9353 17.2667 23.818 17.56C23.8913 17.56 23.9573 17.5673 24.016 17.582C24.2947 17.6113 24.6027 17.626 24.94 17.626C25.4827 17.626 25.996 17.5527 26.48 17.406C26.9347 16.8633 27.4553 16.196 28.042 15.404L28.13 15.558C27.6607 16.218 27.2353 16.79 26.854 17.274C26.898 17.2593 26.9347 17.252 26.964 17.252C27.008 17.252 27.03 17.2667 27.03 17.296C27.03 17.3693 26.964 17.4427 26.832 17.516C26.744 17.5453 26.6487 17.582 26.546 17.626C25.5193 18.8433 24.7347 19.452 24.192 19.452C23.5613 19.452 23.3047 18.99 23.422 18.066C23.4367 17.9487 23.4513 17.8313 23.466 17.714C23.4073 17.6993 23.3487 17.6847 23.29 17.67C23.2167 17.6553 23.1433 17.648 23.07 17.648C23.0113 17.6333 22.938 17.6187 22.85 17.604C22.7767 17.5893 22.674 17.5747 22.542 17.56C22.2047 17.7213 21.948 17.8313 21.772 17.89C21.596 17.934 21.42 17.956 21.244 17.956C21.1267 17.956 21.024 17.934 20.936 17.89C20.848 17.8313 20.804 17.758 20.804 17.67C20.804 17.5527 20.8993 17.45 21.09 17.362C21.2953 17.2593 21.5373 17.208 21.816 17.208C21.904 17.208 21.9993 17.2153 22.102 17.23C22.2047 17.23 22.3513 17.2447 22.542 17.274C22.7327 17.23 22.9527 17.098 23.202 16.878C23.4513 16.658 23.708 16.372 23.972 16.02C24.2947 15.2427 24.7347 14.3847 25.292 13.446C25.3653 13.3287 25.446 13.1967 25.534 13.05L23.642 13.028C19.9313 17.5013 16.4407 19.738 13.17 19.738C12.0993 19.738 11.2047 19.32 10.486 18.484C9.85533 17.7507 9.51067 16.9367 9.452 16.042C8.27867 15.118 7.80933 13.6953 8.044 11.774C8.264 9.882 9.034 8.24667 10.354 6.868C11.674 5.47467 13.2067 4.778 14.952 4.778C16.404 4.778 17.4087 5.46733 17.966 6.846C18.67 7.05133 19.2273 7.46933 19.638 8.1C20.0047 8.64267 20.166 9.288 20.122 10.036C20.298 10.388 20.386 10.7913 20.386 11.246C20.386 11.378 20.3787 11.51 20.364 11.642H22.454C24.566 8.76733 26.6853 6.61867 28.812 5.196C28.856 5.16667 28.8927 5.13733 28.922 5.108C29.2007 4.87333 29.5013 4.63133 29.824 4.382C30.22 4.08867 30.616 3.83933 31.012 3.634C31.408 3.42867 31.6867 3.326 31.848 3.326C31.9507 3.326 32.002 3.37733 32.002 3.48C32.002 3.524 31.9727 3.568 31.914 3.612C31.8847 3.64133 31.8627 3.66333 31.848 3.678C32.8893 3.326 33.9307 3.14267 34.972 3.128C35.2067 3.128 35.324 3.14267 35.324 3.172ZM19.88 10.322C19.88 10.2927 19.88 10.2633 19.88 10.234C19.748 9.882 19.5207 9.58133 19.198 9.332C18.9047 9.09733 18.56 8.92133 18.164 8.804C18.164 8.83333 18.164 8.85533 18.164 8.87C18.0173 9.86733 17.658 10.784 17.086 11.62C16.4553 12.5293 15.6707 13.1233 14.732 13.402C14.556 13.402 14.4607 13.3653 14.446 13.292C14.4607 13.1893 14.5047 13.138 14.578 13.138C14.666 13.1233 14.798 13.0867 14.974 13.028C15.7513 12.764 16.4113 12.2287 16.954 11.422C17.5113 10.6153 17.8487 9.75 17.966 8.826C17.966 8.79667 17.966 8.77467 17.966 8.76C17.6433 8.672 17.2913 8.628 16.91 8.628C16.1033 8.628 15.326 8.81867 14.578 9.2C13.83 9.56667 13.17 10.058 12.598 10.674C12.026 11.29 11.564 12.0013 11.212 12.808C10.8747 13.6 10.706 14.4287 10.706 15.294C10.706 15.734 10.7867 16.1373 10.948 16.504C10.948 16.5187 10.9553 16.5407 10.97 16.57C11.3953 16.6727 11.9013 16.724 12.488 16.724C13.852 16.724 15.1867 16.2987 16.492 15.448C17.9147 14.524 18.912 13.3433 19.484 11.906H18.208L18.45 11.642H19.594C19.7113 11.29 19.8067 10.85 19.88 10.322ZM17.636 6.802C17.1373 5.77533 16.228 5.262 14.908 5.262C13.2653 5.262 11.7987 5.91467 10.508 7.22C9.21733 8.52533 8.45467 10.0873 8.22 11.906C8.02933 13.5193 8.43267 14.788 9.43 15.712C9.386 15.1987 9.39333 14.766 9.452 14.414C9.672 12.4927 10.4493 10.7693 11.784 9.244C13.2213 7.55733 14.974 6.714 17.042 6.714C17.174 6.714 17.372 6.74333 17.636 6.802ZM22.212 11.906H20.32C20.2613 12.1407 20.188 12.368 20.1 12.588C19.9093 13.0133 19.6453 13.402 19.308 13.754C18.912 14.15 18.6407 14.348 18.494 14.348C18.4353 14.348 18.406 14.3113 18.406 14.238C18.406 14.1793 18.4867 14.0913 18.648 13.974C19.0733 13.6367 19.418 13.2187 19.682 12.72C19.8287 12.456 19.9313 12.1847 19.99 11.906H19.726C19.1393 13.4313 18.098 14.678 16.602 15.646C15.2233 16.5847 13.8373 17.054 12.444 17.054C11.9747 17.054 11.542 17.01 11.146 16.922C11.278 17.1273 11.432 17.3107 11.608 17.472C11.8867 17.7507 12.2167 17.9633 12.598 18.11C12.994 18.2713 13.412 18.352 13.852 18.352C14.7027 18.352 15.524 18.1687 16.316 17.802C17.1227 17.4207 18.0173 16.7973 19 15.932C19.2347 15.712 19.5133 15.4553 19.836 15.162L19.858 15.14C20.254 14.612 20.694 14.0107 21.178 13.336C21.3687 13.072 21.7133 12.5953 22.212 11.906ZM27.316 6.098C26.8027 6.52333 26.3627 6.83133 25.996 7.022C25.644 7.198 25.2847 7.286 24.918 7.286C24.5807 7.286 24.2947 7.18333 24.06 6.978C23.8253 6.758 23.708 6.50133 23.708 6.208C23.708 5.87067 23.8107 5.55533 24.016 5.262L24.544 4.492C24.72 4.25733 24.808 4.052 24.808 3.876C24.808 3.75867 24.7567 3.66333 24.654 3.59C24.5513 3.502 24.434 3.458 24.302 3.458C23.9647 3.458 23.5833 3.546 23.158 3.722C22.7327 3.898 22.2927 4.13267 21.838 4.426C21.398 4.70467 20.9653 5.03467 20.54 5.416C20.1293 5.79733 19.7773 6.19333 19.484 6.604C19.44 6.66267 19.4033 6.692 19.374 6.692C19.286 6.692 19.242 6.64067 19.242 6.538C19.242 6.42067 19.352 6.23733 19.572 5.988C19.792 5.724 20.078 5.43067 20.43 5.108C20.738 4.82933 21.0753 4.57267 21.442 4.338C21.8087 4.08867 22.1753 3.876 22.542 3.7C22.9087 3.524 23.2607 3.38467 23.598 3.282C23.95 3.17933 24.258 3.128 24.522 3.128C24.83 3.128 25.116 3.238 25.38 3.458C25.644 3.678 25.776 3.92733 25.776 4.206C25.776 4.602 25.5487 5.11533 25.094 5.746C24.9473 5.95133 24.852 6.10533 24.808 6.208C24.764 6.31067 24.742 6.43533 24.742 6.582C24.742 6.69933 24.7787 6.802 24.852 6.89C24.9253 6.96333 25.0207 7 25.138 7C25.3873 7 25.688 6.90467 26.04 6.714C26.4067 6.50867 26.8027 6.22267 27.228 5.856C28.0493 5.13733 28.7533 4.57267 29.34 4.162C29.9267 3.75133 30.3227 3.546 30.528 3.546C30.572 3.546 30.594 3.568 30.594 3.612C30.594 3.62667 30.5647 3.656 30.506 3.7C30.4327 3.72933 30.3153 3.79533 30.154 3.898C29.9927 4.00067 29.8093 4.118 29.604 4.25C29.4133 4.382 29.2227 4.52133 29.032 4.668C28.8413 4.8 28.6873 4.91733 28.57 5.02L27.316 6.098ZM34.774 3.348C33.5713 3.348 32.4493 3.59733 31.408 4.096C31.2173 4.272 31.0487 4.45533 30.902 4.646C30.6087 4.98333 30.3447 5.35733 30.11 5.768C29.89 6.17867 29.6773 6.648 29.472 7.176C29.3107 7.616 29.142 8.12933 28.966 8.716C29.6113 7.99733 30.3007 7.27133 31.034 6.538C32.5887 4.998 33.8353 3.93467 34.774 3.348ZM10.288 12.236C10.6987 11.4733 11.2413 10.806 11.916 10.234C12.6053 9.662 13.39 9.20733 14.27 8.87C15.1647 8.518 16.096 8.342 17.064 8.342C17.3867 8.342 17.6947 8.37867 17.988 8.452C18.0027 8.04133 17.9513 7.638 17.834 7.242C17.526 7.198 17.2693 7.176 17.064 7.176C15.304 7.176 13.6613 7.946 12.136 9.486C11.1973 10.4687 10.5227 11.51 10.112 12.61C10.1707 12.478 10.2293 12.3533 10.288 12.236ZM15.986 18.264C15.3113 18.484 14.6147 18.594 13.896 18.594C13.28 18.594 12.708 18.4987 12.18 18.308C11.6667 18.1173 11.2267 17.846 10.86 17.494C10.5667 17.2153 10.3247 16.8927 10.134 16.526C9.958 16.438 9.804 16.328 9.672 16.196C9.76 17.032 10.1047 17.7653 10.706 18.396C11.3953 19.1147 12.2167 19.474 13.17 19.474C14.8273 19.474 16.4187 18.7773 17.944 17.384L18.01 17.318C17.3207 17.758 16.646 18.0733 15.986 18.264ZM26.48 11.026C26.7587 10.278 27.0227 9.618 27.272 9.046C27.536 8.45933 27.8073 7.93867 28.086 7.484C28.3647 7.01467 28.6653 6.582 28.988 6.186C29.3253 5.79 29.6993 5.394 30.11 4.998L30.55 4.558C30.506 4.58733 30.462 4.61667 30.418 4.646C29.4353 5.33533 28.416 6.39867 27.36 7.836C26.48 9.08267 25.6073 10.3513 24.742 11.642H26.216C26.304 11.4367 26.392 11.2313 26.48 11.026ZM25.688 17.868C25.4533 17.8973 25.2333 17.912 25.028 17.912C24.852 17.912 24.6467 17.8973 24.412 17.868C24.2213 17.8533 24.0013 17.824 23.752 17.78C23.708 17.9267 23.6787 18.066 23.664 18.198C23.576 18.902 23.7667 19.254 24.236 19.254C24.632 19.254 25.2773 18.7553 26.172 17.758C26.0107 17.802 25.8493 17.8387 25.688 17.868ZM19.462 9.156C19.638 9.30267 19.7847 9.464 19.902 9.64C19.858 8.46667 19.2567 7.69667 18.098 7.33C18.186 7.682 18.2153 8.07067 18.186 8.496C18.67 8.61333 19.0953 8.83333 19.462 9.156ZM22.916 17.362C23.136 17.4207 23.334 17.4647 23.51 17.494C23.554 17.318 23.6053 17.1273 23.664 16.922C23.4293 17.0687 23.18 17.2153 22.916 17.362ZM9.694 14.59C9.694 14.4873 9.694 14.3847 9.694 14.282C9.694 14.3113 9.694 14.3407 9.694 14.37C9.62067 15.0007 9.606 15.4847 9.65 15.822C9.738 15.91 9.83333 15.998 9.936 16.086C9.77467 15.6313 9.694 15.1327 9.694 14.59ZM20.078 11.202C20.078 11.0553 20.0633 10.9087 20.034 10.762C19.99 11.0407 19.924 11.334 19.836 11.642H20.034C20.0633 11.4953 20.078 11.3487 20.078 11.202ZM31.408 3.722C31.1 3.86867 30.792 4.03733 30.484 4.228C30.7333 4.11067 30.9753 4.008 31.21 3.92L31.408 3.722ZM28.6721 15.448C28.9361 15.0667 29.2221 14.7 29.5301 14.348C29.8381 13.9813 30.1388 13.666 30.4321 13.402C30.7401 13.1233 31.0261 12.9033 31.2901 12.742C31.5541 12.5807 31.7668 12.5 31.9281 12.5H32.0161C31.9281 12.4267 31.8254 12.368 31.7081 12.324C31.4588 12.2653 31.1948 12.3387 30.9161 12.544C30.6521 12.7493 30.3808 13.0207 30.1021 13.358C29.8234 13.6807 29.5448 14.0327 29.2661 14.414C29.0021 14.7953 28.7454 15.1327 28.4961 15.426L28.3641 15.228C28.4961 15.0813 28.6574 14.876 28.8481 14.612C29.0388 14.3333 29.2514 14.04 29.4861 13.732C29.7208 13.4093 29.9701 13.0867 30.2341 12.764C30.5128 12.4413 30.7988 12.1553 31.0921 11.906C31.4001 11.642 31.7081 11.4367 32.0161 11.29C32.3388 11.1433 32.6541 11.092 32.9621 11.136C33.4168 11.1947 33.6954 11.3267 33.7981 11.532C33.9154 11.7373 33.9008 11.994 33.7541 12.302C33.6074 12.5953 33.3654 12.9327 33.0281 13.314C32.8814 13.4753 32.7201 13.6367 32.5441 13.798C32.4414 14.1647 32.2214 14.5387 31.8841 14.92C31.6934 15.14 31.3121 15.5727 30.7401 16.218C30.7254 16.4233 30.7621 16.5993 30.8501 16.746C30.9674 16.922 31.1508 17.0393 31.4001 17.098C31.4294 17.1127 31.4588 17.12 31.4881 17.12C31.9868 16.636 32.5881 15.9027 33.2921 14.92L33.4241 15.03C32.7788 15.8953 32.2141 16.5773 31.7301 17.076C31.7888 17.0467 31.8548 17.01 31.9281 16.966C32.1481 16.834 32.3754 16.6653 32.6101 16.46C32.8448 16.24 33.0868 15.998 33.3361 15.734C33.5854 15.4553 33.8274 15.1913 34.0621 14.942C34.0914 14.9127 34.1428 14.92 34.2161 14.964C34.3041 15.008 34.3334 15.0447 34.3041 15.074C34.0108 15.3527 33.7321 15.6387 33.4681 15.932C33.2188 16.2253 32.9694 16.4967 32.7201 16.746C32.4854 16.9953 32.2508 17.2227 32.0161 17.428C31.7961 17.6333 31.5761 17.7873 31.3561 17.89C31.0921 18.022 30.8061 18.0733 30.4981 18.044C30.4101 18.0293 30.3221 18.0147 30.2341 18C30.0581 18 29.9261 17.9487 29.8381 17.846L29.7501 17.78C29.5448 17.6187 29.4054 17.4133 29.3321 17.164C29.2734 16.9 29.3468 16.614 29.5521 16.306C29.6254 16.1887 29.7061 16.0787 29.7941 15.976C29.8968 15.8733 30.0214 15.756 30.1681 15.624C30.2268 15.5653 30.2928 15.4993 30.3661 15.426C30.5568 15.206 30.7621 14.964 30.9821 14.7C31.2021 14.436 31.4368 14.1647 31.6861 13.886C31.8621 13.71 31.9868 13.5413 32.0601 13.38C32.1334 13.2187 32.1701 13.0793 32.1701 12.962V12.896C32.1408 12.764 32.0528 12.698 31.9061 12.698C31.6861 12.698 31.4294 12.8007 31.1361 13.006C30.8428 13.2113 30.5494 13.468 30.2561 13.776C29.9774 14.084 29.7061 14.414 29.4421 14.766C29.1781 15.1033 28.9434 15.3967 28.7381 15.646L28.6721 15.448ZM38.675 14.81C38.675 14.854 38.5944 15.008 38.433 15.272C38.2864 15.536 38.037 15.844 37.685 16.196C37.069 16.8267 36.4677 17.2887 35.881 17.582C35.617 17.6993 35.3677 17.7947 35.133 17.868C34.9424 17.956 34.759 18 34.583 18H34.495H34.363C33.967 18 33.637 17.8387 33.373 17.516C33.109 17.1787 32.977 16.7607 32.977 16.262C32.977 14.986 33.6664 13.8127 35.045 12.742C35.309 12.522 35.5877 12.324 35.881 12.148C36.1744 11.9573 36.4604 11.796 36.739 11.664C37.0177 11.5173 37.2744 11.4073 37.509 11.334C37.7437 11.246 37.9417 11.202 38.103 11.202C38.367 11.202 38.5797 11.2827 38.741 11.444C38.9024 11.5907 38.983 11.7887 38.983 12.038C38.983 12.3313 38.8584 12.6467 38.609 12.984C38.3597 13.3067 38.0444 13.5707 37.663 13.776C37.3697 13.9373 37.0397 14.0767 36.673 14.194C36.1744 14.5167 35.5364 14.854 34.759 15.206C34.187 16.0273 33.901 16.6433 33.901 17.054C33.901 17.3033 33.9524 17.494 34.055 17.626C34.1724 17.6993 34.3044 17.736 34.451 17.736C34.6564 17.736 34.9277 17.6627 35.265 17.516C35.3824 17.472 35.4997 17.4207 35.617 17.362C36.2477 16.878 37.003 16.02 37.883 14.788L38.037 14.92C37.4504 15.7267 36.915 16.3793 36.431 16.878C36.8124 16.614 37.1864 16.306 37.553 15.954C37.949 15.5727 38.2937 15.162 38.587 14.722C38.6164 14.6927 38.6384 14.6927 38.653 14.722C38.6677 14.7367 38.675 14.7587 38.675 14.788V14.81ZM37.839 12.676C37.839 12.5147 37.751 12.434 37.575 12.434C37.2964 12.434 36.8417 12.7493 36.211 13.38C35.9177 13.688 35.6537 13.9813 35.419 14.26C35.6537 14.2013 35.8957 14.1133 36.145 13.996C36.5264 13.8053 36.8784 13.5853 37.201 13.336C37.4357 13.1453 37.6484 12.94 37.839 12.72V12.676ZM38.323 11.752C38.323 11.5467 38.2204 11.444 38.015 11.444C37.6777 11.444 37.245 11.7007 36.717 12.214C36.5704 12.3753 36.4164 12.544 36.255 12.72C36.739 12.4267 37.1864 12.28 37.597 12.28C37.817 12.28 37.9564 12.3533 38.015 12.5C38.2204 12.2213 38.323 11.972 38.323 11.752ZM35.199 14.546C35.0964 14.678 35.001 14.81 34.913 14.942C35.2797 14.7513 35.617 14.5753 35.925 14.414C35.6904 14.458 35.4484 14.502 35.199 14.546ZM44.0253 14.458C42.588 16.2327 41.5613 17.12 40.9453 17.12H40.9233C40.8353 17.3107 40.7987 17.4573 40.8133 17.56C40.8133 17.7213 40.9013 17.802 41.0773 17.802C41.3413 17.802 41.73 17.582 42.2433 17.142C42.7567 16.702 43.3873 15.976 44.1353 14.964C44.238 14.8173 44.3187 14.7807 44.3773 14.854C44.4507 14.9127 44.4433 15.0007 44.3553 15.118L43.4753 16.24C42.962 16.9 42.4927 17.3693 42.0673 17.648C41.6567 17.9267 41.2973 18.066 40.9893 18.066C40.7107 18.066 40.476 17.9707 40.2853 17.78C40.1093 17.5893 40.0067 17.3473 39.9773 17.054C39.9773 16.9513 39.9847 16.8413 39.9993 16.724C40.0287 16.592 40.0873 16.4233 40.1753 16.218C40.278 15.998 40.4247 15.7267 40.6153 15.404C40.762 15.1547 40.9453 14.8613 41.1653 14.524H39.6473C39.398 14.8907 39.09 15.3087 38.7233 15.778C38.474 16.1153 38.232 16.4307 37.9973 16.724L37.2493 17.912L37.2273 17.978C37.2127 17.9927 37.176 18 37.1173 18L35.8633 18.022C35.7753 18.022 35.724 18 35.7093 17.956C35.7093 17.9267 35.7387 17.8827 35.7973 17.824L39.0973 12.742C38.716 13.0793 38.4887 13.248 38.4153 13.248C38.3567 13.2333 38.43 13.116 38.6353 12.896C38.914 12.6027 39.1633 12.3973 39.3833 12.28L40.0213 11.29C40.0653 11.202 40.1313 11.158 40.2193 11.158L41.4073 11.136C41.422 11.136 41.4367 11.1507 41.4513 11.18C41.466 11.2093 41.4733 11.2313 41.4733 11.246L40.3293 13.05C40.3 13.2847 40.234 13.512 40.1313 13.732L41.6933 13.754C41.9133 13.4167 42.1627 13.05 42.4413 12.654C42.7347 12.2433 43.0647 11.7813 43.4313 11.268C43.49 11.18 43.5633 11.136 43.6513 11.136L44.8393 11.114C44.8687 11.114 44.8833 11.1287 44.8833 11.158C44.8833 11.2313 44.7953 11.3853 44.6193 11.62L41.3193 16.482C41.1873 16.658 41.0773 16.8193 40.9893 16.966C41.5613 16.966 42.5293 16.0933 43.8933 14.348L44.0253 14.458ZM41.4513 14.128L39.9113 14.106C39.8527 14.1793 39.794 14.2673 39.7353 14.37H41.2753C41.334 14.2967 41.3927 14.216 41.4513 14.128ZM52.4933 14.37C51.1293 16.1447 50.1099 17.032 49.4353 17.032C49.3619 17.032 49.2959 17.0247 49.2373 17.01L49.1933 17.098C49.0906 17.274 49.0393 17.4133 49.0393 17.516C49.0393 17.5893 49.0466 17.6407 49.0613 17.67C49.0759 17.6993 49.1346 17.714 49.2373 17.714C49.2519 17.714 49.3473 17.6847 49.5233 17.626C49.6993 17.5527 49.9266 17.4207 50.2053 17.23C50.4839 17.0393 50.8139 16.768 51.1953 16.416C51.5766 16.064 51.9873 15.602 52.4273 15.03C52.4566 15.0007 52.4933 15.008 52.5373 15.052C52.5813 15.0813 52.6033 15.1107 52.6033 15.14C52.6033 15.2427 52.4713 15.4627 52.2073 15.8C51.9579 16.1227 51.6426 16.46 51.2613 16.812C50.8946 17.1493 50.4986 17.45 50.0733 17.714C49.6626 17.978 49.2959 18.1027 48.9733 18.088C48.6946 18.0733 48.4746 17.9927 48.3133 17.846C48.1519 17.6847 48.0713 17.4573 48.0713 17.164C48.0713 16.9 48.1959 16.5333 48.4453 16.064C48.6946 15.58 49.0099 15.096 49.3913 14.612L50.7773 12.896C50.9679 12.6907 51.1073 12.4927 51.1953 12.302C51.1513 12.2727 51.0999 12.258 51.0413 12.258C50.4693 12.258 49.6993 12.852 48.7313 14.04C48.4086 14.4213 47.9759 14.964 47.4333 15.668L45.9153 17.934C45.9006 17.9927 45.8566 18.022 45.7833 18.022H44.4633C44.4339 18.022 44.4193 18.0073 44.4193 17.978C44.4193 17.9193 44.4266 17.8827 44.4413 17.868L46.5753 14.7C46.8979 14.216 47.1693 13.8053 47.3893 13.468C47.6093 13.1307 47.7853 12.852 47.9173 12.632C47.9906 12.5 48.0493 12.39 48.0933 12.302C47.5946 12.478 46.9419 13.0573 46.1353 14.04C45.4019 14.9493 44.6173 15.9173 43.7813 16.944C43.7079 16.9147 43.6199 16.8927 43.5173 16.878L42.7913 17.934C42.7473 17.978 42.6959 18 42.6373 18H41.4493C41.3759 18 41.3393 17.978 41.3393 17.934L43.6713 14.282L43.6053 14.37L43.4733 14.26C43.9426 13.688 44.2799 13.27 44.4853 13.006L45.6293 11.224H46.9493L46.2673 12.368C46.3113 12.456 46.3406 12.5513 46.3553 12.654C46.4873 12.5073 46.6119 12.3753 46.7293 12.258C47.0079 11.9793 47.2426 11.7667 47.4333 11.62C47.6386 11.4587 47.8146 11.356 47.9613 11.312C48.1079 11.2533 48.2693 11.224 48.4453 11.224C48.6506 11.224 48.8193 11.3047 48.9513 11.466C49.0979 11.6127 49.1713 11.8033 49.1713 12.038C49.1713 12.214 49.1419 12.39 49.0833 12.566C49.0686 12.654 49.0393 12.7493 48.9953 12.852C48.9953 12.9253 48.9879 12.9987 48.9733 13.072C49.9853 11.84 50.8213 11.224 51.4813 11.224C51.7306 11.224 51.9359 11.312 52.0973 11.488C52.2733 11.6493 52.3613 11.862 52.3613 12.126C52.3613 12.4193 52.2586 12.764 52.0533 13.16C51.8626 13.5413 51.5473 14.018 51.1073 14.59L49.6113 16.482C49.5086 16.6287 49.4133 16.7607 49.3253 16.878C49.3693 16.878 49.4133 16.878 49.4573 16.878C50.0733 16.878 51.0413 16.0053 52.3613 14.26L52.4933 14.37ZM48.2033 12.082C48.2619 11.9353 48.2913 11.8253 48.2913 11.752C48.2913 11.6493 48.2399 11.598 48.1373 11.598C48.0199 11.598 47.8439 11.686 47.6093 11.862C47.3746 12.0233 47.1106 12.2433 46.8173 12.522C46.6559 12.6833 46.4946 12.852 46.3333 13.028C46.3039 13.2773 46.2233 13.5267 46.0913 13.776C46.9859 12.8227 47.6826 12.2727 48.1813 12.126L48.2033 12.082ZM51.3273 11.796C51.3273 11.6493 51.2686 11.576 51.1513 11.576C51.0339 11.576 50.8653 11.6567 50.6453 11.818C50.4253 11.9793 50.1833 12.192 49.9193 12.456C49.6553 12.7053 49.3839 12.9913 49.1053 13.314C49.0319 13.402 48.9586 13.4827 48.8853 13.556C49.7799 12.5733 50.4986 12.082 51.0413 12.082C51.1293 12.082 51.2099 12.0893 51.2833 12.104C51.3126 12.0013 51.3273 11.8987 51.3273 11.796ZM56.3381 15.338C55.7515 16.1007 55.2308 16.6947 54.7761 17.12C54.8641 17.0613 54.9595 16.9953 55.0621 16.922C55.5608 16.526 56.0668 15.9247 56.5801 15.118C56.6681 15.03 56.7341 14.986 56.7781 14.986C56.8661 14.986 56.9028 15.0153 56.8881 15.074C56.6681 15.5287 56.3968 15.9467 56.0741 16.328C55.7515 16.6947 55.4068 17.01 55.0401 17.274C54.6881 17.538 54.3215 17.7433 53.9401 17.89C53.5588 18.022 53.1995 18.0733 52.8621 18.044C52.4515 18.0147 52.1068 17.8313 51.8281 17.494C51.5495 17.142 51.4101 16.7093 51.4101 16.196C51.4101 15.3307 51.8575 14.4067 52.7521 13.424C53.0308 13.116 53.3388 12.83 53.6761 12.566C54.0281 12.2873 54.3801 12.0453 54.7321 11.84C55.0841 11.6347 55.4288 11.4733 55.7661 11.356C56.1035 11.2387 56.4041 11.18 56.6681 11.18C56.8735 11.18 57.0495 11.268 57.1961 11.444C57.3428 11.6053 57.4161 11.8033 57.4161 12.038C57.4161 12.258 57.3721 12.478 57.2841 12.698C57.2108 12.9033 57.1081 13.094 56.9761 13.27C56.8588 13.4313 56.7195 13.5633 56.5581 13.666C56.4701 13.7247 56.3821 13.7687 56.2941 13.798C56.2501 13.9887 56.1621 14.1647 56.0301 14.326C55.8395 14.5607 55.6415 14.678 55.4361 14.678C55.1868 14.678 55.0621 14.5607 55.0621 14.326C55.0621 14.106 55.2235 13.908 55.5461 13.732C55.6048 13.7027 55.6561 13.6733 55.7001 13.644C55.6561 13.5707 55.6341 13.49 55.6341 13.402C55.6341 13.3433 55.6341 13.2847 55.6341 13.226C55.1648 13.2993 54.5561 13.7687 53.8081 14.634C53.0015 15.5873 52.5981 16.394 52.5981 17.054C52.5981 17.274 52.6348 17.45 52.7081 17.582H52.7301C52.9795 17.714 53.3021 17.736 53.6981 17.648C53.8008 17.6187 53.9108 17.582 54.0281 17.538C54.6001 17.1567 55.3261 16.3867 56.2061 15.228L56.3381 15.338ZM55.8101 12.852C55.8835 12.7493 55.9861 12.6393 56.1181 12.522C56.2648 12.39 56.4555 12.2213 56.6901 12.016C56.8515 11.884 56.9321 11.7667 56.9321 11.664C56.9321 11.488 56.8295 11.4 56.6241 11.4C56.3601 11.4 55.9788 11.598 55.4801 11.994C54.9961 12.39 54.4975 12.918 53.9841 13.578C53.8961 13.6807 53.8081 13.7907 53.7201 13.908C54.4388 13.3653 55.0915 13.0793 55.6781 13.05C55.7075 12.9913 55.7515 12.9253 55.8101 12.852ZM65.212 14.37C63.848 16.1447 62.8287 17.032 62.154 17.032C62.0807 17.032 62.0147 17.0247 61.956 17.01L61.912 17.098C61.8094 17.274 61.758 17.4133 61.758 17.516C61.758 17.5893 61.7654 17.6407 61.78 17.67C61.7947 17.6993 61.8534 17.714 61.956 17.714C61.9707 17.714 62.066 17.6847 62.242 17.626C62.418 17.5527 62.6454 17.4207 62.924 17.23C63.2027 17.0393 63.5327 16.768 63.914 16.416C64.2954 16.064 64.706 15.602 65.146 15.03C65.1754 15.0007 65.212 15.008 65.256 15.052C65.3 15.0813 65.322 15.1107 65.322 15.14C65.322 15.2427 65.19 15.4627 64.926 15.8C64.6767 16.1227 64.3614 16.46 63.98 16.812C63.6134 17.1493 63.2174 17.45 62.792 17.714C62.3814 17.978 62.0147 18.1027 61.692 18.088C61.4134 18.0733 61.1934 17.9927 61.032 17.846C60.8707 17.6847 60.79 17.4573 60.79 17.164C60.79 16.9 60.9147 16.5333 61.164 16.064C61.4134 15.58 61.7287 15.096 62.11 14.612L63.496 12.896C63.6867 12.6907 63.826 12.4927 63.914 12.302C63.87 12.2727 63.8187 12.258 63.76 12.258C63.188 12.258 62.418 12.852 61.45 14.04C61.1274 14.4213 60.6947 14.964 60.152 15.668L58.634 17.934C58.6194 17.9927 58.5754 18.022 58.502 18.022H57.182C57.1527 18.022 57.138 18.0073 57.138 17.978C57.138 17.9193 57.1454 17.8827 57.16 17.868L59.294 14.7C59.6167 14.216 59.888 13.8053 60.108 13.468C60.328 13.1307 60.504 12.852 60.636 12.632C60.7094 12.5 60.768 12.39 60.812 12.302C60.3134 12.478 59.6607 13.0573 58.854 14.04C58.1207 14.9493 57.336 15.9173 56.5 16.944C56.4267 16.9147 56.3387 16.8927 56.236 16.878L55.51 17.934C55.466 17.978 55.4147 18 55.356 18H54.168C54.0947 18 54.058 17.978 54.058 17.934L56.39 14.282L56.324 14.37L56.192 14.26C56.6614 13.688 56.9987 13.27 57.204 13.006L58.348 11.224H59.668L58.986 12.368C59.03 12.456 59.0594 12.5513 59.074 12.654C59.206 12.5073 59.3307 12.3753 59.448 12.258C59.7267 11.9793 59.9614 11.7667 60.152 11.62C60.3574 11.4587 60.5334 11.356 60.68 11.312C60.8267 11.2533 60.988 11.224 61.164 11.224C61.3694 11.224 61.538 11.3047 61.67 11.466C61.8167 11.6127 61.89 11.8033 61.89 12.038C61.89 12.214 61.8607 12.39 61.802 12.566C61.7874 12.654 61.758 12.7493 61.714 12.852C61.714 12.9253 61.7067 12.9987 61.692 13.072C62.704 11.84 63.54 11.224 64.2 11.224C64.4494 11.224 64.6547 11.312 64.816 11.488C64.992 11.6493 65.08 11.862 65.08 12.126C65.08 12.4193 64.9774 12.764 64.772 13.16C64.5814 13.5413 64.266 14.018 63.826 14.59L62.33 16.482C62.2274 16.6287 62.132 16.7607 62.044 16.878C62.088 16.878 62.132 16.878 62.176 16.878C62.792 16.878 63.76 16.0053 65.08 14.26L65.212 14.37ZM60.922 12.082C60.9807 11.9353 61.01 11.8253 61.01 11.752C61.01 11.6493 60.9587 11.598 60.856 11.598C60.7387 11.598 60.5627 11.686 60.328 11.862C60.0934 12.0233 59.8294 12.2433 59.536 12.522C59.3747 12.6833 59.2134 12.852 59.052 13.028C59.0227 13.2773 58.942 13.5267 58.81 13.776C59.7047 12.8227 60.4014 12.2727 60.9 12.126L60.922 12.082ZM64.046 11.796C64.046 11.6493 63.9874 11.576 63.87 11.576C63.7527 11.576 63.584 11.6567 63.364 11.818C63.144 11.9793 62.902 12.192 62.638 12.456C62.374 12.7053 62.1027 12.9913 61.824 13.314C61.7507 13.402 61.6774 13.4827 61.604 13.556C62.4987 12.5733 63.2174 12.082 63.76 12.082C63.848 12.082 63.9287 12.0893 64.002 12.104C64.0314 12.0013 64.046 11.8987 64.046 11.796ZM68.7929 15.36C68.6609 15.5653 68.4995 15.7853 68.3089 16.02C68.1182 16.2547 67.8982 16.504 67.6489 16.768C67.2529 17.1933 66.8935 17.5087 66.5709 17.714C66.2775 17.846 65.9842 17.9413 65.6909 18C65.5442 17.9853 65.4195 17.9193 65.3169 17.802C65.3902 17.7727 65.4709 17.736 65.5589 17.692C65.6175 17.7507 65.6982 17.78 65.8009 17.78C66.2115 17.78 66.7689 17.3473 67.4729 16.482C67.6635 16.262 67.8615 16.02 68.0669 15.756C68.2722 15.4773 68.4922 15.1767 68.7269 14.854C68.7562 14.4873 68.8295 14.1207 68.9469 13.754C69.0789 13.5487 69.1889 13.3507 69.2769 13.16C69.4822 12.7787 69.6215 12.4633 69.6949 12.214C69.7242 12.1553 69.7609 12.0967 69.8049 12.038C69.9809 11.7887 70.1422 11.598 70.2889 11.466C70.3182 11.4807 70.3402 11.5027 70.3549 11.532C70.5602 11.7667 70.6629 12.0307 70.6629 12.324C70.6629 12.94 70.4795 13.5927 70.1129 14.282C69.7609 14.9567 69.3062 15.5727 68.7489 16.13C68.2062 16.6873 67.6049 17.1493 66.9449 17.516C66.8129 17.5893 66.6882 17.6553 66.5709 17.714C66.2629 17.9047 65.9989 18 65.7789 18H65.6909C65.4709 18.044 65.2509 18.066 65.0309 18.066C64.7669 18.066 64.5469 17.956 64.3709 17.736C64.1949 17.516 64.1069 17.2373 64.1069 16.9C64.1069 16.3427 64.3269 15.646 64.7669 14.81C65.2069 13.9593 65.7422 13.0573 66.3729 12.104C66.5195 11.8987 66.7249 11.5687 66.9889 11.114C67.2675 10.6593 67.5829 10.146 67.9349 9.574C68.3015 9.002 68.6975 8.408 69.1229 7.792C69.5482 7.176 69.9882 6.61867 70.4429 6.12C70.8975 5.60667 71.3522 5.18867 71.8069 4.866C72.2615 4.54333 72.6942 4.382 73.1049 4.382C73.7649 4.382 74.1169 4.68267 74.1609 5.284C74.3075 5.43067 74.3735 5.658 74.3589 5.966C74.2855 6.758 73.7135 7.682 72.6429 8.738C71.6162 9.73533 70.4282 10.5273 69.0789 11.114C68.8589 11.3047 68.6462 11.488 68.4409 11.664C68.4262 11.6787 68.4115 11.7007 68.3969 11.73C68.3969 11.7447 68.3895 11.7593 68.3749 11.774C68.5069 11.6713 68.6315 11.5833 68.7489 11.51C69.0862 11.29 69.4015 11.18 69.6949 11.18C69.9149 11.18 70.1129 11.2753 70.2889 11.466C70.5089 11.2753 70.7069 11.18 70.8829 11.18C71.0442 11.18 71.1249 11.2753 71.1249 11.466C71.1249 11.7007 71.0442 11.9793 70.8829 12.302C70.4429 13.1527 69.7462 14.172 68.7929 15.36ZM69.4089 11.532H69.3649C69.1302 11.532 68.8515 11.6567 68.5289 11.906C68.3675 12.038 68.1989 12.1847 68.0229 12.346C67.9935 12.4047 67.9569 12.4707 67.9129 12.544C67.7222 12.852 67.5169 13.182 67.2969 13.534C67.0769 13.886 66.8642 14.2233 66.6589 14.546C66.3215 15.118 66.0355 15.6533 65.8009 16.152C65.5662 16.6507 65.4489 17.0173 65.4489 17.252C65.4489 17.472 65.4855 17.6187 65.5589 17.692C66.1895 17.384 66.9889 16.5553 67.9569 15.206C68.3529 14.6633 68.6829 14.1793 68.9469 13.754C69.1082 13.226 69.3575 12.7127 69.6949 12.214C69.7242 12.0967 69.7389 11.9867 69.7389 11.884C69.7389 11.6787 69.6289 11.5613 69.4089 11.532ZM70.3769 9.552C71.1102 8.90667 71.7189 8.33467 72.2029 7.836C72.7015 7.32267 73.0755 6.86067 73.3249 6.45C73.5449 6.08333 73.6695 5.724 73.6989 5.372C73.3762 5.34267 72.9509 5.55533 72.4229 6.01C72.1149 6.28867 71.6675 6.83867 71.0809 7.66C70.5382 8.43733 69.8709 9.442 69.0789 10.674C69.5482 10.2633 69.9809 9.88933 70.3769 9.552ZM73.5449 4.844C73.4569 4.712 73.3395 4.646 73.1929 4.646C72.7382 4.646 72.2982 4.83667 71.8729 5.218C71.4622 5.59933 71.0735 6.06867 70.7069 6.626C70.3402 7.16867 69.9955 7.748 69.6729 8.364L69.3649 9.002L69.5409 8.738C70.3182 7.60867 71.0882 6.714 71.8509 6.054C72.5989 5.40867 73.2075 5.086 73.6769 5.086C73.6475 5.01267 73.6035 4.932 73.5449 4.844ZM73.4789 7.022C73.0095 7.594 72.4302 8.19533 71.7409 8.826C71.1395 9.36867 70.5015 9.926 69.8269 10.498C70.1789 10.3073 70.5162 10.102 70.8389 9.882C71.4255 9.47133 71.9682 9.00933 72.4669 8.496C73.3615 7.58667 73.8822 6.802 74.0289 6.142C73.9115 6.42067 73.7282 6.714 73.4789 7.022ZM64.9209 16.724C64.7595 17.076 64.6789 17.3327 64.6789 17.494C64.6789 17.7287 64.7962 17.846 65.0309 17.846C65.1189 17.846 65.2142 17.8313 65.3169 17.802C65.1702 17.626 65.0969 17.318 65.0969 16.878C65.0969 16.6873 65.1115 16.482 65.1409 16.262C65.0675 16.4233 64.9942 16.5773 64.9209 16.724ZM75.6895 15.338C75.1762 15.998 74.6482 16.328 74.1055 16.328C74.0615 16.328 74.0029 16.3207 73.9295 16.306L73.8195 16.46H73.9515C74.2155 16.46 74.5162 16.3647 74.8535 16.174C75.1909 15.9687 75.5209 15.69 75.8435 15.338C75.9169 15.25 75.9609 15.1987 75.9755 15.184C76.0049 15.1547 76.0415 15.14 76.0855 15.14C76.1882 15.14 76.2395 15.184 76.2395 15.272C76.2395 15.3013 76.1735 15.382 76.0415 15.514C75.9095 15.646 75.7555 15.7927 75.5795 15.954C74.9929 16.4967 74.3842 16.768 73.7535 16.768H73.5775C73.0935 17.2813 72.6389 17.626 72.2135 17.802C71.7882 17.978 71.3629 18.066 70.9375 18.066C70.6295 18.066 70.3655 17.9413 70.1455 17.692C69.9255 17.4427 69.8155 17.142 69.8155 16.79C69.8155 16.2033 69.9989 15.58 70.3655 14.92C70.7322 14.2453 71.2675 13.6 71.9715 12.984C72.6022 12.412 73.1962 11.972 73.7535 11.664C74.3255 11.3413 74.8022 11.18 75.1835 11.18C75.4182 11.18 75.5942 11.2607 75.7115 11.422C75.8435 11.5833 75.9242 11.8033 75.9535 12.082C75.9682 12.3167 75.9095 12.6173 75.7775 12.984C75.6455 13.336 75.4695 13.7173 75.2495 14.128C75.0295 14.5387 74.7875 14.9493 74.5235 15.36C74.3475 15.6533 74.1789 15.9173 74.0175 16.152H74.1495C74.5895 16.152 75.0589 15.844 75.5575 15.228L75.6895 15.338ZM74.8095 13.622C74.8095 13.3433 74.6849 13.204 74.4355 13.204C73.9515 13.204 73.2255 13.7833 72.2575 14.942C71.3042 16.1007 70.8202 16.9293 70.8055 17.428C70.8055 17.5453 70.8275 17.6407 70.8715 17.714C70.9302 17.758 71.0035 17.78 71.0915 17.78C71.4289 17.78 71.7662 17.692 72.1035 17.516C72.1475 17.4867 72.1915 17.4573 72.2355 17.428C72.5142 17.2227 72.8149 16.9367 73.1375 16.57C73.0642 16.482 73.0275 16.372 73.0275 16.24C73.0275 16.0933 73.0495 15.9467 73.0935 15.8C73.1522 15.6533 73.2255 15.5213 73.3135 15.404C73.4015 15.2867 73.4969 15.1913 73.5995 15.118C73.7022 15.03 73.8122 14.986 73.9295 14.986C73.9882 14.986 74.0689 15.0153 74.1715 15.074C74.2302 14.986 74.2962 14.8907 74.3695 14.788C74.6629 14.2893 74.8095 13.9007 74.8095 13.622ZM75.0955 13.622C75.2422 13.3287 75.3669 13.0353 75.4695 12.742C75.5869 12.4487 75.6529 12.17 75.6675 11.906C75.6822 11.7887 75.6455 11.686 75.5575 11.598C75.4695 11.51 75.3669 11.466 75.2495 11.466C75.1469 11.466 75.0442 11.488 74.9415 11.532C74.8389 11.576 74.7215 11.6567 74.5895 11.774C74.4575 11.8767 74.2962 12.0233 74.1055 12.214C73.9295 12.4047 73.7169 12.6467 73.4675 12.94C73.3062 13.116 73.1522 13.292 73.0055 13.468C73.5042 13.1747 73.9882 13.028 74.4575 13.028C74.8242 13.028 75.0075 13.2333 75.0075 13.644C75.0075 13.7027 75.0002 13.7613 74.9855 13.82C75.0295 13.7613 75.0662 13.6953 75.0955 13.622Z" fill="url(#paint0_linear)"/>
</g>
<defs>
<filter id="filter0_d" x="0.985352" y="0.12793" width="82.2542" height="30.61" filterUnits="userSpaceOnUse" color-interpolation-filters="sRGB">
<feFlood flood-opacity="0" result="BackgroundImageFix"/>
<feColorMatrix in="SourceAlpha" type="matrix" values="0 0 0 0 0 0 0 0 0 0 0 0 0 0 0 0 0 0 127 0"/>
<feOffset dy="4"/>
<feGaussianBlur stdDeviation="3.5"/>
<feColorMatrix type="matrix" values="0 0 0 0 0 0 0 0 0 0 0 0 0 0 0 0 0 0 0.62 0"/>
<feBlend mode="normal" in2="BackgroundImageFix" result="effect1_dropShadow"/>
<feBlend mode="normal" in="SourceGraphic" in2="effect1_dropShadow" result="shape"/>
</filter>
<linearGradient id="paint0_linear" x1="42" y1="34.25" x2="42" y2="3.5" gradientUnits="userSpaceOnUse">
<stop stop-color="#A27227"/>
<stop offset="0.0485093" stop-color="#FEDA5B"/>
<stop offset="0.122132" stop-color="#FEDA5B"/>
<stop offset="0.22188" stop-color="#CD953D"/>
<stop offset="0.347751" stop-color="#C99C39"/>
<stop offset="0.421875" stop-color="#FEDA5B"/>
<stop offset="0.601869" stop-color="#EDC84C"/>
<stop offset="0.753865" stop-color="#A27227"/>
<stop offset="1" stop-color="#EDC84C"/>
</linearGradient>
</defs>
</svg>
