<svg width="96" height="37" viewBox="0 0 96 37" fill="none" xmlns="http://www.w3.org/2000/svg">
<g filter="url(#filter0_d)">
<path d="M16.248 13.458C14.8107 15.2327 13.784 16.12 13.168 16.12H13.146C13.058 16.3107 13.0213 16.4573 13.036 16.56C13.036 16.7213 13.124 16.802 13.3 16.802C13.564 16.802 13.9527 16.582 14.466 16.142C14.9793 15.702 15.61 14.976 16.358 13.964C16.4607 13.8173 16.5413 13.7807 16.6 13.854C16.6733 13.9127 16.666 14.0007 16.578 14.118L15.698 15.24C15.1847 15.9 14.7153 16.3693 14.29 16.648C13.8793 16.9267 13.52 17.066 13.212 17.066C12.9333 17.066 12.6987 16.9707 12.508 16.78C12.332 16.5893 12.2293 16.3473 12.2 16.054C12.2 15.9513 12.2073 15.8413 12.222 15.724C12.2513 15.592 12.31 15.4233 12.398 15.218C12.5007 14.998 12.6473 14.7267 12.838 14.404C12.9847 14.1547 13.168 13.8613 13.388 13.524H11.87C11.6207 13.8907 11.3127 14.3087 10.946 14.778C10.6967 15.1153 10.4547 15.4307 10.22 15.724L9.472 16.912L9.45 16.978C9.43533 16.9927 9.39867 17 9.34 17L8.086 17.022C7.998 17.022 7.94667 17 7.932 16.956C7.932 16.9267 7.96133 16.8827 8.02 16.824L11.32 11.742C10.9387 12.0793 10.7113 12.248 10.638 12.248C10.5793 12.2333 10.6527 12.116 10.858 11.896C11.1367 11.6027 11.386 11.3973 11.606 11.28L12.244 10.29C12.288 10.202 12.354 10.158 12.442 10.158L13.63 10.136C13.6447 10.136 13.6593 10.1507 13.674 10.18C13.6887 10.2093 13.696 10.2313 13.696 10.246L12.552 12.05C12.5227 12.2847 12.4567 12.512 12.354 12.732L13.916 12.754C14.136 12.4167 14.3853 12.05 14.664 11.654C14.9573 11.2433 15.2873 10.7813 15.654 10.268C15.7127 10.18 15.786 10.136 15.874 10.136L17.062 10.114C17.0913 10.114 17.106 10.1287 17.106 10.158C17.106 10.2313 17.018 10.3853 16.842 10.62L13.542 15.482C13.41 15.658 13.3 15.8193 13.212 15.966C13.784 15.966 14.752 15.0933 16.116 13.348L16.248 13.458ZM13.674 13.128L12.134 13.106C12.0753 13.1793 12.0167 13.2673 11.958 13.37H13.498C13.5567 13.2967 13.6153 13.216 13.674 13.128ZM20.8879 13.81C20.8879 13.854 20.8073 14.008 20.6459 14.272C20.4993 14.536 20.2499 14.844 19.8979 15.196C19.2819 15.8267 18.6806 16.2887 18.0939 16.582C17.8299 16.6993 17.5806 16.7947 17.3459 16.868C17.1553 16.956 16.9719 17 16.7959 17H16.7079H16.5759C16.1799 17 15.8499 16.8387 15.5859 16.516C15.3219 16.1787 15.1899 15.7607 15.1899 15.262C15.1899 13.986 15.8793 12.8127 17.2579 11.742C17.5219 11.522 17.8006 11.324 18.0939 11.148C18.3873 10.9573 18.6733 10.796 18.9519 10.664C19.2306 10.5173 19.4873 10.4073 19.7219 10.334C19.9566 10.246 20.1546 10.202 20.3159 10.202C20.5799 10.202 20.7926 10.2827 20.9539 10.444C21.1153 10.5907 21.1959 10.7887 21.1959 11.038C21.1959 11.3313 21.0713 11.6467 20.8219 11.984C20.5726 12.3067 20.2573 12.5707 19.8759 12.776C19.5826 12.9373 19.2526 13.0767 18.8859 13.194C18.3873 13.5167 17.7493 13.854 16.9719 14.206C16.3999 15.0273 16.1139 15.6433 16.1139 16.054C16.1139 16.3033 16.1653 16.494 16.2679 16.626C16.3853 16.6993 16.5173 16.736 16.6639 16.736C16.8693 16.736 17.1406 16.6627 17.4779 16.516C17.5953 16.472 17.7126 16.4207 17.8299 16.362C18.4606 15.878 19.2159 15.02 20.0959 13.788L20.2499 13.92C19.6633 14.7267 19.1279 15.3793 18.6439 15.878C19.0253 15.614 19.3993 15.306 19.7659 14.954C20.1619 14.5727 20.5066 14.162 20.7999 13.722C20.8293 13.6927 20.8513 13.6927 20.8659 13.722C20.8806 13.7367 20.8879 13.7587 20.8879 13.788V13.81ZM20.0519 11.676C20.0519 11.5147 19.9639 11.434 19.7879 11.434C19.5093 11.434 19.0546 11.7493 18.4239 12.38C18.1306 12.688 17.8666 12.9813 17.6319 13.26C17.8666 13.2013 18.1086 13.1133 18.3579 12.996C18.7393 12.8053 19.0913 12.5853 19.4139 12.336C19.6486 12.1453 19.8613 11.94 20.0519 11.72V11.676ZM20.5359 10.752C20.5359 10.5467 20.4333 10.444 20.2279 10.444C19.8906 10.444 19.4579 10.7007 18.9299 11.214C18.7833 11.3753 18.6293 11.544 18.4679 11.72C18.9519 11.4267 19.3993 11.28 19.8099 11.28C20.0299 11.28 20.1693 11.3533 20.2279 11.5C20.4333 11.2213 20.5359 10.972 20.5359 10.752ZM17.4119 13.546C17.3093 13.678 17.2139 13.81 17.1259 13.942C17.4926 13.7513 17.8299 13.5753 18.1379 13.414C17.9033 13.458 17.6613 13.502 17.4119 13.546ZM22.1902 18.034C21.8382 18.65 21.5156 19.1927 21.2222 19.662C20.9289 20.1313 20.6429 20.5567 20.3642 20.938C20.0856 21.3193 19.8142 21.664 19.5502 21.972C19.2862 22.28 19.0002 22.5733 18.6922 22.852C17.9882 23.5413 17.2696 24.0693 16.5362 24.436C15.7882 24.8173 15.1062 25.008 14.4902 25.008C14.1089 25.008 13.7862 24.854 13.5222 24.546C13.2436 24.2527 13.1042 23.8933 13.1042 23.468C13.1042 23.0427 13.2069 22.61 13.4122 22.17C13.6029 21.7447 13.8889 21.3267 14.2702 20.916C14.6369 20.5053 15.0916 20.1167 15.6342 19.75C16.1622 19.3833 16.7562 19.0533 17.4162 18.76C17.6656 18.6573 17.9149 18.5547 18.1642 18.452C18.4136 18.364 18.6849 18.276 18.9782 18.188C19.2569 18.1 19.5649 18.012 19.9022 17.924C20.2396 17.8507 20.6209 17.7627 21.0462 17.66C21.1489 17.484 21.2442 17.3227 21.3322 17.176C21.4349 17.0293 21.5376 16.8753 21.6402 16.714C21.7136 16.5967 21.7942 16.472 21.8822 16.34C21.3396 16.78 20.9362 17 20.6722 17C20.4962 17 20.3569 16.956 20.2542 16.868C20.0049 16.8533 19.7996 16.736 19.6382 16.516C19.4476 16.2667 19.3522 15.9587 19.3522 15.592C19.3522 14.2867 20.1589 12.996 21.7722 11.72C22.3296 11.2653 22.9089 10.906 23.5102 10.642C24.1116 10.3633 24.6249 10.224 25.0502 10.224C25.4756 10.224 25.7102 10.466 25.7542 10.95C25.7982 10.8767 25.8422 10.818 25.8862 10.774C25.9302 10.7153 25.9742 10.6567 26.0182 10.598C26.1356 10.466 26.2162 10.378 26.2602 10.334C26.3189 10.29 26.3922 10.268 26.4802 10.268L27.5362 10.202C27.6096 10.202 27.6462 10.224 27.6462 10.268C27.6462 10.2973 27.6389 10.3193 27.6242 10.334L25.2042 13.458C24.9549 13.7807 24.7202 14.096 24.5002 14.404C24.2949 14.6973 24.0896 14.998 23.8842 15.306C23.6789 15.614 23.4662 15.9367 23.2462 16.274C23.0409 16.6113 22.8136 16.9853 22.5642 17.396C22.7549 17.3667 22.9016 17.352 23.0042 17.352H23.3562C24.0309 17.352 24.3682 17.418 24.3682 17.55C24.3682 17.6087 24.3169 17.638 24.2142 17.638H24.1262C24.0089 17.6233 23.8989 17.616 23.7962 17.616H23.5102C23.3342 17.616 23.1656 17.6233 23.0042 17.638C22.8429 17.6527 22.6376 17.6747 22.3882 17.704L22.1902 18.034ZM16.2942 20.256C15.9129 20.564 15.5609 20.8793 15.2382 21.202C14.9156 21.5393 14.6442 21.8693 14.4242 22.192C14.1896 22.5293 14.0062 22.8447 13.8742 23.138C13.7422 23.4313 13.6762 23.6953 13.6762 23.93C13.6762 24.1647 13.7569 24.3553 13.9182 24.502C14.0796 24.6633 14.2849 24.744 14.5342 24.744C15.0769 24.744 15.6122 24.5533 16.1402 24.172C16.6682 23.7907 17.2916 23.1527 18.0102 22.258C17.8636 22.302 17.7316 22.324 17.6142 22.324C17.2182 22.324 17.0202 22.126 17.0202 21.73C17.0202 21.158 17.4529 20.4467 18.3182 19.596C18.7876 19.1413 19.3229 18.7233 19.9242 18.342C18.4869 18.826 17.2769 19.464 16.2942 20.256ZM20.4742 16.604C20.6062 16.604 20.7382 16.5747 20.8702 16.516C21.0022 16.4573 21.1562 16.3547 21.3322 16.208C21.5229 16.0467 21.7502 15.8267 22.0142 15.548C22.2782 15.2693 22.6082 14.9173 23.0042 14.492C23.1949 14.2867 23.4222 14.0153 23.6862 13.678C23.9502 13.326 24.2289 12.9593 24.5222 12.578L24.5882 12.49C24.5589 12.2847 24.4196 12.182 24.1702 12.182C23.6569 12.182 22.8942 12.7613 21.8822 13.92C20.8702 15.064 20.3642 15.9293 20.3642 16.516C20.3642 16.5453 20.3642 16.5673 20.3642 16.582C20.3936 16.5967 20.4302 16.604 20.4742 16.604ZM20.8042 18.056C20.7749 18.0707 20.7456 18.078 20.7162 18.078C19.8656 18.5473 19.1176 19.112 18.4722 19.772C17.6656 20.5933 17.2622 21.2607 17.2622 21.774C17.2622 22.0087 17.3796 22.126 17.6142 22.126C17.8196 22.126 18.0616 22.0233 18.3402 21.818C19.2202 20.6593 20.0416 19.4053 20.8042 18.056ZM25.0942 10.51C24.8889 10.4953 24.6249 10.598 24.3022 10.818C23.9796 11.0233 23.6349 11.302 23.2682 11.654C22.9456 11.962 22.6082 12.314 22.2562 12.71C22.9309 12.27 23.5836 12.05 24.2142 12.05C24.4489 12.05 24.6029 12.1527 24.6762 12.358C24.9696 11.9327 25.1676 11.6247 25.2702 11.434C25.4022 11.214 25.4682 11.016 25.4682 10.84C25.4682 10.6493 25.3436 10.5393 25.0942 10.51ZM22.5202 15.438C22.2122 15.7313 21.9556 15.9733 21.7502 16.164C21.5449 16.34 21.3616 16.4867 21.2002 16.604C21.0389 16.7067 20.8922 16.78 20.7602 16.824H20.7382C20.9582 16.824 21.2882 16.6407 21.7282 16.274C21.9189 16.1127 22.1022 15.944 22.2782 15.768C22.3516 15.6653 22.4322 15.5553 22.5202 15.438ZM30.6171 14.36C30.4851 14.5653 30.3238 14.7853 30.1331 15.02C29.9424 15.2547 29.7224 15.504 29.4731 15.768C29.0771 16.1933 28.7178 16.5087 28.3951 16.714C28.1018 16.846 27.8084 16.9413 27.5151 17C27.3684 16.9853 27.2438 16.9193 27.1411 16.802C27.2144 16.7727 27.2951 16.736 27.3831 16.692C27.4418 16.7507 27.5224 16.78 27.6251 16.78C28.0358 16.78 28.5931 16.3473 29.2971 15.482C29.4878 15.262 29.6858 15.02 29.8911 14.756C30.0964 14.4773 30.3164 14.1767 30.5511 13.854C30.5804 13.4873 30.6538 13.1207 30.7711 12.754C30.9031 12.5487 31.0131 12.3507 31.1011 12.16C31.3064 11.7787 31.4458 11.4633 31.5191 11.214C31.5484 11.1553 31.5851 11.0967 31.6291 11.038C31.8051 10.7887 31.9664 10.598 32.1131 10.466C32.1424 10.4807 32.1644 10.5027 32.1791 10.532C32.3844 10.7667 32.4871 11.0307 32.4871 11.324C32.4871 11.94 32.3038 12.5927 31.9371 13.282C31.5851 13.9567 31.1304 14.5727 30.5731 15.13C30.0304 15.6873 29.4291 16.1493 28.7691 16.516C28.6371 16.5893 28.5124 16.6553 28.3951 16.714C28.0871 16.9047 27.8231 17 27.6031 17H27.5151C27.2951 17.044 27.0751 17.066 26.8551 17.066C26.5911 17.066 26.3711 16.956 26.1951 16.736C26.0191 16.516 25.9311 16.2373 25.9311 15.9C25.9311 15.3427 26.1511 14.646 26.5911 13.81C27.0311 12.9593 27.5664 12.0573 28.1971 11.104C28.3438 10.8987 28.5491 10.5687 28.8131 10.114C29.0918 9.65933 29.4071 9.146 29.7591 8.574C30.1258 8.002 30.5218 7.408 30.9471 6.792C31.3724 6.176 31.8124 5.61867 32.2671 5.12C32.7218 4.60667 33.1764 4.18867 33.6311 3.866C34.0858 3.54333 34.5184 3.382 34.9291 3.382C35.5891 3.382 35.9411 3.68267 35.9851 4.284C36.1318 4.43067 36.1978 4.658 36.1831 4.966C36.1098 5.758 35.5378 6.682 34.4671 7.738C33.4404 8.73533 32.2524 9.52733 30.9031 10.114C30.6831 10.3047 30.4704 10.488 30.2651 10.664C30.2504 10.6787 30.2358 10.7007 30.2211 10.73C30.2211 10.7447 30.2138 10.7593 30.1991 10.774C30.3311 10.6713 30.4558 10.5833 30.5731 10.51C30.9104 10.29 31.2258 10.18 31.5191 10.18C31.7391 10.18 31.9371 10.2753 32.1131 10.466C32.3331 10.2753 32.5311 10.18 32.7071 10.18C32.8684 10.18 32.9491 10.2753 32.9491 10.466C32.9491 10.7007 32.8684 10.9793 32.7071 11.302C32.2671 12.1527 31.5704 13.172 30.6171 14.36ZM31.2331 10.532H31.1891C30.9544 10.532 30.6758 10.6567 30.3531 10.906C30.1918 11.038 30.0231 11.1847 29.8471 11.346C29.8178 11.4047 29.7811 11.4707 29.7371 11.544C29.5464 11.852 29.3411 12.182 29.1211 12.534C28.9011 12.886 28.6884 13.2233 28.4831 13.546C28.1458 14.118 27.8598 14.6533 27.6251 15.152C27.3904 15.6507 27.2731 16.0173 27.2731 16.252C27.2731 16.472 27.3098 16.6187 27.3831 16.692C28.0138 16.384 28.8131 15.5553 29.7811 14.206C30.1771 13.6633 30.5071 13.1793 30.7711 12.754C30.9324 12.226 31.1818 11.7127 31.5191 11.214C31.5484 11.0967 31.5631 10.9867 31.5631 10.884C31.5631 10.6787 31.4531 10.5613 31.2331 10.532ZM32.2011 8.552C32.9344 7.90667 33.5431 7.33467 34.0271 6.836C34.5258 6.32267 34.8998 5.86067 35.1491 5.45C35.3691 5.08333 35.4938 4.724 35.5231 4.372C35.2004 4.34267 34.7751 4.55533 34.2471 5.01C33.9391 5.28867 33.4918 5.83867 32.9051 6.66C32.3624 7.43733 31.6951 8.442 30.9031 9.674C31.3724 9.26333 31.8051 8.88933 32.2011 8.552ZM35.3691 3.844C35.2811 3.712 35.1638 3.646 35.0171 3.646C34.5624 3.646 34.1224 3.83667 33.6971 4.218C33.2864 4.59933 32.8978 5.06867 32.5311 5.626C32.1644 6.16867 31.8198 6.748 31.4971 7.364L31.1891 8.002L31.3651 7.738C32.1424 6.60867 32.9124 5.714 33.6751 5.054C34.4231 4.40867 35.0318 4.086 35.5011 4.086C35.4718 4.01267 35.4278 3.932 35.3691 3.844ZM35.3031 6.022C34.8338 6.594 34.2544 7.19533 33.5651 7.826C32.9638 8.36867 32.3258 8.926 31.6511 9.498C32.0031 9.30733 32.3404 9.102 32.6631 8.882C33.2498 8.47133 33.7924 8.00933 34.2911 7.496C35.1858 6.58667 35.7064 5.802 35.8531 5.142C35.7358 5.42067 35.5524 5.714 35.3031 6.022ZM26.7451 15.724C26.5838 16.076 26.5031 16.3327 26.5031 16.494C26.5031 16.7287 26.6204 16.846 26.8551 16.846C26.9431 16.846 27.0384 16.8313 27.1411 16.802C26.9944 16.626 26.9211 16.318 26.9211 15.878C26.9211 15.6873 26.9358 15.482 26.9651 15.262C26.8918 15.4233 26.8184 15.5773 26.7451 15.724ZM38.0858 13.964C37.0444 15.4893 36.1938 16.252 35.5338 16.252C35.4604 16.252 35.4018 16.2447 35.3578 16.23C35.2991 16.3767 35.2698 16.4793 35.2698 16.538C35.2698 16.7287 35.3504 16.802 35.5118 16.758C35.7171 16.6993 35.9738 16.5307 36.2818 16.252C36.6044 15.9733 36.9124 15.68 37.2058 15.372C37.4991 15.064 37.7558 14.7927 37.9758 14.558C38.1958 14.3087 38.3204 14.184 38.3498 14.184C38.4231 14.184 38.4598 14.2133 38.4598 14.272C38.4598 14.3013 38.4231 14.3673 38.3498 14.47C38.2764 14.558 38.1811 14.6753 38.0638 14.822C37.9464 14.954 37.8071 15.1007 37.6458 15.262C37.4991 15.4233 37.3378 15.592 37.1618 15.768C36.7951 16.1787 36.4651 16.494 36.1718 16.714C35.8784 16.9193 35.5998 17.022 35.3358 17.022C35.1011 17.022 34.9031 16.9487 34.7418 16.802C34.5951 16.6553 34.5218 16.4647 34.5218 16.23C34.5218 16.0393 34.5511 15.8487 34.6098 15.658C34.6538 15.526 34.7344 15.35 34.8518 15.13C34.8518 15.086 34.8518 15.042 34.8518 14.998L33.9058 16.054C33.5978 16.3913 33.3264 16.6333 33.0918 16.78C32.8718 16.9267 32.6444 17 32.4098 17C32.1311 17 31.9111 16.89 31.7497 16.67C31.5884 16.45 31.5077 16.1567 31.5077 15.79C31.5077 15.086 32.0064 14.1033 33.0038 12.842L33.5538 12.138L32.8718 12.49L34.7418 10.642C34.8591 10.4807 34.9398 10.3927 34.9838 10.378C35.0424 10.3487 35.1451 10.3267 35.2918 10.312L36.1938 10.268C36.2964 10.268 36.3478 10.2973 36.3478 10.356C36.3478 10.3707 36.3184 10.4293 36.2598 10.532L34.4778 12.93C34.4631 13.238 34.3238 13.546 34.0598 13.854C33.6931 14.2793 33.3558 14.6973 33.0478 15.108C32.9158 15.2253 32.8131 15.3353 32.7398 15.438L32.6738 15.57C32.6444 15.614 32.6224 15.6507 32.6078 15.68C32.5931 15.7387 32.5931 15.7973 32.6078 15.856C32.6811 16.032 32.8204 16.12 33.0258 16.12C33.3044 16.12 33.6491 15.922 34.0598 15.526C34.1478 15.4233 34.2284 15.328 34.3018 15.24C34.4484 15.064 34.5804 14.91 34.6978 14.778C34.7418 14.734 34.7784 14.6973 34.8078 14.668C34.9398 14.492 35.0718 14.3087 35.2038 14.118L36.5018 12.314L37.6678 10.686L37.8218 10.466C37.8658 10.3927 37.9024 10.3487 37.9318 10.334C37.9758 10.3193 38.0491 10.312 38.1517 10.312L39.0318 10.268C39.1198 10.268 39.1638 10.3047 39.1638 10.378C39.1638 10.4073 39.1564 10.4293 39.1418 10.444L36.4798 14.338C36.1131 14.8513 35.8198 15.3133 35.5998 15.724C35.5118 15.8707 35.4458 16.0027 35.4018 16.12C35.4311 16.12 35.4751 16.12 35.5338 16.12C36.1204 16.12 36.9051 15.372 37.8878 13.876L38.0858 13.964ZM32.3658 16.45C32.3658 16.6113 32.4538 16.692 32.6298 16.692C32.7911 16.692 33.0771 16.516 33.4878 16.164C33.3411 16.2227 33.1944 16.252 33.0478 16.252C32.7838 16.252 32.5931 16.1567 32.4758 15.966C32.4024 16.1713 32.3658 16.3327 32.3658 16.45ZM36.9254 14.602C37.1161 14.3087 37.3434 13.9933 37.6074 13.656C37.8861 13.3187 38.1794 12.9813 38.4874 12.644C38.8101 12.3067 39.1401 11.984 39.4774 11.676C39.8294 11.368 40.1594 11.104 40.4674 10.884C40.7901 10.6493 41.0908 10.466 41.3694 10.334C41.6628 10.202 41.9121 10.1433 42.1174 10.158C42.4694 10.1873 42.7628 10.378 42.9974 10.73C43.2468 11.0673 43.3568 11.5 43.3274 12.028C43.3128 12.2627 43.2688 12.4753 43.1954 12.666C43.1661 12.754 43.1294 12.8567 43.0854 12.974C43.0854 13.0327 43.0928 13.0987 43.1074 13.172C43.1808 13.128 43.2541 13.0767 43.3274 13.018C43.4888 12.9007 43.6574 12.7613 43.8334 12.6C44.0094 12.424 44.1928 12.2113 44.3834 11.962C44.5741 11.7127 44.7794 11.412 44.9994 11.06L45.9454 10.928L45.3074 12.138H45.4834C45.6888 12.138 45.8501 12.116 45.9674 12.072C45.7474 12.3653 45.5641 12.6147 45.4174 12.82C45.2708 13.0107 45.1314 13.2013 44.9994 13.392C44.8674 13.5827 44.7354 13.7807 44.6034 13.986C44.4714 14.1767 44.3101 14.4187 44.1194 14.712L43.9874 14.888L45.2414 13.898C45.3588 13.6487 45.4981 13.4067 45.6594 13.172C45.8208 12.9227 46.0261 12.6587 46.2754 12.38C46.5394 12.072 46.8328 11.7787 47.1554 11.5C47.4781 11.2213 47.8008 10.9793 48.1234 10.774C48.4608 10.5687 48.7834 10.4073 49.0914 10.29C49.3994 10.1727 49.6708 10.114 49.9054 10.114C50.1108 10.114 50.2721 10.202 50.3894 10.378C50.5068 10.5393 50.5581 10.7373 50.5434 10.972C50.5288 11.192 50.4774 11.412 50.3894 11.632C50.3161 11.852 50.2134 12.05 50.0814 12.226C49.9641 12.3873 49.8321 12.5193 49.6854 12.622C49.5388 12.7247 49.3921 12.776 49.2454 12.776C49.1574 12.776 49.0841 12.7613 49.0254 12.732C48.9814 12.9227 48.8934 13.0987 48.7614 13.26C48.5708 13.4947 48.3728 13.612 48.1674 13.612C47.9181 13.612 47.7934 13.4947 47.7934 13.26C47.7934 13.04 47.9548 12.842 48.2774 12.666C48.6001 12.49 48.7614 12.3653 48.7614 12.292C48.7614 12.1893 48.6808 12.138 48.5194 12.138C48.1821 12.138 47.7861 12.3433 47.3314 12.754C46.9354 13.282 46.6128 13.832 46.3634 14.404C46.0701 15.0493 45.9088 15.5847 45.8794 16.01C45.8648 16.2447 45.9601 16.428 46.1654 16.56C46.2388 16.6187 46.3268 16.6553 46.4294 16.67C46.7521 16.5233 47.1481 16.208 47.6174 15.724C48.0134 15.328 48.4534 14.8073 48.9374 14.162L49.0694 14.272C48.6441 14.8293 48.2554 15.2913 47.9034 15.658C47.4634 16.1273 47.0674 16.4647 46.7154 16.67C46.8034 16.67 46.8988 16.6553 47.0014 16.626C47.3534 16.5233 47.7568 16.2813 48.2114 15.9C48.6808 15.504 49.1648 14.8953 49.6634 14.074C49.7221 13.986 49.7808 13.942 49.8394 13.942C49.9128 13.942 49.9421 13.9713 49.9274 14.03C49.7074 14.4847 49.4434 14.9027 49.1354 15.284C48.8421 15.6653 48.5268 15.988 48.1894 16.252C47.8521 16.516 47.5074 16.7213 47.1554 16.868C46.8181 17 46.4954 17.0513 46.1874 17.022C46.0554 17.0073 45.9308 16.978 45.8134 16.934C45.1241 16.89 44.7794 16.4573 44.7794 15.636C44.7794 15.4013 44.8088 15.1667 44.8674 14.932C44.4128 15.284 43.9434 15.6653 43.4594 16.076C43.3128 16.3107 43.1661 16.5747 43.0194 16.868L41.8974 17.022L41.9854 16.824C41.8681 16.8387 41.7728 16.8607 41.6994 16.89C41.9194 16.5967 42.1028 16.3547 42.2494 16.164C42.3668 16.0027 42.4768 15.8487 42.5794 15.702L43.6574 13.634C43.4228 13.81 43.1954 13.9713 42.9754 14.118C43.0048 14.206 42.9901 14.25 42.9314 14.25C42.7114 14.822 42.3008 15.3647 41.6994 15.878C40.8488 16.5967 40.0714 16.956 39.3674 16.956C39.2648 16.956 39.1768 16.9487 39.1034 16.934C38.8248 17.022 38.5828 17.066 38.3774 17.066C38.1721 17.066 38.0108 16.9853 37.8934 16.824C37.7908 16.648 37.7468 16.4427 37.7614 16.208C37.7614 15.988 37.7981 15.768 37.8714 15.548C37.9594 15.328 38.0621 15.1373 38.1794 14.976C38.3114 14.8 38.4508 14.6607 38.5974 14.558C38.7294 14.47 38.8688 14.4187 39.0154 14.404C39.3674 13.964 39.6901 13.59 39.9834 13.282C40.7901 12.4313 41.4428 12.006 41.9414 12.006C42.0441 12.006 42.1394 12.0133 42.2274 12.028L42.2494 11.94C42.3374 11.6613 42.3668 11.4193 42.3374 11.214C42.2934 10.818 42.1101 10.62 41.7874 10.62C41.4794 10.6053 41.0908 10.7593 40.6214 11.082C40.1521 11.39 39.6168 11.852 39.0154 12.468C38.4141 13.084 37.8054 13.8173 37.1894 14.668L36.9254 14.602ZM39.4114 14.822C39.4114 14.9393 39.3968 15.042 39.3674 15.13C39.3381 15.2033 39.2868 15.2913 39.2134 15.394C39.1401 15.482 39.0374 15.592 38.9054 15.724C38.7881 15.856 38.6194 16.0247 38.3994 16.23C38.2674 16.3473 38.1868 16.4647 38.1574 16.582C38.1574 16.758 38.2454 16.846 38.4214 16.846C38.5534 16.846 38.7001 16.7947 38.8614 16.692C38.8468 16.6187 38.8394 16.538 38.8394 16.45C38.8394 16.1713 38.9348 15.9147 39.1254 15.68C39.3161 15.4453 39.5141 15.328 39.7194 15.328C39.8954 15.328 40.0128 15.394 40.0714 15.526C40.2768 15.262 40.4968 14.9687 40.7314 14.646C40.9661 14.3527 41.1861 14.052 41.3914 13.744C41.5968 13.4213 41.7728 13.1133 41.9194 12.82C42.0221 12.6147 42.1028 12.4093 42.1614 12.204C42.0881 12.1747 42.0001 12.16 41.8974 12.16C41.5014 12.16 40.9588 12.512 40.2694 13.216C39.9468 13.5387 39.5948 13.9493 39.2134 14.448C39.3454 14.492 39.4114 14.6167 39.4114 14.822ZM48.9154 12.072C48.9448 11.984 48.9961 11.896 49.0694 11.808C49.1428 11.7053 49.2381 11.588 49.3554 11.456C49.4874 11.324 49.6634 11.1553 49.8834 10.95C50.0154 10.8327 50.0961 10.7153 50.1254 10.598C50.1254 10.422 50.0374 10.334 49.8614 10.334C49.6121 10.334 49.2748 10.532 48.8494 10.928C48.5268 11.236 48.1894 11.6247 47.8374 12.094C48.0721 12.0207 48.2994 11.984 48.5194 11.984C48.6808 11.984 48.8054 12.0207 48.8934 12.094L48.9154 12.072ZM44.1414 12.71L44.0974 12.666C43.8774 12.886 43.6501 13.0987 43.4154 13.304C43.3128 13.4067 43.2028 13.502 43.0854 13.59C43.0708 13.678 43.0561 13.7733 43.0414 13.876C43.3054 13.6707 43.5914 13.436 43.8994 13.172L44.1414 12.71ZM45.1094 14.338C44.8454 14.4993 44.5301 14.7707 44.1634 15.152C44.0608 15.24 43.9581 15.35 43.8554 15.482C44.2221 15.1887 44.5961 14.91 44.9774 14.646C44.9921 14.6167 44.9994 14.5947 44.9994 14.58C44.9848 14.5213 44.9994 14.492 45.0434 14.492L45.1094 14.36V14.338ZM40.1374 16.406C39.8881 16.5673 39.6461 16.6993 39.4114 16.802C39.7781 16.7727 40.2254 16.5013 40.7534 15.988C40.5481 16.1493 40.3428 16.2887 40.1374 16.406ZM42.5794 14.206C42.6088 14.1767 42.6454 14.1547 42.6894 14.14C42.6308 14.1107 42.5868 14.096 42.5574 14.096C42.5428 14.096 42.5501 14.1327 42.5794 14.206ZM54.8865 13.964C53.8452 15.4893 52.9945 16.252 52.3345 16.252C52.2612 16.252 52.2025 16.2447 52.1585 16.23C52.0999 16.3767 52.0705 16.4793 52.0705 16.538C52.0705 16.7287 52.1512 16.802 52.3125 16.758C52.5179 16.6993 52.7745 16.5307 53.0825 16.252C53.4052 15.9733 53.7132 15.68 54.0065 15.372C54.2999 15.064 54.5565 14.7927 54.7765 14.558C54.9965 14.3087 55.1212 14.184 55.1505 14.184C55.2239 14.184 55.2605 14.2133 55.2605 14.272C55.2605 14.3013 55.2239 14.3673 55.1505 14.47C55.0772 14.558 54.9819 14.6753 54.8645 14.822C54.7472 14.954 54.6079 15.1007 54.4465 15.262C54.2999 15.4233 54.1385 15.592 53.9625 15.768C53.5959 16.1787 53.2659 16.494 52.9725 16.714C52.6792 16.9193 52.4005 17.022 52.1365 17.022C51.9019 17.022 51.7039 16.9487 51.5425 16.802C51.3959 16.6553 51.3225 16.4647 51.3225 16.23C51.3225 16.0393 51.3519 15.8487 51.4105 15.658C51.4545 15.526 51.5352 15.35 51.6525 15.13C51.6525 15.086 51.6525 15.042 51.6525 14.998L50.7065 16.054C50.3985 16.3913 50.1272 16.6333 49.8925 16.78C49.6725 16.9267 49.4452 17 49.2105 17C48.9319 17 48.7119 16.89 48.5505 16.67C48.3892 16.45 48.3085 16.1567 48.3085 15.79C48.3085 15.086 48.8072 14.1033 49.8045 12.842L50.3545 12.138L49.6725 12.49L51.5425 10.642C51.6599 10.4807 51.7405 10.3927 51.7845 10.378C51.8432 10.3487 51.9459 10.3267 52.0925 10.312L52.9945 10.268C53.0972 10.268 53.1485 10.2973 53.1485 10.356C53.1485 10.3707 53.1192 10.4293 53.0605 10.532L51.2785 12.93C51.2639 13.238 51.1245 13.546 50.8605 13.854C50.4939 14.2793 50.1565 14.6973 49.8485 15.108C49.7165 15.2253 49.6139 15.3353 49.5405 15.438L49.4745 15.57C49.4452 15.614 49.4232 15.6507 49.4085 15.68C49.3939 15.7387 49.3939 15.7973 49.4085 15.856C49.4819 16.032 49.6212 16.12 49.8265 16.12C50.1052 16.12 50.4499 15.922 50.8605 15.526C50.9485 15.4233 51.0292 15.328 51.1025 15.24C51.2492 15.064 51.3812 14.91 51.4985 14.778C51.5425 14.734 51.5792 14.6973 51.6085 14.668C51.7405 14.492 51.8725 14.3087 52.0045 14.118L53.3025 12.314L54.4685 10.686L54.6225 10.466C54.6665 10.3927 54.7032 10.3487 54.7325 10.334C54.7765 10.3193 54.8499 10.312 54.9525 10.312L55.8325 10.268C55.9205 10.268 55.9645 10.3047 55.9645 10.378C55.9645 10.4073 55.9572 10.4293 55.9425 10.444L53.2805 14.338C52.9139 14.8513 52.6205 15.3133 52.4005 15.724C52.3125 15.8707 52.2465 16.0027 52.2025 16.12C52.2319 16.12 52.2759 16.12 52.3345 16.12C52.9212 16.12 53.7059 15.372 54.6885 13.876L54.8865 13.964ZM49.1665 16.45C49.1665 16.6113 49.2545 16.692 49.4305 16.692C49.5919 16.692 49.8779 16.516 50.2885 16.164C50.1419 16.2227 49.9952 16.252 49.8485 16.252C49.5845 16.252 49.3939 16.1567 49.2765 15.966C49.2032 16.1713 49.1665 16.3327 49.1665 16.45ZM65.3422 10.114C65.3715 10.114 65.3862 10.1287 65.3862 10.158C65.3862 10.202 65.2982 10.356 65.1222 10.62L63.6042 12.798C62.8562 13.8687 62.2842 14.7193 61.8882 15.35C61.5655 15.8633 61.3749 16.2373 61.3162 16.472C61.8882 16.0467 62.6362 15.3133 63.5602 14.272L63.6922 14.382C62.7095 15.4527 61.9175 16.2007 61.3162 16.626C61.3162 16.7873 61.4115 16.868 61.6022 16.868C61.7489 16.868 61.9615 16.758 62.2402 16.538C62.5189 16.3033 62.8122 16.032 63.1202 15.724C63.4282 15.4013 63.7362 15.0787 64.0442 14.756C64.3522 14.4333 64.6162 14.184 64.8362 14.008L64.8582 13.986C64.9169 13.986 64.9462 14.0153 64.9462 14.074V14.096L64.9022 14.184C64.2862 14.8587 63.7875 15.394 63.4062 15.79C63.0249 16.186 62.7095 16.4867 62.4602 16.692C62.2255 16.8827 62.0202 17 61.8442 17.044C61.6682 17.1027 61.4849 17.132 61.2942 17.132C61.0742 17.132 60.8909 17.0733 60.7442 16.956C60.5829 17.0147 60.4435 17.044 60.3262 17.044C59.9889 17.044 59.8422 16.8313 59.8862 16.406C59.9595 15.746 60.3189 15.064 60.9642 14.36L61.3382 13.964C61.5289 13.6707 61.7415 13.3553 61.9762 13.018C61.6975 13.2527 61.4262 13.4947 61.1622 13.744L60.7442 14.14L58.4122 16.956C58.1922 16.9707 58.0162 16.9487 57.8842 16.89C57.7082 16.9927 57.5689 17.044 57.4662 17.044C57.0995 17.044 56.9382 16.8167 56.9822 16.362C57.0262 16.0247 57.1362 15.7313 57.3122 15.482C57.4442 15.2913 57.5909 15.0787 57.7522 14.844L57.7962 14.734C57.8549 14.6167 57.9209 14.4847 57.9942 14.338C57.8035 14.5433 57.6055 14.7413 57.4002 14.932C57.1802 15.1373 56.9895 15.3133 56.8282 15.46C56.7842 15.4893 56.7475 15.526 56.7182 15.57C56.4689 15.9073 56.2122 16.1933 55.9482 16.428C55.7869 16.5747 55.6329 16.7067 55.4862 16.824C55.3542 16.9267 55.1635 16.9927 54.9142 17.022H54.8702H54.8262C54.5915 17.022 54.4155 16.9633 54.2982 16.846C54.1515 16.7433 54.0415 16.626 53.9682 16.494C53.8802 16.3473 53.8289 16.1933 53.8142 16.032C53.7849 15.8707 53.7702 15.7093 53.7702 15.548C53.7702 15.3133 53.8142 15.064 53.9022 14.8C53.9902 14.536 54.1149 14.294 54.2762 14.074C54.4229 13.8393 54.5915 13.6487 54.7822 13.502C54.9729 13.3407 55.1782 13.26 55.3982 13.26C55.6622 13.26 55.8529 13.3407 55.9702 13.502C56.1022 13.6487 56.1755 13.8173 56.1902 14.008C56.2049 14.184 56.1609 14.3527 56.0582 14.514C55.9555 14.6753 55.7942 14.756 55.5742 14.756C55.4569 14.756 55.3689 14.7413 55.3102 14.712L55.2442 14.756C55.0095 14.932 54.8115 15.152 54.6502 15.416C54.4889 15.6653 54.3862 15.9073 54.3422 16.142C54.2982 16.3033 54.2909 16.4427 54.3202 16.56C54.3935 16.6333 54.5109 16.6847 54.6722 16.714C54.7895 16.758 54.9142 16.758 55.0462 16.714C55.1049 16.67 55.1782 16.6187 55.2662 16.56C55.5302 16.34 55.8309 16.076 56.1682 15.768L56.3442 15.614C56.4322 15.482 56.5569 15.3133 56.7182 15.108C56.9382 14.8 57.1875 14.4553 57.4662 14.074C57.7449 13.6927 58.0382 13.2893 58.3462 12.864C58.6542 12.4387 58.9622 12.0427 59.2702 11.676C59.5929 11.2947 59.8935 10.9647 60.1722 10.686C60.4509 10.3927 60.7002 10.1947 60.9202 10.092L62.3722 10.07C62.4015 10.07 62.4162 10.0847 62.4162 10.114C62.4162 10.1727 62.3209 10.3267 62.1302 10.576L60.8982 12.248C61.0155 12.2333 61.1109 12.2113 61.1842 12.182C60.8615 12.5487 60.4949 12.9447 60.0842 13.37C59.5415 14.1327 59.1309 14.7633 58.8522 15.262C58.6175 15.6873 58.4635 16.0173 58.3902 16.252C58.5515 16.0907 58.7202 15.922 58.8962 15.746C59.1015 15.5407 59.3215 15.328 59.5562 15.108L63.7362 10.136L65.3422 10.114ZM58.9622 12.886L60.7662 10.488C60.2235 10.9573 59.7322 11.4707 59.2922 12.028C58.8522 12.5707 58.4415 13.1133 58.0602 13.656C57.8402 13.9787 57.6202 14.2867 57.4002 14.58C57.7522 14.2573 58.0895 13.9493 58.4122 13.656C58.5735 13.4067 58.7569 13.15 58.9622 12.886ZM63.6922 10.576L61.4702 13.282C61.7195 13.0473 61.9615 12.842 62.1962 12.666C62.2109 12.6513 62.2329 12.6367 62.2622 12.622L63.6922 10.576ZM54.3422 14.888C54.1222 15.0347 54.0195 15.3207 54.0342 15.746C54.0342 15.9073 54.0635 16.0833 54.1222 16.274C54.1222 16.1713 54.1369 16.0613 54.1662 15.944C54.2249 15.6507 54.3275 15.3573 54.4742 15.064C54.5329 14.9467 54.5915 14.8367 54.6502 14.734C54.5475 14.778 54.4449 14.8293 54.3422 14.888ZM60.4362 16.164C60.4362 16.0907 60.4435 16.01 60.4582 15.922C60.2382 16.2153 60.1209 16.4353 60.1062 16.582C60.0915 16.7873 60.1869 16.89 60.3922 16.89C60.4655 16.89 60.5535 16.8753 60.6562 16.846C60.5095 16.67 60.4362 16.4427 60.4362 16.164ZM57.6642 16.692C57.5469 16.516 57.4735 16.34 57.4442 16.164C57.4295 16.1787 57.4149 16.1933 57.4002 16.208C57.2975 16.34 57.2389 16.4647 57.2242 16.582C57.2095 16.7873 57.3122 16.89 57.5322 16.89C57.5762 16.89 57.6495 16.8533 57.7522 16.78C57.7229 16.7507 57.6935 16.7213 57.6642 16.692ZM58.3242 16.516V16.56L58.5002 16.362C58.4415 16.4207 58.3829 16.472 58.3242 16.516ZM69.0743 14.338C68.561 14.998 68.033 15.328 67.4903 15.328C67.4463 15.328 67.3876 15.3207 67.3143 15.306L67.2043 15.46H67.3363C67.6003 15.46 67.901 15.3647 68.2383 15.174C68.5756 14.9687 68.9056 14.69 69.2283 14.338C69.3016 14.25 69.3456 14.1987 69.3603 14.184C69.3896 14.1547 69.4263 14.14 69.4703 14.14C69.573 14.14 69.6243 14.184 69.6243 14.272C69.6243 14.3013 69.5583 14.382 69.4263 14.514C69.2943 14.646 69.1403 14.7927 68.9643 14.954C68.3776 15.4967 67.769 15.768 67.1383 15.768H66.9623C66.4783 16.2813 66.0236 16.626 65.5983 16.802C65.173 16.978 64.7476 17.066 64.3223 17.066C64.0143 17.066 63.7503 16.9413 63.5303 16.692C63.3103 16.4427 63.2003 16.142 63.2003 15.79C63.2003 15.2033 63.3836 14.58 63.7503 13.92C64.117 13.2453 64.6523 12.6 65.3563 11.984C65.987 11.412 66.581 10.972 67.1383 10.664C67.7103 10.3413 68.187 10.18 68.5683 10.18C68.803 10.18 68.979 10.2607 69.0963 10.422C69.2283 10.5833 69.309 10.8033 69.3383 11.082C69.353 11.3167 69.2943 11.6173 69.1623 11.984C69.0303 12.336 68.8543 12.7173 68.6343 13.128C68.4143 13.5387 68.1723 13.9493 67.9083 14.36C67.7323 14.6533 67.5636 14.9173 67.4023 15.152H67.5343C67.9743 15.152 68.4436 14.844 68.9423 14.228L69.0743 14.338ZM68.1943 12.622C68.1943 12.3433 68.0696 12.204 67.8203 12.204C67.3363 12.204 66.6103 12.7833 65.6423 13.942C64.689 15.1007 64.205 15.9293 64.1903 16.428C64.1903 16.5453 64.2123 16.6407 64.2563 16.714C64.315 16.758 64.3883 16.78 64.4763 16.78C64.8136 16.78 65.151 16.692 65.4883 16.516C65.5323 16.4867 65.5763 16.4573 65.6203 16.428C65.899 16.2227 66.1996 15.9367 66.5223 15.57C66.449 15.482 66.4123 15.372 66.4123 15.24C66.4123 15.0933 66.4343 14.9467 66.4783 14.8C66.537 14.6533 66.6103 14.5213 66.6983 14.404C66.7863 14.2867 66.8816 14.1913 66.9843 14.118C67.087 14.03 67.197 13.986 67.3143 13.986C67.373 13.986 67.4536 14.0153 67.5563 14.074C67.615 13.986 67.681 13.8907 67.7543 13.788C68.0476 13.2893 68.1943 12.9007 68.1943 12.622ZM68.4803 12.622C68.627 12.3287 68.7516 12.0353 68.8543 11.742C68.9716 11.4487 69.0376 11.17 69.0523 10.906C69.067 10.7887 69.0303 10.686 68.9423 10.598C68.8543 10.51 68.7516 10.466 68.6343 10.466C68.5316 10.466 68.429 10.488 68.3263 10.532C68.2236 10.576 68.1063 10.6567 67.9743 10.774C67.8423 10.8767 67.681 11.0233 67.4903 11.214C67.3143 11.4047 67.1016 11.6467 66.8523 11.94C66.691 12.116 66.537 12.292 66.3903 12.468C66.889 12.1747 67.373 12.028 67.8423 12.028C68.209 12.028 68.3923 12.2333 68.3923 12.644C68.3923 12.7027 68.385 12.7613 68.3703 12.82C68.4143 12.7613 68.451 12.6953 68.4803 12.622ZM73.3342 14.338C72.7476 15.1007 72.2269 15.6947 71.7722 16.12C71.8602 16.0613 71.9556 15.9953 72.0582 15.922C72.5569 15.526 73.0629 14.9247 73.5762 14.118C73.6642 14.03 73.7302 13.986 73.7742 13.986C73.8622 13.986 73.8989 14.0153 73.8842 14.074C73.6642 14.5287 73.3929 14.9467 73.0702 15.328C72.7476 15.6947 72.4029 16.01 72.0362 16.274C71.6842 16.538 71.3176 16.7433 70.9362 16.89C70.5549 17.022 70.1956 17.0733 69.8582 17.044C69.4476 17.0147 69.1029 16.8313 68.8242 16.494C68.5456 16.142 68.4062 15.7093 68.4062 15.196C68.4062 14.3307 68.8536 13.4067 69.7482 12.424C70.0269 12.116 70.3349 11.83 70.6722 11.566C71.0242 11.2873 71.3762 11.0453 71.7282 10.84C72.0802 10.6347 72.4249 10.4733 72.7622 10.356C73.0996 10.2387 73.4002 10.18 73.6642 10.18C73.8696 10.18 74.0456 10.268 74.1922 10.444C74.3389 10.6053 74.4122 10.8033 74.4122 11.038C74.4122 11.258 74.3682 11.478 74.2802 11.698C74.2069 11.9033 74.1042 12.094 73.9722 12.27C73.8549 12.4313 73.7156 12.5633 73.5542 12.666C73.4662 12.7247 73.3782 12.7687 73.2902 12.798C73.2462 12.9887 73.1582 13.1647 73.0262 13.326C72.8356 13.5607 72.6376 13.678 72.4322 13.678C72.1829 13.678 72.0582 13.5607 72.0582 13.326C72.0582 13.106 72.2196 12.908 72.5422 12.732C72.6009 12.7027 72.6522 12.6733 72.6962 12.644C72.6522 12.5707 72.6302 12.49 72.6302 12.402C72.6302 12.3433 72.6302 12.2847 72.6302 12.226C72.1609 12.2993 71.5522 12.7687 70.8042 13.634C69.9976 14.5873 69.5942 15.394 69.5942 16.054C69.5942 16.274 69.6309 16.45 69.7042 16.582H69.7262C69.9756 16.714 70.2982 16.736 70.6942 16.648C70.7969 16.6187 70.9069 16.582 71.0242 16.538C71.5962 16.1567 72.3222 15.3867 73.2022 14.228L73.3342 14.338ZM72.8062 11.852C72.8796 11.7493 72.9822 11.6393 73.1142 11.522C73.2609 11.39 73.4516 11.2213 73.6862 11.016C73.8476 10.884 73.9282 10.7667 73.9282 10.664C73.9282 10.488 73.8256 10.4 73.6202 10.4C73.3562 10.4 72.9749 10.598 72.4762 10.994C71.9922 11.39 71.4936 11.918 70.9802 12.578C70.8922 12.6807 70.8042 12.7907 70.7162 12.908C71.4349 12.3653 72.0876 12.0793 72.6742 12.05C72.7036 11.9913 72.7476 11.9253 72.8062 11.852ZM82.2081 13.37C80.8441 15.1447 79.8248 16.032 79.1501 16.032C79.0768 16.032 79.0108 16.0247 78.9521 16.01L78.9081 16.098C78.8055 16.274 78.7541 16.4133 78.7541 16.516C78.7541 16.5893 78.7615 16.6407 78.7761 16.67C78.7908 16.6993 78.8495 16.714 78.9521 16.714C78.9668 16.714 79.0621 16.6847 79.2381 16.626C79.4141 16.5527 79.6415 16.4207 79.9201 16.23C80.1988 16.0393 80.5288 15.768 80.9101 15.416C81.2915 15.064 81.7021 14.602 82.1421 14.03C82.1715 14.0007 82.2081 14.008 82.2521 14.052C82.2961 14.0813 82.3181 14.1107 82.3181 14.14C82.3181 14.2427 82.1861 14.4627 81.9221 14.8C81.6728 15.1227 81.3575 15.46 80.9761 15.812C80.6095 16.1493 80.2135 16.45 79.7881 16.714C79.3775 16.978 79.0108 17.1027 78.6881 17.088C78.4095 17.0733 78.1895 16.9927 78.0281 16.846C77.8668 16.6847 77.7861 16.4573 77.7861 16.164C77.7861 15.9 77.9108 15.5333 78.1601 15.064C78.4095 14.58 78.7248 14.096 79.1061 13.612L80.4921 11.896C80.6828 11.6907 80.8221 11.4927 80.9101 11.302C80.8661 11.2727 80.8148 11.258 80.7561 11.258C80.1841 11.258 79.4141 11.852 78.4461 13.04C78.1235 13.4213 77.6908 13.964 77.1481 14.668L75.6301 16.934C75.6155 16.9927 75.5715 17.022 75.4981 17.022H74.1781C74.1488 17.022 74.1341 17.0073 74.1341 16.978C74.1341 16.9193 74.1415 16.8827 74.1561 16.868L76.2901 13.7C76.6128 13.216 76.8841 12.8053 77.1041 12.468C77.3241 12.1307 77.5001 11.852 77.6321 11.632C77.7055 11.5 77.7641 11.39 77.8081 11.302C77.3095 11.478 76.6568 12.0573 75.8501 13.04C75.1168 13.9493 74.3321 14.9173 73.4961 15.944C73.4228 15.9147 73.3348 15.8927 73.2321 15.878L72.5061 16.934C72.4621 16.978 72.4108 17 72.3521 17H71.1641C71.0908 17 71.0541 16.978 71.0541 16.934L73.3861 13.282L73.3201 13.37L73.1881 13.26C73.6575 12.688 73.9948 12.27 74.2001 12.006L75.3441 10.224H76.6641L75.9821 11.368C76.0261 11.456 76.0555 11.5513 76.0701 11.654C76.2021 11.5073 76.3268 11.3753 76.4441 11.258C76.7228 10.9793 76.9575 10.7667 77.1481 10.62C77.3535 10.4587 77.5295 10.356 77.6761 10.312C77.8228 10.2533 77.9841 10.224 78.1601 10.224C78.3655 10.224 78.5341 10.3047 78.6661 10.466C78.8128 10.6127 78.8861 10.8033 78.8861 11.038C78.8861 11.214 78.8568 11.39 78.7981 11.566C78.7835 11.654 78.7541 11.7493 78.7101 11.852C78.7101 11.9253 78.7028 11.9987 78.6881 12.072C79.7001 10.84 80.5361 10.224 81.1961 10.224C81.4455 10.224 81.6508 10.312 81.8121 10.488C81.9881 10.6493 82.0761 10.862 82.0761 11.126C82.0761 11.4193 81.9735 11.764 81.7681 12.16C81.5775 12.5413 81.2621 13.018 80.8221 13.59L79.3261 15.482C79.2235 15.6287 79.1281 15.7607 79.0401 15.878C79.0841 15.878 79.1281 15.878 79.1721 15.878C79.7881 15.878 80.7561 15.0053 82.0761 13.26L82.2081 13.37ZM77.9181 11.082C77.9768 10.9353 78.0061 10.8253 78.0061 10.752C78.0061 10.6493 77.9548 10.598 77.8521 10.598C77.7348 10.598 77.5588 10.686 77.3241 10.862C77.0895 11.0233 76.8255 11.2433 76.5321 11.522C76.3708 11.6833 76.2095 11.852 76.0481 12.028C76.0188 12.2773 75.9381 12.5267 75.8061 12.776C76.7008 11.8227 77.3975 11.2727 77.8961 11.126L77.9181 11.082ZM81.0421 10.796C81.0421 10.6493 80.9835 10.576 80.8661 10.576C80.7488 10.576 80.5801 10.6567 80.3601 10.818C80.1401 10.9793 79.8981 11.192 79.6341 11.456C79.3701 11.7053 79.0988 11.9913 78.8201 12.314C78.7468 12.402 78.6735 12.4827 78.6001 12.556C79.4948 11.5733 80.2135 11.082 80.7561 11.082C80.8441 11.082 80.9248 11.0893 80.9981 11.104C81.0275 11.0013 81.0421 10.8987 81.0421 10.796ZM87.285 13.964C86.2436 15.4893 85.393 16.252 84.733 16.252C84.6596 16.252 84.601 16.2447 84.557 16.23C84.4983 16.3767 84.469 16.4793 84.469 16.538C84.469 16.7287 84.5496 16.802 84.711 16.758C84.9163 16.6993 85.173 16.5307 85.481 16.252C85.8036 15.9733 86.1116 15.68 86.405 15.372C86.6983 15.064 86.955 14.7927 87.175 14.558C87.395 14.3087 87.5196 14.184 87.549 14.184C87.6223 14.184 87.659 14.2133 87.659 14.272C87.659 14.3013 87.6223 14.3673 87.549 14.47C87.4756 14.558 87.3803 14.6753 87.263 14.822C87.1456 14.954 87.0063 15.1007 86.845 15.262C86.6983 15.4233 86.537 15.592 86.361 15.768C85.9943 16.1787 85.6643 16.494 85.371 16.714C85.0776 16.9193 84.799 17.022 84.535 17.022C84.3003 17.022 84.1023 16.9487 83.941 16.802C83.7943 16.6553 83.721 16.4647 83.721 16.23C83.721 16.0393 83.7503 15.8487 83.809 15.658C83.853 15.526 83.9336 15.35 84.051 15.13C84.051 15.086 84.051 15.042 84.051 14.998L83.105 16.054C82.797 16.3913 82.5256 16.6333 82.291 16.78C82.071 16.9267 81.8436 17 81.609 17C81.3303 17 81.1103 16.89 80.949 16.67C80.7876 16.45 80.707 16.1567 80.707 15.79C80.707 15.086 81.2056 14.1033 82.203 12.842L82.753 12.138L82.071 12.49L83.941 10.642C84.0583 10.4807 84.139 10.3927 84.183 10.378C84.2416 10.3487 84.3443 10.3267 84.491 10.312L85.393 10.268C85.4956 10.268 85.547 10.2973 85.547 10.356C85.547 10.3707 85.5176 10.4293 85.459 10.532L83.677 12.93C83.6623 13.238 83.523 13.546 83.259 13.854C82.8923 14.2793 82.555 14.6973 82.247 15.108C82.115 15.2253 82.0123 15.3353 81.939 15.438L81.873 15.57C81.8436 15.614 81.8216 15.6507 81.807 15.68C81.7923 15.7387 81.7923 15.7973 81.807 15.856C81.8803 16.032 82.0196 16.12 82.225 16.12C82.5036 16.12 82.8483 15.922 83.259 15.526C83.347 15.4233 83.4276 15.328 83.501 15.24C83.6476 15.064 83.7796 14.91 83.897 14.778C83.941 14.734 83.9776 14.6973 84.007 14.668C84.139 14.492 84.271 14.3087 84.403 14.118L85.701 12.314L86.867 10.686L87.021 10.466C87.065 10.3927 87.1016 10.3487 87.131 10.334C87.175 10.3193 87.2483 10.312 87.351 10.312L88.231 10.268C88.319 10.268 88.363 10.3047 88.363 10.378C88.363 10.4073 88.3556 10.4293 88.341 10.444L85.679 14.338C85.3123 14.8513 85.019 15.3133 84.799 15.724C84.711 15.8707 84.645 16.0027 84.601 16.12C84.6303 16.12 84.6743 16.12 84.733 16.12C85.3196 16.12 86.1043 15.372 87.087 13.876L87.285 13.964ZM81.565 16.45C81.565 16.6113 81.653 16.692 81.829 16.692C81.9903 16.692 82.2763 16.516 82.687 16.164C82.5403 16.2227 82.3936 16.252 82.247 16.252C81.983 16.252 81.7923 16.1567 81.675 15.966C81.6016 16.1713 81.565 16.3327 81.565 16.45Z" fill="url(#paint0_linear)"/>
</g>
<defs>
<filter id="filter0_d" x="0.931885" y="0.381836" width="94.431" height="35.626" filterUnits="userSpaceOnUse" color-interpolation-filters="sRGB">
<feFlood flood-opacity="0" result="BackgroundImageFix"/>
<feColorMatrix in="SourceAlpha" type="matrix" values="0 0 0 0 0 0 0 0 0 0 0 0 0 0 0 0 0 0 127 0"/>
<feOffset dy="4"/>
<feGaussianBlur stdDeviation="3.5"/>
<feColorMatrix type="matrix" values="0 0 0 0 0 0 0 0 0 0 0 0 0 0 0 0 0 0 0.62 0"/>
<feBlend mode="normal" in2="BackgroundImageFix" result="effect1_dropShadow"/>
<feBlend mode="normal" in="SourceGraphic" in2="effect1_dropShadow" result="shape"/>
</filter>
<linearGradient id="paint0_linear" x1="48.5" y1="33.25" x2="48.5" y2="2.5" gradientUnits="userSpaceOnUse">
<stop stop-color="#A27227"/>
<stop offset="0.0485093" stop-color="#FEDA5B"/>
<stop offset="0.122132" stop-color="#FEDA5B"/>
<stop offset="0.22188" stop-color="#CD953D"/>
<stop offset="0.347751" stop-color="#C99C39"/>
<stop offset="0.421875" stop-color="#FEDA5B"/>
<stop offset="0.601869" stop-color="#EDC84C"/>
<stop offset="0.753865" stop-color="#A27227"/>
<stop offset="1" stop-color="#EDC84C"/>
</linearGradient>
</defs>
</svg>
