<svg width="99" height="18" viewBox="0 0 99 18" fill="none" xmlns="http://www.w3.org/2000/svg">
<path d="M8.9 6.74C9.84667 6.96667 10.56 7.37333 11.04 7.96C11.5333 8.53333 11.78 9.27333 11.78 10.18C11.78 11.3933 11.3333 12.3333 10.44 13C9.56 13.6667 8.27333 14 6.58 14H0.18V-9.53674e-07H6.2C7.73333 -9.53674e-07 8.92667 0.313332 9.78 0.939999C10.6467 1.55333 11.08 2.44 11.08 3.6C11.08 4.36 10.8867 5.00667 10.5 5.54C10.1267 6.07333 9.59333 6.47333 8.9 6.74ZM2.16 6.16H6.06C7.03333 6.16 7.77333 5.96667 8.28 5.58C8.8 5.19333 9.06 4.62667 9.06 3.88C9.06 3.13333 8.8 2.56667 8.28 2.18C7.76 1.78 7.02 1.58 6.06 1.58H2.16V6.16ZM6.54 12.42C8.68667 12.42 9.76 11.62 9.76 10.02C9.76 9.22 9.48667 8.63333 8.94 8.26C8.40667 7.87333 7.60667 7.68 6.54 7.68H2.16V12.42H6.54ZM14.8014 3.4H16.7214V11.12L23.2214 3.4H24.9614V14H23.0414V6.28L16.5614 14H14.8014V3.4ZM32.8081 9.52H30.6081V14H28.6881V3.4H30.6081V7.88H32.8481L36.2881 3.4H38.3481L34.3281 8.5L38.6281 14H36.3681L32.8081 9.52ZM48.3655 5.08H44.4855V14H42.5655V5.08H38.6855V3.4H48.3655V5.08ZM54.4 14.12C53.3467 14.12 52.4 13.8867 51.56 13.42C50.72 12.9533 50.06 12.3133 49.58 11.5C49.1133 10.6733 48.88 9.74 48.88 8.7C48.88 7.66 49.1133 6.73333 49.58 5.92C50.06 5.09333 50.72 4.45333 51.56 4C52.4 3.53333 53.3467 3.3 54.4 3.3C55.4533 3.3 56.3933 3.53333 57.22 4C58.06 4.45333 58.7133 5.09333 59.18 5.92C59.66 6.73333 59.9 7.66 59.9 8.7C59.9 9.74 59.66 10.6733 59.18 11.5C58.7133 12.3133 58.06 12.9533 57.22 13.42C56.3933 13.8867 55.4533 14.12 54.4 14.12ZM54.4 12.44C55.08 12.44 55.6867 12.2867 56.22 11.98C56.7667 11.66 57.1933 11.22 57.5 10.66C57.8067 10.0867 57.96 9.43333 57.96 8.7C57.96 7.96667 57.8067 7.32 57.5 6.76C57.1933 6.18667 56.7667 5.74667 56.22 5.44C55.6867 5.13333 55.08 4.98 54.4 4.98C53.72 4.98 53.1067 5.13333 52.56 5.44C52.0267 5.74667 51.6 6.18667 51.28 6.76C50.9733 7.32 50.82 7.96667 50.82 8.7C50.82 9.43333 50.9733 10.0867 51.28 10.66C51.6 11.22 52.0267 11.66 52.56 11.98C53.1067 12.2867 53.72 12.44 54.4 12.44ZM68.2925 3.3C69.3192 3.3 70.2392 3.52667 71.0525 3.98C71.8658 4.43333 72.4992 5.06667 72.9525 5.88C73.4192 6.69333 73.6525 7.63333 73.6525 8.7C73.6525 9.76667 73.4192 10.7133 72.9525 11.54C72.4992 12.3533 71.8658 12.9867 71.0525 13.44C70.2392 13.8933 69.3192 14.12 68.2925 14.12C67.5325 14.12 66.8325 13.9733 66.1925 13.68C65.5658 13.3867 65.0325 12.96 64.5925 12.4V17.88H62.6725V3.4H64.5125V5.08C64.9392 4.49333 65.4792 4.05333 66.1325 3.76C66.7858 3.45333 67.5058 3.3 68.2925 3.3ZM68.1325 12.44C68.8125 12.44 69.4192 12.2867 69.9525 11.98C70.4992 11.66 70.9258 11.22 71.2325 10.66C71.5525 10.0867 71.7125 9.43333 71.7125 8.7C71.7125 7.96667 71.5525 7.32 71.2325 6.76C70.9258 6.18667 70.4992 5.74667 69.9525 5.44C69.4192 5.13333 68.8125 4.98 68.1325 4.98C67.4658 4.98 66.8592 5.14 66.3125 5.46C65.7792 5.76667 65.3525 6.2 65.0325 6.76C64.7258 7.32 64.5725 7.96667 64.5725 8.7C64.5725 9.43333 64.7258 10.0867 65.0325 10.66C65.3392 11.22 65.7658 11.66 66.3125 11.98C66.8592 12.2867 67.4658 12.44 68.1325 12.44ZM76.442 3.4H78.362V11.12L84.862 3.4H86.602V14H84.682V6.28L78.202 14H76.442V3.4ZM98.8288 3.4V14H97.1088V10.64H94.0288H93.8088L91.4888 14H89.4288L92.0088 10.38C91.2088 10.14 90.5954 9.74667 90.1688 9.2C89.7421 8.64 89.5288 7.94667 89.5288 7.12C89.5288 5.90667 89.9421 4.98667 90.7688 4.36C91.5954 3.72 92.7354 3.4 94.1888 3.4H98.8288ZM91.4888 7.18C91.4888 7.88667 91.7088 8.41333 92.1488 8.76C92.6021 9.09333 93.2754 9.26 94.1688 9.26H97.1088V5.08H94.2488C92.4088 5.08 91.4888 5.78 91.4888 7.18Z" fill="url(#paint0_linear)"/>
<defs>
<linearGradient id="paint0_linear" x1="49" y1="27.5" x2="49.4219" y2="-7.7541" gradientUnits="userSpaceOnUse">
<stop stop-color="#A27227"/>
<stop offset="0.0485093" stop-color="#FEDA5B"/>
<stop offset="0.122132" stop-color="#FEDA5B"/>
<stop offset="0.22188" stop-color="#CD953D"/>
<stop offset="0.347751" stop-color="#C99C39"/>
<stop offset="0.421875" stop-color="#FEDA5B"/>
<stop offset="0.601869" stop-color="#EDC84C"/>
<stop offset="0.753865" stop-color="#A27227"/>
<stop offset="1" stop-color="#EDC84C"/>
</linearGradient>
</defs>
</svg>
