<svg width="109" height="18" viewBox="0 0 109 18" fill="none" xmlns="http://www.w3.org/2000/svg">
<path d="M10.34 12.26V14H0.18V-9.53674e-07H10.06V1.74H2.18V6.04H9.2V7.74H2.18V12.26H10.34ZM17.2808 9.52H15.0808V14H13.1608V3.4H15.0808V7.88H17.3208L20.7608 3.4H22.8208L18.8008 8.5L23.1008 14H20.8408L17.2808 9.52ZM28.6986 3.3C30.1653 3.3 31.2853 3.66 32.0586 4.38C32.8453 5.1 33.2386 6.17333 33.2386 7.6V14H31.4186V12.6C31.0986 13.0933 30.6386 13.4733 30.0386 13.74C29.4519 13.9933 28.7519 14.12 27.9386 14.12C26.7519 14.12 25.7986 13.8333 25.0786 13.26C24.3719 12.6867 24.0186 11.9333 24.0186 11C24.0186 10.0667 24.3586 9.32 25.0386 8.76C25.7186 8.18667 26.7986 7.9 28.2786 7.9H31.3186V7.52C31.3186 6.69333 31.0786 6.06 30.5986 5.62C30.1186 5.18 29.4119 4.96 28.4786 4.96C27.8519 4.96 27.2386 5.06667 26.6386 5.28C26.0386 5.48 25.5319 5.75333 25.1186 6.1L24.3186 4.66C24.8653 4.22 25.5186 3.88667 26.2786 3.66C27.0386 3.42 27.8453 3.3 28.6986 3.3ZM28.2586 12.64C28.9919 12.64 29.6253 12.48 30.1586 12.16C30.6919 11.8267 31.0786 11.36 31.3186 10.76V9.28H28.3586C26.7319 9.28 25.9186 9.82667 25.9186 10.92C25.9186 11.4533 26.1253 11.8733 26.5386 12.18C26.9519 12.4867 27.5253 12.64 28.2586 12.64ZM44.5959 5.08H40.7159V14H38.7959V5.08H34.9159V3.4H44.5959V5.08ZM55.6705 8.76C55.6705 8.90667 55.6571 9.1 55.6305 9.34H47.0305C47.1505 10.2733 47.5571 11.0267 48.2505 11.6C48.9571 12.16 49.8305 12.44 50.8705 12.44C52.1371 12.44 53.1571 12.0133 53.9305 11.16L54.9905 12.4C54.5105 12.96 53.9105 13.3867 53.1905 13.68C52.4838 13.9733 51.6905 14.12 50.8105 14.12C49.6905 14.12 48.6971 13.8933 47.8305 13.44C46.9638 12.9733 46.2905 12.3267 45.8105 11.5C45.3438 10.6733 45.1105 9.74 45.1105 8.7C45.1105 7.67333 45.3371 6.74667 45.7905 5.92C46.2571 5.09333 46.8905 4.45333 47.6905 4C48.5038 3.53333 49.4171 3.3 50.4305 3.3C51.4438 3.3 52.3438 3.53333 53.1305 4C53.9305 4.45333 54.5505 5.09333 54.9905 5.92C55.4438 6.74667 55.6705 7.69333 55.6705 8.76ZM50.4305 4.92C49.5105 4.92 48.7371 5.2 48.1105 5.76C47.4971 6.32 47.1371 7.05333 47.0305 7.96H53.8305C53.7238 7.06667 53.3571 6.34 52.7305 5.78C52.1171 5.20667 51.3505 4.92 50.4305 4.92ZM64.2691 3.3C65.2957 3.3 66.2157 3.52667 67.0291 3.98C67.8424 4.43333 68.4757 5.06667 68.9291 5.88C69.3957 6.69333 69.6291 7.63333 69.6291 8.7C69.6291 9.76667 69.3957 10.7133 68.9291 11.54C68.4757 12.3533 67.8424 12.9867 67.0291 13.44C66.2157 13.8933 65.2957 14.12 64.2691 14.12C63.5091 14.12 62.8091 13.9733 62.1691 13.68C61.5424 13.3867 61.0091 12.96 60.5691 12.4V17.88H58.6491V3.4H60.4891V5.08C60.9157 4.49333 61.4557 4.05333 62.1091 3.76C62.7624 3.45333 63.4824 3.3 64.2691 3.3ZM64.1091 12.44C64.7891 12.44 65.3957 12.2867 65.9291 11.98C66.4757 11.66 66.9024 11.22 67.2091 10.66C67.5291 10.0867 67.6891 9.43333 67.6891 8.7C67.6891 7.96667 67.5291 7.32 67.2091 6.76C66.9024 6.18667 66.4757 5.74667 65.9291 5.44C65.3957 5.13333 64.7891 4.98 64.1091 4.98C63.4424 4.98 62.8357 5.14 62.2891 5.46C61.7557 5.76667 61.3291 6.2 61.0091 6.76C60.7024 7.32 60.5491 7.96667 60.5491 8.7C60.5491 9.43333 60.7024 10.0867 61.0091 10.66C61.3157 11.22 61.7424 11.66 62.2891 11.98C62.8357 12.2867 63.4424 12.44 64.1091 12.44ZM72.4186 3.4H74.3386V11.12L80.8386 3.4H82.5786V14H80.6586V6.28L74.1786 14H72.4186V3.4ZM86.3053 3.4H88.2253V7.9H94.2653V3.4H96.1853V14H94.2653V9.56H88.2253V14H86.3053V3.4ZM103.699 3.3C105.165 3.3 106.285 3.66 107.059 4.38C107.845 5.1 108.239 6.17333 108.239 7.6V14H106.419V12.6C106.099 13.0933 105.639 13.4733 105.039 13.74C104.452 13.9933 103.752 14.12 102.939 14.12C101.752 14.12 100.799 13.8333 100.079 13.26C99.3719 12.6867 99.0186 11.9333 99.0186 11C99.0186 10.0667 99.3586 9.32 100.039 8.76C100.719 8.18667 101.799 7.9 103.279 7.9H106.319V7.52C106.319 6.69333 106.079 6.06 105.599 5.62C105.119 5.18 104.412 4.96 103.479 4.96C102.852 4.96 102.239 5.06667 101.639 5.28C101.039 5.48 100.532 5.75333 100.119 6.1L99.3186 4.66C99.8653 4.22 100.519 3.88667 101.279 3.66C102.039 3.42 102.845 3.3 103.699 3.3ZM103.259 12.64C103.992 12.64 104.625 12.48 105.159 12.16C105.692 11.8267 106.079 11.36 106.319 10.76V9.28H103.359C101.732 9.28 100.919 9.82667 100.919 10.92C100.919 11.4533 101.125 11.8733 101.539 12.18C101.952 12.4867 102.525 12.64 103.259 12.64Z" fill="url(#paint0_linear)"/>
<defs>
<linearGradient id="paint0_linear" x1="53.4563" y1="27.5" x2="53.8443" y2="-7.75488" gradientUnits="userSpaceOnUse">
<stop stop-color="#A27227"/>
<stop offset="0.0485093" stop-color="#FEDA5B"/>
<stop offset="0.122132" stop-color="#FEDA5B"/>
<stop offset="0.22188" stop-color="#CD953D"/>
<stop offset="0.347751" stop-color="#C99C39"/>
<stop offset="0.421875" stop-color="#FEDA5B"/>
<stop offset="0.601869" stop-color="#EDC84C"/>
<stop offset="0.753865" stop-color="#A27227"/>
<stop offset="1" stop-color="#EDC84C"/>
</linearGradient>
</defs>
</svg>
