<svg width="57" height="16" viewBox="0 0 57 16" fill="none" xmlns="http://www.w3.org/2000/svg">
<path d="M11.78 0.84C13.1267 0.84 14.34 1.15333 15.42 1.78C16.5 2.39333 17.3467 3.24667 17.96 4.34C18.5867 5.42 18.9 6.64 18.9 8C18.9 9.36 18.5867 10.5867 17.96 11.68C17.3467 12.76 16.5 13.6133 15.42 14.24C14.34 14.8533 13.1267 15.16 11.78 15.16C10.5267 15.16 9.38667 14.8867 8.36 14.34C7.33333 13.7933 6.5 13.04 5.86 12.08C5.22 11.12 4.84 10.0267 4.72 8.8H2.16V15H0.18V0.999999H2.16V7H4.74C4.88667 5.81333 5.28 4.75333 5.92 3.82C6.57333 2.88667 7.40667 2.16 8.42 1.64C9.43333 1.10667 10.5533 0.84 11.78 0.84ZM11.78 13.36C12.74 13.36 13.6067 13.1333 14.38 12.68C15.1667 12.2133 15.78 11.5733 16.22 10.76C16.6733 9.94667 16.9 9.02667 16.9 8C16.9 6.97333 16.6733 6.05333 16.22 5.24C15.78 4.42667 15.1667 3.79333 14.38 3.34C13.6067 2.87333 12.74 2.64 11.78 2.64C10.8333 2.64 9.97333 2.87333 9.2 3.34C8.42667 3.79333 7.81333 4.42667 7.36 5.24C6.92 6.05333 6.7 6.97333 6.7 8C6.7 9.02667 6.92 9.94667 7.36 10.76C7.81333 11.5733 8.42667 12.2133 9.2 12.68C9.97333 13.1333 10.8333 13.36 11.78 13.36ZM30.6006 4.4V15H28.6806V6.08H24.1206L24.0006 8.44C23.934 9.86667 23.8073 11.06 23.6206 12.02C23.434 12.9667 23.1273 13.7267 22.7006 14.3C22.274 14.8733 21.6806 15.16 20.9206 15.16C20.574 15.16 20.1806 15.1 19.7406 14.98L19.8606 13.36C20.034 13.4 20.194 13.42 20.3406 13.42C20.874 13.42 21.274 13.1867 21.5406 12.72C21.8073 12.2533 21.9806 11.7 22.0606 11.06C22.1406 10.42 22.214 9.50667 22.2806 8.32L22.4606 4.4H30.6006ZM34.3131 4.4H36.2331V12.12L42.7331 4.4H44.4731V15H42.5531V7.28L36.0731 15H34.3131V4.4ZM56.6998 4.4V15H54.9798V11.64H51.8998H51.6798L49.3598 15H47.2998L49.8798 11.38C49.0798 11.14 48.4665 10.7467 48.0398 10.2C47.6132 9.64 47.3998 8.94667 47.3998 8.12C47.3998 6.90667 47.8132 5.98667 48.6398 5.36C49.4665 4.72 50.6065 4.4 52.0598 4.4H56.6998ZM49.3598 8.18C49.3598 8.88667 49.5798 9.41333 50.0198 9.76C50.4732 10.0933 51.1465 10.26 52.0398 10.26H54.9798V6.08H52.1198C50.2798 6.08 49.3598 6.78 49.3598 8.18Z" fill="url(#paint0_linear)"/>
<defs>
<linearGradient id="paint0_linear" x1="28.2039" y1="28.5" x2="28.9161" y2="-6.74476" gradientUnits="userSpaceOnUse">
<stop stop-color="#A27227"/>
<stop offset="0.0485093" stop-color="#FEDA5B"/>
<stop offset="0.122132" stop-color="#FEDA5B"/>
<stop offset="0.22188" stop-color="#CD953D"/>
<stop offset="0.347751" stop-color="#C99C39"/>
<stop offset="0.421875" stop-color="#FEDA5B"/>
<stop offset="0.601869" stop-color="#EDC84C"/>
<stop offset="0.753865" stop-color="#A27227"/>
<stop offset="1" stop-color="#EDC84C"/>
</linearGradient>
</defs>
</svg>
