<svg width="234" height="111" viewBox="0 0 234 111" fill="none" xmlns="http://www.w3.org/2000/svg">
<g filter="url(#filter0_d)">
<path d="M20.6719 88V82.0938L31.2188 80.7812V29.6406L20.4844 29.8281V24.0625L40.4531 19.75V80.7812L50.9531 82.0938V88H20.6719ZM81.9844 88.9844C75.2969 88.9844 70 86.6562 66.0938 82C62.1875 77.3438 60.2344 70.6719 60.2344 61.9844V45.8125C60.2344 37.125 62.1719 30.4531 66.0469 25.7969C69.9219 21.1094 75.2031 18.7656 81.8906 18.7656C88.6094 18.7656 93.9219 21.1094 97.8281 25.7969C101.734 30.4531 103.688 37.125 103.688 45.8125V61.9844C103.688 70.7031 101.75 77.3906 97.875 82.0469C94 86.6719 88.7031 88.9844 81.9844 88.9844ZM81.9844 81.7656C86.0781 81.7656 89.1719 80.2656 91.2656 77.2656C93.3906 74.2656 94.4531 69.7969 94.4531 63.8594V43.8438C94.4531 37.9375 93.375 33.5 91.2188 30.5312C89.0938 27.5312 85.9844 26.0312 81.8906 26.0312C77.8594 26.0312 74.7812 27.5312 72.6562 30.5312C70.5312 33.5 69.4688 37.9375 69.4688 43.8438V63.8594C69.4688 69.7656 70.5469 74.2344 72.7031 77.2656C74.8594 80.2656 77.9531 81.7656 81.9844 81.7656ZM136.734 88.9844C130.047 88.9844 124.75 86.6562 120.844 82C116.938 77.3438 114.984 70.6719 114.984 61.9844V45.8125C114.984 37.125 116.922 30.4531 120.797 25.7969C124.672 21.1094 129.953 18.7656 136.641 18.7656C143.359 18.7656 148.672 21.1094 152.578 25.7969C156.484 30.4531 158.438 37.125 158.438 45.8125V61.9844C158.438 70.7031 156.5 77.3906 152.625 82.0469C148.75 86.6719 143.453 88.9844 136.734 88.9844ZM136.734 81.7656C140.828 81.7656 143.922 80.2656 146.016 77.2656C148.141 74.2656 149.203 69.7969 149.203 63.8594V43.8438C149.203 37.9375 148.125 33.5 145.969 30.5312C143.844 27.5312 140.734 26.0312 136.641 26.0312C132.609 26.0312 129.531 27.5312 127.406 30.5312C125.281 33.5 124.219 37.9375 124.219 43.8438V63.8594C124.219 69.7656 125.297 74.2344 127.453 77.2656C129.609 80.2656 132.703 81.7656 136.734 81.7656ZM191.484 88.9844C184.797 88.9844 179.5 86.6562 175.594 82C171.688 77.3438 169.734 70.6719 169.734 61.9844V45.8125C169.734 37.125 171.672 30.4531 175.547 25.7969C179.422 21.1094 184.703 18.7656 191.391 18.7656C198.109 18.7656 203.422 21.1094 207.328 25.7969C211.234 30.4531 213.188 37.125 213.188 45.8125V61.9844C213.188 70.7031 211.25 77.3906 207.375 82.0469C203.5 86.6719 198.203 88.9844 191.484 88.9844ZM191.484 81.7656C195.578 81.7656 198.672 80.2656 200.766 77.2656C202.891 74.2656 203.953 69.7969 203.953 63.8594V43.8438C203.953 37.9375 202.875 33.5 200.719 30.5312C198.594 27.5312 195.484 26.0312 191.391 26.0312C187.359 26.0312 184.281 27.5312 182.156 30.5312C180.031 33.5 178.969 37.9375 178.969 43.8438V63.8594C178.969 69.7656 180.047 74.2344 182.203 77.2656C184.359 80.2656 187.453 81.7656 191.484 81.7656Z" fill="url(#paint0_linear)"/>
</g>
<defs>
<filter id="filter0_d" x="0.484375" y="0.765625" width="232.703" height="110.219" filterUnits="userSpaceOnUse" color-interpolation-filters="sRGB">
<feFlood flood-opacity="0" result="BackgroundImageFix"/>
<feColorMatrix in="SourceAlpha" type="matrix" values="0 0 0 0 0 0 0 0 0 0 0 0 0 0 0 0 0 0 127 0"/>
<feOffset dy="2"/>
<feGaussianBlur stdDeviation="10"/>
<feColorMatrix type="matrix" values="0 0 0 0 0.635294 0 0 0 0 0.447059 0 0 0 0 0.152941 0 0 0 0.36 0"/>
<feBlend mode="normal" in2="BackgroundImageFix" result="effect1_dropShadow"/>
<feBlend mode="normal" in="SourceGraphic" in2="effect1_dropShadow" result="shape"/>
</filter>
<linearGradient id="paint0_linear" x1="116.845" y1="100.467" x2="116.846" y2="-27.5738" gradientUnits="userSpaceOnUse">
<stop stop-color="#A27227"/>
<stop offset="0.0485093" stop-color="#FEDA5B"/>
<stop offset="0.122132" stop-color="#FEDA5B"/>
<stop offset="0.22188" stop-color="#CD953D"/>
<stop offset="0.347751" stop-color="#C99C39"/>
<stop offset="0.421875" stop-color="#FEDA5B"/>
<stop offset="0.601869" stop-color="#EDC84C"/>
<stop offset="0.753865" stop-color="#A27227"/>
<stop offset="1" stop-color="#EDC84C"/>
</linearGradient>
</defs>
</svg>
