<svg width="136" height="111" viewBox="0 0 136 111" fill="none" xmlns="http://www.w3.org/2000/svg">
<g filter="url(#filter0_d)">
<path d="M40.4688 88.9844C36.625 88.9844 33.1719 88.2812 30.1094 86.875C27.0781 85.4688 24.7031 83.3906 22.9844 80.6406C21.2656 77.8594 20.4531 74.4219 20.5469 70.3281L20.6406 70.0469H28.9844C28.9844 73.7344 30.0469 76.6094 32.1719 78.6719C34.3281 80.7344 37.0938 81.7656 40.4688 81.7656C44.375 81.7656 47.4062 80.3906 49.5625 77.6406C51.7188 74.8906 52.7969 71.125 52.7969 66.3438C52.7969 61.9375 51.7031 58.3438 49.5156 55.5625C47.3594 52.75 44.3594 51.3438 40.5156 51.3438C36.8906 51.3438 34.25 51.8906 32.5938 52.9844C30.9688 54.0781 29.7812 55.75 29.0312 58L21.3438 57.2031L25.2812 19.75H61.3281V33.25H54.3906L53.5 27.9531H33.1094L30.9062 47.125C31.8438 46.4062 32.8594 45.7812 33.9531 45.25C35.0469 44.6875 36.2344 44.2344 37.5156 43.8906C38.8281 43.5469 40.25 43.3594 41.7812 43.3281C45.9688 43.2969 49.5781 44.2188 52.6094 46.0938C55.6406 47.9375 57.9688 50.5938 59.5938 54.0625C61.2188 57.5 62.0312 61.5625 62.0312 66.25C62.0312 70.8125 61.2031 74.7969 59.5469 78.2031C57.9219 81.6094 55.5 84.2656 52.2812 86.1719C49.0938 88.0469 45.1562 88.9844 40.4688 88.9844ZM94.1406 88.9844C87.4531 88.9844 82.1562 86.6562 78.25 82C74.3438 77.3438 72.3906 70.6719 72.3906 61.9844V45.8125C72.3906 37.125 74.3281 30.4531 78.2031 25.7969C82.0781 21.1094 87.3594 18.7656 94.0469 18.7656C100.766 18.7656 106.078 21.1094 109.984 25.7969C113.891 30.4531 115.844 37.125 115.844 45.8125V61.9844C115.844 70.7031 113.906 77.3906 110.031 82.0469C106.156 86.6719 100.859 88.9844 94.1406 88.9844ZM94.1406 81.7656C98.2344 81.7656 101.328 80.2656 103.422 77.2656C105.547 74.2656 106.609 69.7969 106.609 63.8594V43.8438C106.609 37.9375 105.531 33.5 103.375 30.5312C101.25 27.5312 98.1406 26.0312 94.0469 26.0312C90.0156 26.0312 86.9375 27.5312 84.8125 30.5312C82.6875 33.5 81.625 37.9375 81.625 43.8438V63.8594C81.625 69.7656 82.7031 74.2344 84.8594 77.2656C87.0156 80.2656 90.1094 81.7656 94.1406 81.7656Z" fill="url(#paint0_linear)"/>
</g>
<defs>
<filter id="filter0_d" x="0.539551" y="0.765625" width="135.304" height="110.219" filterUnits="userSpaceOnUse" color-interpolation-filters="sRGB">
<feFlood flood-opacity="0" result="BackgroundImageFix"/>
<feColorMatrix in="SourceAlpha" type="matrix" values="0 0 0 0 0 0 0 0 0 0 0 0 0 0 0 0 0 0 127 0"/>
<feOffset dy="2"/>
<feGaussianBlur stdDeviation="10"/>
<feColorMatrix type="matrix" values="0 0 0 0 0.635294 0 0 0 0 0.447059 0 0 0 0 0.152941 0 0 0 0.36 0"/>
<feBlend mode="normal" in2="BackgroundImageFix" result="effect1_dropShadow"/>
<feBlend mode="normal" in="SourceGraphic" in2="effect1_dropShadow" result="shape"/>
</filter>
<linearGradient id="paint0_linear" x1="68.9196" y1="100.467" x2="68.9208" y2="-27.5738" gradientUnits="userSpaceOnUse">
<stop stop-color="#A27227"/>
<stop offset="0.0485093" stop-color="#FEDA5B"/>
<stop offset="0.122132" stop-color="#FEDA5B"/>
<stop offset="0.22188" stop-color="#CD953D"/>
<stop offset="0.347751" stop-color="#C99C39"/>
<stop offset="0.421875" stop-color="#FEDA5B"/>
<stop offset="0.601869" stop-color="#EDC84C"/>
<stop offset="0.753865" stop-color="#A27227"/>
<stop offset="1" stop-color="#EDC84C"/>
</linearGradient>
</defs>
</svg>
