<svg width="119" height="17" viewBox="0 0 119 17" fill="none" xmlns="http://www.w3.org/2000/svg">
<path d="M0.646446 8.64645C0.451185 8.84171 0.451185 9.15829 0.646446 9.35355L3.82843 12.5355C4.02369 12.7308 4.34027 12.7308 4.53553 12.5355C4.7308 12.3403 4.7308 12.0237 4.53553 11.8284L1.70711 9L4.53553 6.17157C4.7308 5.97631 4.7308 5.65973 4.53553 5.46447C4.34027 5.2692 4.02369 5.2692 3.82843 5.46447L0.646446 8.64645ZM26 8.5L1 8.5V9.5L26 9.5V8.5Z" fill="white" fill-opacity="0.6"/>
<path d="M43.462 8.946C44.1433 9.086 44.6613 9.36133 45.016 9.772C45.3707 10.1733 45.548 10.7007 45.548 11.354C45.548 12.2033 45.2447 12.8567 44.638 13.314C44.0407 13.7713 43.1587 14 41.992 14H37.652V4.2H41.726C42.7713 4.2 43.588 4.41467 44.176 4.844C44.764 5.27333 45.058 5.894 45.058 6.706C45.058 7.25667 44.918 7.72333 44.638 8.106C44.358 8.47933 43.966 8.75933 43.462 8.946ZM38.674 8.638H41.67C42.426 8.638 43.0047 8.484 43.406 8.176C43.8167 7.868 44.022 7.42 44.022 6.832C44.022 6.244 43.8167 5.796 43.406 5.488C43.0047 5.18 42.426 5.026 41.67 5.026H38.674V8.638ZM41.992 13.174C43.6813 13.174 44.526 12.544 44.526 11.284C44.526 10.052 43.6813 9.436 41.992 9.436H38.674V13.174H41.992ZM55.0403 10.626H48.8803C48.9363 11.3913 49.2303 12.012 49.7623 12.488C50.2943 12.9547 50.9663 13.188 51.7783 13.188C52.2357 13.188 52.6557 13.1087 53.0383 12.95C53.421 12.782 53.7523 12.5393 54.0323 12.222L54.5923 12.866C54.2657 13.258 53.855 13.5567 53.3603 13.762C52.875 13.9673 52.3383 14.07 51.7503 14.07C50.9943 14.07 50.3223 13.9113 49.7343 13.594C49.1557 13.2673 48.703 12.8193 48.3763 12.25C48.0497 11.6807 47.8863 11.0367 47.8863 10.318C47.8863 9.59933 48.0403 8.95533 48.3483 8.386C48.6657 7.81667 49.095 7.37333 49.6363 7.056C50.187 6.73867 50.803 6.58 51.4843 6.58C52.1657 6.58 52.777 6.73867 53.3183 7.056C53.8597 7.37333 54.2843 7.81667 54.5923 8.386C54.9003 8.946 55.0543 9.59 55.0543 10.318L55.0403 10.626ZM51.4843 7.434C50.775 7.434 50.1777 7.66267 49.6923 8.12C49.2163 8.568 48.9457 9.156 48.8803 9.884H54.1023C54.037 9.156 53.7617 8.568 53.2763 8.12C52.8003 7.66267 52.203 7.434 51.4843 7.434ZM61.7486 6.58C62.4393 6.58 63.0646 6.73867 63.6246 7.056C64.1846 7.364 64.6233 7.80267 64.9406 8.372C65.258 8.94133 65.4166 9.59 65.4166 10.318C65.4166 11.0553 65.258 11.7087 64.9406 12.278C64.6233 12.8473 64.1846 13.2907 63.6246 13.608C63.074 13.916 62.4486 14.07 61.7486 14.07C61.1513 14.07 60.61 13.9487 60.1246 13.706C59.6486 13.454 59.2566 13.09 58.9486 12.614V16.716H57.9546V6.636H58.9066V8.092C59.2053 7.60667 59.5973 7.23333 60.0826 6.972C60.5773 6.71067 61.1326 6.58 61.7486 6.58ZM61.6786 13.188C62.192 13.188 62.6586 13.0713 63.0786 12.838C63.4986 12.5953 63.8253 12.2547 64.0586 11.816C64.3013 11.3773 64.4226 10.878 64.4226 10.318C64.4226 9.758 64.3013 9.26333 64.0586 8.834C63.8253 8.39533 63.4986 8.05467 63.0786 7.812C62.6586 7.56933 62.192 7.448 61.6786 7.448C61.156 7.448 60.6846 7.56933 60.2646 7.812C59.854 8.05467 59.5273 8.39533 59.2846 8.834C59.0513 9.26333 58.9346 9.758 58.9346 10.318C58.9346 10.878 59.0513 11.3773 59.2846 11.816C59.5273 12.2547 59.854 12.5953 60.2646 12.838C60.6846 13.0713 61.156 13.188 61.6786 13.188ZM68.2523 6.636H69.2463V9.898H73.8803V6.636H74.8743V14H73.8803V10.752H69.2463V14H68.2523V6.636ZM84.6575 6.636L80.9755 14.882C80.6769 15.5727 80.3315 16.0627 79.9395 16.352C79.5475 16.6413 79.0762 16.786 78.5255 16.786C78.1709 16.786 77.8395 16.73 77.5315 16.618C77.2235 16.506 76.9575 16.338 76.7335 16.114L77.1955 15.372C77.5689 15.7453 78.0169 15.932 78.5395 15.932C78.8755 15.932 79.1602 15.8387 79.3935 15.652C79.6362 15.4653 79.8602 15.148 80.0655 14.7L80.3875 13.986L77.0975 6.636H78.1335L80.9055 12.894L83.6775 6.636H84.6575ZM92.1135 7.518H89.3275V14H88.3335V7.518H85.5475V6.636H92.1135V7.518ZM97.4147 9.24C98.3387 9.24933 99.0387 9.45467 99.5147 9.856C100 10.2573 100.243 10.836 100.243 11.592C100.243 12.376 99.9814 12.978 99.4587 13.398C98.9454 13.818 98.1987 14.0233 97.2187 14.014L94.2507 14V6.636H95.2447V9.212L97.4147 9.24ZM97.1627 13.258C97.8441 13.2673 98.3574 13.132 98.7027 12.852C99.0574 12.5627 99.2347 12.1427 99.2347 11.592C99.2347 11.0507 99.0621 10.6493 98.7167 10.388C98.3714 10.1267 97.8534 9.99133 97.1627 9.982L95.2447 9.954V13.23L97.1627 13.258ZM105.919 14.07C105.191 14.07 104.538 13.9113 103.959 13.594C103.39 13.2767 102.942 12.8333 102.615 12.264C102.289 11.6853 102.125 11.0367 102.125 10.318C102.125 9.59933 102.289 8.95533 102.615 8.386C102.942 7.81667 103.39 7.37333 103.959 7.056C104.538 6.73867 105.191 6.58 105.919 6.58C106.554 6.58 107.119 6.706 107.613 6.958C108.117 7.20067 108.514 7.56 108.803 8.036L108.061 8.54C107.819 8.176 107.511 7.90533 107.137 7.728C106.764 7.54133 106.358 7.448 105.919 7.448C105.387 7.448 104.907 7.56933 104.477 7.812C104.057 8.04533 103.726 8.38133 103.483 8.82C103.25 9.25867 103.133 9.758 103.133 10.318C103.133 10.8873 103.25 11.3913 103.483 11.83C103.726 12.2593 104.057 12.5953 104.477 12.838C104.907 13.0713 105.387 13.188 105.919 13.188C106.358 13.188 106.764 13.0993 107.137 12.922C107.511 12.7447 107.819 12.474 108.061 12.11L108.803 12.614C108.514 13.09 108.117 13.454 107.613 13.706C107.109 13.9487 106.545 14.07 105.919 14.07ZM116.838 6.636V14H115.928V11.564H113.618H113.338L111.63 14H110.552L112.386 11.424C111.817 11.2653 111.378 10.9947 111.07 10.612C110.762 10.2293 110.608 9.744 110.608 9.156C110.608 8.33467 110.888 7.70933 111.448 7.28C112.008 6.85067 112.773 6.636 113.744 6.636H116.838ZM111.616 9.184C111.616 10.276 112.311 10.822 113.702 10.822H115.928V7.518H113.772C112.335 7.518 111.616 8.07333 111.616 9.184Z" fill="white" fill-opacity="0.6"/>
</svg>
