<svg width="654" height="30" viewBox="0 0 654 30" fill="none" xmlns="http://www.w3.org/2000/svg">
<path d="M0.12793 23V21.1543L2.51562 20.7441V3.94238L0.12793 3.53223V1.67188H21.0459V3.53223L18.6582 3.94238V20.7441L21.0459 21.1543V23H13.3848V21.1543L15.7725 20.7441V3.94238H5.40137V20.7441L7.78906 21.1543V23H0.12793ZM22.7305 29.0938V27.2334L24.9717 26.8232V9.4209L22.584 9.01074V7.15039H27.4473L27.7109 9.08398C28.2383 8.36133 28.8779 7.80957 29.6299 7.42871C30.3916 7.04785 31.2705 6.85742 32.2666 6.85742C33.5752 6.85742 34.6934 7.21387 35.6211 7.92676C36.5488 8.62988 37.2568 9.62109 37.7451 10.9004C38.2334 12.1699 38.4775 13.6592 38.4775 15.3682V15.6758C38.4775 17.1992 38.2285 18.5322 37.7305 19.6748C37.2422 20.8174 36.5391 21.7109 35.6211 22.3555C34.7031 22.9902 33.5996 23.3076 32.3105 23.3076C31.334 23.3076 30.4746 23.1465 29.7324 22.8242C29 22.4922 28.375 22.0039 27.8574 21.3594V26.8232L30.377 27.2334V29.0938H22.7305ZM31.417 21.0518C32.7842 21.0518 33.8193 20.5537 34.5225 19.5576C35.2256 18.5615 35.5771 17.2676 35.5771 15.6758V15.3682C35.5771 14.1572 35.4209 13.0928 35.1084 12.1748C34.7959 11.2471 34.3271 10.5195 33.7021 9.99219C33.0869 9.46484 32.3154 9.20117 31.3877 9.20117C30.5674 9.20117 29.8643 9.38672 29.2783 9.75781C28.6924 10.1289 28.2188 10.6367 27.8574 11.2812V19.001C28.2188 19.6553 28.6875 20.1631 29.2637 20.5244C29.8496 20.876 30.5674 21.0518 31.417 21.0518ZM49.083 23.3076C47.6182 23.3076 46.3535 22.9658 45.2891 22.2822C44.2344 21.5889 43.4189 20.6367 42.8428 19.4258C42.2666 18.2051 41.9785 16.8135 41.9785 15.251V14.9287C41.9785 13.3662 42.2666 11.9795 42.8428 10.7686C43.4189 9.54785 44.2344 8.59082 45.2891 7.89746C46.3535 7.2041 47.6084 6.85742 49.0537 6.85742C50.5186 6.85742 51.7783 7.2041 52.833 7.89746C53.8975 8.59082 54.7178 9.54297 55.2939 10.7539C55.8701 11.9648 56.1582 13.3564 56.1582 14.9287V15.251C56.1582 16.8232 55.8701 18.2197 55.2939 19.4404C54.7178 20.6514 53.9023 21.5986 52.8477 22.2822C51.793 22.9658 50.5381 23.3076 49.083 23.3076ZM49.083 21.0518C50.001 21.0518 50.7676 20.8027 51.3828 20.3047C52.0078 19.7969 52.4766 19.1084 52.7891 18.2393C53.1113 17.3604 53.2725 16.3643 53.2725 15.251V14.9287C53.2725 13.8154 53.1113 12.8242 52.7891 11.9551C52.4766 11.0762 52.0078 10.3877 51.3828 9.88965C50.7578 9.38184 49.9814 9.12793 49.0537 9.12793C48.1357 9.12793 47.3643 9.38184 46.7393 9.88965C46.1143 10.3877 45.6455 11.0762 45.333 11.9551C45.0205 12.8242 44.8643 13.8154 44.8643 14.9287V15.251C44.8643 16.3643 45.0205 17.3604 45.333 18.2393C45.6455 19.1084 46.1143 19.7969 46.7393 20.3047C47.374 20.8027 48.1553 21.0518 49.083 21.0518ZM59.1025 23V21.1543L61.4902 20.7441V9.4209L59.1025 9.01074V7.15039H66.7637V9.01074L64.376 9.4209V13.8447H65.8994L69.21 9.40625C69.8057 8.57617 70.3867 7.94629 70.9531 7.5166C71.5293 7.08691 72.1738 6.87207 72.8867 6.87207C73.3359 6.87207 73.707 6.93066 74 7.04785C74.293 7.15527 74.625 7.32617 74.9961 7.56055L74.5859 9.52344C74.166 9.45508 73.9219 9.41602 73.8535 9.40625C73.7949 9.39648 73.668 9.3916 73.4727 9.3916C73.1113 9.3916 72.7549 9.52344 72.4033 9.78711C72.0615 10.0508 71.7588 10.3633 71.4951 10.7246L68.4336 14.6943L73.4287 20.7881L75.4648 21.1543V23H71.6123L66.251 16.2764H64.376V20.7441L66.7637 21.1543V23H59.1025ZM83.6826 23.3076C82.2178 23.3076 80.9531 22.9658 79.8887 22.2822C78.834 21.5889 78.0186 20.6367 77.4424 19.4258C76.8662 18.2051 76.5781 16.8135 76.5781 15.251V14.9287C76.5781 13.3662 76.8662 11.9795 77.4424 10.7686C78.0186 9.54785 78.834 8.59082 79.8887 7.89746C80.9531 7.2041 82.208 6.85742 83.6533 6.85742C85.1182 6.85742 86.3779 7.2041 87.4326 7.89746C88.4971 8.59082 89.3174 9.54297 89.8936 10.7539C90.4697 11.9648 90.7578 13.3564 90.7578 14.9287V15.251C90.7578 16.8232 90.4697 18.2197 89.8936 19.4404C89.3174 20.6514 88.502 21.5986 87.4473 22.2822C86.3926 22.9658 85.1377 23.3076 83.6826 23.3076ZM83.6826 21.0518C84.6006 21.0518 85.3672 20.8027 85.9824 20.3047C86.6074 19.7969 87.0762 19.1084 87.3887 18.2393C87.7109 17.3604 87.8721 16.3643 87.8721 15.251V14.9287C87.8721 13.8154 87.7109 12.8242 87.3887 11.9551C87.0762 11.0762 86.6074 10.3877 85.9824 9.88965C85.3574 9.38184 84.5811 9.12793 83.6533 9.12793C82.7354 9.12793 81.9639 9.38184 81.3389 9.88965C80.7139 10.3877 80.2451 11.0762 79.9326 11.9551C79.6201 12.8242 79.4639 13.8154 79.4639 14.9287V15.251C79.4639 16.3643 79.6201 17.3604 79.9326 18.2393C80.2451 19.1084 80.7139 19.7969 81.3389 20.3047C81.9736 20.8027 82.7549 21.0518 83.6826 21.0518ZM93.7021 23V21.1543L96.0898 20.7441V9.4209L93.7021 9.01074V7.15039H101.363V9.01074L98.9756 9.4209V14.0059H106.021V9.4209L103.634 9.01074V7.15039H106.021H108.922H111.31V9.01074L108.922 9.4209V20.7441L111.31 21.1543V23H103.634V21.1543L106.021 20.7441V16.2617H98.9756V20.7441L101.363 21.1543V23H93.7021ZM120.978 23.3076C119.542 23.3076 118.292 22.9756 117.228 22.3115C116.163 21.6377 115.338 20.7051 114.752 19.5137C114.166 18.3223 113.873 16.9453 113.873 15.3828V14.7676C113.873 13.2637 114.156 11.916 114.723 10.7246C115.289 9.5332 116.104 8.59082 117.169 7.89746C118.233 7.2041 119.503 6.85742 120.978 6.85742C122.257 6.85742 123.375 7.06738 124.332 7.4873C125.299 7.90723 126.109 8.4834 126.764 9.21582L126.837 13.0244H124.581L124.083 10.2559C123.751 9.91406 123.336 9.64062 122.838 9.43555C122.34 9.23047 121.754 9.12793 121.08 9.12793C120.221 9.12793 119.464 9.38184 118.81 9.88965C118.165 10.3975 117.662 11.0762 117.301 11.9258C116.939 12.7754 116.759 13.7227 116.759 14.7676V15.3828C116.759 16.5352 116.925 17.5361 117.257 18.3857C117.599 19.2354 118.082 19.8945 118.707 20.3633C119.342 20.8223 120.094 21.0518 120.963 21.0518C121.939 21.0518 122.75 20.7832 123.395 20.2461C124.039 19.709 124.435 18.9717 124.581 18.0342H127.174L127.203 18.1221C127.154 19.0303 126.886 19.8799 126.397 20.6709C125.909 21.4619 125.211 22.1016 124.303 22.5898C123.404 23.0684 122.296 23.3076 120.978 23.3076ZM132.901 29.4014C132.677 29.4014 132.384 29.3721 132.022 29.3135C131.661 29.2646 131.383 29.2158 131.188 29.167L131.48 26.8965C131.646 26.916 131.876 26.9307 132.169 26.9404C132.462 26.96 132.662 26.9697 132.77 26.9697C133.385 26.9697 133.883 26.7354 134.264 26.2666C134.654 25.7979 135.016 25.1582 135.348 24.3477L136.036 22.6777L130.426 9.24512L128.727 9.01074V7.15039H135.377V9.01074L133.458 9.30371L136.549 17.2285L137.296 19.2939H137.384L141.046 9.30371L139.024 9.01074V7.15039H145.543V9.01074L143.902 9.24512L137.662 25.4316C137.369 26.1934 137.013 26.8721 136.593 27.4678C136.183 28.0732 135.675 28.5469 135.069 28.8887C134.474 29.2305 133.751 29.4014 132.901 29.4014ZM146.231 23L146.275 20.5391L146.876 20.5244C147.569 20.5244 148.116 20.3096 148.517 19.8799C148.917 19.4404 149.205 18.7373 149.381 17.7705C149.557 16.7939 149.645 15.5098 149.645 13.918V9.4209L147.257 9.01074V7.15039H160.792H163.18V9.01074L160.792 9.4209V20.7441L163.18 21.1543V23H155.519V21.1543L157.906 20.7441V9.43555H152.53V13.918C152.53 17.043 152.115 19.3379 151.285 20.8027C150.465 22.2676 149.054 23 147.052 23H146.231ZM175.118 12.5996C176.993 12.5996 178.453 13.0781 179.498 14.0352C180.543 14.9824 181.065 16.2178 181.065 17.7412C181.065 19.2744 180.538 20.5342 179.483 21.5205C178.438 22.5068 176.983 23 175.118 23H165.919V21.1543L168.307 20.7441V9.4209L165.919 9.01074V7.15039H173.58V9.01074L171.192 9.4209V12.5996H175.118ZM175.118 20.7441C176.163 20.7441 176.93 20.4707 177.418 19.9238C177.916 19.3672 178.165 18.6738 178.165 17.8438C178.165 17.043 177.916 16.3447 177.418 15.749C176.92 15.1533 176.153 14.8555 175.118 14.8555H171.192V20.7441H175.118ZM186.002 23V21.1543L188.39 20.7441V9.3916H185.05L184.83 11.8672H182.369V7.15039H197.369V11.8672H194.894L194.674 9.3916H191.275V20.7441L193.663 21.1543V23H186.002ZM200.021 23V21.1543L202.408 20.7441V9.4209L200.021 9.01074V7.15039H205.279H207.667V9.01074L205.279 9.4209V18.3711L205.367 18.4004L212.354 7.15039H215.24H217.628V9.01074L215.24 9.4209V20.7441L217.628 21.1543V23H209.967V21.1543L212.354 20.7441V11.7793L212.267 11.75L205.279 23H200.021ZM219.693 29.0938V27.2334L221.935 26.8232V9.4209L219.547 9.01074V7.15039H224.41L224.674 9.08398C225.201 8.36133 225.841 7.80957 226.593 7.42871C227.354 7.04785 228.233 6.85742 229.229 6.85742C230.538 6.85742 231.656 7.21387 232.584 7.92676C233.512 8.62988 234.22 9.62109 234.708 10.9004C235.196 12.1699 235.44 13.6592 235.44 15.3682V15.6758C235.44 17.1992 235.191 18.5322 234.693 19.6748C234.205 20.8174 233.502 21.7109 232.584 22.3555C231.666 22.9902 230.562 23.3076 229.273 23.3076C228.297 23.3076 227.438 23.1465 226.695 22.8242C225.963 22.4922 225.338 22.0039 224.82 21.3594V26.8232L227.34 27.2334V29.0938H219.693ZM228.38 21.0518C229.747 21.0518 230.782 20.5537 231.485 19.5576C232.188 18.5615 232.54 17.2676 232.54 15.6758V15.3682C232.54 14.1572 232.384 13.0928 232.071 12.1748C231.759 11.2471 231.29 10.5195 230.665 9.99219C230.05 9.46484 229.278 9.20117 228.351 9.20117C227.53 9.20117 226.827 9.38672 226.241 9.75781C225.655 10.1289 225.182 10.6367 224.82 11.2812V19.001C225.182 19.6553 225.65 20.1631 226.227 20.5244C226.812 20.876 227.53 21.0518 228.38 21.0518ZM241.446 29.4014C241.222 29.4014 240.929 29.3721 240.567 29.3135C240.206 29.2646 239.928 29.2158 239.732 29.167L240.025 26.8965C240.191 26.916 240.421 26.9307 240.714 26.9404C241.007 26.96 241.207 26.9697 241.314 26.9697C241.93 26.9697 242.428 26.7354 242.809 26.2666C243.199 25.7979 243.561 25.1582 243.893 24.3477L244.581 22.6777L238.971 9.24512L237.271 9.01074V7.15039H243.922V9.01074L242.003 9.30371L245.094 17.2285L245.841 19.2939H245.929L249.591 9.30371L247.569 9.01074V7.15039H254.088V9.01074L252.447 9.24512L246.207 25.4316C245.914 26.1934 245.558 26.8721 245.138 27.4678C244.728 28.0732 244.22 28.5469 243.614 28.8887C243.019 29.2305 242.296 29.4014 241.446 29.4014ZM262.481 23.3076C261.017 23.3076 259.742 22.9756 258.658 22.3115C257.574 21.6377 256.734 20.7051 256.139 19.5137C255.553 18.3223 255.26 16.9453 255.26 15.3828V14.7383C255.26 13.2344 255.567 11.8916 256.183 10.71C256.808 9.51855 257.633 8.58105 258.658 7.89746C259.693 7.2041 260.821 6.85742 262.042 6.85742C263.468 6.85742 264.659 7.15039 265.616 7.73633C266.583 8.32227 267.311 9.14746 267.799 10.2119C268.287 11.2666 268.531 12.5117 268.531 13.9473V15.749H258.248L258.204 15.8223C258.224 16.8379 258.399 17.7412 258.731 18.5322C259.073 19.3135 259.562 19.9287 260.196 20.3779C260.831 20.8271 261.593 21.0518 262.481 21.0518C263.458 21.0518 264.312 20.915 265.045 20.6416C265.787 20.3584 266.427 19.9727 266.964 19.4844L268.092 21.3594C267.525 21.9062 266.773 22.3701 265.836 22.751C264.908 23.1221 263.79 23.3076 262.481 23.3076ZM258.336 13.4932H265.646V13.1123C265.646 12.3506 265.509 11.6719 265.235 11.0762C264.972 10.4707 264.571 9.99707 264.034 9.65527C263.507 9.30371 262.843 9.12793 262.042 9.12793C261.397 9.12793 260.812 9.31836 260.284 9.69922C259.757 10.0703 259.322 10.5781 258.98 11.2227C258.639 11.8672 258.414 12.5996 258.307 13.4199L258.336 13.4932ZM271.124 23V21.1543L273.512 20.7441V9.4209L271.124 9.01074V7.15039H273.512H277.232L282.389 19.2207H282.477L287.647 7.15039H291.266H293.653V9.01074L291.266 9.4209V20.7441L293.653 21.1543V23H285.992V21.1543L288.38 20.7441V11.999L288.292 11.9697L283.429 23H281.437L276.485 11.7354L276.397 11.7646V20.7441L278.785 21.1543V23H271.124ZM310.675 23.3076C309.239 23.3076 307.989 22.9756 306.925 22.3115C305.86 21.6377 305.035 20.7051 304.449 19.5137C303.863 18.3223 303.57 16.9453 303.57 15.3828V14.7676C303.57 13.2637 303.854 11.916 304.42 10.7246C304.986 9.5332 305.802 8.59082 306.866 7.89746C307.931 7.2041 309.2 6.85742 310.675 6.85742C311.954 6.85742 313.072 7.06738 314.029 7.4873C314.996 7.90723 315.807 8.4834 316.461 9.21582L316.534 13.0244H314.278L313.78 10.2559C313.448 9.91406 313.033 9.64062 312.535 9.43555C312.037 9.23047 311.451 9.12793 310.777 9.12793C309.918 9.12793 309.161 9.38184 308.507 9.88965C307.862 10.3975 307.359 11.0762 306.998 11.9258C306.637 12.7754 306.456 13.7227 306.456 14.7676V15.3828C306.456 16.5352 306.622 17.5361 306.954 18.3857C307.296 19.2354 307.779 19.8945 308.404 20.3633C309.039 20.8223 309.791 21.0518 310.66 21.0518C311.637 21.0518 312.447 20.7832 313.092 20.2461C313.736 19.709 314.132 18.9717 314.278 18.0342H316.871L316.9 18.1221C316.852 19.0303 316.583 19.8799 316.095 20.6709C315.606 21.4619 314.908 22.1016 314 22.5898C313.102 23.0684 311.993 23.3076 310.675 23.3076ZM326.7 23.3076C325.235 23.3076 323.971 22.9658 322.906 22.2822C321.852 21.5889 321.036 20.6367 320.46 19.4258C319.884 18.2051 319.596 16.8135 319.596 15.251V14.9287C319.596 13.3662 319.884 11.9795 320.46 10.7686C321.036 9.54785 321.852 8.59082 322.906 7.89746C323.971 7.2041 325.226 6.85742 326.671 6.85742C328.136 6.85742 329.396 7.2041 330.45 7.89746C331.515 8.59082 332.335 9.54297 332.911 10.7539C333.487 11.9648 333.775 13.3564 333.775 14.9287V15.251C333.775 16.8232 333.487 18.2197 332.911 19.4404C332.335 20.6514 331.52 21.5986 330.465 22.2822C329.41 22.9658 328.155 23.3076 326.7 23.3076ZM326.7 21.0518C327.618 21.0518 328.385 20.8027 329 20.3047C329.625 19.7969 330.094 19.1084 330.406 18.2393C330.729 17.3604 330.89 16.3643 330.89 15.251V14.9287C330.89 13.8154 330.729 12.8242 330.406 11.9551C330.094 11.0762 329.625 10.3877 329 9.88965C328.375 9.38184 327.599 9.12793 326.671 9.12793C325.753 9.12793 324.981 9.38184 324.356 9.88965C323.731 10.3877 323.263 11.0762 322.95 11.9551C322.638 12.8242 322.481 13.8154 322.481 14.9287V15.251C322.481 16.3643 322.638 17.3604 322.95 18.2393C323.263 19.1084 323.731 19.7969 324.356 20.3047C324.991 20.8027 325.772 21.0518 326.7 21.0518ZM336.72 23V21.1543L339.107 20.7441V9.4209L336.72 9.01074V7.15039H339.107H345.348C347.438 7.15039 349.059 7.5166 350.211 8.24902C351.363 8.97168 351.939 10.0605 351.939 11.5156C351.939 12.2578 351.715 12.9219 351.266 13.5078C350.816 14.084 350.182 14.5234 349.361 14.8262C350.348 15.0703 351.119 15.5293 351.676 16.2031C352.232 16.8672 352.511 17.6289 352.511 18.4883C352.511 19.9727 351.969 21.0957 350.885 21.8574C349.811 22.6191 348.302 23 346.358 23H336.72ZM341.993 20.7734H346.358C347.433 20.7734 348.243 20.5732 348.79 20.1729C349.337 19.7627 349.61 19.1768 349.61 18.415C349.61 17.6631 349.337 17.082 348.79 16.6719C348.243 16.2617 347.433 16.0566 346.358 16.0566H341.993V20.7734ZM341.993 13.8447H345.362C346.583 13.8447 347.501 13.6641 348.116 13.3027C348.741 12.9414 349.054 12.3945 349.054 11.6621C349.054 10.1484 347.818 9.3916 345.348 9.3916H341.993V13.8447ZM362.237 23.3076C360.772 23.3076 359.498 22.9756 358.414 22.3115C357.33 21.6377 356.49 20.7051 355.895 19.5137C355.309 18.3223 355.016 16.9453 355.016 15.3828V14.7383C355.016 13.2344 355.323 11.8916 355.938 10.71C356.563 9.51855 357.389 8.58105 358.414 7.89746C359.449 7.2041 360.577 6.85742 361.798 6.85742C363.224 6.85742 364.415 7.15039 365.372 7.73633C366.339 8.32227 367.066 9.14746 367.555 10.2119C368.043 11.2666 368.287 12.5117 368.287 13.9473V15.749H358.004L357.96 15.8223C357.979 16.8379 358.155 17.7412 358.487 18.5322C358.829 19.3135 359.317 19.9287 359.952 20.3779C360.587 20.8271 361.349 21.0518 362.237 21.0518C363.214 21.0518 364.068 20.915 364.801 20.6416C365.543 20.3584 366.183 19.9727 366.72 19.4844L367.848 21.3594C367.281 21.9062 366.529 22.3701 365.592 22.751C364.664 23.1221 363.546 23.3076 362.237 23.3076ZM358.092 13.4932H365.401V13.1123C365.401 12.3506 365.265 11.6719 364.991 11.0762C364.728 10.4707 364.327 9.99707 363.79 9.65527C363.263 9.30371 362.599 9.12793 361.798 9.12793C361.153 9.12793 360.567 9.31836 360.04 9.69922C359.513 10.0703 359.078 10.5781 358.736 11.2227C358.395 11.8672 358.17 12.5996 358.062 13.4199L358.092 13.4932ZM370.104 29.0938V27.2334L372.345 26.8232V9.4209L369.957 9.01074V7.15039H374.82L375.084 9.08398C375.611 8.36133 376.251 7.80957 377.003 7.42871C377.765 7.04785 378.644 6.85742 379.64 6.85742C380.948 6.85742 382.066 7.21387 382.994 7.92676C383.922 8.62988 384.63 9.62109 385.118 10.9004C385.606 12.1699 385.851 13.6592 385.851 15.3682V15.6758C385.851 17.1992 385.602 18.5322 385.104 19.6748C384.615 20.8174 383.912 21.7109 382.994 22.3555C382.076 22.9902 380.973 23.3076 379.684 23.3076C378.707 23.3076 377.848 23.1465 377.105 22.8242C376.373 22.4922 375.748 22.0039 375.23 21.3594V26.8232L377.75 27.2334V29.0938H370.104ZM378.79 21.0518C380.157 21.0518 381.192 20.5537 381.896 19.5576C382.599 18.5615 382.95 17.2676 382.95 15.6758V15.3682C382.95 14.1572 382.794 13.0928 382.481 12.1748C382.169 11.2471 381.7 10.5195 381.075 9.99219C380.46 9.46484 379.688 9.20117 378.761 9.20117C377.94 9.20117 377.237 9.38672 376.651 9.75781C376.065 10.1289 375.592 10.6367 375.23 11.2812V19.001C375.592 19.6553 376.061 20.1631 376.637 20.5244C377.223 20.876 377.94 21.0518 378.79 21.0518ZM389.044 23V21.1543L391.432 20.7441V9.4209L389.044 9.01074V7.15039H394.317H396.705V9.01074L394.317 9.4209V20.7441H399.884V7.15039H402.77V20.7441H408.351V9.4209L405.963 9.01074V7.15039H411.236H413.624V9.01074L411.236 9.4209V20.7441L413.624 21.1543V23H389.044ZM423.351 23.3076C421.886 23.3076 420.611 22.9756 419.527 22.3115C418.443 21.6377 417.604 20.7051 417.008 19.5137C416.422 18.3223 416.129 16.9453 416.129 15.3828V14.7383C416.129 13.2344 416.437 11.8916 417.052 10.71C417.677 9.51855 418.502 8.58105 419.527 7.89746C420.562 7.2041 421.69 6.85742 422.911 6.85742C424.337 6.85742 425.528 7.15039 426.485 7.73633C427.452 8.32227 428.18 9.14746 428.668 10.2119C429.156 11.2666 429.4 12.5117 429.4 13.9473V15.749H419.117L419.073 15.8223C419.093 16.8379 419.269 17.7412 419.601 18.5322C419.942 19.3135 420.431 19.9287 421.065 20.3779C421.7 20.8271 422.462 21.0518 423.351 21.0518C424.327 21.0518 425.182 20.915 425.914 20.6416C426.656 20.3584 427.296 19.9727 427.833 19.4844L428.961 21.3594C428.395 21.9062 427.643 22.3701 426.705 22.751C425.777 23.1221 424.659 23.3076 423.351 23.3076ZM419.205 13.4932H426.515V13.1123C426.515 12.3506 426.378 11.6719 426.104 11.0762C425.841 10.4707 425.44 9.99707 424.903 9.65527C424.376 9.30371 423.712 9.12793 422.911 9.12793C422.267 9.12793 421.681 9.31836 421.153 9.69922C420.626 10.0703 420.191 10.5781 419.85 11.2227C419.508 11.8672 419.283 12.5996 419.176 13.4199L419.205 13.4932ZM431.993 23V21.1543L434.381 20.7441V9.4209L431.993 9.01074V7.15039H439.654V9.01074L437.267 9.4209V14.0059H444.312V9.4209L441.925 9.01074V7.15039H444.312H447.213H449.601V9.01074L447.213 9.4209V20.7441L449.601 21.1543V23H441.925V21.1543L444.312 20.7441V16.2617H437.267V20.7441L439.654 21.1543V23H431.993ZM452.442 23V21.1543L454.83 20.7441V9.4209L452.442 9.01074V7.15039H460.104V9.01074L457.716 9.4209V14.0059H464.762V9.4209L462.374 9.01074V7.15039H464.762H467.662H470.05V9.01074L467.662 9.4209V20.7441L470.05 21.1543V23H462.374V21.1543L464.762 20.7441V16.2617H457.716V20.7441L460.104 21.1543V23H452.442ZM479.718 23.3076C478.253 23.3076 476.988 22.9658 475.924 22.2822C474.869 21.5889 474.054 20.6367 473.478 19.4258C472.901 18.2051 472.613 16.8135 472.613 15.251V14.9287C472.613 13.3662 472.901 11.9795 473.478 10.7686C474.054 9.54785 474.869 8.59082 475.924 7.89746C476.988 7.2041 478.243 6.85742 479.688 6.85742C481.153 6.85742 482.413 7.2041 483.468 7.89746C484.532 8.59082 485.353 9.54297 485.929 10.7539C486.505 11.9648 486.793 13.3564 486.793 14.9287V15.251C486.793 16.8232 486.505 18.2197 485.929 19.4404C485.353 20.6514 484.537 21.5986 483.482 22.2822C482.428 22.9658 481.173 23.3076 479.718 23.3076ZM479.718 21.0518C480.636 21.0518 481.402 20.8027 482.018 20.3047C482.643 19.7969 483.111 19.1084 483.424 18.2393C483.746 17.3604 483.907 16.3643 483.907 15.251V14.9287C483.907 13.8154 483.746 12.8242 483.424 11.9551C483.111 11.0762 482.643 10.3877 482.018 9.88965C481.393 9.38184 480.616 9.12793 479.688 9.12793C478.771 9.12793 477.999 9.38184 477.374 9.88965C476.749 10.3877 476.28 11.0762 475.968 11.9551C475.655 12.8242 475.499 13.8154 475.499 14.9287V15.251C475.499 16.3643 475.655 17.3604 475.968 18.2393C476.28 19.1084 476.749 19.7969 477.374 20.3047C478.009 20.8027 478.79 21.0518 479.718 21.0518Z" fill="white" fill-opacity="0.9"/>
<path d="M504.43 23.3076C502.975 23.3076 501.715 22.9805 500.65 22.3262C499.596 21.6621 498.78 20.749 498.204 19.5869C497.628 18.415 497.34 17.0723 497.34 15.5586V13.5078C497.34 11.4277 497.633 9.62598 498.219 8.10254C498.814 6.5791 499.654 5.35352 500.738 4.42578C501.822 3.49805 503.102 2.8877 504.576 2.59473C505.807 2.37012 506.695 2.10156 507.242 1.78906C507.799 1.47656 508.077 0.963867 508.077 0.250977H510.304L510.333 0.338867C510.353 1.19824 510.26 1.89648 510.055 2.43359C509.859 2.9707 509.547 3.40039 509.117 3.72266C508.688 4.04492 508.141 4.29883 507.477 4.48438C506.812 4.66992 506.026 4.84082 505.118 4.99707C504.229 5.14355 503.419 5.42188 502.687 5.83203C501.964 6.23242 501.363 6.78418 500.885 7.4873C500.416 8.18066 500.108 9.04492 499.962 10.0801L500.021 10.1533C500.597 9.53809 501.319 9.03516 502.188 8.64453C503.067 8.25391 504 8.05859 504.986 8.05859C506.324 8.05859 507.481 8.36621 508.458 8.98145C509.435 9.59668 510.187 10.4463 510.714 11.5303C511.251 12.6045 511.52 13.8398 511.52 15.2363V15.5586C511.52 17.0723 511.231 18.415 510.655 19.5869C510.079 20.749 509.259 21.6621 508.194 22.3262C507.14 22.9805 505.885 23.3076 504.43 23.3076ZM504.43 21.0518C505.348 21.0518 506.119 20.8174 506.744 20.3486C507.369 19.8701 507.838 19.2207 508.15 18.4004C508.473 17.5703 508.634 16.623 508.634 15.5586V15.2363C508.634 14.2988 508.473 13.459 508.15 12.7168C507.828 11.9746 507.354 11.3887 506.729 10.959C506.104 10.5293 505.328 10.3145 504.4 10.3145C503.482 10.3145 502.711 10.5293 502.086 10.959C501.471 11.3887 501.007 11.9746 500.694 12.7168C500.382 13.459 500.226 14.2988 500.226 15.2363V15.5586C500.226 16.623 500.382 17.5703 500.694 18.4004C501.007 19.2207 501.476 19.8701 502.101 20.3486C502.726 20.8174 503.502 21.0518 504.43 21.0518ZM521.173 23.3076C519.708 23.3076 518.434 22.9756 517.35 22.3115C516.266 21.6377 515.426 20.7051 514.83 19.5137C514.244 18.3223 513.951 16.9453 513.951 15.3828V14.7383C513.951 13.2344 514.259 11.8916 514.874 10.71C515.499 9.51855 516.324 8.58105 517.35 7.89746C518.385 7.2041 519.513 6.85742 520.733 6.85742C522.159 6.85742 523.351 7.15039 524.308 7.73633C525.274 8.32227 526.002 9.14746 526.49 10.2119C526.979 11.2666 527.223 12.5117 527.223 13.9473V15.749H516.939L516.896 15.8223C516.915 16.8379 517.091 17.7412 517.423 18.5322C517.765 19.3135 518.253 19.9287 518.888 20.3779C519.522 20.8271 520.284 21.0518 521.173 21.0518C522.149 21.0518 523.004 20.915 523.736 20.6416C524.479 20.3584 525.118 19.9727 525.655 19.4844L526.783 21.3594C526.217 21.9062 525.465 22.3701 524.527 22.751C523.6 23.1221 522.481 23.3076 521.173 23.3076ZM517.027 13.4932H524.337V13.1123C524.337 12.3506 524.2 11.6719 523.927 11.0762C523.663 10.4707 523.263 9.99707 522.726 9.65527C522.198 9.30371 521.534 9.12793 520.733 9.12793C520.089 9.12793 519.503 9.31836 518.976 9.69922C518.448 10.0703 518.014 10.5781 517.672 11.2227C517.33 11.8672 517.105 12.5996 516.998 13.4199L517.027 13.4932ZM537.228 23.3076C535.792 23.3076 534.542 22.9756 533.478 22.3115C532.413 21.6377 531.588 20.7051 531.002 19.5137C530.416 18.3223 530.123 16.9453 530.123 15.3828V14.7676C530.123 13.2637 530.406 11.916 530.973 10.7246C531.539 9.5332 532.354 8.59082 533.419 7.89746C534.483 7.2041 535.753 6.85742 537.228 6.85742C538.507 6.85742 539.625 7.06738 540.582 7.4873C541.549 7.90723 542.359 8.4834 543.014 9.21582L543.087 13.0244H540.831L540.333 10.2559C540.001 9.91406 539.586 9.64062 539.088 9.43555C538.59 9.23047 538.004 9.12793 537.33 9.12793C536.471 9.12793 535.714 9.38184 535.06 9.88965C534.415 10.3975 533.912 11.0762 533.551 11.9258C533.189 12.7754 533.009 13.7227 533.009 14.7676V15.3828C533.009 16.5352 533.175 17.5361 533.507 18.3857C533.849 19.2354 534.332 19.8945 534.957 20.3633C535.592 20.8223 536.344 21.0518 537.213 21.0518C538.189 21.0518 539 20.7832 539.645 20.2461C540.289 19.709 540.685 18.9717 540.831 18.0342H543.424L543.453 18.1221C543.404 19.0303 543.136 19.8799 542.647 20.6709C542.159 21.4619 541.461 22.1016 540.553 22.5898C539.654 23.0684 538.546 23.3076 537.228 23.3076ZM546.046 23V21.1543L548.434 20.7441V9.4209L546.046 9.01074V7.15039H563.653V9.01074L561.266 9.4209V20.7441L563.653 21.1543V23H555.992V21.1543L558.38 20.7441V9.43555H551.319V20.7441L553.707 21.1543V23H546.046ZM566.085 23L566.129 20.5391L566.729 20.5244C567.423 20.5244 567.97 20.3096 568.37 19.8799C568.771 19.4404 569.059 18.7373 569.234 17.7705C569.41 16.7939 569.498 15.5098 569.498 13.918V9.4209L567.11 9.01074V7.15039H580.646H583.033V9.01074L580.646 9.4209V20.7441L583.033 21.1543V23H575.372V21.1543L577.76 20.7441V9.43555H572.384V13.918C572.384 17.043 571.969 19.3379 571.139 20.8027C570.318 22.2676 568.907 23 566.905 23H566.085ZM590.562 23.3076C588.912 23.3076 587.657 22.9072 586.798 22.1064C585.938 21.2959 585.509 20.1582 585.509 18.6934C585.509 17.6875 585.782 16.8135 586.329 16.0713C586.886 15.3193 587.687 14.7383 588.731 14.3281C589.776 13.9082 591.026 13.6982 592.481 13.6982H595.309V12.1455C595.309 11.1885 595.016 10.4463 594.43 9.91895C593.854 9.3916 593.038 9.12793 591.983 9.12793C591.319 9.12793 590.743 9.21094 590.255 9.37695C589.767 9.5332 589.322 9.75293 588.922 10.0361L588.614 12.248H586.388V8.61523C587.101 8.03906 587.931 7.60449 588.878 7.31152C589.825 7.00879 590.875 6.85742 592.027 6.85742C593.951 6.85742 595.46 7.31641 596.554 8.23438C597.647 9.15234 598.194 10.4658 598.194 12.1748V19.8066C598.194 20.0117 598.194 20.2119 598.194 20.4072C598.204 20.6025 598.219 20.7979 598.238 20.9932L599.776 21.1543V23H595.631C595.543 22.5703 595.475 22.1846 595.426 21.8428C595.377 21.501 595.343 21.1592 595.323 20.8174C594.767 21.5303 594.068 22.126 593.229 22.6045C592.398 23.0732 591.51 23.3076 590.562 23.3076ZM590.987 20.8906C591.944 20.8906 592.818 20.6611 593.609 20.2021C594.4 19.7432 594.967 19.1914 595.309 18.5469V15.6758H592.379C591.051 15.6758 590.055 15.9932 589.391 16.6279C588.727 17.2627 588.395 17.9707 588.395 18.752C588.395 19.4453 588.609 19.9775 589.039 20.3486C589.469 20.71 590.118 20.8906 590.987 20.8906ZM605.475 23V21.1543L607.862 20.7441V9.3916H604.522L604.303 11.8672H601.842V7.15039H616.842V11.8672H614.366L614.146 9.3916H610.748V20.7441L613.136 21.1543V23H605.475ZM619.493 23V21.1543L621.881 20.7441V9.4209L619.493 9.01074V7.15039H627.154V9.01074L624.767 9.4209V14.0059H631.812V9.4209L629.425 9.01074V7.15039H631.812H634.713H637.101V9.01074L634.713 9.4209V20.7441L637.101 21.1543V23H629.425V21.1543L631.812 20.7441V16.2617H624.767V20.7441L627.154 21.1543V23H619.493ZM646.769 23.3076C645.304 23.3076 644.039 22.9658 642.975 22.2822C641.92 21.5889 641.104 20.6367 640.528 19.4258C639.952 18.2051 639.664 16.8135 639.664 15.251V14.9287C639.664 13.3662 639.952 11.9795 640.528 10.7686C641.104 9.54785 641.92 8.59082 642.975 7.89746C644.039 7.2041 645.294 6.85742 646.739 6.85742C648.204 6.85742 649.464 7.2041 650.519 7.89746C651.583 8.59082 652.403 9.54297 652.979 10.7539C653.556 11.9648 653.844 13.3564 653.844 14.9287V15.251C653.844 16.8232 653.556 18.2197 652.979 19.4404C652.403 20.6514 651.588 21.5986 650.533 22.2822C649.479 22.9658 648.224 23.3076 646.769 23.3076ZM646.769 21.0518C647.687 21.0518 648.453 20.8027 649.068 20.3047C649.693 19.7969 650.162 19.1084 650.475 18.2393C650.797 17.3604 650.958 16.3643 650.958 15.251V14.9287C650.958 13.8154 650.797 12.8242 650.475 11.9551C650.162 11.0762 649.693 10.3877 649.068 9.88965C648.443 9.38184 647.667 9.12793 646.739 9.12793C645.821 9.12793 645.05 9.38184 644.425 9.88965C643.8 10.3877 643.331 11.0762 643.019 11.9551C642.706 12.8242 642.55 13.8154 642.55 14.9287V15.251C642.55 16.3643 642.706 17.3604 643.019 18.2393C643.331 19.1084 643.8 19.7969 644.425 20.3047C645.06 20.8027 645.841 21.0518 646.769 21.0518Z" fill="url(#paint0_linear)"/>
<defs>
<linearGradient id="paint0_linear" x1="327.001" y1="26.7377" x2="327.002" y2="-13.5902" gradientUnits="userSpaceOnUse">
<stop stop-color="#A27227"/>
<stop offset="0.0485093" stop-color="#FEDA5B"/>
<stop offset="0.122132" stop-color="#FEDA5B"/>
<stop offset="0.22188" stop-color="#CD953D"/>
<stop offset="0.347751" stop-color="#C99C39"/>
<stop offset="0.421875" stop-color="#FEDA5B"/>
<stop offset="0.601869" stop-color="#EDC84C"/>
<stop offset="0.753865" stop-color="#A27227"/>
<stop offset="1" stop-color="#EDC84C"/>
</linearGradient>
</defs>
</svg>
