<svg width="206" height="63" viewBox="0 0 206 63" fill="none" xmlns="http://www.w3.org/2000/svg">
<g filter="url(#filter0_dd)">
<rect x="7.5" y="7.5" width="191" height="48" rx="9.5" fill="#2E2E2E" stroke="url(#paint0_linear)"/>
<path d="M67.6143 37.1436C66.9717 37.1436 66.3952 37.0205 65.8848 36.7744C65.3743 36.5283 64.9391 36.182 64.5791 35.7354C64.2236 35.2842 63.9502 34.751 63.7588 34.1357C63.5719 33.5205 63.4785 32.8415 63.4785 32.0986V31.9551C63.4785 31.2168 63.5719 30.54 63.7588 29.9248C63.9502 29.305 64.2236 28.7695 64.5791 28.3184C64.9391 27.8672 65.3743 27.5186 65.8848 27.2725C66.3952 27.0264 66.9717 26.9033 67.6143 26.9033C68.2933 26.9033 68.8903 27.0264 69.4053 27.2725C69.9202 27.5186 70.3509 27.8672 70.6973 28.3184C71.0482 28.7695 71.3125 29.305 71.4902 29.9248C71.668 30.54 71.7568 31.2168 71.7568 31.9551V32.0986C71.7568 32.8415 71.668 33.5205 71.4902 34.1357C71.3125 34.751 71.0482 35.2842 70.6973 35.7354C70.3509 36.182 69.9202 36.5283 69.4053 36.7744C68.8903 37.0205 68.2933 37.1436 67.6143 37.1436ZM67.6143 36.0225C68.2751 36.0225 68.8083 35.8584 69.2139 35.5303C69.624 35.2021 69.9248 34.7441 70.1162 34.1562C70.3076 33.5638 70.4033 32.8779 70.4033 32.0986V31.9414C70.4033 31.1667 70.3053 30.4876 70.1094 29.9043C69.918 29.3164 69.6172 28.8584 69.207 28.5303C68.7969 28.1976 68.266 28.0312 67.6143 28.0312C67.0173 28.0312 66.5114 28.1976 66.0967 28.5303C65.682 28.863 65.3675 29.3232 65.1533 29.9111C64.9391 30.4945 64.832 31.1712 64.832 31.9414V32.0986C64.832 32.8734 64.9391 33.557 65.1533 34.1494C65.3675 34.7373 65.682 35.1976 66.0967 35.5303C66.5114 35.8584 67.0173 36.0225 67.6143 36.0225ZM75.1133 37V36.1387L76.2275 35.9473V30.6494H74.6689L74.5664 31.8047H73.418V29.6035H80.418V31.8047H79.2627L79.1602 30.6494H77.5742V35.9473L78.6885 36.1387V37H75.1133ZM81.6553 37V36.1387L82.7695 35.9473V30.6631L81.6553 30.4717V29.6035H89.8721V30.4717L88.7578 30.6631V35.9473L89.8721 36.1387V37H86.2969V36.1387L87.4111 35.9473V30.6699H84.1162V35.9473L85.2305 36.1387V37H81.6553ZM90.8359 39.8438V38.9756L91.8818 38.7842V30.6631L90.7676 30.4717V29.6035H93.0371L93.1602 30.5059C93.4062 30.1686 93.7048 29.9111 94.0557 29.7334C94.4111 29.5557 94.8213 29.4668 95.2861 29.4668C95.8968 29.4668 96.4186 29.6331 96.8516 29.9658C97.2845 30.2939 97.6149 30.7565 97.8428 31.3535C98.0706 31.946 98.1846 32.641 98.1846 33.4385V33.582C98.1846 34.293 98.0684 34.915 97.8359 35.4482C97.6081 35.9814 97.2799 36.3984 96.8516 36.6992C96.4232 36.9954 95.9082 37.1436 95.3066 37.1436C94.8509 37.1436 94.4499 37.0684 94.1035 36.918C93.7617 36.763 93.4701 36.5352 93.2285 36.2344V38.7842L94.4043 38.9756V39.8438H90.8359ZM94.8896 36.0908C95.5277 36.0908 96.0107 35.8584 96.3389 35.3936C96.667 34.9287 96.8311 34.3249 96.8311 33.582V33.4385C96.8311 32.8734 96.7581 32.3766 96.6123 31.9482C96.4665 31.5153 96.2477 31.1758 95.9561 30.9297C95.6689 30.6836 95.3089 30.5605 94.876 30.5605C94.4932 30.5605 94.165 30.6471 93.8916 30.8203C93.6182 30.9935 93.3971 31.2305 93.2285 31.5312V35.1338C93.3971 35.4391 93.6159 35.6761 93.8848 35.8447C94.1582 36.0088 94.4932 36.0908 94.8896 36.0908ZM101.91 37.1436C101.14 37.1436 100.554 36.9567 100.153 36.583C99.7523 36.2048 99.5518 35.6738 99.5518 34.9902C99.5518 34.5208 99.6794 34.113 99.9346 33.7666C100.194 33.4157 100.568 33.1445 101.056 32.9531C101.543 32.7572 102.127 32.6592 102.806 32.6592H104.125V31.9346C104.125 31.488 103.988 31.1416 103.715 30.8955C103.446 30.6494 103.065 30.5264 102.573 30.5264C102.263 30.5264 101.994 30.5651 101.767 30.6426C101.539 30.7155 101.331 30.818 101.145 30.9502L101.001 31.9824H99.9619V30.2871C100.295 30.0182 100.682 29.8154 101.124 29.6787C101.566 29.5374 102.056 29.4668 102.594 29.4668C103.492 29.4668 104.196 29.681 104.706 30.1094C105.216 30.5378 105.472 31.1507 105.472 31.9482V35.5098C105.472 35.6055 105.472 35.6989 105.472 35.79C105.476 35.8812 105.483 35.9723 105.492 36.0635L106.21 36.1387V37H104.275C104.234 36.7995 104.202 36.6195 104.18 36.46C104.157 36.3005 104.141 36.141 104.132 35.9814C103.872 36.3141 103.546 36.5921 103.154 36.8154C102.767 37.0342 102.352 37.1436 101.91 37.1436ZM102.108 36.0156C102.555 36.0156 102.963 35.9085 103.332 35.6943C103.701 35.4801 103.965 35.2227 104.125 34.9219V33.582H102.758C102.138 33.582 101.673 33.7301 101.363 34.0264C101.053 34.3226 100.898 34.653 100.898 35.0176C100.898 35.3411 100.999 35.5895 101.199 35.7627C101.4 35.9313 101.703 36.0156 102.108 36.0156ZM107.413 37V36.1387L108.527 35.9473V30.6631L107.413 30.4717V29.6035H108.527H111.439C112.415 29.6035 113.171 29.7744 113.709 30.1162C114.247 30.4535 114.516 30.9616 114.516 31.6406C114.516 31.987 114.411 32.2969 114.201 32.5703C113.992 32.8392 113.695 33.0443 113.312 33.1855C113.773 33.2995 114.133 33.5137 114.393 33.8281C114.652 34.138 114.782 34.4935 114.782 34.8945C114.782 35.5872 114.529 36.1113 114.023 36.4668C113.522 36.8223 112.818 37 111.911 37H107.413ZM109.874 35.9609H111.911C112.412 35.9609 112.791 35.8675 113.046 35.6807C113.301 35.4893 113.429 35.2158 113.429 34.8604C113.429 34.5094 113.301 34.2383 113.046 34.0469C112.791 33.8555 112.412 33.7598 111.911 33.7598H109.874V35.9609ZM109.874 32.7275H111.446C112.016 32.7275 112.444 32.6432 112.731 32.4746C113.023 32.306 113.169 32.0508 113.169 31.709C113.169 31.0026 112.592 30.6494 111.439 30.6494H109.874V32.7275ZM116.108 37V36.1387L117.223 35.9473V30.6631L116.108 30.4717V29.6035H118.562H119.677V30.4717L118.562 30.6631V34.8398L118.604 34.8535L121.864 29.6035H123.211H124.325V30.4717L123.211 30.6631V35.9473L124.325 36.1387V37H120.75V36.1387L121.864 35.9473V31.7637L121.823 31.75L118.562 37H116.108ZM127.217 37V36.1387L128.331 35.9473V30.6494H126.772L126.67 31.8047H125.521V29.6035H132.521V31.8047H131.366L131.264 30.6494H129.678V35.9473L130.792 36.1387V37H127.217ZM138.052 32.1465C138.927 32.1465 139.608 32.3698 140.096 32.8164C140.583 33.2585 140.827 33.835 140.827 34.5459C140.827 35.2614 140.581 35.8493 140.089 36.3096C139.601 36.7699 138.922 37 138.052 37H133.759V36.1387L134.873 35.9473V30.6631L133.759 30.4717V29.6035H137.334V30.4717L136.22 30.6631V32.1465H138.052ZM138.052 35.9473C138.539 35.9473 138.897 35.8197 139.125 35.5645C139.357 35.3047 139.474 34.9811 139.474 34.5938C139.474 34.2201 139.357 33.8942 139.125 33.6162C138.893 33.3382 138.535 33.1992 138.052 33.1992H136.22V35.9473H138.052Z" fill="white" fill-opacity="0.9"/>
</g>
<defs>
<filter id="filter0_dd" x="0" y="0" width="206" height="63" filterUnits="userSpaceOnUse" color-interpolation-filters="sRGB">
<feFlood flood-opacity="0" result="BackgroundImageFix"/>
<feColorMatrix in="SourceAlpha" type="matrix" values="0 0 0 0 0 0 0 0 0 0 0 0 0 0 0 0 0 0 127 0"/>
<feOffset dx="2" dy="2"/>
<feGaussianBlur stdDeviation="2.5"/>
<feColorMatrix type="matrix" values="0 0 0 0 0 0 0 0 0 0 0 0 0 0 0 0 0 0 0.3 0"/>
<feBlend mode="normal" in2="BackgroundImageFix" result="effect1_dropShadow"/>
<feColorMatrix in="SourceAlpha" type="matrix" values="0 0 0 0 0 0 0 0 0 0 0 0 0 0 0 0 0 0 127 0"/>
<feOffset dx="-2" dy="-2"/>
<feGaussianBlur stdDeviation="2.5"/>
<feColorMatrix type="matrix" values="0 0 0 0 0.380392 0 0 0 0 0.380392 0 0 0 0 0.380392 0 0 0 0.4 0"/>
<feBlend mode="normal" in2="effect1_dropShadow" result="effect2_dropShadow"/>
<feBlend mode="normal" in="SourceGraphic" in2="effect2_dropShadow" result="shape"/>
</filter>
<linearGradient id="paint0_linear" x1="102.854" y1="50.7787" x2="102.854" y2="1.37705" gradientUnits="userSpaceOnUse">
<stop stop-color="#A27227"/>
<stop offset="0.0485093" stop-color="#FEDA5B"/>
<stop offset="0.122132" stop-color="#FEDA5B"/>
<stop offset="0.22188" stop-color="#CD953D"/>
<stop offset="0.347751" stop-color="#C99C39"/>
<stop offset="0.421875" stop-color="#FEDA5B"/>
<stop offset="0.601869" stop-color="#EDC84C"/>
<stop offset="0.753865" stop-color="#A27227"/>
<stop offset="1" stop-color="#EDC84C"/>
</linearGradient>
</defs>
</svg>
