<svg width="750" height="109" viewBox="0 0 750 109" fill="none" xmlns="http://www.w3.org/2000/svg">
<g filter="url(#filter0_d)">
<path d="M97.424 15.472L96.92 15.904C91.016 20.032 83.696 27.808 74.96 39.232L74.168 41.896C73.352 44.392 72.512 46.552 71.648 48.376C70.784 50.152 69.704 51.784 68.408 53.272C67.112 54.76 65.528 56.176 63.656 57.52C62.936 58.048 62.144 58.6 61.28 59.176C60.656 60.472 60.152 61.6 59.768 62.56C60.008 62.56 60.224 62.584 60.416 62.632C61.328 62.728 62.336 62.776 63.44 62.776C65.216 62.776 66.896 62.536 68.48 62.056C69.968 60.28 71.672 58.096 73.592 55.504L73.88 56.008C72.344 58.168 70.952 60.04 69.704 61.624C69.848 61.576 69.968 61.552 70.064 61.552C70.208 61.552 70.28 61.6 70.28 61.696C70.28 61.936 70.064 62.176 69.632 62.416C69.344 62.512 69.032 62.632 68.696 62.776C65.336 66.76 62.768 68.752 60.992 68.752C58.928 68.752 58.088 67.24 58.472 64.216C58.52 63.832 58.568 63.448 58.616 63.064C58.424 63.016 58.232 62.968 58.04 62.92C57.8 62.872 57.56 62.848 57.32 62.848C57.128 62.8 56.888 62.752 56.6 62.704C56.36 62.656 56.024 62.608 55.592 62.56C54.488 63.088 53.648 63.448 53.072 63.64C52.496 63.784 51.92 63.856 51.344 63.856C50.96 63.856 50.624 63.784 50.336 63.64C50.048 63.448 49.904 63.208 49.904 62.92C49.904 62.536 50.216 62.2 50.84 61.912C51.512 61.576 52.304 61.408 53.216 61.408C53.504 61.408 53.816 61.432 54.152 61.48C54.488 61.48 54.968 61.528 55.592 61.624C56.216 61.48 56.936 61.048 57.752 60.328C58.568 59.608 59.408 58.672 60.272 57.52C61.328 54.976 62.768 52.168 64.592 49.096C64.832 48.712 65.096 48.28 65.384 47.8L59.192 47.728C47.048 62.368 35.624 69.688 24.92 69.688C21.416 69.688 18.488 68.32 16.136 65.584C14.072 63.184 12.944 60.52 12.752 57.592C8.912 54.568 7.376 49.912 8.144 43.624C8.864 37.432 11.384 32.08 15.704 27.568C20.024 23.008 25.04 20.728 30.752 20.728C35.504 20.728 38.792 22.984 40.616 27.496C42.92 28.168 44.744 29.536 46.088 31.6C47.288 33.376 47.816 35.488 47.672 37.936C48.248 39.088 48.536 40.408 48.536 41.896C48.536 42.328 48.512 42.76 48.464 43.192H55.304C62.216 33.784 69.152 26.752 76.112 22.096C76.256 22 76.376 21.904 76.472 21.808C77.384 21.04 78.368 20.248 79.424 19.432C80.72 18.472 82.016 17.656 83.312 16.984C84.608 16.312 85.52 15.976 86.048 15.976C86.384 15.976 86.552 16.144 86.552 16.48C86.552 16.624 86.456 16.768 86.264 16.912C86.168 17.008 86.096 17.08 86.048 17.128C89.456 15.976 92.864 15.376 96.272 15.328C97.04 15.328 97.424 15.376 97.424 15.472ZM46.88 38.872C46.88 38.776 46.88 38.68 46.88 38.584C46.448 37.432 45.704 36.448 44.648 35.632C43.688 34.864 42.56 34.288 41.264 33.904C41.264 34 41.264 34.072 41.264 34.12C40.784 37.384 39.608 40.384 37.736 43.12C35.672 46.096 33.104 48.04 30.032 48.952C29.456 48.952 29.144 48.832 29.096 48.592C29.144 48.256 29.288 48.088 29.528 48.088C29.816 48.04 30.248 47.92 30.824 47.728C33.368 46.864 35.528 45.112 37.304 42.472C39.128 39.832 40.232 37 40.616 33.976C40.616 33.88 40.616 33.808 40.616 33.76C39.56 33.472 38.408 33.328 37.16 33.328C34.52 33.328 31.976 33.952 29.528 35.2C27.08 36.4 24.92 38.008 23.048 40.024C21.176 42.04 19.664 44.368 18.512 47.008C17.408 49.6 16.856 52.312 16.856 55.144C16.856 56.584 17.12 57.904 17.648 59.104C17.648 59.152 17.672 59.224 17.72 59.32C19.112 59.656 20.768 59.824 22.688 59.824C27.152 59.824 31.52 58.432 35.792 55.648C40.448 52.624 43.712 48.76 45.584 44.056H41.408L42.2 43.192H45.944C46.328 42.04 46.64 40.6 46.88 38.872ZM39.536 27.352C37.904 23.992 34.928 22.312 30.608 22.312C25.232 22.312 20.432 24.448 16.208 28.72C11.984 32.992 9.488 38.104 8.72 44.056C8.096 49.336 9.416 53.488 12.68 56.512C12.536 54.832 12.56 53.416 12.752 52.264C13.472 45.976 16.016 40.336 20.384 35.344C25.088 29.824 30.824 27.064 37.592 27.064C38.024 27.064 38.672 27.16 39.536 27.352ZM54.512 44.056H48.32C48.128 44.824 47.888 45.568 47.6 46.288C46.976 47.68 46.112 48.952 45.008 50.104C43.712 51.4 42.824 52.048 42.344 52.048C42.152 52.048 42.056 51.928 42.056 51.688C42.056 51.496 42.32 51.208 42.848 50.824C44.24 49.72 45.368 48.352 46.232 46.72C46.712 45.856 47.048 44.968 47.24 44.056H46.376C44.456 49.048 41.048 53.128 36.152 56.296C31.64 59.368 27.104 60.904 22.544 60.904C21.008 60.904 19.592 60.76 18.296 60.472C18.728 61.144 19.232 61.744 19.808 62.272C20.72 63.184 21.8 63.88 23.048 64.36C24.344 64.888 25.712 65.152 27.152 65.152C29.936 65.152 32.624 64.552 35.216 63.352C37.856 62.104 40.784 60.064 44 57.232C44.768 56.512 45.68 55.672 46.736 54.712L46.808 54.64C48.104 52.912 49.544 50.944 51.128 48.736C51.752 47.872 52.88 46.312 54.512 44.056ZM71.216 25.048C69.536 26.44 68.096 27.448 66.896 28.072C65.744 28.648 64.568 28.936 63.368 28.936C62.264 28.936 61.328 28.6 60.56 27.928C59.792 27.208 59.408 26.368 59.408 25.408C59.408 24.304 59.744 23.272 60.416 22.312L62.144 19.792C62.72 19.024 63.008 18.352 63.008 17.776C63.008 17.392 62.84 17.08 62.504 16.84C62.168 16.552 61.784 16.408 61.352 16.408C60.248 16.408 59 16.696 57.608 17.272C56.216 17.848 54.776 18.616 53.288 19.576C51.848 20.488 50.432 21.568 49.04 22.816C47.696 24.064 46.544 25.36 45.584 26.704C45.44 26.896 45.32 26.992 45.224 26.992C44.936 26.992 44.792 26.824 44.792 26.488C44.792 26.104 45.152 25.504 45.872 24.688C46.592 23.824 47.528 22.864 48.68 21.808C49.688 20.896 50.792 20.056 51.992 19.288C53.192 18.472 54.392 17.776 55.592 17.2C56.792 16.624 57.944 16.168 59.048 15.832C60.2 15.496 61.208 15.328 62.072 15.328C63.08 15.328 64.016 15.688 64.88 16.408C65.744 17.128 66.176 17.944 66.176 18.856C66.176 20.152 65.432 21.832 63.944 23.896C63.464 24.568 63.152 25.072 63.008 25.408C62.864 25.744 62.792 26.152 62.792 26.632C62.792 27.016 62.912 27.352 63.152 27.64C63.392 27.88 63.704 28 64.088 28C64.904 28 65.888 27.688 67.04 27.064C68.24 26.392 69.536 25.456 70.928 24.256C73.616 21.904 75.92 20.056 77.84 18.712C79.76 17.368 81.056 16.696 81.728 16.696C81.872 16.696 81.944 16.768 81.944 16.912C81.944 16.96 81.848 17.056 81.656 17.2C81.416 17.296 81.032 17.512 80.504 17.848C79.976 18.184 79.376 18.568 78.704 19C78.08 19.432 77.456 19.888 76.832 20.368C76.208 20.8 75.704 21.184 75.32 21.52L71.216 25.048ZM95.624 16.048C91.688 16.048 88.016 16.864 84.608 18.496C83.984 19.072 83.432 19.672 82.952 20.296C81.992 21.4 81.128 22.624 80.36 23.968C79.64 25.312 78.944 26.848 78.272 28.576C77.744 30.016 77.192 31.696 76.616 33.616C78.728 31.264 80.984 28.888 83.384 26.488C88.472 21.448 92.552 17.968 95.624 16.048ZM15.488 45.136C16.832 42.64 18.608 40.456 20.816 38.584C23.072 36.712 25.64 35.224 28.52 34.12C31.448 32.968 34.496 32.392 37.664 32.392C38.72 32.392 39.728 32.512 40.688 32.752C40.736 31.408 40.568 30.088 40.184 28.792C39.176 28.648 38.336 28.576 37.664 28.576C31.904 28.576 26.528 31.096 21.536 36.136C18.464 39.352 16.256 42.76 14.912 46.36C15.104 45.928 15.296 45.52 15.488 45.136ZM34.136 64.864C31.928 65.584 29.648 65.944 27.296 65.944C25.28 65.944 23.408 65.632 21.68 65.008C20 64.384 18.56 63.496 17.36 62.344C16.4 61.432 15.608 60.376 14.984 59.176C14.408 58.888 13.904 58.528 13.472 58.096C13.76 60.832 14.888 63.232 16.856 65.296C19.112 67.648 21.8 68.824 24.92 68.824C30.344 68.824 35.552 66.544 40.544 61.984L40.76 61.768C38.504 63.208 36.296 64.24 34.136 64.864ZM68.48 41.176C69.392 38.728 70.256 36.568 71.072 34.696C71.936 32.776 72.824 31.072 73.736 29.584C74.648 28.048 75.632 26.632 76.688 25.336C77.792 24.04 79.016 22.744 80.36 21.448L81.8 20.008C81.656 20.104 81.512 20.2 81.368 20.296C78.152 22.552 74.816 26.032 71.36 30.736C68.48 34.816 65.624 38.968 62.792 43.192H67.616C67.904 42.52 68.192 41.848 68.48 41.176ZM65.888 63.568C65.12 63.664 64.4 63.712 63.728 63.712C63.152 63.712 62.48 63.664 61.712 63.568C61.088 63.52 60.368 63.424 59.552 63.28C59.408 63.76 59.312 64.216 59.264 64.648C58.976 66.952 59.6 68.104 61.136 68.104C62.432 68.104 64.544 66.472 67.472 63.208C66.944 63.352 66.416 63.472 65.888 63.568ZM45.512 35.056C46.088 35.536 46.568 36.064 46.952 36.64C46.808 32.8 44.84 30.28 41.048 29.08C41.336 30.232 41.432 31.504 41.336 32.896C42.92 33.28 44.312 34 45.512 35.056ZM56.816 61.912C57.536 62.104 58.184 62.248 58.76 62.344C58.904 61.768 59.072 61.144 59.264 60.472C58.496 60.952 57.68 61.432 56.816 61.912ZM13.544 52.84C13.544 52.504 13.544 52.168 13.544 51.832C13.544 51.928 13.544 52.024 13.544 52.12C13.304 54.184 13.256 55.768 13.4 56.872C13.688 57.16 14 57.448 14.336 57.736C13.808 56.248 13.544 54.616 13.544 52.84ZM47.528 41.752C47.528 41.272 47.48 40.792 47.384 40.312C47.24 41.224 47.024 42.184 46.736 43.192H47.384C47.48 42.712 47.528 42.232 47.528 41.752ZM84.608 17.272C83.6 17.752 82.592 18.304 81.584 18.928C82.4 18.544 83.192 18.208 83.96 17.92L84.608 17.272ZM82.8541 55.648C83.7181 54.4 84.6541 53.2 85.6621 52.048C86.6701 50.848 87.6541 49.816 88.6141 48.952C89.6221 48.04 90.5581 47.32 91.4221 46.792C92.2861 46.264 92.9821 46 93.5101 46H93.7981C93.5101 45.76 93.1741 45.568 92.7901 45.424C91.9741 45.232 91.1101 45.472 90.1981 46.144C89.3341 46.816 88.4461 47.704 87.5341 48.808C86.6221 49.864 85.7101 51.016 84.7981 52.264C83.9341 53.512 83.0941 54.616 82.2781 55.576L81.8461 54.928C82.2781 54.448 82.8061 53.776 83.4301 52.912C84.0541 52 84.7501 51.04 85.5181 50.032C86.2861 48.976 87.1021 47.92 87.9661 46.864C88.8781 45.808 89.8141 44.872 90.7741 44.056C91.7821 43.192 92.7901 42.52 93.7981 42.04C94.8541 41.56 95.8861 41.392 96.8941 41.536C98.3821 41.728 99.2941 42.16 99.6301 42.832C100.014 43.504 99.9661 44.344 99.4861 45.352C99.0061 46.312 98.2141 47.416 97.1101 48.664C96.6301 49.192 96.1021 49.72 95.5261 50.248C95.1901 51.448 94.4701 52.672 93.3661 53.92C92.7421 54.64 91.4941 56.056 89.6221 58.168C89.5741 58.84 89.6941 59.416 89.9821 59.896C90.3661 60.472 90.9661 60.856 91.7821 61.048C91.8781 61.096 91.9741 61.12 92.0701 61.12C93.7021 59.536 95.6701 57.136 97.9741 53.92L98.4061 54.28C96.2941 57.112 94.4461 59.344 92.8621 60.976C93.0541 60.88 93.2701 60.76 93.5101 60.616C94.2301 60.184 94.9741 59.632 95.7421 58.96C96.5101 58.24 97.3021 57.448 98.1181 56.584C98.9341 55.672 99.7261 54.808 100.494 53.992C100.59 53.896 100.758 53.92 100.998 54.064C101.286 54.208 101.382 54.328 101.286 54.424C100.326 55.336 99.4141 56.272 98.5501 57.232C97.7341 58.192 96.9181 59.08 96.1021 59.896C95.3341 60.712 94.5661 61.456 93.7981 62.128C93.0781 62.8 92.3581 63.304 91.6381 63.64C90.7741 64.072 89.8381 64.24 88.8301 64.144C88.5421 64.096 88.2541 64.048 87.9661 64C87.3901 64 86.9581 63.832 86.6701 63.496L86.3821 63.28C85.7101 62.752 85.2541 62.08 85.0141 61.264C84.8221 60.4 85.0621 59.464 85.7341 58.456C85.9741 58.072 86.2381 57.712 86.5261 57.376C86.8621 57.04 87.2701 56.656 87.7501 56.224C87.9421 56.032 88.1581 55.816 88.3981 55.576C89.0221 54.856 89.6941 54.064 90.4141 53.2C91.1341 52.336 91.9021 51.448 92.7181 50.536C93.2941 49.96 93.7021 49.408 93.9421 48.88C94.1821 48.352 94.3021 47.896 94.3021 47.512V47.296C94.2061 46.864 93.9181 46.648 93.4381 46.648C92.7181 46.648 91.8781 46.984 90.9181 47.656C89.9581 48.328 88.9981 49.168 88.0381 50.176C87.1261 51.184 86.2381 52.264 85.3741 53.416C84.5101 54.52 83.7421 55.48 83.0701 56.296L82.8541 55.648ZM122.791 53.56C122.791 53.704 122.527 54.208 121.999 55.072C121.519 55.936 120.703 56.944 119.551 58.096C117.535 60.16 115.567 61.672 113.647 62.632C112.783 63.016 111.967 63.328 111.199 63.568C110.575 63.856 109.975 64 109.399 64H109.111H108.679C107.383 64 106.303 63.472 105.439 62.416C104.575 61.312 104.143 59.944 104.143 58.312C104.143 54.136 106.399 50.296 110.911 46.792C111.775 46.072 112.687 45.424 113.647 44.848C114.607 44.224 115.543 43.696 116.455 43.264C117.367 42.784 118.207 42.424 118.975 42.184C119.743 41.896 120.391 41.752 120.919 41.752C121.783 41.752 122.479 42.016 123.007 42.544C123.535 43.024 123.799 43.672 123.799 44.488C123.799 45.448 123.391 46.48 122.575 47.584C121.759 48.64 120.727 49.504 119.479 50.176C118.519 50.704 117.439 51.16 116.239 51.544C114.607 52.6 112.519 53.704 109.975 54.856C108.103 57.544 107.167 59.56 107.167 60.904C107.167 61.72 107.335 62.344 107.671 62.776C108.055 63.016 108.487 63.136 108.967 63.136C109.639 63.136 110.527 62.896 111.631 62.416C112.015 62.272 112.399 62.104 112.783 61.912C114.847 60.328 117.319 57.52 120.199 53.488L120.703 53.92C118.783 56.56 117.031 58.696 115.447 60.328C116.695 59.464 117.919 58.456 119.119 57.304C120.415 56.056 121.543 54.712 122.503 53.272C122.599 53.176 122.671 53.176 122.719 53.272C122.767 53.32 122.791 53.392 122.791 53.488V53.56ZM120.055 46.576C120.055 46.048 119.767 45.784 119.191 45.784C118.279 45.784 116.791 46.816 114.727 48.88C113.767 49.888 112.903 50.848 112.135 51.76C112.903 51.568 113.695 51.28 114.511 50.896C115.759 50.272 116.911 49.552 117.967 48.736C118.735 48.112 119.431 47.44 120.055 46.72V46.576ZM121.639 43.552C121.639 42.88 121.303 42.544 120.631 42.544C119.527 42.544 118.111 43.384 116.383 45.064C115.903 45.592 115.399 46.144 114.871 46.72C116.455 45.76 117.919 45.28 119.263 45.28C119.983 45.28 120.439 45.52 120.631 46C121.303 45.088 121.639 44.272 121.639 43.552ZM111.415 52.696C111.079 53.128 110.767 53.56 110.479 53.992C111.679 53.368 112.783 52.792 113.791 52.264C113.023 52.408 112.231 52.552 111.415 52.696ZM147.501 52.408C142.797 58.216 139.437 61.12 137.421 61.12H137.349C137.061 61.744 136.941 62.224 136.989 62.56C136.989 63.088 137.277 63.352 137.853 63.352C138.717 63.352 139.989 62.632 141.669 61.192C143.349 59.752 145.413 57.376 147.861 54.064C148.197 53.584 148.461 53.464 148.653 53.704C148.893 53.896 148.869 54.184 148.581 54.568L145.701 58.24C144.021 60.4 142.485 61.936 141.093 62.848C139.749 63.76 138.573 64.216 137.565 64.216C136.653 64.216 135.885 63.904 135.261 63.28C134.685 62.656 134.349 61.864 134.253 60.904C134.253 60.568 134.277 60.208 134.325 59.824C134.421 59.392 134.613 58.84 134.901 58.168C135.237 57.448 135.717 56.56 136.341 55.504C136.821 54.688 137.421 53.728 138.141 52.624H133.173C132.357 53.824 131.349 55.192 130.149 56.728C129.333 57.832 128.541 58.864 127.773 59.824L125.325 63.712L125.253 63.928C125.205 63.976 125.085 64 124.893 64L120.789 64.072C120.501 64.072 120.333 64 120.285 63.856C120.285 63.76 120.381 63.616 120.573 63.424L131.373 46.792C130.125 47.896 129.381 48.448 129.141 48.448C128.949 48.4 129.189 48.016 129.861 47.296C130.773 46.336 131.589 45.664 132.309 45.28L134.397 42.04C134.541 41.752 134.757 41.608 135.045 41.608L138.933 41.536C138.981 41.536 139.029 41.584 139.077 41.68C139.125 41.776 139.149 41.848 139.149 41.896L135.405 47.8C135.309 48.568 135.093 49.312 134.757 50.032L139.869 50.104C140.589 49 141.405 47.8 142.317 46.504C143.277 45.16 144.357 43.648 145.557 41.968C145.749 41.68 145.989 41.536 146.277 41.536L150.165 41.464C150.261 41.464 150.309 41.512 150.309 41.608C150.309 41.848 150.021 42.352 149.445 43.12L138.645 59.032C138.213 59.608 137.853 60.136 137.565 60.616C139.437 60.616 142.605 57.76 147.069 52.048L147.501 52.408ZM139.077 51.328L134.037 51.256C133.845 51.496 133.653 51.784 133.461 52.12H138.501C138.693 51.88 138.885 51.616 139.077 51.328ZM182.414 52.12C177.95 57.928 174.614 60.832 172.406 60.832C172.166 60.832 171.95 60.808 171.758 60.76L171.614 61.048C171.278 61.624 171.11 62.08 171.11 62.416C171.11 62.656 171.134 62.824 171.182 62.92C171.23 63.016 171.422 63.064 171.758 63.064C171.806 63.064 172.118 62.968 172.694 62.776C173.27 62.536 174.014 62.104 174.926 61.48C175.838 60.856 176.918 59.968 178.166 58.816C179.414 57.664 180.758 56.152 182.198 54.28C182.294 54.184 182.414 54.208 182.558 54.352C182.702 54.448 182.774 54.544 182.774 54.64C182.774 54.976 182.342 55.696 181.478 56.8C180.662 57.856 179.63 58.96 178.382 60.112C177.182 61.216 175.886 62.2 174.494 63.064C173.15 63.928 171.95 64.336 170.894 64.288C169.982 64.24 169.262 63.976 168.734 63.496C168.206 62.968 167.942 62.224 167.942 61.264C167.942 60.4 168.35 59.2 169.166 57.664C169.982 56.08 171.014 54.496 172.262 52.912L176.798 47.296C177.422 46.624 177.878 45.976 178.166 45.352C178.022 45.256 177.854 45.208 177.662 45.208C175.79 45.208 173.27 47.152 170.102 51.04C169.046 52.288 167.63 54.064 165.854 56.368L160.886 63.784C160.838 63.976 160.694 64.072 160.454 64.072H156.134C156.038 64.072 155.99 64.024 155.99 63.928C155.99 63.736 156.014 63.616 156.062 63.568L163.046 53.2C164.102 51.616 164.99 50.272 165.71 49.168C166.43 48.064 167.006 47.152 167.438 46.432C167.678 46 167.87 45.64 168.014 45.352C166.382 45.928 164.246 47.824 161.606 51.04C159.206 54.016 156.638 57.184 153.902 60.544C153.662 60.448 153.374 60.376 153.038 60.328L150.662 63.784C150.518 63.928 150.35 64 150.158 64H146.27C146.03 64 145.91 63.928 145.91 63.784L153.542 51.832L153.326 52.12L152.894 51.76C154.43 49.888 155.534 48.52 156.206 47.656L159.95 41.824H164.27L162.038 45.568C162.182 45.856 162.278 46.168 162.326 46.504C162.758 46.024 163.166 45.592 163.55 45.208C164.462 44.296 165.23 43.6 165.854 43.12C166.526 42.592 167.102 42.256 167.582 42.112C168.062 41.92 168.59 41.824 169.166 41.824C169.838 41.824 170.39 42.088 170.822 42.616C171.302 43.096 171.542 43.72 171.542 44.488C171.542 45.064 171.446 45.64 171.254 46.216C171.206 46.504 171.11 46.816 170.966 47.152C170.966 47.392 170.942 47.632 170.894 47.872C174.206 43.84 176.942 41.824 179.102 41.824C179.918 41.824 180.59 42.112 181.118 42.688C181.694 43.216 181.982 43.912 181.982 44.776C181.982 45.736 181.646 46.864 180.974 48.16C180.35 49.408 179.318 50.968 177.878 52.84L172.982 59.032C172.646 59.512 172.334 59.944 172.046 60.328C172.19 60.328 172.334 60.328 172.478 60.328C174.494 60.328 177.662 57.472 181.982 51.76L182.414 52.12ZM168.374 44.632C168.566 44.152 168.662 43.792 168.662 43.552C168.662 43.216 168.494 43.048 168.158 43.048C167.774 43.048 167.198 43.336 166.43 43.912C165.662 44.44 164.798 45.16 163.838 46.072C163.31 46.6 162.782 47.152 162.254 47.728C162.158 48.544 161.894 49.36 161.462 50.176C164.39 47.056 166.67 45.256 168.302 44.776L168.374 44.632ZM178.598 43.696C178.598 43.216 178.406 42.976 178.022 42.976C177.638 42.976 177.086 43.24 176.366 43.768C175.646 44.296 174.854 44.992 173.99 45.856C173.126 46.672 172.238 47.608 171.326 48.664C171.086 48.952 170.846 49.216 170.606 49.456C173.534 46.24 175.886 44.632 177.662 44.632C177.95 44.632 178.214 44.656 178.454 44.704C178.55 44.368 178.598 44.032 178.598 43.696ZM202.198 55.288C200.278 57.784 198.574 59.728 197.086 61.12C197.374 60.928 197.686 60.712 198.021 60.472C199.654 59.176 201.31 57.208 202.99 54.568C203.278 54.28 203.494 54.136 203.638 54.136C203.926 54.136 204.046 54.232 203.998 54.424C203.278 55.912 202.39 57.28 201.334 58.528C200.278 59.728 199.15 60.76 197.95 61.624C196.798 62.488 195.598 63.16 194.35 63.64C193.102 64.072 191.926 64.24 190.822 64.144C189.478 64.048 188.35 63.448 187.438 62.344C186.525 61.192 186.069 59.776 186.069 58.096C186.069 55.264 187.534 52.24 190.462 49.024C191.374 48.016 192.382 47.08 193.486 46.216C194.638 45.304 195.79 44.512 196.941 43.84C198.094 43.168 199.222 42.64 200.326 42.256C201.43 41.872 202.414 41.68 203.278 41.68C203.95 41.68 204.526 41.968 205.006 42.544C205.486 43.072 205.726 43.72 205.726 44.488C205.726 45.208 205.582 45.928 205.294 46.648C205.054 47.32 204.718 47.944 204.286 48.52C203.902 49.048 203.446 49.48 202.918 49.816C202.63 50.008 202.342 50.152 202.054 50.248C201.91 50.872 201.622 51.448 201.19 51.976C200.566 52.744 199.918 53.128 199.246 53.128C198.43 53.128 198.021 52.744 198.021 51.976C198.021 51.256 198.55 50.608 199.606 50.032C199.798 49.936 199.966 49.84 200.11 49.744C199.966 49.504 199.894 49.24 199.894 48.952C199.894 48.76 199.894 48.568 199.894 48.376C198.358 48.616 196.366 50.152 193.918 52.984C191.278 56.104 189.958 58.744 189.958 60.904C189.958 61.624 190.078 62.2 190.318 62.632H190.39C191.206 63.064 192.262 63.136 193.558 62.848C193.894 62.752 194.254 62.632 194.638 62.488C196.51 61.24 198.886 58.72 201.766 54.928L202.198 55.288ZM200.47 47.152C200.71 46.816 201.046 46.456 201.478 46.072C201.958 45.64 202.582 45.088 203.35 44.416C203.878 43.984 204.142 43.6 204.142 43.264C204.142 42.688 203.806 42.4 203.134 42.4C202.27 42.4 201.022 43.048 199.39 44.344C197.806 45.64 196.174 47.368 194.494 49.528C194.206 49.864 193.918 50.224 193.63 50.608C195.982 48.832 198.118 47.896 200.038 47.8C200.134 47.608 200.278 47.392 200.47 47.152ZM238.439 52.12C233.975 57.928 230.639 60.832 228.431 60.832C228.191 60.832 227.975 60.808 227.783 60.76L227.639 61.048C227.303 61.624 227.135 62.08 227.135 62.416C227.135 62.656 227.159 62.824 227.207 62.92C227.255 63.016 227.447 63.064 227.783 63.064C227.831 63.064 228.143 62.968 228.719 62.776C229.295 62.536 230.039 62.104 230.951 61.48C231.863 60.856 232.943 59.968 234.191 58.816C235.439 57.664 236.783 56.152 238.223 54.28C238.319 54.184 238.439 54.208 238.583 54.352C238.727 54.448 238.799 54.544 238.799 54.64C238.799 54.976 238.367 55.696 237.503 56.8C236.687 57.856 235.655 58.96 234.407 60.112C233.207 61.216 231.911 62.2 230.519 63.064C229.175 63.928 227.975 64.336 226.919 64.288C226.007 64.24 225.287 63.976 224.759 63.496C224.231 62.968 223.967 62.224 223.967 61.264C223.967 60.4 224.375 59.2 225.191 57.664C226.007 56.08 227.039 54.496 228.287 52.912L232.823 47.296C233.447 46.624 233.903 45.976 234.191 45.352C234.047 45.256 233.879 45.208 233.687 45.208C231.815 45.208 229.295 47.152 226.127 51.04C225.071 52.288 223.655 54.064 221.879 56.368L216.911 63.784C216.863 63.976 216.719 64.072 216.479 64.072H212.159C212.063 64.072 212.015 64.024 212.015 63.928C212.015 63.736 212.039 63.616 212.087 63.568L219.071 53.2C220.127 51.616 221.015 50.272 221.735 49.168C222.455 48.064 223.031 47.152 223.463 46.432C223.703 46 223.895 45.64 224.039 45.352C222.407 45.928 220.271 47.824 217.631 51.04C215.231 54.016 212.663 57.184 209.927 60.544C209.687 60.448 209.399 60.376 209.063 60.328L206.687 63.784C206.543 63.928 206.375 64 206.183 64H202.295C202.055 64 201.935 63.928 201.935 63.784L209.567 51.832L209.351 52.12L208.919 51.76C210.455 49.888 211.559 48.52 212.231 47.656L215.975 41.824H220.295L218.063 45.568C218.207 45.856 218.303 46.168 218.351 46.504C218.783 46.024 219.191 45.592 219.575 45.208C220.487 44.296 221.255 43.6 221.879 43.12C222.551 42.592 223.127 42.256 223.607 42.112C224.087 41.92 224.615 41.824 225.191 41.824C225.863 41.824 226.415 42.088 226.847 42.616C227.327 43.096 227.567 43.72 227.567 44.488C227.567 45.064 227.471 45.64 227.279 46.216C227.231 46.504 227.135 46.816 226.991 47.152C226.991 47.392 226.967 47.632 226.919 47.872C230.231 43.84 232.967 41.824 235.127 41.824C235.943 41.824 236.615 42.112 237.143 42.688C237.719 43.216 238.007 43.912 238.007 44.776C238.007 45.736 237.671 46.864 236.999 48.16C236.375 49.408 235.343 50.968 233.903 52.84L229.007 59.032C228.671 59.512 228.359 59.944 228.071 60.328C228.215 60.328 228.359 60.328 228.503 60.328C230.519 60.328 233.687 57.472 238.007 51.76L238.439 52.12ZM224.399 44.632C224.591 44.152 224.687 43.792 224.687 43.552C224.687 43.216 224.519 43.048 224.183 43.048C223.799 43.048 223.223 43.336 222.455 43.912C221.687 44.44 220.823 45.16 219.863 46.072C219.335 46.6 218.807 47.152 218.279 47.728C218.183 48.544 217.919 49.36 217.487 50.176C220.415 47.056 222.695 45.256 224.327 44.776L224.399 44.632ZM234.623 43.696C234.623 43.216 234.431 42.976 234.047 42.976C233.663 42.976 233.111 43.24 232.391 43.768C231.671 44.296 230.879 44.992 230.015 45.856C229.151 46.672 228.263 47.608 227.351 48.664C227.111 48.952 226.871 49.216 226.631 49.456C229.559 46.24 231.911 44.632 233.687 44.632C233.975 44.632 234.239 44.656 234.479 44.704C234.575 44.368 234.623 44.032 234.623 43.696ZM257.358 55.36C256.926 56.032 256.398 56.752 255.774 57.52C255.15 58.288 254.43 59.104 253.614 59.968C252.318 61.36 251.142 62.392 250.086 63.064C249.126 63.496 248.166 63.808 247.206 64C246.726 63.952 246.318 63.736 245.982 63.352C246.222 63.256 246.486 63.136 246.774 62.992C246.966 63.184 247.23 63.28 247.566 63.28C248.91 63.28 250.734 61.864 253.038 59.032C253.662 58.312 254.31 57.52 254.982 56.656C255.654 55.744 256.374 54.76 257.142 53.704C257.238 52.504 257.478 51.304 257.862 50.104C258.294 49.432 258.654 48.784 258.942 48.16C259.614 46.912 260.07 45.88 260.31 45.064C260.406 44.872 260.526 44.68 260.67 44.488C261.246 43.672 261.774 43.048 262.254 42.616C262.35 42.664 262.422 42.736 262.47 42.832C263.142 43.6 263.478 44.464 263.478 45.424C263.478 47.44 262.878 49.576 261.678 51.832C260.526 54.04 259.038 56.056 257.214 57.88C255.438 59.704 253.47 61.216 251.31 62.416C250.878 62.656 250.47 62.872 250.086 63.064C249.078 63.688 248.214 64 247.494 64H247.206C246.486 64.144 245.766 64.216 245.046 64.216C244.182 64.216 243.462 63.856 242.886 63.136C242.31 62.416 242.022 61.504 242.022 60.4C242.022 58.576 242.742 56.296 244.182 53.56C245.622 50.776 247.374 47.824 249.438 44.704C249.918 44.032 250.59 42.952 251.454 41.464C252.366 39.976 253.398 38.296 254.55 36.424C255.75 34.552 257.046 32.608 258.438 30.592C259.83 28.576 261.27 26.752 262.758 25.12C264.246 23.44 265.734 22.072 267.222 21.016C268.71 19.96 270.126 19.432 271.47 19.432C273.63 19.432 274.782 20.416 274.926 22.384C275.406 22.864 275.622 23.608 275.574 24.616C275.334 27.208 273.462 30.232 269.958 33.688C266.598 36.952 262.71 39.544 258.294 41.464C257.574 42.088 256.878 42.688 256.206 43.264C256.158 43.312 256.11 43.384 256.062 43.48C256.062 43.528 256.038 43.576 255.99 43.624C256.422 43.288 256.83 43 257.214 42.76C258.318 42.04 259.35 41.68 260.31 41.68C261.03 41.68 261.678 41.992 262.254 42.616C262.974 41.992 263.622 41.68 264.198 41.68C264.726 41.68 264.99 41.992 264.99 42.616C264.99 43.384 264.726 44.296 264.198 45.352C262.758 48.136 260.478 51.472 257.358 55.36ZM259.374 42.832H259.23C258.462 42.832 257.55 43.24 256.494 44.056C255.966 44.488 255.414 44.968 254.838 45.496C254.742 45.688 254.622 45.904 254.478 46.144C253.854 47.152 253.182 48.232 252.462 49.384C251.742 50.536 251.046 51.64 250.374 52.696C249.27 54.568 248.334 56.32 247.566 57.952C246.798 59.584 246.414 60.784 246.414 61.552C246.414 62.272 246.534 62.752 246.774 62.992C248.838 61.984 251.454 59.272 254.622 54.856C255.918 53.08 256.998 51.496 257.862 50.104C258.39 48.376 259.206 46.696 260.31 45.064C260.406 44.68 260.454 44.32 260.454 43.984C260.454 43.312 260.094 42.928 259.374 42.832ZM262.542 36.352C264.942 34.24 266.934 32.368 268.518 30.736C270.15 29.056 271.374 27.544 272.19 26.2C272.91 25 273.318 23.824 273.414 22.672C272.358 22.576 270.966 23.272 269.238 24.76C268.23 25.672 266.766 27.472 264.846 30.16C263.07 32.704 260.886 35.992 258.294 40.024C259.83 38.68 261.246 37.456 262.542 36.352ZM272.91 20.944C272.622 20.512 272.238 20.296 271.758 20.296C270.27 20.296 268.83 20.92 267.438 22.168C266.094 23.416 264.822 24.952 263.622 26.776C262.422 28.552 261.294 30.448 260.238 32.464L259.23 34.552L259.806 33.688C262.35 29.992 264.87 27.064 267.366 24.904C269.814 22.792 271.806 21.736 273.342 21.736C273.246 21.496 273.102 21.232 272.91 20.944ZM272.694 28.072C271.158 29.944 269.262 31.912 267.006 33.976C265.038 35.752 262.95 37.576 260.742 39.448C261.894 38.824 262.998 38.152 264.054 37.432C265.974 36.088 267.75 34.576 269.382 32.896C272.31 29.92 274.014 27.352 274.494 25.192C274.11 26.104 273.51 27.064 272.694 28.072ZM244.686 59.824C244.158 60.976 243.894 61.816 243.894 62.344C243.894 63.112 244.278 63.496 245.046 63.496C245.334 63.496 245.646 63.448 245.982 63.352C245.502 62.776 245.262 61.768 245.262 60.328C245.262 59.704 245.31 59.032 245.406 58.312C245.166 58.84 244.926 59.344 244.686 59.824ZM287.129 55.288C285.449 57.448 283.721 58.528 281.945 58.528C281.801 58.528 281.609 58.504 281.369 58.456L281.009 58.96H281.441C282.305 58.96 283.289 58.648 284.393 58.024C285.497 57.352 286.577 56.44 287.633 55.288C287.873 55 288.017 54.832 288.065 54.784C288.161 54.688 288.281 54.64 288.425 54.64C288.761 54.64 288.929 54.784 288.929 55.072C288.929 55.168 288.713 55.432 288.281 55.864C287.849 56.296 287.345 56.776 286.769 57.304C284.849 59.08 282.857 59.968 280.793 59.968H280.217C278.633 61.648 277.145 62.776 275.753 63.352C274.361 63.928 272.969 64.216 271.577 64.216C270.569 64.216 269.705 63.808 268.985 62.992C268.265 62.176 267.905 61.192 267.905 60.04C267.905 58.12 268.505 56.08 269.705 53.92C270.905 51.712 272.657 49.6 274.961 47.584C277.025 45.712 278.969 44.272 280.793 43.264C282.665 42.208 284.225 41.68 285.473 41.68C286.241 41.68 286.817 41.944 287.201 42.472C287.633 43 287.897 43.72 287.993 44.632C288.041 45.4 287.849 46.384 287.417 47.584C286.985 48.736 286.409 49.984 285.689 51.328C284.969 52.672 284.177 54.016 283.313 55.36C282.737 56.32 282.185 57.184 281.657 57.952H282.089C283.529 57.952 285.065 56.944 286.697 54.928L287.129 55.288ZM284.249 49.672C284.249 48.76 283.841 48.304 283.025 48.304C281.441 48.304 279.065 50.2 275.897 53.992C272.777 57.784 271.193 60.496 271.145 62.128C271.145 62.512 271.217 62.824 271.361 63.064C271.553 63.208 271.793 63.28 272.081 63.28C273.185 63.28 274.289 62.992 275.393 62.416C275.537 62.32 275.681 62.224 275.825 62.128C276.737 61.456 277.721 60.52 278.777 59.32C278.537 59.032 278.417 58.672 278.417 58.24C278.417 57.76 278.489 57.28 278.633 56.8C278.825 56.32 279.065 55.888 279.353 55.504C279.641 55.12 279.953 54.808 280.289 54.568C280.625 54.28 280.985 54.136 281.369 54.136C281.561 54.136 281.825 54.232 282.161 54.424C282.353 54.136 282.569 53.824 282.809 53.488C283.769 51.856 284.249 50.584 284.249 49.672ZM285.185 49.672C285.665 48.712 286.073 47.752 286.409 46.792C286.793 45.832 287.009 44.92 287.057 44.056C287.105 43.672 286.985 43.336 286.697 43.048C286.409 42.76 286.073 42.616 285.689 42.616C285.353 42.616 285.017 42.688 284.681 42.832C284.345 42.976 283.961 43.24 283.529 43.624C283.097 43.96 282.569 44.44 281.945 45.064C281.369 45.688 280.673 46.48 279.857 47.44C279.329 48.016 278.825 48.592 278.345 49.168C279.977 48.208 281.561 47.728 283.097 47.728C284.297 47.728 284.897 48.4 284.897 49.744C284.897 49.936 284.873 50.128 284.825 50.32C284.969 50.128 285.089 49.912 285.185 49.672ZM336.628 52.408C331.924 58.216 328.564 61.12 326.548 61.12H326.476C326.188 61.744 326.068 62.224 326.116 62.56C326.116 63.088 326.404 63.352 326.98 63.352C327.844 63.352 329.116 62.632 330.796 61.192C332.476 59.752 334.54 57.376 336.988 54.064C337.324 53.584 337.588 53.464 337.78 53.704C338.02 53.896 337.996 54.184 337.708 54.568L334.828 58.24C333.148 60.4 331.612 61.936 330.22 62.848C328.876 63.76 327.7 64.216 326.692 64.216C325.78 64.216 325.012 63.904 324.388 63.28C323.812 62.656 323.476 61.864 323.38 60.904C323.38 60.568 323.404 60.208 323.452 59.824C323.548 59.392 323.74 58.84 324.028 58.168C324.364 57.448 324.844 56.56 325.468 55.504C325.948 54.688 326.548 53.728 327.268 52.624H322.3C321.484 53.824 320.476 55.192 319.276 56.728C318.46 57.832 317.668 58.864 316.9 59.824L314.452 63.712L314.38 63.928C314.332 63.976 314.212 64 314.02 64L309.916 64.072C309.628 64.072 309.46 64 309.412 63.856C309.412 63.76 309.508 63.616 309.7 63.424L320.5 46.792C319.252 47.896 318.508 48.448 318.268 48.448C318.076 48.4 318.316 48.016 318.988 47.296C319.9 46.336 320.716 45.664 321.436 45.28L323.524 42.04C323.668 41.752 323.884 41.608 324.172 41.608L328.06 41.536C328.108 41.536 328.156 41.584 328.204 41.68C328.252 41.776 328.276 41.848 328.276 41.896L324.532 47.8C324.436 48.568 324.22 49.312 323.884 50.032L328.996 50.104C329.716 49 330.532 47.8 331.444 46.504C332.404 45.16 333.484 43.648 334.684 41.968C334.876 41.68 335.116 41.536 335.404 41.536L339.292 41.464C339.388 41.464 339.436 41.512 339.436 41.608C339.436 41.848 339.148 42.352 338.572 43.12L327.772 59.032C327.34 59.608 326.98 60.136 326.692 60.616C328.564 60.616 331.732 57.76 336.196 52.048L336.628 52.408ZM328.204 51.328L323.164 51.256C322.972 51.496 322.78 51.784 322.588 52.12H327.628C327.82 51.88 328.012 51.616 328.204 51.328ZM359.013 53.56C359.013 53.704 358.749 54.208 358.221 55.072C357.741 55.936 356.925 56.944 355.773 58.096C353.757 60.16 351.789 61.672 349.869 62.632C349.005 63.016 348.189 63.328 347.421 63.568C346.797 63.856 346.197 64 345.621 64H345.333H344.901C343.605 64 342.525 63.472 341.661 62.416C340.797 61.312 340.365 59.944 340.365 58.312C340.365 54.136 342.621 50.296 347.133 46.792C347.997 46.072 348.909 45.424 349.869 44.848C350.829 44.224 351.765 43.696 352.677 43.264C353.589 42.784 354.429 42.424 355.197 42.184C355.965 41.896 356.613 41.752 357.141 41.752C358.005 41.752 358.701 42.016 359.229 42.544C359.757 43.024 360.021 43.672 360.021 44.488C360.021 45.448 359.613 46.48 358.797 47.584C357.981 48.64 356.949 49.504 355.701 50.176C354.741 50.704 353.661 51.16 352.461 51.544C350.829 52.6 348.741 53.704 346.197 54.856C344.325 57.544 343.389 59.56 343.389 60.904C343.389 61.72 343.557 62.344 343.893 62.776C344.277 63.016 344.709 63.136 345.189 63.136C345.861 63.136 346.749 62.896 347.853 62.416C348.237 62.272 348.621 62.104 349.005 61.912C351.069 60.328 353.541 57.52 356.421 53.488L356.925 53.92C355.005 56.56 353.253 58.696 351.669 60.328C352.917 59.464 354.141 58.456 355.341 57.304C356.637 56.056 357.765 54.712 358.725 53.272C358.821 53.176 358.893 53.176 358.941 53.272C358.989 53.32 359.013 53.392 359.013 53.488V53.56ZM356.277 46.576C356.277 46.048 355.989 45.784 355.413 45.784C354.501 45.784 353.013 46.816 350.949 48.88C349.989 49.888 349.125 50.848 348.357 51.76C349.125 51.568 349.917 51.28 350.733 50.896C351.981 50.272 353.133 49.552 354.189 48.736C354.957 48.112 355.653 47.44 356.277 46.72V46.576ZM357.861 43.552C357.861 42.88 357.525 42.544 356.853 42.544C355.749 42.544 354.333 43.384 352.605 45.064C352.125 45.592 351.621 46.144 351.093 46.72C352.677 45.76 354.141 45.28 355.485 45.28C356.205 45.28 356.661 45.52 356.853 46C357.525 45.088 357.861 44.272 357.861 43.552ZM347.637 52.696C347.301 53.128 346.989 53.56 346.701 53.992C347.901 53.368 349.005 52.792 350.013 52.264C349.245 52.408 348.453 52.552 347.637 52.696ZM370.475 67.384C369.323 69.4 368.267 71.176 367.307 72.712C366.347 74.248 365.411 75.64 364.499 76.888C363.587 78.136 362.699 79.264 361.835 80.272C360.971 81.28 360.035 82.24 359.027 83.152C356.723 85.408 354.371 87.136 351.971 88.336C349.523 89.584 347.291 90.208 345.275 90.208C344.027 90.208 342.971 89.704 342.107 88.696C341.195 87.736 340.739 86.56 340.739 85.168C340.739 83.776 341.075 82.36 341.747 80.92C342.371 79.528 343.307 78.16 344.555 76.816C345.755 75.472 347.243 74.2 349.019 73C350.747 71.8 352.691 70.72 354.851 69.76C355.667 69.424 356.483 69.088 357.299 68.752C358.115 68.464 359.003 68.176 359.963 67.888C360.875 67.6 361.883 67.312 362.987 67.024C364.091 66.784 365.339 66.496 366.731 66.16C367.067 65.584 367.379 65.056 367.667 64.576C368.003 64.096 368.339 63.592 368.675 63.064C368.915 62.68 369.179 62.272 369.467 61.84C367.691 63.28 366.371 64 365.507 64C364.931 64 364.475 63.856 364.139 63.568C363.323 63.52 362.651 63.136 362.123 62.416C361.499 61.6 361.187 60.592 361.187 59.392C361.187 55.12 363.827 50.896 369.107 46.72C370.931 45.232 372.827 44.056 374.795 43.192C376.763 42.28 378.443 41.824 379.835 41.824C381.227 41.824 381.995 42.616 382.139 44.2C382.283 43.96 382.427 43.768 382.571 43.624C382.715 43.432 382.859 43.24 383.003 43.048C383.387 42.616 383.651 42.328 383.795 42.184C383.987 42.04 384.227 41.968 384.515 41.968L387.971 41.752C388.211 41.752 388.331 41.824 388.331 41.968C388.331 42.064 388.307 42.136 388.259 42.184L380.339 52.408C379.523 53.464 378.755 54.496 378.035 55.504C377.363 56.464 376.691 57.448 376.019 58.456C375.347 59.464 374.651 60.52 373.931 61.624C373.259 62.728 372.515 63.952 371.699 65.296C372.323 65.2 372.803 65.152 373.139 65.152H374.291C376.499 65.152 377.603 65.368 377.603 65.8C377.603 65.992 377.435 66.088 377.099 66.088H376.811C376.427 66.04 376.067 66.016 375.731 66.016H374.795C374.219 66.016 373.667 66.04 373.139 66.088C372.611 66.136 371.939 66.208 371.123 66.304L370.475 67.384ZM351.179 74.656C349.931 75.664 348.779 76.696 347.723 77.752C346.667 78.856 345.779 79.936 345.059 80.992C344.291 82.096 343.691 83.128 343.259 84.088C342.827 85.048 342.611 85.912 342.611 86.68C342.611 87.448 342.875 88.072 343.403 88.552C343.931 89.08 344.603 89.344 345.419 89.344C347.195 89.344 348.947 88.72 350.675 87.472C352.403 86.224 354.443 84.136 356.795 81.208C356.315 81.352 355.883 81.424 355.499 81.424C354.203 81.424 353.555 80.776 353.555 79.48C353.555 77.608 354.971 75.28 357.803 72.496C359.339 71.008 361.091 69.64 363.059 68.392C358.355 69.976 354.395 72.064 351.179 74.656ZM364.859 62.704C365.291 62.704 365.723 62.608 366.155 62.416C366.587 62.224 367.091 61.888 367.667 61.408C368.291 60.88 369.035 60.16 369.899 59.248C370.763 58.336 371.843 57.184 373.139 55.792C373.763 55.12 374.507 54.232 375.371 53.128C376.235 51.976 377.147 50.776 378.107 49.528L378.323 49.24C378.227 48.568 377.771 48.232 376.955 48.232C375.275 48.232 372.779 50.128 369.467 53.92C366.155 57.664 364.499 60.496 364.499 62.416C364.499 62.512 364.499 62.584 364.499 62.632C364.595 62.68 364.715 62.704 364.859 62.704ZM365.939 67.456C365.843 67.504 365.747 67.528 365.651 67.528C362.867 69.064 360.419 70.912 358.307 73.072C355.667 75.76 354.347 77.944 354.347 79.624C354.347 80.392 354.731 80.776 355.499 80.776C356.171 80.776 356.963 80.44 357.875 79.768C360.755 75.976 363.443 71.872 365.939 67.456ZM379.979 42.76C379.307 42.712 378.443 43.048 377.387 43.768C376.331 44.44 375.203 45.352 374.003 46.504C372.947 47.512 371.843 48.664 370.691 49.96C372.899 48.52 375.035 47.8 377.099 47.8C377.867 47.8 378.371 48.136 378.611 48.808C379.571 47.416 380.219 46.408 380.555 45.784C380.987 45.064 381.203 44.416 381.203 43.84C381.203 43.216 380.795 42.856 379.979 42.76ZM371.555 58.888C370.547 59.848 369.707 60.64 369.035 61.264C368.363 61.84 367.763 62.32 367.235 62.704C366.707 63.04 366.227 63.28 365.795 63.424H365.723C366.443 63.424 367.523 62.824 368.963 61.624C369.587 61.096 370.187 60.544 370.763 59.968C371.003 59.632 371.267 59.272 371.555 58.888ZM405.254 55.36C404.822 56.032 404.294 56.752 403.67 57.52C403.046 58.288 402.326 59.104 401.51 59.968C400.214 61.36 399.038 62.392 397.982 63.064C397.022 63.496 396.062 63.808 395.102 64C394.622 63.952 394.214 63.736 393.878 63.352C394.118 63.256 394.382 63.136 394.67 62.992C394.862 63.184 395.126 63.28 395.462 63.28C396.806 63.28 398.63 61.864 400.934 59.032C401.558 58.312 402.206 57.52 402.878 56.656C403.55 55.744 404.27 54.76 405.038 53.704C405.134 52.504 405.374 51.304 405.758 50.104C406.19 49.432 406.55 48.784 406.838 48.16C407.51 46.912 407.966 45.88 408.206 45.064C408.302 44.872 408.422 44.68 408.566 44.488C409.142 43.672 409.67 43.048 410.15 42.616C410.246 42.664 410.318 42.736 410.366 42.832C411.038 43.6 411.374 44.464 411.374 45.424C411.374 47.44 410.774 49.576 409.574 51.832C408.422 54.04 406.934 56.056 405.11 57.88C403.334 59.704 401.366 61.216 399.206 62.416C398.774 62.656 398.366 62.872 397.982 63.064C396.974 63.688 396.11 64 395.39 64H395.102C394.382 64.144 393.662 64.216 392.942 64.216C392.078 64.216 391.358 63.856 390.782 63.136C390.206 62.416 389.918 61.504 389.918 60.4C389.918 58.576 390.638 56.296 392.078 53.56C393.518 50.776 395.27 47.824 397.334 44.704C397.814 44.032 398.486 42.952 399.35 41.464C400.262 39.976 401.294 38.296 402.446 36.424C403.646 34.552 404.942 32.608 406.334 30.592C407.726 28.576 409.166 26.752 410.654 25.12C412.142 23.44 413.63 22.072 415.118 21.016C416.606 19.96 418.022 19.432 419.366 19.432C421.526 19.432 422.678 20.416 422.822 22.384C423.302 22.864 423.518 23.608 423.47 24.616C423.23 27.208 421.358 30.232 417.854 33.688C414.494 36.952 410.606 39.544 406.19 41.464C405.47 42.088 404.774 42.688 404.102 43.264C404.054 43.312 404.006 43.384 403.958 43.48C403.958 43.528 403.934 43.576 403.886 43.624C404.318 43.288 404.726 43 405.11 42.76C406.214 42.04 407.246 41.68 408.206 41.68C408.926 41.68 409.574 41.992 410.15 42.616C410.87 41.992 411.518 41.68 412.094 41.68C412.622 41.68 412.886 41.992 412.886 42.616C412.886 43.384 412.622 44.296 412.094 45.352C410.654 48.136 408.374 51.472 405.254 55.36ZM407.27 42.832H407.126C406.358 42.832 405.446 43.24 404.39 44.056C403.862 44.488 403.31 44.968 402.734 45.496C402.638 45.688 402.518 45.904 402.374 46.144C401.75 47.152 401.078 48.232 400.358 49.384C399.638 50.536 398.942 51.64 398.27 52.696C397.166 54.568 396.23 56.32 395.462 57.952C394.694 59.584 394.31 60.784 394.31 61.552C394.31 62.272 394.43 62.752 394.67 62.992C396.734 61.984 399.35 59.272 402.518 54.856C403.814 53.08 404.894 51.496 405.758 50.104C406.286 48.376 407.102 46.696 408.206 45.064C408.302 44.68 408.35 44.32 408.35 43.984C408.35 43.312 407.99 42.928 407.27 42.832ZM410.438 36.352C412.838 34.24 414.83 32.368 416.414 30.736C418.046 29.056 419.27 27.544 420.086 26.2C420.806 25 421.214 23.824 421.31 22.672C420.254 22.576 418.862 23.272 417.134 24.76C416.126 25.672 414.662 27.472 412.742 30.16C410.966 32.704 408.782 35.992 406.19 40.024C407.726 38.68 409.142 37.456 410.438 36.352ZM420.806 20.944C420.518 20.512 420.134 20.296 419.654 20.296C418.166 20.296 416.726 20.92 415.334 22.168C413.99 23.416 412.718 24.952 411.518 26.776C410.318 28.552 409.19 30.448 408.134 32.464L407.126 34.552L407.702 33.688C410.246 29.992 412.766 27.064 415.262 24.904C417.71 22.792 419.702 21.736 421.238 21.736C421.142 21.496 420.998 21.232 420.806 20.944ZM420.59 28.072C419.054 29.944 417.158 31.912 414.902 33.976C412.934 35.752 410.846 37.576 408.638 39.448C409.79 38.824 410.894 38.152 411.95 37.432C413.87 36.088 415.646 34.576 417.278 32.896C420.206 29.92 421.91 27.352 422.39 25.192C422.006 26.104 421.406 27.064 420.59 28.072ZM392.582 59.824C392.054 60.976 391.79 61.816 391.79 62.344C391.79 63.112 392.174 63.496 392.942 63.496C393.23 63.496 393.542 63.448 393.878 63.352C393.398 62.776 393.158 61.768 393.158 60.328C393.158 59.704 393.206 59.032 393.302 58.312C393.062 58.84 392.822 59.344 392.582 59.824ZM436.897 54.064C433.489 59.056 430.705 61.552 428.545 61.552C428.305 61.552 428.113 61.528 427.969 61.48C427.777 61.96 427.681 62.296 427.681 62.488C427.681 63.112 427.945 63.352 428.473 63.208C429.145 63.016 429.985 62.464 430.993 61.552C432.049 60.64 433.057 59.68 434.017 58.672C434.977 57.664 435.817 56.776 436.537 56.008C437.257 55.192 437.665 54.784 437.761 54.784C438.001 54.784 438.121 54.88 438.121 55.072C438.121 55.168 438.001 55.384 437.761 55.72C437.521 56.008 437.209 56.392 436.825 56.872C436.441 57.304 435.985 57.784 435.457 58.312C434.977 58.84 434.449 59.392 433.873 59.968C432.673 61.312 431.593 62.344 430.633 63.064C429.673 63.736 428.761 64.072 427.897 64.072C427.129 64.072 426.481 63.832 425.953 63.352C425.473 62.872 425.233 62.248 425.233 61.48C425.233 60.856 425.329 60.232 425.521 59.608C425.665 59.176 425.929 58.6 426.313 57.88C426.313 57.736 426.313 57.592 426.313 57.448L423.217 60.904C422.209 62.008 421.321 62.8 420.553 63.28C419.833 63.76 419.089 64 418.321 64C417.409 64 416.689 63.64 416.161 62.92C415.633 62.2 415.369 61.24 415.369 60.04C415.369 57.736 417.001 54.52 420.265 50.392L422.065 48.088L419.833 49.24L425.953 43.192C426.337 42.664 426.601 42.376 426.745 42.328C426.937 42.232 427.273 42.16 427.753 42.112L430.705 41.968C431.041 41.968 431.209 42.064 431.209 42.256C431.209 42.304 431.113 42.496 430.921 42.832L425.089 50.68C425.041 51.688 424.585 52.696 423.721 53.704C422.521 55.096 421.417 56.464 420.409 57.808C419.977 58.192 419.641 58.552 419.401 58.888L419.185 59.32C419.089 59.464 419.017 59.584 418.969 59.68C418.921 59.872 418.921 60.064 418.969 60.256C419.209 60.832 419.665 61.12 420.337 61.12C421.249 61.12 422.377 60.472 423.721 59.176C424.009 58.84 424.273 58.528 424.513 58.24C424.993 57.664 425.425 57.16 425.809 56.728C425.953 56.584 426.073 56.464 426.169 56.368C426.601 55.792 427.033 55.192 427.465 54.568L431.713 48.664L435.529 43.336L436.033 42.616C436.177 42.376 436.297 42.232 436.393 42.184C436.537 42.136 436.777 42.112 437.113 42.112L439.993 41.968C440.281 41.968 440.425 42.088 440.425 42.328C440.425 42.424 440.401 42.496 440.353 42.544L431.641 55.288C430.441 56.968 429.481 58.48 428.761 59.824C428.473 60.304 428.257 60.736 428.113 61.12C428.209 61.12 428.353 61.12 428.545 61.12C430.465 61.12 433.033 58.672 436.249 53.776L436.897 54.064ZM418.177 62.2C418.177 62.728 418.465 62.992 419.041 62.992C419.569 62.992 420.505 62.416 421.849 61.264C421.369 61.456 420.889 61.552 420.409 61.552C419.545 61.552 418.921 61.24 418.537 60.616C418.297 61.288 418.177 61.816 418.177 62.2ZM440.299 56.152C440.923 55.192 441.667 54.16 442.531 53.056C443.443 51.952 444.403 50.848 445.411 49.744C446.467 48.64 447.547 47.584 448.651 46.576C449.803 45.568 450.883 44.704 451.891 43.984C452.947 43.216 453.931 42.616 454.843 42.184C455.803 41.752 456.619 41.56 457.291 41.608C458.443 41.704 459.403 42.328 460.171 43.48C460.987 44.584 461.347 46 461.251 47.728C461.203 48.496 461.059 49.192 460.819 49.816C460.723 50.104 460.603 50.44 460.459 50.824C460.459 51.016 460.483 51.232 460.531 51.472C460.771 51.328 461.011 51.16 461.251 50.968C461.779 50.584 462.331 50.128 462.907 49.6C463.483 49.024 464.083 48.328 464.707 47.512C465.331 46.696 466.003 45.712 466.723 44.56L469.819 44.128L467.731 48.088H468.307C468.979 48.088 469.507 48.016 469.891 47.872C469.171 48.832 468.571 49.648 468.091 50.32C467.611 50.944 467.155 51.568 466.723 52.192C466.291 52.816 465.859 53.464 465.427 54.136C464.995 54.76 464.467 55.552 463.843 56.512L463.411 57.088L467.515 53.848C467.899 53.032 468.355 52.24 468.883 51.472C469.411 50.656 470.083 49.792 470.899 48.88C471.763 47.872 472.723 46.912 473.779 46C474.835 45.088 475.891 44.296 476.947 43.624C478.051 42.952 479.107 42.424 480.115 42.04C481.123 41.656 482.011 41.464 482.779 41.464C483.451 41.464 483.979 41.752 484.363 42.328C484.747 42.856 484.915 43.504 484.867 44.272C484.819 44.992 484.651 45.712 484.363 46.432C484.123 47.152 483.787 47.8 483.355 48.376C482.971 48.904 482.539 49.336 482.059 49.672C481.579 50.008 481.099 50.176 480.619 50.176C480.331 50.176 480.091 50.128 479.899 50.032C479.755 50.656 479.467 51.232 479.035 51.76C478.411 52.528 477.763 52.912 477.091 52.912C476.275 52.912 475.867 52.528 475.867 51.76C475.867 51.04 476.395 50.392 477.451 49.816C478.507 49.24 479.035 48.832 479.035 48.592C479.035 48.256 478.771 48.088 478.243 48.088C477.139 48.088 475.843 48.76 474.355 50.104C473.059 51.832 472.003 53.632 471.187 55.504C470.227 57.616 469.699 59.368 469.603 60.76C469.555 61.528 469.867 62.128 470.539 62.56C470.779 62.752 471.067 62.872 471.403 62.92C472.459 62.44 473.755 61.408 475.291 59.824C476.587 58.528 478.027 56.824 479.611 54.712L480.043 55.072C478.651 56.896 477.379 58.408 476.227 59.608C474.787 61.144 473.491 62.248 472.339 62.92C472.627 62.92 472.939 62.872 473.275 62.776C474.427 62.44 475.747 61.648 477.235 60.4C478.771 59.104 480.355 57.112 481.987 54.424C482.179 54.136 482.371 53.992 482.563 53.992C482.803 53.992 482.899 54.088 482.851 54.28C482.131 55.768 481.267 57.136 480.259 58.384C479.299 59.632 478.267 60.688 477.163 61.552C476.059 62.416 474.931 63.088 473.779 63.568C472.675 64 471.619 64.168 470.611 64.072C470.179 64.024 469.771 63.928 469.387 63.784C467.131 63.64 466.003 62.224 466.003 59.536C466.003 58.768 466.099 58 466.291 57.232C464.803 58.384 463.267 59.632 461.683 60.976C461.203 61.744 460.723 62.608 460.243 63.568L456.571 64.072L456.859 63.424C456.475 63.472 456.163 63.544 455.923 63.64C456.643 62.68 457.243 61.888 457.723 61.264C458.107 60.736 458.467 60.232 458.803 59.752L462.331 52.984C461.563 53.56 460.819 54.088 460.099 54.568C460.195 54.856 460.147 55 459.955 55C459.235 56.872 457.891 58.648 455.923 60.328C453.139 62.68 450.595 63.856 448.291 63.856C447.955 63.856 447.667 63.832 447.427 63.784C446.515 64.072 445.723 64.216 445.051 64.216C444.379 64.216 443.851 63.952 443.467 63.424C443.131 62.848 442.987 62.176 443.035 61.408C443.035 60.688 443.155 59.968 443.395 59.248C443.683 58.528 444.019 57.904 444.403 57.376C444.835 56.8 445.291 56.344 445.771 56.008C446.203 55.72 446.659 55.552 447.139 55.504C448.291 54.064 449.347 52.84 450.307 51.832C452.947 49.048 455.083 47.656 456.715 47.656C457.051 47.656 457.363 47.68 457.651 47.728L457.723 47.44C458.011 46.528 458.107 45.736 458.011 45.064C457.867 43.768 457.267 43.12 456.211 43.12C455.203 43.072 453.931 43.576 452.395 44.632C450.859 45.64 449.107 47.152 447.139 49.168C445.171 51.184 443.179 53.584 441.163 56.368L440.299 56.152ZM448.435 56.872C448.435 57.256 448.387 57.592 448.291 57.88C448.195 58.12 448.027 58.408 447.787 58.744C447.547 59.032 447.211 59.392 446.779 59.824C446.395 60.256 445.843 60.808 445.123 61.48C444.691 61.864 444.427 62.248 444.331 62.632C444.331 63.208 444.619 63.496 445.195 63.496C445.627 63.496 446.107 63.328 446.635 62.992C446.587 62.752 446.563 62.488 446.563 62.2C446.563 61.288 446.875 60.448 447.499 59.68C448.123 58.912 448.771 58.528 449.443 58.528C450.019 58.528 450.403 58.744 450.595 59.176C451.267 58.312 451.987 57.352 452.755 56.296C453.523 55.336 454.243 54.352 454.915 53.344C455.587 52.288 456.163 51.28 456.643 50.32C456.979 49.648 457.243 48.976 457.435 48.304C457.195 48.208 456.907 48.16 456.571 48.16C455.275 48.16 453.499 49.312 451.243 51.616C450.187 52.672 449.035 54.016 447.787 55.648C448.219 55.792 448.435 56.2 448.435 56.872ZM479.539 47.872C479.635 47.584 479.803 47.296 480.043 47.008C480.283 46.672 480.595 46.288 480.979 45.856C481.411 45.424 481.987 44.872 482.707 44.2C483.139 43.816 483.403 43.432 483.499 43.048C483.499 42.472 483.211 42.184 482.635 42.184C481.819 42.184 480.715 42.832 479.323 44.128C478.267 45.136 477.163 46.408 476.011 47.944C476.779 47.704 477.523 47.584 478.243 47.584C478.771 47.584 479.179 47.704 479.467 47.944L479.539 47.872ZM463.915 49.96L463.771 49.816C463.051 50.536 462.307 51.232 461.539 51.904C461.203 52.24 460.843 52.552 460.459 52.84C460.411 53.128 460.363 53.44 460.315 53.776C461.179 53.104 462.115 52.336 463.123 51.472L463.915 49.96ZM467.083 55.288C466.219 55.816 465.187 56.704 463.987 57.952C463.651 58.24 463.315 58.6 462.979 59.032C464.179 58.072 465.403 57.16 466.651 56.296C466.699 56.2 466.723 56.128 466.723 56.08C466.675 55.888 466.723 55.792 466.867 55.792L467.083 55.36V55.288ZM450.811 62.056C449.995 62.584 449.203 63.016 448.435 63.352C449.635 63.256 451.099 62.368 452.827 60.688C452.155 61.216 451.483 61.672 450.811 62.056ZM458.803 54.856C458.899 54.76 459.019 54.688 459.163 54.64C458.971 54.544 458.827 54.496 458.731 54.496C458.683 54.496 458.707 54.616 458.803 54.856ZM506.281 54.064C502.873 59.056 500.089 61.552 497.929 61.552C497.689 61.552 497.497 61.528 497.353 61.48C497.161 61.96 497.065 62.296 497.065 62.488C497.065 63.112 497.329 63.352 497.857 63.208C498.529 63.016 499.369 62.464 500.377 61.552C501.433 60.64 502.441 59.68 503.401 58.672C504.361 57.664 505.201 56.776 505.921 56.008C506.641 55.192 507.049 54.784 507.145 54.784C507.385 54.784 507.505 54.88 507.505 55.072C507.505 55.168 507.385 55.384 507.145 55.72C506.905 56.008 506.593 56.392 506.209 56.872C505.825 57.304 505.369 57.784 504.841 58.312C504.361 58.84 503.833 59.392 503.257 59.968C502.057 61.312 500.977 62.344 500.017 63.064C499.057 63.736 498.145 64.072 497.281 64.072C496.513 64.072 495.865 63.832 495.337 63.352C494.857 62.872 494.617 62.248 494.617 61.48C494.617 60.856 494.713 60.232 494.905 59.608C495.049 59.176 495.313 58.6 495.697 57.88C495.697 57.736 495.697 57.592 495.697 57.448L492.601 60.904C491.593 62.008 490.705 62.8 489.937 63.28C489.217 63.76 488.473 64 487.705 64C486.793 64 486.073 63.64 485.545 62.92C485.017 62.2 484.753 61.24 484.753 60.04C484.753 57.736 486.385 54.52 489.649 50.392L491.449 48.088L489.217 49.24L495.337 43.192C495.721 42.664 495.985 42.376 496.129 42.328C496.321 42.232 496.657 42.16 497.137 42.112L500.089 41.968C500.425 41.968 500.593 42.064 500.593 42.256C500.593 42.304 500.497 42.496 500.305 42.832L494.473 50.68C494.425 51.688 493.969 52.696 493.105 53.704C491.905 55.096 490.801 56.464 489.793 57.808C489.361 58.192 489.025 58.552 488.785 58.888L488.569 59.32C488.473 59.464 488.401 59.584 488.353 59.68C488.305 59.872 488.305 60.064 488.353 60.256C488.593 60.832 489.049 61.12 489.721 61.12C490.633 61.12 491.761 60.472 493.105 59.176C493.393 58.84 493.657 58.528 493.897 58.24C494.377 57.664 494.809 57.16 495.193 56.728C495.337 56.584 495.457 56.464 495.553 56.368C495.985 55.792 496.417 55.192 496.849 54.568L501.097 48.664L504.913 43.336L505.417 42.616C505.561 42.376 505.681 42.232 505.777 42.184C505.921 42.136 506.161 42.112 506.497 42.112L509.377 41.968C509.665 41.968 509.809 42.088 509.809 42.328C509.809 42.424 509.785 42.496 509.737 42.544L501.025 55.288C499.825 56.968 498.865 58.48 498.145 59.824C497.857 60.304 497.641 60.736 497.497 61.12C497.593 61.12 497.737 61.12 497.929 61.12C499.849 61.12 502.417 58.672 505.633 53.776L506.281 54.064ZM487.561 62.2C487.561 62.728 487.849 62.992 488.425 62.992C488.953 62.992 489.889 62.416 491.233 61.264C490.753 61.456 490.273 61.552 489.793 61.552C488.929 61.552 488.305 61.24 487.921 60.616C487.681 61.288 487.561 61.816 487.561 62.2ZM547.7 41.464C547.796 41.464 547.844 41.512 547.844 41.608C547.844 41.752 547.556 42.256 546.98 43.12L542.012 50.248C539.564 53.752 537.692 56.536 536.396 58.6C535.34 60.28 534.716 61.504 534.524 62.272C536.396 60.88 538.844 58.48 541.868 55.072L542.3 55.432C539.084 58.936 536.492 61.384 534.524 62.776C534.524 63.304 534.836 63.568 535.46 63.568C535.94 63.568 536.636 63.208 537.548 62.488C538.46 61.72 539.42 60.832 540.428 59.824C541.436 58.768 542.444 57.712 543.452 56.656C544.46 55.6 545.324 54.784 546.044 54.208L546.116 54.136C546.308 54.136 546.404 54.232 546.404 54.424V54.496L546.26 54.784C544.244 56.992 542.612 58.744 541.364 60.04C540.116 61.336 539.084 62.32 538.268 62.992C537.5 63.616 536.828 64 536.252 64.144C535.676 64.336 535.076 64.432 534.452 64.432C533.732 64.432 533.132 64.24 532.652 63.856C532.124 64.048 531.668 64.144 531.284 64.144C530.18 64.144 529.7 63.448 529.844 62.056C530.084 59.896 531.26 57.664 533.372 55.36L534.596 54.064C535.22 53.104 535.916 52.072 536.684 50.968C535.772 51.736 534.884 52.528 534.02 53.344L532.652 54.64L525.02 63.856C524.3 63.904 523.724 63.832 523.292 63.64C522.716 63.976 522.26 64.144 521.924 64.144C520.724 64.144 520.196 63.4 520.34 61.912C520.484 60.808 520.844 59.848 521.42 59.032C521.852 58.408 522.332 57.712 522.86 56.944L523.004 56.584C523.196 56.2 523.412 55.768 523.652 55.288C523.028 55.96 522.38 56.608 521.708 57.232C520.988 57.904 520.364 58.48 519.836 58.96C519.692 59.056 519.572 59.176 519.476 59.32C518.66 60.424 517.82 61.36 516.956 62.128C516.428 62.608 515.924 63.04 515.444 63.424C515.012 63.76 514.388 63.976 513.572 64.072H513.428H513.284C512.516 64.072 511.94 63.88 511.556 63.496C511.076 63.16 510.716 62.776 510.476 62.344C510.188 61.864 510.02 61.36 509.972 60.832C509.876 60.304 509.828 59.776 509.828 59.248C509.828 58.48 509.972 57.664 510.26 56.8C510.548 55.936 510.956 55.144 511.484 54.424C511.964 53.656 512.516 53.032 513.14 52.552C513.764 52.024 514.436 51.76 515.156 51.76C516.02 51.76 516.644 52.024 517.028 52.552C517.46 53.032 517.7 53.584 517.748 54.208C517.796 54.784 517.652 55.336 517.316 55.864C516.98 56.392 516.452 56.656 515.732 56.656C515.348 56.656 515.06 56.608 514.868 56.512L514.652 56.656C513.884 57.232 513.236 57.952 512.708 58.816C512.18 59.632 511.844 60.424 511.7 61.192C511.556 61.72 511.532 62.176 511.628 62.56C511.868 62.8 512.252 62.968 512.78 63.064C513.164 63.208 513.572 63.208 514.004 63.064C514.196 62.92 514.436 62.752 514.724 62.56C515.588 61.84 516.572 60.976 517.676 59.968L518.252 59.464C518.54 59.032 518.948 58.48 519.476 57.808C520.196 56.8 521.012 55.672 521.924 54.424C522.836 53.176 523.796 51.856 524.804 50.464C525.812 49.072 526.82 47.776 527.828 46.576C528.884 45.328 529.868 44.248 530.78 43.336C531.692 42.376 532.508 41.728 533.228 41.392L537.98 41.32C538.076 41.32 538.124 41.368 538.124 41.464C538.124 41.656 537.812 42.16 537.188 42.976L533.156 48.448C533.54 48.4 533.852 48.328 534.092 48.232C533.036 49.432 531.836 50.728 530.492 52.12C528.716 54.616 527.372 56.68 526.46 58.312C525.692 59.704 525.188 60.784 524.948 61.552C525.476 61.024 526.028 60.472 526.604 59.896C527.276 59.224 527.996 58.528 528.764 57.808L542.444 41.536L547.7 41.464ZM526.82 50.536L532.724 42.688C530.948 44.224 529.34 45.904 527.9 47.728C526.46 49.504 525.116 51.28 523.868 53.056C523.148 54.112 522.428 55.12 521.708 56.08C522.86 55.024 523.964 54.016 525.02 53.056C525.548 52.24 526.148 51.4 526.82 50.536ZM542.3 42.976L535.028 51.832C535.844 51.064 536.636 50.392 537.404 49.816C537.452 49.768 537.524 49.72 537.62 49.672L542.3 42.976ZM511.7 57.088C510.98 57.568 510.644 58.504 510.692 59.896C510.692 60.424 510.788 61 510.98 61.624C510.98 61.288 511.028 60.928 511.124 60.544C511.316 59.584 511.652 58.624 512.132 57.664C512.324 57.28 512.516 56.92 512.708 56.584C512.372 56.728 512.036 56.896 511.7 57.088ZM531.644 61.264C531.644 61.024 531.668 60.76 531.716 60.472C530.996 61.432 530.612 62.152 530.564 62.632C530.516 63.304 530.828 63.64 531.5 63.64C531.74 63.64 532.028 63.592 532.364 63.496C531.884 62.92 531.644 62.176 531.644 61.264ZM522.572 62.992C522.188 62.416 521.948 61.84 521.852 61.264C521.804 61.312 521.756 61.36 521.708 61.408C521.372 61.84 521.18 62.248 521.132 62.632C521.084 63.304 521.42 63.64 522.14 63.64C522.284 63.64 522.524 63.52 522.86 63.28C522.764 63.184 522.668 63.088 522.572 62.992ZM524.732 62.416V62.56L525.308 61.912C525.116 62.104 524.924 62.272 524.732 62.416ZM567.114 55.288C565.434 57.448 563.706 58.528 561.93 58.528C561.786 58.528 561.594 58.504 561.354 58.456L560.994 58.96H561.426C562.29 58.96 563.274 58.648 564.378 58.024C565.482 57.352 566.562 56.44 567.618 55.288C567.858 55 568.002 54.832 568.05 54.784C568.146 54.688 568.266 54.64 568.41 54.64C568.746 54.64 568.914 54.784 568.914 55.072C568.914 55.168 568.698 55.432 568.266 55.864C567.834 56.296 567.33 56.776 566.754 57.304C564.834 59.08 562.842 59.968 560.778 59.968H560.202C558.618 61.648 557.13 62.776 555.738 63.352C554.346 63.928 552.954 64.216 551.562 64.216C550.554 64.216 549.69 63.808 548.97 62.992C548.25 62.176 547.89 61.192 547.89 60.04C547.89 58.12 548.49 56.08 549.69 53.92C550.89 51.712 552.642 49.6 554.946 47.584C557.01 45.712 558.954 44.272 560.778 43.264C562.65 42.208 564.21 41.68 565.458 41.68C566.226 41.68 566.802 41.944 567.186 42.472C567.618 43 567.882 43.72 567.978 44.632C568.026 45.4 567.834 46.384 567.402 47.584C566.97 48.736 566.394 49.984 565.674 51.328C564.954 52.672 564.162 54.016 563.298 55.36C562.722 56.32 562.17 57.184 561.642 57.952H562.074C563.514 57.952 565.05 56.944 566.682 54.928L567.114 55.288ZM564.234 49.672C564.234 48.76 563.826 48.304 563.01 48.304C561.426 48.304 559.05 50.2 555.882 53.992C552.762 57.784 551.178 60.496 551.13 62.128C551.13 62.512 551.202 62.824 551.346 63.064C551.538 63.208 551.778 63.28 552.066 63.28C553.17 63.28 554.274 62.992 555.378 62.416C555.522 62.32 555.666 62.224 555.81 62.128C556.722 61.456 557.706 60.52 558.762 59.32C558.522 59.032 558.402 58.672 558.402 58.24C558.402 57.76 558.474 57.28 558.618 56.8C558.81 56.32 559.05 55.888 559.338 55.504C559.626 55.12 559.938 54.808 560.274 54.568C560.61 54.28 560.97 54.136 561.354 54.136C561.546 54.136 561.81 54.232 562.146 54.424C562.338 54.136 562.554 53.824 562.794 53.488C563.754 51.856 564.234 50.584 564.234 49.672ZM565.17 49.672C565.65 48.712 566.058 47.752 566.394 46.792C566.778 45.832 566.994 44.92 567.042 44.056C567.09 43.672 566.97 43.336 566.682 43.048C566.394 42.76 566.058 42.616 565.674 42.616C565.338 42.616 565.002 42.688 564.666 42.832C564.33 42.976 563.946 43.24 563.514 43.624C563.082 43.96 562.554 44.44 561.93 45.064C561.354 45.688 560.658 46.48 559.842 47.44C559.314 48.016 558.81 48.592 558.33 49.168C559.962 48.208 561.546 47.728 563.082 47.728C564.282 47.728 564.882 48.4 564.882 49.744C564.882 49.936 564.858 50.128 564.81 50.32C564.954 50.128 565.074 49.912 565.17 49.672ZM588.255 55.288C586.335 57.784 584.631 59.728 583.143 61.12C583.431 60.928 583.743 60.712 584.079 60.472C585.711 59.176 587.367 57.208 589.047 54.568C589.335 54.28 589.551 54.136 589.695 54.136C589.983 54.136 590.103 54.232 590.055 54.424C589.335 55.912 588.447 57.28 587.391 58.528C586.335 59.728 585.207 60.76 584.007 61.624C582.855 62.488 581.655 63.16 580.407 63.64C579.159 64.072 577.983 64.24 576.879 64.144C575.535 64.048 574.407 63.448 573.495 62.344C572.583 61.192 572.127 59.776 572.127 58.096C572.127 55.264 573.591 52.24 576.519 49.024C577.431 48.016 578.439 47.08 579.543 46.216C580.695 45.304 581.847 44.512 582.999 43.84C584.151 43.168 585.279 42.64 586.383 42.256C587.487 41.872 588.471 41.68 589.335 41.68C590.007 41.68 590.583 41.968 591.063 42.544C591.543 43.072 591.783 43.72 591.783 44.488C591.783 45.208 591.639 45.928 591.351 46.648C591.111 47.32 590.775 47.944 590.343 48.52C589.959 49.048 589.503 49.48 588.975 49.816C588.687 50.008 588.399 50.152 588.111 50.248C587.967 50.872 587.679 51.448 587.247 51.976C586.623 52.744 585.975 53.128 585.303 53.128C584.487 53.128 584.079 52.744 584.079 51.976C584.079 51.256 584.607 50.608 585.663 50.032C585.855 49.936 586.023 49.84 586.167 49.744C586.023 49.504 585.951 49.24 585.951 48.952C585.951 48.76 585.951 48.568 585.951 48.376C584.415 48.616 582.423 50.152 579.975 52.984C577.335 56.104 576.015 58.744 576.015 60.904C576.015 61.624 576.135 62.2 576.375 62.632H576.447C577.263 63.064 578.319 63.136 579.615 62.848C579.951 62.752 580.311 62.632 580.695 62.488C582.567 61.24 584.943 58.72 587.823 54.928L588.255 55.288ZM586.527 47.152C586.767 46.816 587.103 46.456 587.535 46.072C588.015 45.64 588.639 45.088 589.407 44.416C589.935 43.984 590.199 43.6 590.199 43.264C590.199 42.688 589.863 42.4 589.191 42.4C588.327 42.4 587.079 43.048 585.447 44.344C583.863 45.64 582.231 47.368 580.551 49.528C580.263 49.864 579.975 50.224 579.687 50.608C582.039 48.832 584.175 47.896 586.095 47.8C586.191 47.608 586.335 47.392 586.527 47.152ZM624.497 52.12C620.033 57.928 616.697 60.832 614.489 60.832C614.249 60.832 614.033 60.808 613.841 60.76L613.697 61.048C613.361 61.624 613.193 62.08 613.193 62.416C613.193 62.656 613.217 62.824 613.265 62.92C613.313 63.016 613.505 63.064 613.841 63.064C613.889 63.064 614.201 62.968 614.777 62.776C615.353 62.536 616.097 62.104 617.009 61.48C617.921 60.856 619.001 59.968 620.249 58.816C621.497 57.664 622.841 56.152 624.281 54.28C624.377 54.184 624.497 54.208 624.641 54.352C624.785 54.448 624.857 54.544 624.857 54.64C624.857 54.976 624.425 55.696 623.561 56.8C622.745 57.856 621.713 58.96 620.465 60.112C619.265 61.216 617.969 62.2 616.577 63.064C615.233 63.928 614.033 64.336 612.977 64.288C612.065 64.24 611.345 63.976 610.817 63.496C610.289 62.968 610.025 62.224 610.025 61.264C610.025 60.4 610.433 59.2 611.249 57.664C612.065 56.08 613.097 54.496 614.345 52.912L618.881 47.296C619.505 46.624 619.961 45.976 620.249 45.352C620.105 45.256 619.937 45.208 619.745 45.208C617.873 45.208 615.353 47.152 612.185 51.04C611.129 52.288 609.713 54.064 607.937 56.368L602.969 63.784C602.921 63.976 602.777 64.072 602.537 64.072H598.217C598.121 64.072 598.073 64.024 598.073 63.928C598.073 63.736 598.097 63.616 598.145 63.568L605.129 53.2C606.185 51.616 607.073 50.272 607.793 49.168C608.513 48.064 609.089 47.152 609.521 46.432C609.761 46 609.953 45.64 610.097 45.352C608.465 45.928 606.329 47.824 603.689 51.04C601.289 54.016 598.721 57.184 595.985 60.544C595.745 60.448 595.457 60.376 595.121 60.328L592.745 63.784C592.601 63.928 592.433 64 592.241 64H588.353C588.113 64 587.993 63.928 587.993 63.784L595.625 51.832L595.409 52.12L594.977 51.76C596.513 49.888 597.617 48.52 598.289 47.656L602.033 41.824H606.353L604.121 45.568C604.265 45.856 604.361 46.168 604.409 46.504C604.841 46.024 605.249 45.592 605.633 45.208C606.545 44.296 607.313 43.6 607.937 43.12C608.609 42.592 609.185 42.256 609.665 42.112C610.145 41.92 610.673 41.824 611.249 41.824C611.921 41.824 612.473 42.088 612.905 42.616C613.385 43.096 613.625 43.72 613.625 44.488C613.625 45.064 613.529 45.64 613.337 46.216C613.289 46.504 613.193 46.816 613.049 47.152C613.049 47.392 613.025 47.632 612.977 47.872C616.289 43.84 619.025 41.824 621.185 41.824C622.001 41.824 622.673 42.112 623.201 42.688C623.777 43.216 624.065 43.912 624.065 44.776C624.065 45.736 623.729 46.864 623.057 48.16C622.433 49.408 621.401 50.968 619.961 52.84L615.065 59.032C614.729 59.512 614.417 59.944 614.129 60.328C614.273 60.328 614.417 60.328 614.561 60.328C616.577 60.328 619.745 57.472 624.065 51.76L624.497 52.12ZM610.457 44.632C610.649 44.152 610.745 43.792 610.745 43.552C610.745 43.216 610.577 43.048 610.241 43.048C609.857 43.048 609.281 43.336 608.513 43.912C607.745 44.44 606.881 45.16 605.921 46.072C605.393 46.6 604.865 47.152 604.337 47.728C604.241 48.544 603.977 49.36 603.545 50.176C606.473 47.056 608.753 45.256 610.385 44.776L610.457 44.632ZM620.681 43.696C620.681 43.216 620.489 42.976 620.105 42.976C619.721 42.976 619.169 43.24 618.449 43.768C617.729 44.296 616.937 44.992 616.073 45.856C615.209 46.672 614.321 47.608 613.409 48.664C613.169 48.952 612.929 49.216 612.689 49.456C615.617 46.24 617.969 44.632 619.745 44.632C620.033 44.632 620.297 44.656 620.537 44.704C620.633 44.368 620.681 44.032 620.681 43.696ZM648.312 54.064C644.904 59.056 642.12 61.552 639.96 61.552C639.72 61.552 639.528 61.528 639.384 61.48C639.192 61.96 639.096 62.296 639.096 62.488C639.096 63.112 639.36 63.352 639.888 63.208C640.56 63.016 641.4 62.464 642.408 61.552C643.464 60.64 644.472 59.68 645.432 58.672C646.392 57.664 647.232 56.776 647.952 56.008C648.672 55.192 649.08 54.784 649.176 54.784C649.416 54.784 649.536 54.88 649.536 55.072C649.536 55.168 649.416 55.384 649.176 55.72C648.936 56.008 648.624 56.392 648.24 56.872C647.856 57.304 647.4 57.784 646.872 58.312C646.392 58.84 645.864 59.392 645.288 59.968C644.088 61.312 643.008 62.344 642.048 63.064C641.088 63.736 640.176 64.072 639.312 64.072C638.544 64.072 637.896 63.832 637.368 63.352C636.888 62.872 636.648 62.248 636.648 61.48C636.648 60.856 636.744 60.232 636.936 59.608C637.08 59.176 637.344 58.6 637.728 57.88C637.728 57.736 637.728 57.592 637.728 57.448L634.632 60.904C633.624 62.008 632.736 62.8 631.968 63.28C631.248 63.76 630.504 64 629.736 64C628.824 64 628.104 63.64 627.576 62.92C627.048 62.2 626.784 61.24 626.784 60.04C626.784 57.736 628.416 54.52 631.68 50.392L633.48 48.088L631.248 49.24L637.368 43.192C637.752 42.664 638.016 42.376 638.16 42.328C638.352 42.232 638.688 42.16 639.168 42.112L642.12 41.968C642.456 41.968 642.624 42.064 642.624 42.256C642.624 42.304 642.528 42.496 642.336 42.832L636.504 50.68C636.456 51.688 636 52.696 635.136 53.704C633.936 55.096 632.832 56.464 631.824 57.808C631.392 58.192 631.056 58.552 630.816 58.888L630.6 59.32C630.504 59.464 630.432 59.584 630.384 59.68C630.336 59.872 630.336 60.064 630.384 60.256C630.624 60.832 631.08 61.12 631.752 61.12C632.664 61.12 633.792 60.472 635.136 59.176C635.424 58.84 635.688 58.528 635.928 58.24C636.408 57.664 636.84 57.16 637.224 56.728C637.368 56.584 637.488 56.464 637.584 56.368C638.016 55.792 638.448 55.192 638.88 54.568L643.128 48.664L646.944 43.336L647.448 42.616C647.592 42.376 647.712 42.232 647.808 42.184C647.952 42.136 648.192 42.112 648.528 42.112L651.408 41.968C651.696 41.968 651.84 42.088 651.84 42.328C651.84 42.424 651.816 42.496 651.768 42.544L643.056 55.288C641.856 56.968 640.896 58.48 640.176 59.824C639.888 60.304 639.672 60.736 639.528 61.12C639.624 61.12 639.768 61.12 639.96 61.12C641.88 61.12 644.448 58.672 647.664 53.776L648.312 54.064ZM629.592 62.2C629.592 62.728 629.88 62.992 630.456 62.992C630.984 62.992 631.92 62.416 633.264 61.264C632.784 61.456 632.304 61.552 631.824 61.552C630.96 61.552 630.336 61.24 629.952 60.616C629.712 61.288 629.592 61.816 629.592 62.2Z" fill="url(#paint0_linear)"/>
</g>
<g filter="url(#filter1_d)">
<path d="M663.041 64V61.6636L667.418 61.3145V27.6108L663.041 27.2617V24.8984H667.418H670.641L692.824 58.3872L692.985 58.3335V27.6108L688.607 27.2617V24.8984H696.208H700.585V27.2617L696.208 27.6108V64H692.985L670.802 30.4575L670.641 30.5112V61.3145L675.019 61.6636V64H663.041ZM703.727 53.6875V51.1094H718.336V53.6875H703.727ZM710.79 45.5771C708.122 45.5771 706.001 44.7536 704.425 43.1064C702.85 41.4414 702.062 39.2751 702.062 36.6074V33.4653C702.062 31.6929 702.42 30.1353 703.136 28.7925C703.852 27.4318 704.855 26.3755 706.144 25.6235C707.451 24.8537 708.982 24.4688 710.736 24.4688C712.527 24.4688 714.066 24.8537 715.355 25.6235C716.662 26.3755 717.665 27.4318 718.363 28.7925C719.079 30.1353 719.438 31.6929 719.438 33.4653V36.6074C719.438 39.2751 718.659 41.4414 717.101 43.1064C715.543 44.7536 713.44 45.5771 710.79 45.5771ZM710.79 43.0527C712.634 43.0527 714.049 42.453 715.033 41.2534C716.036 40.0539 716.537 38.5052 716.537 36.6074V33.4653C716.537 31.6034 716.036 30.0636 715.033 28.8462C714.049 27.6287 712.616 27.02 710.736 27.02C708.874 27.02 707.451 27.6287 706.466 28.8462C705.482 30.0636 704.989 31.6034 704.989 33.4653V36.6074C704.989 38.5231 705.473 40.0807 706.439 41.2803C707.424 42.4619 708.874 43.0527 710.79 43.0527ZM725.346 64V61.6636L732.382 61.3145V28.2285L724.647 29.3833V27.1274L735.604 24.791V61.3145L742.614 61.6636V64H725.346Z" fill="url(#paint1_linear)"/>
</g>
<defs>
<filter id="filter0_d" x="0.952026" y="12.3281" width="657.888" height="88.88" filterUnits="userSpaceOnUse" color-interpolation-filters="sRGB">
<feFlood flood-opacity="0" result="BackgroundImageFix"/>
<feColorMatrix in="SourceAlpha" type="matrix" values="0 0 0 0 0 0 0 0 0 0 0 0 0 0 0 0 0 0 127 0"/>
<feOffset dy="4"/>
<feGaussianBlur stdDeviation="3.5"/>
<feColorMatrix type="matrix" values="0 0 0 0 0 0 0 0 0 0 0 0 0 0 0 0 0 0 0.62 0"/>
<feBlend mode="normal" in2="BackgroundImageFix" result="effect1_dropShadow"/>
<feBlend mode="normal" in="SourceGraphic" in2="effect1_dropShadow" result="shape"/>
</filter>
<filter id="filter1_d" x="656.041" y="21.4688" width="93.5728" height="53.5312" filterUnits="userSpaceOnUse" color-interpolation-filters="sRGB">
<feFlood flood-opacity="0" result="BackgroundImageFix"/>
<feColorMatrix in="SourceAlpha" type="matrix" values="0 0 0 0 0 0 0 0 0 0 0 0 0 0 0 0 0 0 127 0"/>
<feOffset dy="4"/>
<feGaussianBlur stdDeviation="3.5"/>
<feColorMatrix type="matrix" values="0 0 0 0 0 0 0 0 0 0 0 0 0 0 0 0 0 0 0.62 0"/>
<feBlend mode="normal" in2="BackgroundImageFix" result="effect1_dropShadow"/>
<feBlend mode="normal" in="SourceGraphic" in2="effect1_dropShadow" result="shape"/>
</filter>
<linearGradient id="paint0_linear" x1="327.5" y1="116.432" x2="327.5" y2="14.8636" gradientUnits="userSpaceOnUse">
<stop stop-color="#A27227"/>
<stop offset="0.0485093" stop-color="#FEDA5B"/>
<stop offset="0.122132" stop-color="#FEDA5B"/>
<stop offset="0.22188" stop-color="#CD953D"/>
<stop offset="0.347751" stop-color="#C99C39"/>
<stop offset="0.421875" stop-color="#FEDA5B"/>
<stop offset="0.601869" stop-color="#EDC84C"/>
<stop offset="0.753865" stop-color="#A27227"/>
<stop offset="1" stop-color="#EDC84C"/>
</linearGradient>
<linearGradient id="paint1_linear" x1="703" y1="83.9773" x2="703" y2="15.9545" gradientUnits="userSpaceOnUse">
<stop stop-color="#A27227"/>
<stop offset="0.0485093" stop-color="#FEDA5B"/>
<stop offset="0.122132" stop-color="#FEDA5B"/>
<stop offset="0.22188" stop-color="#CD953D"/>
<stop offset="0.347751" stop-color="#C99C39"/>
<stop offset="0.421875" stop-color="#FEDA5B"/>
<stop offset="0.601869" stop-color="#EDC84C"/>
<stop offset="0.753865" stop-color="#A27227"/>
<stop offset="1" stop-color="#EDC84C"/>
</linearGradient>
</defs>
</svg>
