<svg width="24" height="24" viewBox="0 0 24 24" fill="none" xmlns="http://www.w3.org/2000/svg">
<path fill-rule="evenodd" clip-rule="evenodd" d="M0.333252 4.99992C0.333252 3.76224 0.824917 2.57526 1.70009 1.70009C2.57526 0.824917 3.76224 0.333252 4.99992 0.333252H18.9999C20.2376 0.333252 21.4246 0.824917 22.2998 1.70009C23.1749 2.57526 23.6666 3.76224 23.6666 4.99992V18.9999C23.6666 20.2376 23.1749 21.4246 22.2998 22.2998C21.4246 23.1749 20.2376 23.6666 18.9999 23.6666H4.99992C3.76224 23.6666 2.57526 23.1749 1.70009 22.2998C0.824917 21.4246 0.333252 20.2376 0.333252 18.9999V4.99992ZM4.99992 2.66659C4.38108 2.66659 3.78759 2.91242 3.35 3.35C2.91242 3.78759 2.66659 4.38108 2.66659 4.99992V18.9999C2.66659 19.6188 2.91242 20.2123 3.35 20.6498C3.78759 21.0874 4.38108 21.3333 4.99992 21.3333H11.9999V13.1666H10.8333C10.5238 13.1666 10.2271 13.0437 10.0083 12.8249C9.7895 12.6061 9.66659 12.3093 9.66659 11.9999C9.66659 11.6905 9.7895 11.3938 10.0083 11.175C10.2271 10.9562 10.5238 10.8333 10.8333 10.8333H11.9999V9.08325C11.9999 8.00029 12.4301 6.96167 13.1959 6.1959C13.9617 5.43013 15.0003 4.99992 16.0833 4.99992H16.7833C17.0927 4.99992 17.3894 5.12284 17.6082 5.34163C17.827 5.56042 17.9499 5.85717 17.9499 6.16659C17.9499 6.476 17.827 6.77275 17.6082 6.99154C17.3894 7.21034 17.0927 7.33325 16.7833 7.33325H16.0833C15.8534 7.33325 15.6259 7.37852 15.4136 7.46646C15.2012 7.55441 15.0083 7.68331 14.8458 7.84582C14.6833 8.00832 14.5544 8.20124 14.4665 8.41356C14.3785 8.62588 14.3333 8.85344 14.3333 9.08325V10.8333H16.7833C17.0927 10.8333 17.3894 10.9562 17.6082 11.175C17.827 11.3938 17.9499 11.6905 17.9499 11.9999C17.9499 12.3093 17.827 12.6061 17.6082 12.8249C17.3894 13.0437 17.0927 13.1666 16.7833 13.1666H14.3333V21.3333H18.9999C19.6188 21.3333 20.2123 21.0874 20.6498 20.6498C21.0874 20.2123 21.3333 19.6188 21.3333 18.9999V4.99992C21.3333 4.38108 21.0874 3.78759 20.6498 3.35C20.2123 2.91242 19.6188 2.66659 18.9999 2.66659H4.99992Z" fill="white" fill-opacity="0.9"/>
</svg>
