<svg width="18" height="25" viewBox="0 0 18 25" fill="none" xmlns="http://www.w3.org/2000/svg">
<path d="M15.249 13.441C14.463 15.0376 13.398 16.6283 12.309 18.0566C11.2759 19.4031 10.1713 20.693 9 21.9205C7.82862 20.693 6.72403 19.4031 5.691 18.0566C4.602 16.6283 3.537 15.0376 2.751 13.441C1.956 11.8277 1.5 10.3168 1.5 9.02078C1.5 7.02707 2.29018 5.11501 3.6967 3.70524C5.10322 2.29546 7.01088 1.50346 9 1.50346C10.9891 1.50346 12.8968 2.29546 14.3033 3.70524C15.7098 5.11501 16.5 7.02707 16.5 9.02078C16.5 10.3168 16.0425 11.8277 15.249 13.441ZM9 24.0554C9 24.0554 18 15.5067 18 9.02078C18 6.62832 17.0518 4.33385 15.364 2.64213C13.6761 0.950401 11.3869 0 9 0C6.61305 0 4.32387 0.950401 2.63604 2.64213C0.948211 4.33385 3.55683e-08 6.62832 0 9.02078C0 15.5067 9 24.0554 9 24.0554Z" fill="white" fill-opacity="0.9"/>
</svg>
