<svg width="24" height="24" viewBox="0 0 24 24" fill="none" xmlns="http://www.w3.org/2000/svg">
<path d="M0.333313 4.99992C0.333313 3.76224 0.824978 2.57526 1.70015 1.70009C2.57532 0.824917 3.7623 0.333252 4.99998 0.333252H19C20.2377 0.333252 21.4246 0.824917 22.2998 1.70009C23.175 2.57526 23.6666 3.76224 23.6666 4.99992V18.9999C23.6666 20.2376 23.175 21.4246 22.2998 22.2998C21.4246 23.1749 20.2377 23.6666 19 23.6666H4.99998C3.7623 23.6666 2.57532 23.1749 1.70015 22.2998C0.824978 21.4246 0.333313 20.2376 0.333313 18.9999V4.99992ZM4.99998 2.66659C4.38114 2.66659 3.78765 2.91242 3.35006 3.35C2.91248 3.78759 2.66665 4.38108 2.66665 4.99992V18.9999C2.66665 19.6188 2.91248 20.2122 3.35006 20.6498C3.78765 21.0874 4.38114 21.3333 4.99998 21.3333H19C19.6188 21.3333 20.2123 21.0874 20.6499 20.6498C21.0875 20.2122 21.3333 19.6188 21.3333 18.9999V4.99992C21.3333 4.38108 21.0875 3.78759 20.6499 3.35C20.2123 2.91242 19.6188 2.66659 19 2.66659H4.99998ZM12 8.49992C11.0717 8.49992 10.1815 8.86867 9.52511 9.52505C8.86873 10.1814 8.49998 11.0717 8.49998 11.9999C8.49998 12.9282 8.86873 13.8184 9.52511 14.4748C10.1815 15.1312 11.0717 15.4999 12 15.4999C12.9282 15.4999 13.8185 15.1312 14.4749 14.4748C15.1312 13.8184 15.5 12.9282 15.5 11.9999C15.5 11.0717 15.1312 10.1814 14.4749 9.52505C13.8185 8.86867 12.9282 8.49992 12 8.49992ZM6.16665 11.9999C6.16665 10.4528 6.78123 8.96909 7.87519 7.87513C8.96915 6.78117 10.4529 6.16659 12 6.16659C13.5471 6.16659 15.0308 6.78117 16.1248 7.87513C17.2187 8.96909 17.8333 10.4528 17.8333 11.9999C17.8333 13.547 17.2187 15.0307 16.1248 16.1247C15.0308 17.2187 13.5471 17.8333 12 17.8333C10.4529 17.8333 8.96915 17.2187 7.87519 16.1247C6.78123 15.0307 6.16665 13.547 6.16665 11.9999ZM18.4166 7.33325C18.8808 7.33325 19.3259 7.14888 19.6541 6.82069C19.9823 6.4925 20.1666 6.04738 20.1666 5.58325C20.1666 5.11912 19.9823 4.674 19.6541 4.34582C19.3259 4.01763 18.8808 3.83325 18.4166 3.83325C17.9525 3.83325 17.5074 4.01763 17.1792 4.34582C16.851 4.674 16.6666 5.11912 16.6666 5.58325C16.6666 6.04738 16.851 6.4925 17.1792 6.82069C17.5074 7.14888 17.9525 7.33325 18.4166 7.33325Z" fill="white" fill-opacity="0.9"/>
<path d="M0.333313 4.99992C0.333313 3.76224 0.824978 2.57526 1.70015 1.70009C2.57532 0.824917 3.7623 0.333252 4.99998 0.333252H19C20.2377 0.333252 21.4246 0.824917 22.2998 1.70009C23.175 2.57526 23.6666 3.76224 23.6666 4.99992V18.9999C23.6666 20.2376 23.175 21.4246 22.2998 22.2998C21.4246 23.1749 20.2377 23.6666 19 23.6666H4.99998C3.7623 23.6666 2.57532 23.1749 1.70015 22.2998C0.824978 21.4246 0.333313 20.2376 0.333313 18.9999V4.99992ZM4.99998 2.66659C4.38114 2.66659 3.78765 2.91242 3.35006 3.35C2.91248 3.78759 2.66665 4.38108 2.66665 4.99992V18.9999C2.66665 19.6188 2.91248 20.2122 3.35006 20.6498C3.78765 21.0874 4.38114 21.3333 4.99998 21.3333H19C19.6188 21.3333 20.2123 21.0874 20.6499 20.6498C21.0875 20.2122 21.3333 19.6188 21.3333 18.9999V4.99992C21.3333 4.38108 21.0875 3.78759 20.6499 3.35C20.2123 2.91242 19.6188 2.66659 19 2.66659H4.99998ZM12 8.49992C11.0717 8.49992 10.1815 8.86867 9.52511 9.52505C8.86873 10.1814 8.49998 11.0717 8.49998 11.9999C8.49998 12.9282 8.86873 13.8184 9.52511 14.4748C10.1815 15.1312 11.0717 15.4999 12 15.4999C12.9282 15.4999 13.8185 15.1312 14.4749 14.4748C15.1312 13.8184 15.5 12.9282 15.5 11.9999C15.5 11.0717 15.1312 10.1814 14.4749 9.52505C13.8185 8.86867 12.9282 8.49992 12 8.49992ZM6.16665 11.9999C6.16665 10.4528 6.78123 8.96909 7.87519 7.87513C8.96915 6.78117 10.4529 6.16659 12 6.16659C13.5471 6.16659 15.0308 6.78117 16.1248 7.87513C17.2187 8.96909 17.8333 10.4528 17.8333 11.9999C17.8333 13.547 17.2187 15.0307 16.1248 16.1247C15.0308 17.2187 13.5471 17.8333 12 17.8333C10.4529 17.8333 8.96915 17.2187 7.87519 16.1247C6.78123 15.0307 6.16665 13.547 6.16665 11.9999ZM18.4166 7.33325C18.8808 7.33325 19.3259 7.14888 19.6541 6.82069C19.9823 6.4925 20.1666 6.04738 20.1666 5.58325C20.1666 5.11912 19.9823 4.674 19.6541 4.34582C19.3259 4.01763 18.8808 3.83325 18.4166 3.83325C17.9525 3.83325 17.5074 4.01763 17.1792 4.34582C16.851 4.674 16.6666 5.11912 16.6666 5.58325C16.6666 6.04738 16.851 6.4925 17.1792 6.82069C17.5074 7.14888 17.9525 7.33325 18.4166 7.33325Z" stroke="black"/>
</svg>
