<svg width="11" height="19" viewBox="0 0 11 19" fill="none" xmlns="http://www.w3.org/2000/svg">
<path d="M0.71126 1.40095C0.475632 1.38355 0.239443 1.37484 0.00317383 1.37482V0C0.273397 0.000131746 0.543524 0.0102206 0.813004 0.0302461L0.71126 1.40095ZM3.46661 2.01962C3.02587 1.84956 2.57322 1.71216 2.11231 1.60854L2.41342 0.266716C2.94001 0.384951 3.45836 0.541681 3.96158 0.736906L3.46661 2.01962ZM5.35025 2.99574C5.15367 2.86465 4.95234 2.74083 4.74666 2.62454L5.4245 1.42844C5.89459 1.6948 6.34449 1.99532 6.77055 2.32758L5.92497 3.41232C5.73857 3.2669 5.54686 3.12841 5.35025 2.99712V2.99574ZM7.87186 5.45668C7.5999 5.07032 7.29981 4.70454 6.97404 4.36232L7.96948 3.41369C8.34071 3.80552 8.68444 4.22484 8.99655 4.66478L7.87186 5.45668ZM8.89481 7.31544C8.80456 7.09748 8.70642 6.88286 8.60057 6.67202L9.82838 6.05335C10.0712 6.53603 10.278 7.036 10.4471 7.54916L9.14092 7.97948C9.06703 7.7552 8.98494 7.53371 8.89481 7.31544ZM9.62352 10.7621C9.6124 10.2897 9.56644 9.81865 9.48603 9.35293L10.8403 9.11921C10.9324 9.64989 10.9861 10.1888 10.9998 10.7278L9.62489 10.7621H9.62352ZM9.4434 12.8766C9.48878 12.6429 9.5259 12.4105 9.55477 12.1754L10.9201 12.3446C10.854 12.8809 10.7483 13.4117 10.6038 13.9325L9.27841 13.5654C9.34166 13.3385 9.39666 13.109 9.4434 12.8766ZM8.13447 16.1473C8.38746 15.7486 8.6102 15.3307 8.80269 14.899L10.0594 15.4558C9.83938 15.9507 9.58502 16.4264 9.29629 16.8828L8.13447 16.1473ZM6.80905 17.804C6.97679 17.6363 7.13766 17.463 7.29027 17.2843L8.33246 18.1821C8.15597 18.3867 7.97207 18.5848 7.78112 18.776L6.80905 17.804Z" fill="white" fill-opacity="0.9"/>
</svg>
