<svg width="7" height="12" viewBox="0 0 7 12" fill="none" xmlns="http://www.w3.org/2000/svg">
<path d="M1.31538 0.124512C1.49771 0.124512 1.67257 0.196934 1.80149 0.325847C1.93041 0.45476 2.00284 0.629603 2.00284 0.811913V7.97464L6.46855 10.5263C6.62225 10.619 6.73359 10.7681 6.77877 10.9419C6.82395 11.1156 6.79938 11.3001 6.71032 11.4559C6.62126 11.6118 6.47477 11.7266 6.30216 11.7759C6.12955 11.8251 5.94451 11.8049 5.78659 11.7196L0.974407 8.97C0.869189 8.9099 0.781727 8.82306 0.720881 8.71828C0.660036 8.6135 0.627969 8.4945 0.62793 8.37333V0.811913C0.62793 0.629603 0.700358 0.45476 0.829281 0.325847C0.958204 0.196934 1.13306 0.124512 1.31538 0.124512Z" fill="white" fill-opacity="0.9"/>
</svg>
