<svg width="24" height="24" viewBox="0 0 24 24" fill="none" xmlns="http://www.w3.org/2000/svg">
<path d="M0.333252 4.99992C0.333252 3.76224 0.824917 2.57526 1.70009 1.70009C2.57526 0.824917 3.76224 0.333252 4.99992 0.333252H18.9999C20.2376 0.333252 21.4246 0.824917 22.2998 1.70009C23.1749 2.57526 23.6666 3.76224 23.6666 4.99992V18.9999C23.6666 20.2376 23.1749 21.4246 22.2998 22.2998C21.4246 23.1749 20.2376 23.6666 18.9999 23.6666H4.99992C3.76224 23.6666 2.57526 23.1749 1.70009 22.2998C0.824917 21.4246 0.333252 20.2376 0.333252 18.9999V4.99992ZM4.99992 2.66659C4.38108 2.66659 3.78759 2.91242 3.35 3.35C2.91242 3.78759 2.66659 4.38108 2.66659 4.99992V18.9999C2.66659 19.6188 2.91242 20.2122 3.35 20.6498C3.78759 21.0874 4.38108 21.3333 4.99992 21.3333H18.9999C19.6188 21.3333 20.2122 21.0874 20.6498 20.6498C21.0874 20.2122 21.3333 19.6188 21.3333 18.9999V4.99992C21.3333 4.38108 21.0874 3.78759 20.6498 3.35C20.2122 2.91242 19.6188 2.66659 18.9999 2.66659H4.99992ZM11.9999 8.49992C11.0717 8.49992 10.1814 8.86867 9.52505 9.52505C8.86867 10.1814 8.49992 11.0717 8.49992 11.9999C8.49992 12.9282 8.86867 13.8184 9.52505 14.4748C10.1814 15.1312 11.0717 15.4999 11.9999 15.4999C12.9282 15.4999 13.8184 15.1312 14.4748 14.4748C15.1312 13.8184 15.4999 12.9282 15.4999 11.9999C15.4999 11.0717 15.1312 10.1814 14.4748 9.52505C13.8184 8.86867 12.9282 8.49992 11.9999 8.49992ZM6.16659 11.9999C6.16659 10.4528 6.78117 8.96909 7.87513 7.87513C8.96909 6.78117 10.4528 6.16659 11.9999 6.16659C13.547 6.16659 15.0307 6.78117 16.1247 7.87513C17.2187 8.96909 17.8333 10.4528 17.8333 11.9999C17.8333 13.547 17.2187 15.0307 16.1247 16.1247C15.0307 17.2187 13.547 17.8333 11.9999 17.8333C10.4528 17.8333 8.96909 17.2187 7.87513 16.1247C6.78117 15.0307 6.16659 13.547 6.16659 11.9999ZM18.4166 7.33325C18.8807 7.33325 19.3258 7.14888 19.654 6.82069C19.9822 6.4925 20.1666 6.04738 20.1666 5.58325C20.1666 5.11912 19.9822 4.674 19.654 4.34582C19.3258 4.01763 18.8807 3.83325 18.4166 3.83325C17.9525 3.83325 17.5073 4.01763 17.1791 4.34582C16.851 4.674 16.6666 5.11912 16.6666 5.58325C16.6666 6.04738 16.851 6.4925 17.1791 6.82069C17.5073 7.14888 17.9525 7.33325 18.4166 7.33325Z" fill="white" fill-opacity="0.9"/>
<path d="M0.333252 4.99992C0.333252 3.76224 0.824917 2.57526 1.70009 1.70009C2.57526 0.824917 3.76224 0.333252 4.99992 0.333252H18.9999C20.2376 0.333252 21.4246 0.824917 22.2998 1.70009C23.1749 2.57526 23.6666 3.76224 23.6666 4.99992V18.9999C23.6666 20.2376 23.1749 21.4246 22.2998 22.2998C21.4246 23.1749 20.2376 23.6666 18.9999 23.6666H4.99992C3.76224 23.6666 2.57526 23.1749 1.70009 22.2998C0.824917 21.4246 0.333252 20.2376 0.333252 18.9999V4.99992ZM4.99992 2.66659C4.38108 2.66659 3.78759 2.91242 3.35 3.35C2.91242 3.78759 2.66659 4.38108 2.66659 4.99992V18.9999C2.66659 19.6188 2.91242 20.2122 3.35 20.6498C3.78759 21.0874 4.38108 21.3333 4.99992 21.3333H18.9999C19.6188 21.3333 20.2122 21.0874 20.6498 20.6498C21.0874 20.2122 21.3333 19.6188 21.3333 18.9999V4.99992C21.3333 4.38108 21.0874 3.78759 20.6498 3.35C20.2122 2.91242 19.6188 2.66659 18.9999 2.66659H4.99992ZM11.9999 8.49992C11.0717 8.49992 10.1814 8.86867 9.52505 9.52505C8.86867 10.1814 8.49992 11.0717 8.49992 11.9999C8.49992 12.9282 8.86867 13.8184 9.52505 14.4748C10.1814 15.1312 11.0717 15.4999 11.9999 15.4999C12.9282 15.4999 13.8184 15.1312 14.4748 14.4748C15.1312 13.8184 15.4999 12.9282 15.4999 11.9999C15.4999 11.0717 15.1312 10.1814 14.4748 9.52505C13.8184 8.86867 12.9282 8.49992 11.9999 8.49992ZM6.16659 11.9999C6.16659 10.4528 6.78117 8.96909 7.87513 7.87513C8.96909 6.78117 10.4528 6.16659 11.9999 6.16659C13.547 6.16659 15.0307 6.78117 16.1247 7.87513C17.2187 8.96909 17.8333 10.4528 17.8333 11.9999C17.8333 13.547 17.2187 15.0307 16.1247 16.1247C15.0307 17.2187 13.547 17.8333 11.9999 17.8333C10.4528 17.8333 8.96909 17.2187 7.87513 16.1247C6.78117 15.0307 6.16659 13.547 6.16659 11.9999ZM18.4166 7.33325C18.8807 7.33325 19.3258 7.14888 19.654 6.82069C19.9822 6.4925 20.1666 6.04738 20.1666 5.58325C20.1666 5.11912 19.9822 4.674 19.654 4.34582C19.3258 4.01763 18.8807 3.83325 18.4166 3.83325C17.9525 3.83325 17.5073 4.01763 17.1791 4.34582C16.851 4.674 16.6666 5.11912 16.6666 5.58325C16.6666 6.04738 16.851 6.4925 17.1791 6.82069C17.5073 7.14888 17.9525 7.33325 18.4166 7.33325Z" stroke="black"/>
</svg>
