<svg width="659" height="90" viewBox="0 0 659 90" fill="none" xmlns="http://www.w3.org/2000/svg">
<g filter="url(#filter0_d)">
<path d="M97.424 3.472L96.92 3.904C91.016 8.032 83.696 15.808 74.96 27.232L74.168 29.896C73.352 32.392 72.512 34.552 71.648 36.376C70.784 38.152 69.704 39.784 68.408 41.272C67.112 42.76 65.528 44.176 63.656 45.52C62.936 46.048 62.144 46.6 61.28 47.176C60.656 48.472 60.152 49.6 59.768 50.56C60.008 50.56 60.224 50.584 60.416 50.632C61.328 50.728 62.336 50.776 63.44 50.776C65.216 50.776 66.896 50.536 68.48 50.056C69.968 48.28 71.672 46.096 73.592 43.504L73.88 44.008C72.344 46.168 70.952 48.04 69.704 49.624C69.848 49.576 69.968 49.552 70.064 49.552C70.208 49.552 70.28 49.6 70.28 49.696C70.28 49.936 70.064 50.176 69.632 50.416C69.344 50.512 69.032 50.632 68.696 50.776C65.336 54.76 62.768 56.752 60.992 56.752C58.928 56.752 58.088 55.24 58.472 52.216C58.52 51.832 58.568 51.448 58.616 51.064C58.424 51.016 58.232 50.968 58.04 50.92C57.8 50.872 57.56 50.848 57.32 50.848C57.128 50.8 56.888 50.752 56.6 50.704C56.36 50.656 56.024 50.608 55.592 50.56C54.488 51.088 53.648 51.448 53.072 51.64C52.496 51.784 51.92 51.856 51.344 51.856C50.96 51.856 50.624 51.784 50.336 51.64C50.048 51.448 49.904 51.208 49.904 50.92C49.904 50.536 50.216 50.2 50.84 49.912C51.512 49.576 52.304 49.408 53.216 49.408C53.504 49.408 53.816 49.432 54.152 49.48C54.488 49.48 54.968 49.528 55.592 49.624C56.216 49.48 56.936 49.048 57.752 48.328C58.568 47.608 59.408 46.672 60.272 45.52C61.328 42.976 62.768 40.168 64.592 37.096C64.832 36.712 65.096 36.28 65.384 35.8L59.192 35.728C47.048 50.368 35.624 57.688 24.92 57.688C21.416 57.688 18.488 56.32 16.136 53.584C14.072 51.184 12.944 48.52 12.752 45.592C8.912 42.568 7.376 37.912 8.144 31.624C8.864 25.432 11.384 20.08 15.704 15.568C20.024 11.008 25.04 8.728 30.752 8.728C35.504 8.728 38.792 10.984 40.616 15.496C42.92 16.168 44.744 17.536 46.088 19.6C47.288 21.376 47.816 23.488 47.672 25.936C48.248 27.088 48.536 28.408 48.536 29.896C48.536 30.328 48.512 30.76 48.464 31.192H55.304C62.216 21.784 69.152 14.752 76.112 10.096C76.256 10 76.376 9.904 76.472 9.808C77.384 9.04 78.368 8.248 79.424 7.432C80.72 6.472 82.016 5.656 83.312 4.984C84.608 4.312 85.52 3.976 86.048 3.976C86.384 3.976 86.552 4.144 86.552 4.48C86.552 4.624 86.456 4.768 86.264 4.912C86.168 5.008 86.096 5.08 86.048 5.128C89.456 3.976 92.864 3.376 96.272 3.328C97.04 3.328 97.424 3.376 97.424 3.472ZM46.88 26.872C46.88 26.776 46.88 26.68 46.88 26.584C46.448 25.432 45.704 24.448 44.648 23.632C43.688 22.864 42.56 22.288 41.264 21.904C41.264 22 41.264 22.072 41.264 22.12C40.784 25.384 39.608 28.384 37.736 31.12C35.672 34.096 33.104 36.04 30.032 36.952C29.456 36.952 29.144 36.832 29.096 36.592C29.144 36.256 29.288 36.088 29.528 36.088C29.816 36.04 30.248 35.92 30.824 35.728C33.368 34.864 35.528 33.112 37.304 30.472C39.128 27.832 40.232 25 40.616 21.976C40.616 21.88 40.616 21.808 40.616 21.76C39.56 21.472 38.408 21.328 37.16 21.328C34.52 21.328 31.976 21.952 29.528 23.2C27.08 24.4 24.92 26.008 23.048 28.024C21.176 30.04 19.664 32.368 18.512 35.008C17.408 37.6 16.856 40.312 16.856 43.144C16.856 44.584 17.12 45.904 17.648 47.104C17.648 47.152 17.672 47.224 17.72 47.32C19.112 47.656 20.768 47.824 22.688 47.824C27.152 47.824 31.52 46.432 35.792 43.648C40.448 40.624 43.712 36.76 45.584 32.056H41.408L42.2 31.192H45.944C46.328 30.04 46.64 28.6 46.88 26.872ZM39.536 15.352C37.904 11.992 34.928 10.312 30.608 10.312C25.232 10.312 20.432 12.448 16.208 16.72C11.984 20.992 9.488 26.104 8.72 32.056C8.096 37.336 9.416 41.488 12.68 44.512C12.536 42.832 12.56 41.416 12.752 40.264C13.472 33.976 16.016 28.336 20.384 23.344C25.088 17.824 30.824 15.064 37.592 15.064C38.024 15.064 38.672 15.16 39.536 15.352ZM54.512 32.056H48.32C48.128 32.824 47.888 33.568 47.6 34.288C46.976 35.68 46.112 36.952 45.008 38.104C43.712 39.4 42.824 40.048 42.344 40.048C42.152 40.048 42.056 39.928 42.056 39.688C42.056 39.496 42.32 39.208 42.848 38.824C44.24 37.72 45.368 36.352 46.232 34.72C46.712 33.856 47.048 32.968 47.24 32.056H46.376C44.456 37.048 41.048 41.128 36.152 44.296C31.64 47.368 27.104 48.904 22.544 48.904C21.008 48.904 19.592 48.76 18.296 48.472C18.728 49.144 19.232 49.744 19.808 50.272C20.72 51.184 21.8 51.88 23.048 52.36C24.344 52.888 25.712 53.152 27.152 53.152C29.936 53.152 32.624 52.552 35.216 51.352C37.856 50.104 40.784 48.064 44 45.232C44.768 44.512 45.68 43.672 46.736 42.712L46.808 42.64C48.104 40.912 49.544 38.944 51.128 36.736C51.752 35.872 52.88 34.312 54.512 32.056ZM71.216 13.048C69.536 14.44 68.096 15.448 66.896 16.072C65.744 16.648 64.568 16.936 63.368 16.936C62.264 16.936 61.328 16.6 60.56 15.928C59.792 15.208 59.408 14.368 59.408 13.408C59.408 12.304 59.744 11.272 60.416 10.312L62.144 7.792C62.72 7.024 63.008 6.352 63.008 5.776C63.008 5.392 62.84 5.08 62.504 4.84C62.168 4.552 61.784 4.408 61.352 4.408C60.248 4.408 59 4.696 57.608 5.272C56.216 5.848 54.776 6.616 53.288 7.576C51.848 8.488 50.432 9.568 49.04 10.816C47.696 12.064 46.544 13.36 45.584 14.704C45.44 14.896 45.32 14.992 45.224 14.992C44.936 14.992 44.792 14.824 44.792 14.488C44.792 14.104 45.152 13.504 45.872 12.688C46.592 11.824 47.528 10.864 48.68 9.808C49.688 8.896 50.792 8.056 51.992 7.288C53.192 6.472 54.392 5.776 55.592 5.2C56.792 4.624 57.944 4.168 59.048 3.832C60.2 3.496 61.208 3.328 62.072 3.328C63.08 3.328 64.016 3.688 64.88 4.408C65.744 5.128 66.176 5.944 66.176 6.856C66.176 8.152 65.432 9.832 63.944 11.896C63.464 12.568 63.152 13.072 63.008 13.408C62.864 13.744 62.792 14.152 62.792 14.632C62.792 15.016 62.912 15.352 63.152 15.64C63.392 15.88 63.704 16 64.088 16C64.904 16 65.888 15.688 67.04 15.064C68.24 14.392 69.536 13.456 70.928 12.256C73.616 9.904 75.92 8.056 77.84 6.712C79.76 5.368 81.056 4.696 81.728 4.696C81.872 4.696 81.944 4.768 81.944 4.912C81.944 4.96 81.848 5.056 81.656 5.2C81.416 5.296 81.032 5.512 80.504 5.848C79.976 6.184 79.376 6.568 78.704 7C78.08 7.432 77.456 7.888 76.832 8.368C76.208 8.8 75.704 9.184 75.32 9.52L71.216 13.048ZM95.624 4.048C91.688 4.048 88.016 4.864 84.608 6.496C83.984 7.072 83.432 7.672 82.952 8.296C81.992 9.4 81.128 10.624 80.36 11.968C79.64 13.312 78.944 14.848 78.272 16.576C77.744 18.016 77.192 19.696 76.616 21.616C78.728 19.264 80.984 16.888 83.384 14.488C88.472 9.448 92.552 5.968 95.624 4.048ZM15.488 33.136C16.832 30.64 18.608 28.456 20.816 26.584C23.072 24.712 25.64 23.224 28.52 22.12C31.448 20.968 34.496 20.392 37.664 20.392C38.72 20.392 39.728 20.512 40.688 20.752C40.736 19.408 40.568 18.088 40.184 16.792C39.176 16.648 38.336 16.576 37.664 16.576C31.904 16.576 26.528 19.096 21.536 24.136C18.464 27.352 16.256 30.76 14.912 34.36C15.104 33.928 15.296 33.52 15.488 33.136ZM34.136 52.864C31.928 53.584 29.648 53.944 27.296 53.944C25.28 53.944 23.408 53.632 21.68 53.008C20 52.384 18.56 51.496 17.36 50.344C16.4 49.432 15.608 48.376 14.984 47.176C14.408 46.888 13.904 46.528 13.472 46.096C13.76 48.832 14.888 51.232 16.856 53.296C19.112 55.648 21.8 56.824 24.92 56.824C30.344 56.824 35.552 54.544 40.544 49.984L40.76 49.768C38.504 51.208 36.296 52.24 34.136 52.864ZM68.48 29.176C69.392 26.728 70.256 24.568 71.072 22.696C71.936 20.776 72.824 19.072 73.736 17.584C74.648 16.048 75.632 14.632 76.688 13.336C77.792 12.04 79.016 10.744 80.36 9.448L81.8 8.008C81.656 8.104 81.512 8.2 81.368 8.296C78.152 10.552 74.816 14.032 71.36 18.736C68.48 22.816 65.624 26.968 62.792 31.192H67.616C67.904 30.52 68.192 29.848 68.48 29.176ZM65.888 51.568C65.12 51.664 64.4 51.712 63.728 51.712C63.152 51.712 62.48 51.664 61.712 51.568C61.088 51.52 60.368 51.424 59.552 51.28C59.408 51.76 59.312 52.216 59.264 52.648C58.976 54.952 59.6 56.104 61.136 56.104C62.432 56.104 64.544 54.472 67.472 51.208C66.944 51.352 66.416 51.472 65.888 51.568ZM45.512 23.056C46.088 23.536 46.568 24.064 46.952 24.64C46.808 20.8 44.84 18.28 41.048 17.08C41.336 18.232 41.432 19.504 41.336 20.896C42.92 21.28 44.312 22 45.512 23.056ZM56.816 49.912C57.536 50.104 58.184 50.248 58.76 50.344C58.904 49.768 59.072 49.144 59.264 48.472C58.496 48.952 57.68 49.432 56.816 49.912ZM13.544 40.84C13.544 40.504 13.544 40.168 13.544 39.832C13.544 39.928 13.544 40.024 13.544 40.12C13.304 42.184 13.256 43.768 13.4 44.872C13.688 45.16 14 45.448 14.336 45.736C13.808 44.248 13.544 42.616 13.544 40.84ZM47.528 29.752C47.528 29.272 47.48 28.792 47.384 28.312C47.24 29.224 47.024 30.184 46.736 31.192H47.384C47.48 30.712 47.528 30.232 47.528 29.752ZM84.608 5.272C83.6 5.752 82.592 6.304 81.584 6.928C82.4 6.544 83.192 6.208 83.96 5.92L84.608 5.272ZM82.8541 43.648C83.7181 42.4 84.6541 41.2 85.6621 40.048C86.6701 38.848 87.6541 37.816 88.6141 36.952C89.6221 36.04 90.5581 35.32 91.4221 34.792C92.2861 34.264 92.9821 34 93.5101 34H93.7981C93.5101 33.76 93.1741 33.568 92.7901 33.424C91.9741 33.232 91.1101 33.472 90.1981 34.144C89.3341 34.816 88.4461 35.704 87.5341 36.808C86.6221 37.864 85.7101 39.016 84.7981 40.264C83.9341 41.512 83.0941 42.616 82.2781 43.576L81.8461 42.928C82.2781 42.448 82.8061 41.776 83.4301 40.912C84.0541 40 84.7501 39.04 85.5181 38.032C86.2861 36.976 87.1021 35.92 87.9661 34.864C88.8781 33.808 89.8141 32.872 90.7741 32.056C91.7821 31.192 92.7901 30.52 93.7981 30.04C94.8541 29.56 95.8861 29.392 96.8941 29.536C98.3821 29.728 99.2941 30.16 99.6301 30.832C100.014 31.504 99.9661 32.344 99.4861 33.352C99.0061 34.312 98.2141 35.416 97.1101 36.664C96.6301 37.192 96.1021 37.72 95.5261 38.248C95.1901 39.448 94.4701 40.672 93.3661 41.92C92.7421 42.64 91.4941 44.056 89.6221 46.168C89.5741 46.84 89.6941 47.416 89.9821 47.896C90.3661 48.472 90.9661 48.856 91.7821 49.048C91.8781 49.096 91.9741 49.12 92.0701 49.12C93.7021 47.536 95.6701 45.136 97.9741 41.92L98.4061 42.28C96.2941 45.112 94.4461 47.344 92.8621 48.976C93.0541 48.88 93.2701 48.76 93.5101 48.616C94.2301 48.184 94.9741 47.632 95.7421 46.96C96.5101 46.24 97.3021 45.448 98.1181 44.584C98.9341 43.672 99.7261 42.808 100.494 41.992C100.59 41.896 100.758 41.92 100.998 42.064C101.286 42.208 101.382 42.328 101.286 42.424C100.326 43.336 99.4141 44.272 98.5501 45.232C97.7341 46.192 96.9181 47.08 96.1021 47.896C95.3341 48.712 94.5661 49.456 93.7981 50.128C93.0781 50.8 92.3581 51.304 91.6381 51.64C90.7741 52.072 89.8381 52.24 88.8301 52.144C88.5421 52.096 88.2541 52.048 87.9661 52C87.3901 52 86.9581 51.832 86.6701 51.496L86.3821 51.28C85.7101 50.752 85.2541 50.08 85.0141 49.264C84.8221 48.4 85.0621 47.464 85.7341 46.456C85.9741 46.072 86.2381 45.712 86.5261 45.376C86.8621 45.04 87.2701 44.656 87.7501 44.224C87.9421 44.032 88.1581 43.816 88.3981 43.576C89.0221 42.856 89.6941 42.064 90.4141 41.2C91.1341 40.336 91.9021 39.448 92.7181 38.536C93.2941 37.96 93.7021 37.408 93.9421 36.88C94.1821 36.352 94.3021 35.896 94.3021 35.512V35.296C94.2061 34.864 93.9181 34.648 93.4381 34.648C92.7181 34.648 91.8781 34.984 90.9181 35.656C89.9581 36.328 88.9981 37.168 88.0381 38.176C87.1261 39.184 86.2381 40.264 85.3741 41.416C84.5101 42.52 83.7421 43.48 83.0701 44.296L82.8541 43.648ZM122.791 41.56C122.791 41.704 122.527 42.208 121.999 43.072C121.519 43.936 120.703 44.944 119.551 46.096C117.535 48.16 115.567 49.672 113.647 50.632C112.783 51.016 111.967 51.328 111.199 51.568C110.575 51.856 109.975 52 109.399 52H109.111H108.679C107.383 52 106.303 51.472 105.439 50.416C104.575 49.312 104.143 47.944 104.143 46.312C104.143 42.136 106.399 38.296 110.911 34.792C111.775 34.072 112.687 33.424 113.647 32.848C114.607 32.224 115.543 31.696 116.455 31.264C117.367 30.784 118.207 30.424 118.975 30.184C119.743 29.896 120.391 29.752 120.919 29.752C121.783 29.752 122.479 30.016 123.007 30.544C123.535 31.024 123.799 31.672 123.799 32.488C123.799 33.448 123.391 34.48 122.575 35.584C121.759 36.64 120.727 37.504 119.479 38.176C118.519 38.704 117.439 39.16 116.239 39.544C114.607 40.6 112.519 41.704 109.975 42.856C108.103 45.544 107.167 47.56 107.167 48.904C107.167 49.72 107.335 50.344 107.671 50.776C108.055 51.016 108.487 51.136 108.967 51.136C109.639 51.136 110.527 50.896 111.631 50.416C112.015 50.272 112.399 50.104 112.783 49.912C114.847 48.328 117.319 45.52 120.199 41.488L120.703 41.92C118.783 44.56 117.031 46.696 115.447 48.328C116.695 47.464 117.919 46.456 119.119 45.304C120.415 44.056 121.543 42.712 122.503 41.272C122.599 41.176 122.671 41.176 122.719 41.272C122.767 41.32 122.791 41.392 122.791 41.488V41.56ZM120.055 34.576C120.055 34.048 119.767 33.784 119.191 33.784C118.279 33.784 116.791 34.816 114.727 36.88C113.767 37.888 112.903 38.848 112.135 39.76C112.903 39.568 113.695 39.28 114.511 38.896C115.759 38.272 116.911 37.552 117.967 36.736C118.735 36.112 119.431 35.44 120.055 34.72V34.576ZM121.639 31.552C121.639 30.88 121.303 30.544 120.631 30.544C119.527 30.544 118.111 31.384 116.383 33.064C115.903 33.592 115.399 34.144 114.871 34.72C116.455 33.76 117.919 33.28 119.263 33.28C119.983 33.28 120.439 33.52 120.631 34C121.303 33.088 121.639 32.272 121.639 31.552ZM111.415 40.696C111.079 41.128 110.767 41.56 110.479 41.992C111.679 41.368 112.783 40.792 113.791 40.264C113.023 40.408 112.231 40.552 111.415 40.696ZM147.501 40.408C142.797 46.216 139.437 49.12 137.421 49.12H137.349C137.061 49.744 136.941 50.224 136.989 50.56C136.989 51.088 137.277 51.352 137.853 51.352C138.717 51.352 139.989 50.632 141.669 49.192C143.349 47.752 145.413 45.376 147.861 42.064C148.197 41.584 148.461 41.464 148.653 41.704C148.893 41.896 148.869 42.184 148.581 42.568L145.701 46.24C144.021 48.4 142.485 49.936 141.093 50.848C139.749 51.76 138.573 52.216 137.565 52.216C136.653 52.216 135.885 51.904 135.261 51.28C134.685 50.656 134.349 49.864 134.253 48.904C134.253 48.568 134.277 48.208 134.325 47.824C134.421 47.392 134.613 46.84 134.901 46.168C135.237 45.448 135.717 44.56 136.341 43.504C136.821 42.688 137.421 41.728 138.141 40.624H133.173C132.357 41.824 131.349 43.192 130.149 44.728C129.333 45.832 128.541 46.864 127.773 47.824L125.325 51.712L125.253 51.928C125.205 51.976 125.085 52 124.893 52L120.789 52.072C120.501 52.072 120.333 52 120.285 51.856C120.285 51.76 120.381 51.616 120.573 51.424L131.373 34.792C130.125 35.896 129.381 36.448 129.141 36.448C128.949 36.4 129.189 36.016 129.861 35.296C130.773 34.336 131.589 33.664 132.309 33.28L134.397 30.04C134.541 29.752 134.757 29.608 135.045 29.608L138.933 29.536C138.981 29.536 139.029 29.584 139.077 29.68C139.125 29.776 139.149 29.848 139.149 29.896L135.405 35.8C135.309 36.568 135.093 37.312 134.757 38.032L139.869 38.104C140.589 37 141.405 35.8 142.317 34.504C143.277 33.16 144.357 31.648 145.557 29.968C145.749 29.68 145.989 29.536 146.277 29.536L150.165 29.464C150.261 29.464 150.309 29.512 150.309 29.608C150.309 29.848 150.021 30.352 149.445 31.12L138.645 47.032C138.213 47.608 137.853 48.136 137.565 48.616C139.437 48.616 142.605 45.76 147.069 40.048L147.501 40.408ZM139.077 39.328L134.037 39.256C133.845 39.496 133.653 39.784 133.461 40.12H138.501C138.693 39.88 138.885 39.616 139.077 39.328ZM182.414 40.12C177.95 45.928 174.614 48.832 172.406 48.832C172.166 48.832 171.95 48.808 171.758 48.76L171.614 49.048C171.278 49.624 171.11 50.08 171.11 50.416C171.11 50.656 171.134 50.824 171.182 50.92C171.23 51.016 171.422 51.064 171.758 51.064C171.806 51.064 172.118 50.968 172.694 50.776C173.27 50.536 174.014 50.104 174.926 49.48C175.838 48.856 176.918 47.968 178.166 46.816C179.414 45.664 180.758 44.152 182.198 42.28C182.294 42.184 182.414 42.208 182.558 42.352C182.702 42.448 182.774 42.544 182.774 42.64C182.774 42.976 182.342 43.696 181.478 44.8C180.662 45.856 179.63 46.96 178.382 48.112C177.182 49.216 175.886 50.2 174.494 51.064C173.15 51.928 171.95 52.336 170.894 52.288C169.982 52.24 169.262 51.976 168.734 51.496C168.206 50.968 167.942 50.224 167.942 49.264C167.942 48.4 168.35 47.2 169.166 45.664C169.982 44.08 171.014 42.496 172.262 40.912L176.798 35.296C177.422 34.624 177.878 33.976 178.166 33.352C178.022 33.256 177.854 33.208 177.662 33.208C175.79 33.208 173.27 35.152 170.102 39.04C169.046 40.288 167.63 42.064 165.854 44.368L160.886 51.784C160.838 51.976 160.694 52.072 160.454 52.072H156.134C156.038 52.072 155.99 52.024 155.99 51.928C155.99 51.736 156.014 51.616 156.062 51.568L163.046 41.2C164.102 39.616 164.99 38.272 165.71 37.168C166.43 36.064 167.006 35.152 167.438 34.432C167.678 34 167.87 33.64 168.014 33.352C166.382 33.928 164.246 35.824 161.606 39.04C159.206 42.016 156.638 45.184 153.902 48.544C153.662 48.448 153.374 48.376 153.038 48.328L150.662 51.784C150.518 51.928 150.35 52 150.158 52H146.27C146.03 52 145.91 51.928 145.91 51.784L153.542 39.832L153.326 40.12L152.894 39.76C154.43 37.888 155.534 36.52 156.206 35.656L159.95 29.824H164.27L162.038 33.568C162.182 33.856 162.278 34.168 162.326 34.504C162.758 34.024 163.166 33.592 163.55 33.208C164.462 32.296 165.23 31.6 165.854 31.12C166.526 30.592 167.102 30.256 167.582 30.112C168.062 29.92 168.59 29.824 169.166 29.824C169.838 29.824 170.39 30.088 170.822 30.616C171.302 31.096 171.542 31.72 171.542 32.488C171.542 33.064 171.446 33.64 171.254 34.216C171.206 34.504 171.11 34.816 170.966 35.152C170.966 35.392 170.942 35.632 170.894 35.872C174.206 31.84 176.942 29.824 179.102 29.824C179.918 29.824 180.59 30.112 181.118 30.688C181.694 31.216 181.982 31.912 181.982 32.776C181.982 33.736 181.646 34.864 180.974 36.16C180.35 37.408 179.318 38.968 177.878 40.84L172.982 47.032C172.646 47.512 172.334 47.944 172.046 48.328C172.19 48.328 172.334 48.328 172.478 48.328C174.494 48.328 177.662 45.472 181.982 39.76L182.414 40.12ZM168.374 32.632C168.566 32.152 168.662 31.792 168.662 31.552C168.662 31.216 168.494 31.048 168.158 31.048C167.774 31.048 167.198 31.336 166.43 31.912C165.662 32.44 164.798 33.16 163.838 34.072C163.31 34.6 162.782 35.152 162.254 35.728C162.158 36.544 161.894 37.36 161.462 38.176C164.39 35.056 166.67 33.256 168.302 32.776L168.374 32.632ZM178.598 31.696C178.598 31.216 178.406 30.976 178.022 30.976C177.638 30.976 177.086 31.24 176.366 31.768C175.646 32.296 174.854 32.992 173.99 33.856C173.126 34.672 172.238 35.608 171.326 36.664C171.086 36.952 170.846 37.216 170.606 37.456C173.534 34.24 175.886 32.632 177.662 32.632C177.95 32.632 178.214 32.656 178.454 32.704C178.55 32.368 178.598 32.032 178.598 31.696ZM202.198 43.288C200.278 45.784 198.574 47.728 197.086 49.12C197.374 48.928 197.686 48.712 198.021 48.472C199.654 47.176 201.31 45.208 202.99 42.568C203.278 42.28 203.494 42.136 203.638 42.136C203.926 42.136 204.046 42.232 203.998 42.424C203.278 43.912 202.39 45.28 201.334 46.528C200.278 47.728 199.15 48.76 197.95 49.624C196.798 50.488 195.598 51.16 194.35 51.64C193.102 52.072 191.926 52.24 190.822 52.144C189.478 52.048 188.35 51.448 187.438 50.344C186.525 49.192 186.069 47.776 186.069 46.096C186.069 43.264 187.534 40.24 190.462 37.024C191.374 36.016 192.382 35.08 193.486 34.216C194.638 33.304 195.79 32.512 196.941 31.84C198.094 31.168 199.222 30.64 200.326 30.256C201.43 29.872 202.414 29.68 203.278 29.68C203.95 29.68 204.526 29.968 205.006 30.544C205.486 31.072 205.726 31.72 205.726 32.488C205.726 33.208 205.582 33.928 205.294 34.648C205.054 35.32 204.718 35.944 204.286 36.52C203.902 37.048 203.446 37.48 202.918 37.816C202.63 38.008 202.342 38.152 202.054 38.248C201.91 38.872 201.622 39.448 201.19 39.976C200.566 40.744 199.918 41.128 199.246 41.128C198.43 41.128 198.021 40.744 198.021 39.976C198.021 39.256 198.55 38.608 199.606 38.032C199.798 37.936 199.966 37.84 200.11 37.744C199.966 37.504 199.894 37.24 199.894 36.952C199.894 36.76 199.894 36.568 199.894 36.376C198.358 36.616 196.366 38.152 193.918 40.984C191.278 44.104 189.958 46.744 189.958 48.904C189.958 49.624 190.078 50.2 190.318 50.632H190.39C191.206 51.064 192.262 51.136 193.558 50.848C193.894 50.752 194.254 50.632 194.638 50.488C196.51 49.24 198.886 46.72 201.766 42.928L202.198 43.288ZM200.47 35.152C200.71 34.816 201.046 34.456 201.478 34.072C201.958 33.64 202.582 33.088 203.35 32.416C203.878 31.984 204.142 31.6 204.142 31.264C204.142 30.688 203.806 30.4 203.134 30.4C202.27 30.4 201.022 31.048 199.39 32.344C197.806 33.64 196.174 35.368 194.494 37.528C194.206 37.864 193.918 38.224 193.63 38.608C195.982 36.832 198.118 35.896 200.038 35.8C200.134 35.608 200.278 35.392 200.47 35.152ZM238.439 40.12C233.975 45.928 230.639 48.832 228.431 48.832C228.191 48.832 227.975 48.808 227.783 48.76L227.639 49.048C227.303 49.624 227.135 50.08 227.135 50.416C227.135 50.656 227.159 50.824 227.207 50.92C227.255 51.016 227.447 51.064 227.783 51.064C227.831 51.064 228.143 50.968 228.719 50.776C229.295 50.536 230.039 50.104 230.951 49.48C231.863 48.856 232.943 47.968 234.191 46.816C235.439 45.664 236.783 44.152 238.223 42.28C238.319 42.184 238.439 42.208 238.583 42.352C238.727 42.448 238.799 42.544 238.799 42.64C238.799 42.976 238.367 43.696 237.503 44.8C236.687 45.856 235.655 46.96 234.407 48.112C233.207 49.216 231.911 50.2 230.519 51.064C229.175 51.928 227.975 52.336 226.919 52.288C226.007 52.24 225.287 51.976 224.759 51.496C224.231 50.968 223.967 50.224 223.967 49.264C223.967 48.4 224.375 47.2 225.191 45.664C226.007 44.08 227.039 42.496 228.287 40.912L232.823 35.296C233.447 34.624 233.903 33.976 234.191 33.352C234.047 33.256 233.879 33.208 233.687 33.208C231.815 33.208 229.295 35.152 226.127 39.04C225.071 40.288 223.655 42.064 221.879 44.368L216.911 51.784C216.863 51.976 216.719 52.072 216.479 52.072H212.159C212.063 52.072 212.015 52.024 212.015 51.928C212.015 51.736 212.039 51.616 212.087 51.568L219.071 41.2C220.127 39.616 221.015 38.272 221.735 37.168C222.455 36.064 223.031 35.152 223.463 34.432C223.703 34 223.895 33.64 224.039 33.352C222.407 33.928 220.271 35.824 217.631 39.04C215.231 42.016 212.663 45.184 209.927 48.544C209.687 48.448 209.399 48.376 209.063 48.328L206.687 51.784C206.543 51.928 206.375 52 206.183 52H202.295C202.055 52 201.935 51.928 201.935 51.784L209.567 39.832L209.351 40.12L208.919 39.76C210.455 37.888 211.559 36.52 212.231 35.656L215.975 29.824H220.295L218.063 33.568C218.207 33.856 218.303 34.168 218.351 34.504C218.783 34.024 219.191 33.592 219.575 33.208C220.487 32.296 221.255 31.6 221.879 31.12C222.551 30.592 223.127 30.256 223.607 30.112C224.087 29.92 224.615 29.824 225.191 29.824C225.863 29.824 226.415 30.088 226.847 30.616C227.327 31.096 227.567 31.72 227.567 32.488C227.567 33.064 227.471 33.64 227.279 34.216C227.231 34.504 227.135 34.816 226.991 35.152C226.991 35.392 226.967 35.632 226.919 35.872C230.231 31.84 232.967 29.824 235.127 29.824C235.943 29.824 236.615 30.112 237.143 30.688C237.719 31.216 238.007 31.912 238.007 32.776C238.007 33.736 237.671 34.864 236.999 36.16C236.375 37.408 235.343 38.968 233.903 40.84L229.007 47.032C228.671 47.512 228.359 47.944 228.071 48.328C228.215 48.328 228.359 48.328 228.503 48.328C230.519 48.328 233.687 45.472 238.007 39.76L238.439 40.12ZM224.399 32.632C224.591 32.152 224.687 31.792 224.687 31.552C224.687 31.216 224.519 31.048 224.183 31.048C223.799 31.048 223.223 31.336 222.455 31.912C221.687 32.44 220.823 33.16 219.863 34.072C219.335 34.6 218.807 35.152 218.279 35.728C218.183 36.544 217.919 37.36 217.487 38.176C220.415 35.056 222.695 33.256 224.327 32.776L224.399 32.632ZM234.623 31.696C234.623 31.216 234.431 30.976 234.047 30.976C233.663 30.976 233.111 31.24 232.391 31.768C231.671 32.296 230.879 32.992 230.015 33.856C229.151 34.672 228.263 35.608 227.351 36.664C227.111 36.952 226.871 37.216 226.631 37.456C229.559 34.24 231.911 32.632 233.687 32.632C233.975 32.632 234.239 32.656 234.479 32.704C234.575 32.368 234.623 32.032 234.623 31.696ZM257.358 43.36C256.926 44.032 256.398 44.752 255.774 45.52C255.15 46.288 254.43 47.104 253.614 47.968C252.318 49.36 251.142 50.392 250.086 51.064C249.126 51.496 248.166 51.808 247.206 52C246.726 51.952 246.318 51.736 245.982 51.352C246.222 51.256 246.486 51.136 246.774 50.992C246.966 51.184 247.23 51.28 247.566 51.28C248.91 51.28 250.734 49.864 253.038 47.032C253.662 46.312 254.31 45.52 254.982 44.656C255.654 43.744 256.374 42.76 257.142 41.704C257.238 40.504 257.478 39.304 257.862 38.104C258.294 37.432 258.654 36.784 258.942 36.16C259.614 34.912 260.07 33.88 260.31 33.064C260.406 32.872 260.526 32.68 260.67 32.488C261.246 31.672 261.774 31.048 262.254 30.616C262.35 30.664 262.422 30.736 262.47 30.832C263.142 31.6 263.478 32.464 263.478 33.424C263.478 35.44 262.878 37.576 261.678 39.832C260.526 42.04 259.038 44.056 257.214 45.88C255.438 47.704 253.47 49.216 251.31 50.416C250.878 50.656 250.47 50.872 250.086 51.064C249.078 51.688 248.214 52 247.494 52H247.206C246.486 52.144 245.766 52.216 245.046 52.216C244.182 52.216 243.462 51.856 242.886 51.136C242.31 50.416 242.022 49.504 242.022 48.4C242.022 46.576 242.742 44.296 244.182 41.56C245.622 38.776 247.374 35.824 249.438 32.704C249.918 32.032 250.59 30.952 251.454 29.464C252.366 27.976 253.398 26.296 254.55 24.424C255.75 22.552 257.046 20.608 258.438 18.592C259.83 16.576 261.27 14.752 262.758 13.12C264.246 11.44 265.734 10.072 267.222 9.016C268.71 7.96 270.126 7.432 271.47 7.432C273.63 7.432 274.782 8.416 274.926 10.384C275.406 10.864 275.622 11.608 275.574 12.616C275.334 15.208 273.462 18.232 269.958 21.688C266.598 24.952 262.71 27.544 258.294 29.464C257.574 30.088 256.878 30.688 256.206 31.264C256.158 31.312 256.11 31.384 256.062 31.48C256.062 31.528 256.038 31.576 255.99 31.624C256.422 31.288 256.83 31 257.214 30.76C258.318 30.04 259.35 29.68 260.31 29.68C261.03 29.68 261.678 29.992 262.254 30.616C262.974 29.992 263.622 29.68 264.198 29.68C264.726 29.68 264.99 29.992 264.99 30.616C264.99 31.384 264.726 32.296 264.198 33.352C262.758 36.136 260.478 39.472 257.358 43.36ZM259.374 30.832H259.23C258.462 30.832 257.55 31.24 256.494 32.056C255.966 32.488 255.414 32.968 254.838 33.496C254.742 33.688 254.622 33.904 254.478 34.144C253.854 35.152 253.182 36.232 252.462 37.384C251.742 38.536 251.046 39.64 250.374 40.696C249.27 42.568 248.334 44.32 247.566 45.952C246.798 47.584 246.414 48.784 246.414 49.552C246.414 50.272 246.534 50.752 246.774 50.992C248.838 49.984 251.454 47.272 254.622 42.856C255.918 41.08 256.998 39.496 257.862 38.104C258.39 36.376 259.206 34.696 260.31 33.064C260.406 32.68 260.454 32.32 260.454 31.984C260.454 31.312 260.094 30.928 259.374 30.832ZM262.542 24.352C264.942 22.24 266.934 20.368 268.518 18.736C270.15 17.056 271.374 15.544 272.19 14.2C272.91 13 273.318 11.824 273.414 10.672C272.358 10.576 270.966 11.272 269.238 12.76C268.23 13.672 266.766 15.472 264.846 18.16C263.07 20.704 260.886 23.992 258.294 28.024C259.83 26.68 261.246 25.456 262.542 24.352ZM272.91 8.944C272.622 8.512 272.238 8.296 271.758 8.296C270.27 8.296 268.83 8.92 267.438 10.168C266.094 11.416 264.822 12.952 263.622 14.776C262.422 16.552 261.294 18.448 260.238 20.464L259.23 22.552L259.806 21.688C262.35 17.992 264.87 15.064 267.366 12.904C269.814 10.792 271.806 9.736 273.342 9.736C273.246 9.496 273.102 9.232 272.91 8.944ZM272.694 16.072C271.158 17.944 269.262 19.912 267.006 21.976C265.038 23.752 262.95 25.576 260.742 27.448C261.894 26.824 262.998 26.152 264.054 25.432C265.974 24.088 267.75 22.576 269.382 20.896C272.31 17.92 274.014 15.352 274.494 13.192C274.11 14.104 273.51 15.064 272.694 16.072ZM244.686 47.824C244.158 48.976 243.894 49.816 243.894 50.344C243.894 51.112 244.278 51.496 245.046 51.496C245.334 51.496 245.646 51.448 245.982 51.352C245.502 50.776 245.262 49.768 245.262 48.328C245.262 47.704 245.31 47.032 245.406 46.312C245.166 46.84 244.926 47.344 244.686 47.824ZM287.129 43.288C285.449 45.448 283.721 46.528 281.945 46.528C281.801 46.528 281.609 46.504 281.369 46.456L281.009 46.96H281.441C282.305 46.96 283.289 46.648 284.393 46.024C285.497 45.352 286.577 44.44 287.633 43.288C287.873 43 288.017 42.832 288.065 42.784C288.161 42.688 288.281 42.64 288.425 42.64C288.761 42.64 288.929 42.784 288.929 43.072C288.929 43.168 288.713 43.432 288.281 43.864C287.849 44.296 287.345 44.776 286.769 45.304C284.849 47.08 282.857 47.968 280.793 47.968H280.217C278.633 49.648 277.145 50.776 275.753 51.352C274.361 51.928 272.969 52.216 271.577 52.216C270.569 52.216 269.705 51.808 268.985 50.992C268.265 50.176 267.905 49.192 267.905 48.04C267.905 46.12 268.505 44.08 269.705 41.92C270.905 39.712 272.657 37.6 274.961 35.584C277.025 33.712 278.969 32.272 280.793 31.264C282.665 30.208 284.225 29.68 285.473 29.68C286.241 29.68 286.817 29.944 287.201 30.472C287.633 31 287.897 31.72 287.993 32.632C288.041 33.4 287.849 34.384 287.417 35.584C286.985 36.736 286.409 37.984 285.689 39.328C284.969 40.672 284.177 42.016 283.313 43.36C282.737 44.32 282.185 45.184 281.657 45.952H282.089C283.529 45.952 285.065 44.944 286.697 42.928L287.129 43.288ZM284.249 37.672C284.249 36.76 283.841 36.304 283.025 36.304C281.441 36.304 279.065 38.2 275.897 41.992C272.777 45.784 271.193 48.496 271.145 50.128C271.145 50.512 271.217 50.824 271.361 51.064C271.553 51.208 271.793 51.28 272.081 51.28C273.185 51.28 274.289 50.992 275.393 50.416C275.537 50.32 275.681 50.224 275.825 50.128C276.737 49.456 277.721 48.52 278.777 47.32C278.537 47.032 278.417 46.672 278.417 46.24C278.417 45.76 278.489 45.28 278.633 44.8C278.825 44.32 279.065 43.888 279.353 43.504C279.641 43.12 279.953 42.808 280.289 42.568C280.625 42.28 280.985 42.136 281.369 42.136C281.561 42.136 281.825 42.232 282.161 42.424C282.353 42.136 282.569 41.824 282.809 41.488C283.769 39.856 284.249 38.584 284.249 37.672ZM285.185 37.672C285.665 36.712 286.073 35.752 286.409 34.792C286.793 33.832 287.009 32.92 287.057 32.056C287.105 31.672 286.985 31.336 286.697 31.048C286.409 30.76 286.073 30.616 285.689 30.616C285.353 30.616 285.017 30.688 284.681 30.832C284.345 30.976 283.961 31.24 283.529 31.624C283.097 31.96 282.569 32.44 281.945 33.064C281.369 33.688 280.673 34.48 279.857 35.44C279.329 36.016 278.825 36.592 278.345 37.168C279.977 36.208 281.561 35.728 283.097 35.728C284.297 35.728 284.897 36.4 284.897 37.744C284.897 37.936 284.873 38.128 284.825 38.32C284.969 38.128 285.089 37.912 285.185 37.672ZM336.628 40.408C331.924 46.216 328.564 49.12 326.548 49.12H326.476C326.188 49.744 326.068 50.224 326.116 50.56C326.116 51.088 326.404 51.352 326.98 51.352C327.844 51.352 329.116 50.632 330.796 49.192C332.476 47.752 334.54 45.376 336.988 42.064C337.324 41.584 337.588 41.464 337.78 41.704C338.02 41.896 337.996 42.184 337.708 42.568L334.828 46.24C333.148 48.4 331.612 49.936 330.22 50.848C328.876 51.76 327.7 52.216 326.692 52.216C325.78 52.216 325.012 51.904 324.388 51.28C323.812 50.656 323.476 49.864 323.38 48.904C323.38 48.568 323.404 48.208 323.452 47.824C323.548 47.392 323.74 46.84 324.028 46.168C324.364 45.448 324.844 44.56 325.468 43.504C325.948 42.688 326.548 41.728 327.268 40.624H322.3C321.484 41.824 320.476 43.192 319.276 44.728C318.46 45.832 317.668 46.864 316.9 47.824L314.452 51.712L314.38 51.928C314.332 51.976 314.212 52 314.02 52L309.916 52.072C309.628 52.072 309.46 52 309.412 51.856C309.412 51.76 309.508 51.616 309.7 51.424L320.5 34.792C319.252 35.896 318.508 36.448 318.268 36.448C318.076 36.4 318.316 36.016 318.988 35.296C319.9 34.336 320.716 33.664 321.436 33.28L323.524 30.04C323.668 29.752 323.884 29.608 324.172 29.608L328.06 29.536C328.108 29.536 328.156 29.584 328.204 29.68C328.252 29.776 328.276 29.848 328.276 29.896L324.532 35.8C324.436 36.568 324.22 37.312 323.884 38.032L328.996 38.104C329.716 37 330.532 35.8 331.444 34.504C332.404 33.16 333.484 31.648 334.684 29.968C334.876 29.68 335.116 29.536 335.404 29.536L339.292 29.464C339.388 29.464 339.436 29.512 339.436 29.608C339.436 29.848 339.148 30.352 338.572 31.12L327.772 47.032C327.34 47.608 326.98 48.136 326.692 48.616C328.564 48.616 331.732 45.76 336.196 40.048L336.628 40.408ZM328.204 39.328L323.164 39.256C322.972 39.496 322.78 39.784 322.588 40.12H327.628C327.82 39.88 328.012 39.616 328.204 39.328ZM359.013 41.56C359.013 41.704 358.749 42.208 358.221 43.072C357.741 43.936 356.925 44.944 355.773 46.096C353.757 48.16 351.789 49.672 349.869 50.632C349.005 51.016 348.189 51.328 347.421 51.568C346.797 51.856 346.197 52 345.621 52H345.333H344.901C343.605 52 342.525 51.472 341.661 50.416C340.797 49.312 340.365 47.944 340.365 46.312C340.365 42.136 342.621 38.296 347.133 34.792C347.997 34.072 348.909 33.424 349.869 32.848C350.829 32.224 351.765 31.696 352.677 31.264C353.589 30.784 354.429 30.424 355.197 30.184C355.965 29.896 356.613 29.752 357.141 29.752C358.005 29.752 358.701 30.016 359.229 30.544C359.757 31.024 360.021 31.672 360.021 32.488C360.021 33.448 359.613 34.48 358.797 35.584C357.981 36.64 356.949 37.504 355.701 38.176C354.741 38.704 353.661 39.16 352.461 39.544C350.829 40.6 348.741 41.704 346.197 42.856C344.325 45.544 343.389 47.56 343.389 48.904C343.389 49.72 343.557 50.344 343.893 50.776C344.277 51.016 344.709 51.136 345.189 51.136C345.861 51.136 346.749 50.896 347.853 50.416C348.237 50.272 348.621 50.104 349.005 49.912C351.069 48.328 353.541 45.52 356.421 41.488L356.925 41.92C355.005 44.56 353.253 46.696 351.669 48.328C352.917 47.464 354.141 46.456 355.341 45.304C356.637 44.056 357.765 42.712 358.725 41.272C358.821 41.176 358.893 41.176 358.941 41.272C358.989 41.32 359.013 41.392 359.013 41.488V41.56ZM356.277 34.576C356.277 34.048 355.989 33.784 355.413 33.784C354.501 33.784 353.013 34.816 350.949 36.88C349.989 37.888 349.125 38.848 348.357 39.76C349.125 39.568 349.917 39.28 350.733 38.896C351.981 38.272 353.133 37.552 354.189 36.736C354.957 36.112 355.653 35.44 356.277 34.72V34.576ZM357.861 31.552C357.861 30.88 357.525 30.544 356.853 30.544C355.749 30.544 354.333 31.384 352.605 33.064C352.125 33.592 351.621 34.144 351.093 34.72C352.677 33.76 354.141 33.28 355.485 33.28C356.205 33.28 356.661 33.52 356.853 34C357.525 33.088 357.861 32.272 357.861 31.552ZM347.637 40.696C347.301 41.128 346.989 41.56 346.701 41.992C347.901 41.368 349.005 40.792 350.013 40.264C349.245 40.408 348.453 40.552 347.637 40.696ZM370.475 55.384C369.323 57.4 368.267 59.176 367.307 60.712C366.347 62.248 365.411 63.64 364.499 64.888C363.587 66.136 362.699 67.264 361.835 68.272C360.971 69.28 360.035 70.24 359.027 71.152C356.723 73.408 354.371 75.136 351.971 76.336C349.523 77.584 347.291 78.208 345.275 78.208C344.027 78.208 342.971 77.704 342.107 76.696C341.195 75.736 340.739 74.56 340.739 73.168C340.739 71.776 341.075 70.36 341.747 68.92C342.371 67.528 343.307 66.16 344.555 64.816C345.755 63.472 347.243 62.2 349.019 61C350.747 59.8 352.691 58.72 354.851 57.76C355.667 57.424 356.483 57.088 357.299 56.752C358.115 56.464 359.003 56.176 359.963 55.888C360.875 55.6 361.883 55.312 362.987 55.024C364.091 54.784 365.339 54.496 366.731 54.16C367.067 53.584 367.379 53.056 367.667 52.576C368.003 52.096 368.339 51.592 368.675 51.064C368.915 50.68 369.179 50.272 369.467 49.84C367.691 51.28 366.371 52 365.507 52C364.931 52 364.475 51.856 364.139 51.568C363.323 51.52 362.651 51.136 362.123 50.416C361.499 49.6 361.187 48.592 361.187 47.392C361.187 43.12 363.827 38.896 369.107 34.72C370.931 33.232 372.827 32.056 374.795 31.192C376.763 30.28 378.443 29.824 379.835 29.824C381.227 29.824 381.995 30.616 382.139 32.2C382.283 31.96 382.427 31.768 382.571 31.624C382.715 31.432 382.859 31.24 383.003 31.048C383.387 30.616 383.651 30.328 383.795 30.184C383.987 30.04 384.227 29.968 384.515 29.968L387.971 29.752C388.211 29.752 388.331 29.824 388.331 29.968C388.331 30.064 388.307 30.136 388.259 30.184L380.339 40.408C379.523 41.464 378.755 42.496 378.035 43.504C377.363 44.464 376.691 45.448 376.019 46.456C375.347 47.464 374.651 48.52 373.931 49.624C373.259 50.728 372.515 51.952 371.699 53.296C372.323 53.2 372.803 53.152 373.139 53.152H374.291C376.499 53.152 377.603 53.368 377.603 53.8C377.603 53.992 377.435 54.088 377.099 54.088H376.811C376.427 54.04 376.067 54.016 375.731 54.016H374.795C374.219 54.016 373.667 54.04 373.139 54.088C372.611 54.136 371.939 54.208 371.123 54.304L370.475 55.384ZM351.179 62.656C349.931 63.664 348.779 64.696 347.723 65.752C346.667 66.856 345.779 67.936 345.059 68.992C344.291 70.096 343.691 71.128 343.259 72.088C342.827 73.048 342.611 73.912 342.611 74.68C342.611 75.448 342.875 76.072 343.403 76.552C343.931 77.08 344.603 77.344 345.419 77.344C347.195 77.344 348.947 76.72 350.675 75.472C352.403 74.224 354.443 72.136 356.795 69.208C356.315 69.352 355.883 69.424 355.499 69.424C354.203 69.424 353.555 68.776 353.555 67.48C353.555 65.608 354.971 63.28 357.803 60.496C359.339 59.008 361.091 57.64 363.059 56.392C358.355 57.976 354.395 60.064 351.179 62.656ZM364.859 50.704C365.291 50.704 365.723 50.608 366.155 50.416C366.587 50.224 367.091 49.888 367.667 49.408C368.291 48.88 369.035 48.16 369.899 47.248C370.763 46.336 371.843 45.184 373.139 43.792C373.763 43.12 374.507 42.232 375.371 41.128C376.235 39.976 377.147 38.776 378.107 37.528L378.323 37.24C378.227 36.568 377.771 36.232 376.955 36.232C375.275 36.232 372.779 38.128 369.467 41.92C366.155 45.664 364.499 48.496 364.499 50.416C364.499 50.512 364.499 50.584 364.499 50.632C364.595 50.68 364.715 50.704 364.859 50.704ZM365.939 55.456C365.843 55.504 365.747 55.528 365.651 55.528C362.867 57.064 360.419 58.912 358.307 61.072C355.667 63.76 354.347 65.944 354.347 67.624C354.347 68.392 354.731 68.776 355.499 68.776C356.171 68.776 356.963 68.44 357.875 67.768C360.755 63.976 363.443 59.872 365.939 55.456ZM379.979 30.76C379.307 30.712 378.443 31.048 377.387 31.768C376.331 32.44 375.203 33.352 374.003 34.504C372.947 35.512 371.843 36.664 370.691 37.96C372.899 36.52 375.035 35.8 377.099 35.8C377.867 35.8 378.371 36.136 378.611 36.808C379.571 35.416 380.219 34.408 380.555 33.784C380.987 33.064 381.203 32.416 381.203 31.84C381.203 31.216 380.795 30.856 379.979 30.76ZM371.555 46.888C370.547 47.848 369.707 48.64 369.035 49.264C368.363 49.84 367.763 50.32 367.235 50.704C366.707 51.04 366.227 51.28 365.795 51.424H365.723C366.443 51.424 367.523 50.824 368.963 49.624C369.587 49.096 370.187 48.544 370.763 47.968C371.003 47.632 371.267 47.272 371.555 46.888ZM405.254 43.36C404.822 44.032 404.294 44.752 403.67 45.52C403.046 46.288 402.326 47.104 401.51 47.968C400.214 49.36 399.038 50.392 397.982 51.064C397.022 51.496 396.062 51.808 395.102 52C394.622 51.952 394.214 51.736 393.878 51.352C394.118 51.256 394.382 51.136 394.67 50.992C394.862 51.184 395.126 51.28 395.462 51.28C396.806 51.28 398.63 49.864 400.934 47.032C401.558 46.312 402.206 45.52 402.878 44.656C403.55 43.744 404.27 42.76 405.038 41.704C405.134 40.504 405.374 39.304 405.758 38.104C406.19 37.432 406.55 36.784 406.838 36.16C407.51 34.912 407.966 33.88 408.206 33.064C408.302 32.872 408.422 32.68 408.566 32.488C409.142 31.672 409.67 31.048 410.15 30.616C410.246 30.664 410.318 30.736 410.366 30.832C411.038 31.6 411.374 32.464 411.374 33.424C411.374 35.44 410.774 37.576 409.574 39.832C408.422 42.04 406.934 44.056 405.11 45.88C403.334 47.704 401.366 49.216 399.206 50.416C398.774 50.656 398.366 50.872 397.982 51.064C396.974 51.688 396.11 52 395.39 52H395.102C394.382 52.144 393.662 52.216 392.942 52.216C392.078 52.216 391.358 51.856 390.782 51.136C390.206 50.416 389.918 49.504 389.918 48.4C389.918 46.576 390.638 44.296 392.078 41.56C393.518 38.776 395.27 35.824 397.334 32.704C397.814 32.032 398.486 30.952 399.35 29.464C400.262 27.976 401.294 26.296 402.446 24.424C403.646 22.552 404.942 20.608 406.334 18.592C407.726 16.576 409.166 14.752 410.654 13.12C412.142 11.44 413.63 10.072 415.118 9.016C416.606 7.96 418.022 7.432 419.366 7.432C421.526 7.432 422.678 8.416 422.822 10.384C423.302 10.864 423.518 11.608 423.47 12.616C423.23 15.208 421.358 18.232 417.854 21.688C414.494 24.952 410.606 27.544 406.19 29.464C405.47 30.088 404.774 30.688 404.102 31.264C404.054 31.312 404.006 31.384 403.958 31.48C403.958 31.528 403.934 31.576 403.886 31.624C404.318 31.288 404.726 31 405.11 30.76C406.214 30.04 407.246 29.68 408.206 29.68C408.926 29.68 409.574 29.992 410.15 30.616C410.87 29.992 411.518 29.68 412.094 29.68C412.622 29.68 412.886 29.992 412.886 30.616C412.886 31.384 412.622 32.296 412.094 33.352C410.654 36.136 408.374 39.472 405.254 43.36ZM407.27 30.832H407.126C406.358 30.832 405.446 31.24 404.39 32.056C403.862 32.488 403.31 32.968 402.734 33.496C402.638 33.688 402.518 33.904 402.374 34.144C401.75 35.152 401.078 36.232 400.358 37.384C399.638 38.536 398.942 39.64 398.27 40.696C397.166 42.568 396.23 44.32 395.462 45.952C394.694 47.584 394.31 48.784 394.31 49.552C394.31 50.272 394.43 50.752 394.67 50.992C396.734 49.984 399.35 47.272 402.518 42.856C403.814 41.08 404.894 39.496 405.758 38.104C406.286 36.376 407.102 34.696 408.206 33.064C408.302 32.68 408.35 32.32 408.35 31.984C408.35 31.312 407.99 30.928 407.27 30.832ZM410.438 24.352C412.838 22.24 414.83 20.368 416.414 18.736C418.046 17.056 419.27 15.544 420.086 14.2C420.806 13 421.214 11.824 421.31 10.672C420.254 10.576 418.862 11.272 417.134 12.76C416.126 13.672 414.662 15.472 412.742 18.16C410.966 20.704 408.782 23.992 406.19 28.024C407.726 26.68 409.142 25.456 410.438 24.352ZM420.806 8.944C420.518 8.512 420.134 8.296 419.654 8.296C418.166 8.296 416.726 8.92 415.334 10.168C413.99 11.416 412.718 12.952 411.518 14.776C410.318 16.552 409.19 18.448 408.134 20.464L407.126 22.552L407.702 21.688C410.246 17.992 412.766 15.064 415.262 12.904C417.71 10.792 419.702 9.736 421.238 9.736C421.142 9.496 420.998 9.232 420.806 8.944ZM420.59 16.072C419.054 17.944 417.158 19.912 414.902 21.976C412.934 23.752 410.846 25.576 408.638 27.448C409.79 26.824 410.894 26.152 411.95 25.432C413.87 24.088 415.646 22.576 417.278 20.896C420.206 17.92 421.91 15.352 422.39 13.192C422.006 14.104 421.406 15.064 420.59 16.072ZM392.582 47.824C392.054 48.976 391.79 49.816 391.79 50.344C391.79 51.112 392.174 51.496 392.942 51.496C393.23 51.496 393.542 51.448 393.878 51.352C393.398 50.776 393.158 49.768 393.158 48.328C393.158 47.704 393.206 47.032 393.302 46.312C393.062 46.84 392.822 47.344 392.582 47.824ZM436.897 42.064C433.489 47.056 430.705 49.552 428.545 49.552C428.305 49.552 428.113 49.528 427.969 49.48C427.777 49.96 427.681 50.296 427.681 50.488C427.681 51.112 427.945 51.352 428.473 51.208C429.145 51.016 429.985 50.464 430.993 49.552C432.049 48.64 433.057 47.68 434.017 46.672C434.977 45.664 435.817 44.776 436.537 44.008C437.257 43.192 437.665 42.784 437.761 42.784C438.001 42.784 438.121 42.88 438.121 43.072C438.121 43.168 438.001 43.384 437.761 43.72C437.521 44.008 437.209 44.392 436.825 44.872C436.441 45.304 435.985 45.784 435.457 46.312C434.977 46.84 434.449 47.392 433.873 47.968C432.673 49.312 431.593 50.344 430.633 51.064C429.673 51.736 428.761 52.072 427.897 52.072C427.129 52.072 426.481 51.832 425.953 51.352C425.473 50.872 425.233 50.248 425.233 49.48C425.233 48.856 425.329 48.232 425.521 47.608C425.665 47.176 425.929 46.6 426.313 45.88C426.313 45.736 426.313 45.592 426.313 45.448L423.217 48.904C422.209 50.008 421.321 50.8 420.553 51.28C419.833 51.76 419.089 52 418.321 52C417.409 52 416.689 51.64 416.161 50.92C415.633 50.2 415.369 49.24 415.369 48.04C415.369 45.736 417.001 42.52 420.265 38.392L422.065 36.088L419.833 37.24L425.953 31.192C426.337 30.664 426.601 30.376 426.745 30.328C426.937 30.232 427.273 30.16 427.753 30.112L430.705 29.968C431.041 29.968 431.209 30.064 431.209 30.256C431.209 30.304 431.113 30.496 430.921 30.832L425.089 38.68C425.041 39.688 424.585 40.696 423.721 41.704C422.521 43.096 421.417 44.464 420.409 45.808C419.977 46.192 419.641 46.552 419.401 46.888L419.185 47.32C419.089 47.464 419.017 47.584 418.969 47.68C418.921 47.872 418.921 48.064 418.969 48.256C419.209 48.832 419.665 49.12 420.337 49.12C421.249 49.12 422.377 48.472 423.721 47.176C424.009 46.84 424.273 46.528 424.513 46.24C424.993 45.664 425.425 45.16 425.809 44.728C425.953 44.584 426.073 44.464 426.169 44.368C426.601 43.792 427.033 43.192 427.465 42.568L431.713 36.664L435.529 31.336L436.033 30.616C436.177 30.376 436.297 30.232 436.393 30.184C436.537 30.136 436.777 30.112 437.113 30.112L439.993 29.968C440.281 29.968 440.425 30.088 440.425 30.328C440.425 30.424 440.401 30.496 440.353 30.544L431.641 43.288C430.441 44.968 429.481 46.48 428.761 47.824C428.473 48.304 428.257 48.736 428.113 49.12C428.209 49.12 428.353 49.12 428.545 49.12C430.465 49.12 433.033 46.672 436.249 41.776L436.897 42.064ZM418.177 50.2C418.177 50.728 418.465 50.992 419.041 50.992C419.569 50.992 420.505 50.416 421.849 49.264C421.369 49.456 420.889 49.552 420.409 49.552C419.545 49.552 418.921 49.24 418.537 48.616C418.297 49.288 418.177 49.816 418.177 50.2ZM440.299 44.152C440.923 43.192 441.667 42.16 442.531 41.056C443.443 39.952 444.403 38.848 445.411 37.744C446.467 36.64 447.547 35.584 448.651 34.576C449.803 33.568 450.883 32.704 451.891 31.984C452.947 31.216 453.931 30.616 454.843 30.184C455.803 29.752 456.619 29.56 457.291 29.608C458.443 29.704 459.403 30.328 460.171 31.48C460.987 32.584 461.347 34 461.251 35.728C461.203 36.496 461.059 37.192 460.819 37.816C460.723 38.104 460.603 38.44 460.459 38.824C460.459 39.016 460.483 39.232 460.531 39.472C460.771 39.328 461.011 39.16 461.251 38.968C461.779 38.584 462.331 38.128 462.907 37.6C463.483 37.024 464.083 36.328 464.707 35.512C465.331 34.696 466.003 33.712 466.723 32.56L469.819 32.128L467.731 36.088H468.307C468.979 36.088 469.507 36.016 469.891 35.872C469.171 36.832 468.571 37.648 468.091 38.32C467.611 38.944 467.155 39.568 466.723 40.192C466.291 40.816 465.859 41.464 465.427 42.136C464.995 42.76 464.467 43.552 463.843 44.512L463.411 45.088L467.515 41.848C467.899 41.032 468.355 40.24 468.883 39.472C469.411 38.656 470.083 37.792 470.899 36.88C471.763 35.872 472.723 34.912 473.779 34C474.835 33.088 475.891 32.296 476.947 31.624C478.051 30.952 479.107 30.424 480.115 30.04C481.123 29.656 482.011 29.464 482.779 29.464C483.451 29.464 483.979 29.752 484.363 30.328C484.747 30.856 484.915 31.504 484.867 32.272C484.819 32.992 484.651 33.712 484.363 34.432C484.123 35.152 483.787 35.8 483.355 36.376C482.971 36.904 482.539 37.336 482.059 37.672C481.579 38.008 481.099 38.176 480.619 38.176C480.331 38.176 480.091 38.128 479.899 38.032C479.755 38.656 479.467 39.232 479.035 39.76C478.411 40.528 477.763 40.912 477.091 40.912C476.275 40.912 475.867 40.528 475.867 39.76C475.867 39.04 476.395 38.392 477.451 37.816C478.507 37.24 479.035 36.832 479.035 36.592C479.035 36.256 478.771 36.088 478.243 36.088C477.139 36.088 475.843 36.76 474.355 38.104C473.059 39.832 472.003 41.632 471.187 43.504C470.227 45.616 469.699 47.368 469.603 48.76C469.555 49.528 469.867 50.128 470.539 50.56C470.779 50.752 471.067 50.872 471.403 50.92C472.459 50.44 473.755 49.408 475.291 47.824C476.587 46.528 478.027 44.824 479.611 42.712L480.043 43.072C478.651 44.896 477.379 46.408 476.227 47.608C474.787 49.144 473.491 50.248 472.339 50.92C472.627 50.92 472.939 50.872 473.275 50.776C474.427 50.44 475.747 49.648 477.235 48.4C478.771 47.104 480.355 45.112 481.987 42.424C482.179 42.136 482.371 41.992 482.563 41.992C482.803 41.992 482.899 42.088 482.851 42.28C482.131 43.768 481.267 45.136 480.259 46.384C479.299 47.632 478.267 48.688 477.163 49.552C476.059 50.416 474.931 51.088 473.779 51.568C472.675 52 471.619 52.168 470.611 52.072C470.179 52.024 469.771 51.928 469.387 51.784C467.131 51.64 466.003 50.224 466.003 47.536C466.003 46.768 466.099 46 466.291 45.232C464.803 46.384 463.267 47.632 461.683 48.976C461.203 49.744 460.723 50.608 460.243 51.568L456.571 52.072L456.859 51.424C456.475 51.472 456.163 51.544 455.923 51.64C456.643 50.68 457.243 49.888 457.723 49.264C458.107 48.736 458.467 48.232 458.803 47.752L462.331 40.984C461.563 41.56 460.819 42.088 460.099 42.568C460.195 42.856 460.147 43 459.955 43C459.235 44.872 457.891 46.648 455.923 48.328C453.139 50.68 450.595 51.856 448.291 51.856C447.955 51.856 447.667 51.832 447.427 51.784C446.515 52.072 445.723 52.216 445.051 52.216C444.379 52.216 443.851 51.952 443.467 51.424C443.131 50.848 442.987 50.176 443.035 49.408C443.035 48.688 443.155 47.968 443.395 47.248C443.683 46.528 444.019 45.904 444.403 45.376C444.835 44.8 445.291 44.344 445.771 44.008C446.203 43.72 446.659 43.552 447.139 43.504C448.291 42.064 449.347 40.84 450.307 39.832C452.947 37.048 455.083 35.656 456.715 35.656C457.051 35.656 457.363 35.68 457.651 35.728L457.723 35.44C458.011 34.528 458.107 33.736 458.011 33.064C457.867 31.768 457.267 31.12 456.211 31.12C455.203 31.072 453.931 31.576 452.395 32.632C450.859 33.64 449.107 35.152 447.139 37.168C445.171 39.184 443.179 41.584 441.163 44.368L440.299 44.152ZM448.435 44.872C448.435 45.256 448.387 45.592 448.291 45.88C448.195 46.12 448.027 46.408 447.787 46.744C447.547 47.032 447.211 47.392 446.779 47.824C446.395 48.256 445.843 48.808 445.123 49.48C444.691 49.864 444.427 50.248 444.331 50.632C444.331 51.208 444.619 51.496 445.195 51.496C445.627 51.496 446.107 51.328 446.635 50.992C446.587 50.752 446.563 50.488 446.563 50.2C446.563 49.288 446.875 48.448 447.499 47.68C448.123 46.912 448.771 46.528 449.443 46.528C450.019 46.528 450.403 46.744 450.595 47.176C451.267 46.312 451.987 45.352 452.755 44.296C453.523 43.336 454.243 42.352 454.915 41.344C455.587 40.288 456.163 39.28 456.643 38.32C456.979 37.648 457.243 36.976 457.435 36.304C457.195 36.208 456.907 36.16 456.571 36.16C455.275 36.16 453.499 37.312 451.243 39.616C450.187 40.672 449.035 42.016 447.787 43.648C448.219 43.792 448.435 44.2 448.435 44.872ZM479.539 35.872C479.635 35.584 479.803 35.296 480.043 35.008C480.283 34.672 480.595 34.288 480.979 33.856C481.411 33.424 481.987 32.872 482.707 32.2C483.139 31.816 483.403 31.432 483.499 31.048C483.499 30.472 483.211 30.184 482.635 30.184C481.819 30.184 480.715 30.832 479.323 32.128C478.267 33.136 477.163 34.408 476.011 35.944C476.779 35.704 477.523 35.584 478.243 35.584C478.771 35.584 479.179 35.704 479.467 35.944L479.539 35.872ZM463.915 37.96L463.771 37.816C463.051 38.536 462.307 39.232 461.539 39.904C461.203 40.24 460.843 40.552 460.459 40.84C460.411 41.128 460.363 41.44 460.315 41.776C461.179 41.104 462.115 40.336 463.123 39.472L463.915 37.96ZM467.083 43.288C466.219 43.816 465.187 44.704 463.987 45.952C463.651 46.24 463.315 46.6 462.979 47.032C464.179 46.072 465.403 45.16 466.651 44.296C466.699 44.2 466.723 44.128 466.723 44.08C466.675 43.888 466.723 43.792 466.867 43.792L467.083 43.36V43.288ZM450.811 50.056C449.995 50.584 449.203 51.016 448.435 51.352C449.635 51.256 451.099 50.368 452.827 48.688C452.155 49.216 451.483 49.672 450.811 50.056ZM458.803 42.856C458.899 42.76 459.019 42.688 459.163 42.64C458.971 42.544 458.827 42.496 458.731 42.496C458.683 42.496 458.707 42.616 458.803 42.856ZM506.281 42.064C502.873 47.056 500.089 49.552 497.929 49.552C497.689 49.552 497.497 49.528 497.353 49.48C497.161 49.96 497.065 50.296 497.065 50.488C497.065 51.112 497.329 51.352 497.857 51.208C498.529 51.016 499.369 50.464 500.377 49.552C501.433 48.64 502.441 47.68 503.401 46.672C504.361 45.664 505.201 44.776 505.921 44.008C506.641 43.192 507.049 42.784 507.145 42.784C507.385 42.784 507.505 42.88 507.505 43.072C507.505 43.168 507.385 43.384 507.145 43.72C506.905 44.008 506.593 44.392 506.209 44.872C505.825 45.304 505.369 45.784 504.841 46.312C504.361 46.84 503.833 47.392 503.257 47.968C502.057 49.312 500.977 50.344 500.017 51.064C499.057 51.736 498.145 52.072 497.281 52.072C496.513 52.072 495.865 51.832 495.337 51.352C494.857 50.872 494.617 50.248 494.617 49.48C494.617 48.856 494.713 48.232 494.905 47.608C495.049 47.176 495.313 46.6 495.697 45.88C495.697 45.736 495.697 45.592 495.697 45.448L492.601 48.904C491.593 50.008 490.705 50.8 489.937 51.28C489.217 51.76 488.473 52 487.705 52C486.793 52 486.073 51.64 485.545 50.92C485.017 50.2 484.753 49.24 484.753 48.04C484.753 45.736 486.385 42.52 489.649 38.392L491.449 36.088L489.217 37.24L495.337 31.192C495.721 30.664 495.985 30.376 496.129 30.328C496.321 30.232 496.657 30.16 497.137 30.112L500.089 29.968C500.425 29.968 500.593 30.064 500.593 30.256C500.593 30.304 500.497 30.496 500.305 30.832L494.473 38.68C494.425 39.688 493.969 40.696 493.105 41.704C491.905 43.096 490.801 44.464 489.793 45.808C489.361 46.192 489.025 46.552 488.785 46.888L488.569 47.32C488.473 47.464 488.401 47.584 488.353 47.68C488.305 47.872 488.305 48.064 488.353 48.256C488.593 48.832 489.049 49.12 489.721 49.12C490.633 49.12 491.761 48.472 493.105 47.176C493.393 46.84 493.657 46.528 493.897 46.24C494.377 45.664 494.809 45.16 495.193 44.728C495.337 44.584 495.457 44.464 495.553 44.368C495.985 43.792 496.417 43.192 496.849 42.568L501.097 36.664L504.913 31.336L505.417 30.616C505.561 30.376 505.681 30.232 505.777 30.184C505.921 30.136 506.161 30.112 506.497 30.112L509.377 29.968C509.665 29.968 509.809 30.088 509.809 30.328C509.809 30.424 509.785 30.496 509.737 30.544L501.025 43.288C499.825 44.968 498.865 46.48 498.145 47.824C497.857 48.304 497.641 48.736 497.497 49.12C497.593 49.12 497.737 49.12 497.929 49.12C499.849 49.12 502.417 46.672 505.633 41.776L506.281 42.064ZM487.561 50.2C487.561 50.728 487.849 50.992 488.425 50.992C488.953 50.992 489.889 50.416 491.233 49.264C490.753 49.456 490.273 49.552 489.793 49.552C488.929 49.552 488.305 49.24 487.921 48.616C487.681 49.288 487.561 49.816 487.561 50.2ZM547.7 29.464C547.796 29.464 547.844 29.512 547.844 29.608C547.844 29.752 547.556 30.256 546.98 31.12L542.012 38.248C539.564 41.752 537.692 44.536 536.396 46.6C535.34 48.28 534.716 49.504 534.524 50.272C536.396 48.88 538.844 46.48 541.868 43.072L542.3 43.432C539.084 46.936 536.492 49.384 534.524 50.776C534.524 51.304 534.836 51.568 535.46 51.568C535.94 51.568 536.636 51.208 537.548 50.488C538.46 49.72 539.42 48.832 540.428 47.824C541.436 46.768 542.444 45.712 543.452 44.656C544.46 43.6 545.324 42.784 546.044 42.208L546.116 42.136C546.308 42.136 546.404 42.232 546.404 42.424V42.496L546.26 42.784C544.244 44.992 542.612 46.744 541.364 48.04C540.116 49.336 539.084 50.32 538.268 50.992C537.5 51.616 536.828 52 536.252 52.144C535.676 52.336 535.076 52.432 534.452 52.432C533.732 52.432 533.132 52.24 532.652 51.856C532.124 52.048 531.668 52.144 531.284 52.144C530.18 52.144 529.7 51.448 529.844 50.056C530.084 47.896 531.26 45.664 533.372 43.36L534.596 42.064C535.22 41.104 535.916 40.072 536.684 38.968C535.772 39.736 534.884 40.528 534.02 41.344L532.652 42.64L525.02 51.856C524.3 51.904 523.724 51.832 523.292 51.64C522.716 51.976 522.26 52.144 521.924 52.144C520.724 52.144 520.196 51.4 520.34 49.912C520.484 48.808 520.844 47.848 521.42 47.032C521.852 46.408 522.332 45.712 522.86 44.944L523.004 44.584C523.196 44.2 523.412 43.768 523.652 43.288C523.028 43.96 522.38 44.608 521.708 45.232C520.988 45.904 520.364 46.48 519.836 46.96C519.692 47.056 519.572 47.176 519.476 47.32C518.66 48.424 517.82 49.36 516.956 50.128C516.428 50.608 515.924 51.04 515.444 51.424C515.012 51.76 514.388 51.976 513.572 52.072H513.428H513.284C512.516 52.072 511.94 51.88 511.556 51.496C511.076 51.16 510.716 50.776 510.476 50.344C510.188 49.864 510.02 49.36 509.972 48.832C509.876 48.304 509.828 47.776 509.828 47.248C509.828 46.48 509.972 45.664 510.26 44.8C510.548 43.936 510.956 43.144 511.484 42.424C511.964 41.656 512.516 41.032 513.14 40.552C513.764 40.024 514.436 39.76 515.156 39.76C516.02 39.76 516.644 40.024 517.028 40.552C517.46 41.032 517.7 41.584 517.748 42.208C517.796 42.784 517.652 43.336 517.316 43.864C516.98 44.392 516.452 44.656 515.732 44.656C515.348 44.656 515.06 44.608 514.868 44.512L514.652 44.656C513.884 45.232 513.236 45.952 512.708 46.816C512.18 47.632 511.844 48.424 511.7 49.192C511.556 49.72 511.532 50.176 511.628 50.56C511.868 50.8 512.252 50.968 512.78 51.064C513.164 51.208 513.572 51.208 514.004 51.064C514.196 50.92 514.436 50.752 514.724 50.56C515.588 49.84 516.572 48.976 517.676 47.968L518.252 47.464C518.54 47.032 518.948 46.48 519.476 45.808C520.196 44.8 521.012 43.672 521.924 42.424C522.836 41.176 523.796 39.856 524.804 38.464C525.812 37.072 526.82 35.776 527.828 34.576C528.884 33.328 529.868 32.248 530.78 31.336C531.692 30.376 532.508 29.728 533.228 29.392L537.98 29.32C538.076 29.32 538.124 29.368 538.124 29.464C538.124 29.656 537.812 30.16 537.188 30.976L533.156 36.448C533.54 36.4 533.852 36.328 534.092 36.232C533.036 37.432 531.836 38.728 530.492 40.12C528.716 42.616 527.372 44.68 526.46 46.312C525.692 47.704 525.188 48.784 524.948 49.552C525.476 49.024 526.028 48.472 526.604 47.896C527.276 47.224 527.996 46.528 528.764 45.808L542.444 29.536L547.7 29.464ZM526.82 38.536L532.724 30.688C530.948 32.224 529.34 33.904 527.9 35.728C526.46 37.504 525.116 39.28 523.868 41.056C523.148 42.112 522.428 43.12 521.708 44.08C522.86 43.024 523.964 42.016 525.02 41.056C525.548 40.24 526.148 39.4 526.82 38.536ZM542.3 30.976L535.028 39.832C535.844 39.064 536.636 38.392 537.404 37.816C537.452 37.768 537.524 37.72 537.62 37.672L542.3 30.976ZM511.7 45.088C510.98 45.568 510.644 46.504 510.692 47.896C510.692 48.424 510.788 49 510.98 49.624C510.98 49.288 511.028 48.928 511.124 48.544C511.316 47.584 511.652 46.624 512.132 45.664C512.324 45.28 512.516 44.92 512.708 44.584C512.372 44.728 512.036 44.896 511.7 45.088ZM531.644 49.264C531.644 49.024 531.668 48.76 531.716 48.472C530.996 49.432 530.612 50.152 530.564 50.632C530.516 51.304 530.828 51.64 531.5 51.64C531.74 51.64 532.028 51.592 532.364 51.496C531.884 50.92 531.644 50.176 531.644 49.264ZM522.572 50.992C522.188 50.416 521.948 49.84 521.852 49.264C521.804 49.312 521.756 49.36 521.708 49.408C521.372 49.84 521.18 50.248 521.132 50.632C521.084 51.304 521.42 51.64 522.14 51.64C522.284 51.64 522.524 51.52 522.86 51.28C522.764 51.184 522.668 51.088 522.572 50.992ZM524.732 50.416V50.56L525.308 49.912C525.116 50.104 524.924 50.272 524.732 50.416ZM567.114 43.288C565.434 45.448 563.706 46.528 561.93 46.528C561.786 46.528 561.594 46.504 561.354 46.456L560.994 46.96H561.426C562.29 46.96 563.274 46.648 564.378 46.024C565.482 45.352 566.562 44.44 567.618 43.288C567.858 43 568.002 42.832 568.05 42.784C568.146 42.688 568.266 42.64 568.41 42.64C568.746 42.64 568.914 42.784 568.914 43.072C568.914 43.168 568.698 43.432 568.266 43.864C567.834 44.296 567.33 44.776 566.754 45.304C564.834 47.08 562.842 47.968 560.778 47.968H560.202C558.618 49.648 557.13 50.776 555.738 51.352C554.346 51.928 552.954 52.216 551.562 52.216C550.554 52.216 549.69 51.808 548.97 50.992C548.25 50.176 547.89 49.192 547.89 48.04C547.89 46.12 548.49 44.08 549.69 41.92C550.89 39.712 552.642 37.6 554.946 35.584C557.01 33.712 558.954 32.272 560.778 31.264C562.65 30.208 564.21 29.68 565.458 29.68C566.226 29.68 566.802 29.944 567.186 30.472C567.618 31 567.882 31.72 567.978 32.632C568.026 33.4 567.834 34.384 567.402 35.584C566.97 36.736 566.394 37.984 565.674 39.328C564.954 40.672 564.162 42.016 563.298 43.36C562.722 44.32 562.17 45.184 561.642 45.952H562.074C563.514 45.952 565.05 44.944 566.682 42.928L567.114 43.288ZM564.234 37.672C564.234 36.76 563.826 36.304 563.01 36.304C561.426 36.304 559.05 38.2 555.882 41.992C552.762 45.784 551.178 48.496 551.13 50.128C551.13 50.512 551.202 50.824 551.346 51.064C551.538 51.208 551.778 51.28 552.066 51.28C553.17 51.28 554.274 50.992 555.378 50.416C555.522 50.32 555.666 50.224 555.81 50.128C556.722 49.456 557.706 48.52 558.762 47.32C558.522 47.032 558.402 46.672 558.402 46.24C558.402 45.76 558.474 45.28 558.618 44.8C558.81 44.32 559.05 43.888 559.338 43.504C559.626 43.12 559.938 42.808 560.274 42.568C560.61 42.28 560.97 42.136 561.354 42.136C561.546 42.136 561.81 42.232 562.146 42.424C562.338 42.136 562.554 41.824 562.794 41.488C563.754 39.856 564.234 38.584 564.234 37.672ZM565.17 37.672C565.65 36.712 566.058 35.752 566.394 34.792C566.778 33.832 566.994 32.92 567.042 32.056C567.09 31.672 566.97 31.336 566.682 31.048C566.394 30.76 566.058 30.616 565.674 30.616C565.338 30.616 565.002 30.688 564.666 30.832C564.33 30.976 563.946 31.24 563.514 31.624C563.082 31.96 562.554 32.44 561.93 33.064C561.354 33.688 560.658 34.48 559.842 35.44C559.314 36.016 558.81 36.592 558.33 37.168C559.962 36.208 561.546 35.728 563.082 35.728C564.282 35.728 564.882 36.4 564.882 37.744C564.882 37.936 564.858 38.128 564.81 38.32C564.954 38.128 565.074 37.912 565.17 37.672ZM588.255 43.288C586.335 45.784 584.631 47.728 583.143 49.12C583.431 48.928 583.743 48.712 584.079 48.472C585.711 47.176 587.367 45.208 589.047 42.568C589.335 42.28 589.551 42.136 589.695 42.136C589.983 42.136 590.103 42.232 590.055 42.424C589.335 43.912 588.447 45.28 587.391 46.528C586.335 47.728 585.207 48.76 584.007 49.624C582.855 50.488 581.655 51.16 580.407 51.64C579.159 52.072 577.983 52.24 576.879 52.144C575.535 52.048 574.407 51.448 573.495 50.344C572.583 49.192 572.127 47.776 572.127 46.096C572.127 43.264 573.591 40.24 576.519 37.024C577.431 36.016 578.439 35.08 579.543 34.216C580.695 33.304 581.847 32.512 582.999 31.84C584.151 31.168 585.279 30.64 586.383 30.256C587.487 29.872 588.471 29.68 589.335 29.68C590.007 29.68 590.583 29.968 591.063 30.544C591.543 31.072 591.783 31.72 591.783 32.488C591.783 33.208 591.639 33.928 591.351 34.648C591.111 35.32 590.775 35.944 590.343 36.52C589.959 37.048 589.503 37.48 588.975 37.816C588.687 38.008 588.399 38.152 588.111 38.248C587.967 38.872 587.679 39.448 587.247 39.976C586.623 40.744 585.975 41.128 585.303 41.128C584.487 41.128 584.079 40.744 584.079 39.976C584.079 39.256 584.607 38.608 585.663 38.032C585.855 37.936 586.023 37.84 586.167 37.744C586.023 37.504 585.951 37.24 585.951 36.952C585.951 36.76 585.951 36.568 585.951 36.376C584.415 36.616 582.423 38.152 579.975 40.984C577.335 44.104 576.015 46.744 576.015 48.904C576.015 49.624 576.135 50.2 576.375 50.632H576.447C577.263 51.064 578.319 51.136 579.615 50.848C579.951 50.752 580.311 50.632 580.695 50.488C582.567 49.24 584.943 46.72 587.823 42.928L588.255 43.288ZM586.527 35.152C586.767 34.816 587.103 34.456 587.535 34.072C588.015 33.64 588.639 33.088 589.407 32.416C589.935 31.984 590.199 31.6 590.199 31.264C590.199 30.688 589.863 30.4 589.191 30.4C588.327 30.4 587.079 31.048 585.447 32.344C583.863 33.64 582.231 35.368 580.551 37.528C580.263 37.864 579.975 38.224 579.687 38.608C582.039 36.832 584.175 35.896 586.095 35.8C586.191 35.608 586.335 35.392 586.527 35.152ZM624.497 40.12C620.033 45.928 616.697 48.832 614.489 48.832C614.249 48.832 614.033 48.808 613.841 48.76L613.697 49.048C613.361 49.624 613.193 50.08 613.193 50.416C613.193 50.656 613.217 50.824 613.265 50.92C613.313 51.016 613.505 51.064 613.841 51.064C613.889 51.064 614.201 50.968 614.777 50.776C615.353 50.536 616.097 50.104 617.009 49.48C617.921 48.856 619.001 47.968 620.249 46.816C621.497 45.664 622.841 44.152 624.281 42.28C624.377 42.184 624.497 42.208 624.641 42.352C624.785 42.448 624.857 42.544 624.857 42.64C624.857 42.976 624.425 43.696 623.561 44.8C622.745 45.856 621.713 46.96 620.465 48.112C619.265 49.216 617.969 50.2 616.577 51.064C615.233 51.928 614.033 52.336 612.977 52.288C612.065 52.24 611.345 51.976 610.817 51.496C610.289 50.968 610.025 50.224 610.025 49.264C610.025 48.4 610.433 47.2 611.249 45.664C612.065 44.08 613.097 42.496 614.345 40.912L618.881 35.296C619.505 34.624 619.961 33.976 620.249 33.352C620.105 33.256 619.937 33.208 619.745 33.208C617.873 33.208 615.353 35.152 612.185 39.04C611.129 40.288 609.713 42.064 607.937 44.368L602.969 51.784C602.921 51.976 602.777 52.072 602.537 52.072H598.217C598.121 52.072 598.073 52.024 598.073 51.928C598.073 51.736 598.097 51.616 598.145 51.568L605.129 41.2C606.185 39.616 607.073 38.272 607.793 37.168C608.513 36.064 609.089 35.152 609.521 34.432C609.761 34 609.953 33.64 610.097 33.352C608.465 33.928 606.329 35.824 603.689 39.04C601.289 42.016 598.721 45.184 595.985 48.544C595.745 48.448 595.457 48.376 595.121 48.328L592.745 51.784C592.601 51.928 592.433 52 592.241 52H588.353C588.113 52 587.993 51.928 587.993 51.784L595.625 39.832L595.409 40.12L594.977 39.76C596.513 37.888 597.617 36.52 598.289 35.656L602.033 29.824H606.353L604.121 33.568C604.265 33.856 604.361 34.168 604.409 34.504C604.841 34.024 605.249 33.592 605.633 33.208C606.545 32.296 607.313 31.6 607.937 31.12C608.609 30.592 609.185 30.256 609.665 30.112C610.145 29.92 610.673 29.824 611.249 29.824C611.921 29.824 612.473 30.088 612.905 30.616C613.385 31.096 613.625 31.72 613.625 32.488C613.625 33.064 613.529 33.64 613.337 34.216C613.289 34.504 613.193 34.816 613.049 35.152C613.049 35.392 613.025 35.632 612.977 35.872C616.289 31.84 619.025 29.824 621.185 29.824C622.001 29.824 622.673 30.112 623.201 30.688C623.777 31.216 624.065 31.912 624.065 32.776C624.065 33.736 623.729 34.864 623.057 36.16C622.433 37.408 621.401 38.968 619.961 40.84L615.065 47.032C614.729 47.512 614.417 47.944 614.129 48.328C614.273 48.328 614.417 48.328 614.561 48.328C616.577 48.328 619.745 45.472 624.065 39.76L624.497 40.12ZM610.457 32.632C610.649 32.152 610.745 31.792 610.745 31.552C610.745 31.216 610.577 31.048 610.241 31.048C609.857 31.048 609.281 31.336 608.513 31.912C607.745 32.44 606.881 33.16 605.921 34.072C605.393 34.6 604.865 35.152 604.337 35.728C604.241 36.544 603.977 37.36 603.545 38.176C606.473 35.056 608.753 33.256 610.385 32.776L610.457 32.632ZM620.681 31.696C620.681 31.216 620.489 30.976 620.105 30.976C619.721 30.976 619.169 31.24 618.449 31.768C617.729 32.296 616.937 32.992 616.073 33.856C615.209 34.672 614.321 35.608 613.409 36.664C613.169 36.952 612.929 37.216 612.689 37.456C615.617 34.24 617.969 32.632 619.745 32.632C620.033 32.632 620.297 32.656 620.537 32.704C620.633 32.368 620.681 32.032 620.681 31.696ZM648.312 42.064C644.904 47.056 642.12 49.552 639.96 49.552C639.72 49.552 639.528 49.528 639.384 49.48C639.192 49.96 639.096 50.296 639.096 50.488C639.096 51.112 639.36 51.352 639.888 51.208C640.56 51.016 641.4 50.464 642.408 49.552C643.464 48.64 644.472 47.68 645.432 46.672C646.392 45.664 647.232 44.776 647.952 44.008C648.672 43.192 649.08 42.784 649.176 42.784C649.416 42.784 649.536 42.88 649.536 43.072C649.536 43.168 649.416 43.384 649.176 43.72C648.936 44.008 648.624 44.392 648.24 44.872C647.856 45.304 647.4 45.784 646.872 46.312C646.392 46.84 645.864 47.392 645.288 47.968C644.088 49.312 643.008 50.344 642.048 51.064C641.088 51.736 640.176 52.072 639.312 52.072C638.544 52.072 637.896 51.832 637.368 51.352C636.888 50.872 636.648 50.248 636.648 49.48C636.648 48.856 636.744 48.232 636.936 47.608C637.08 47.176 637.344 46.6 637.728 45.88C637.728 45.736 637.728 45.592 637.728 45.448L634.632 48.904C633.624 50.008 632.736 50.8 631.968 51.28C631.248 51.76 630.504 52 629.736 52C628.824 52 628.104 51.64 627.576 50.92C627.048 50.2 626.784 49.24 626.784 48.04C626.784 45.736 628.416 42.52 631.68 38.392L633.48 36.088L631.248 37.24L637.368 31.192C637.752 30.664 638.016 30.376 638.16 30.328C638.352 30.232 638.688 30.16 639.168 30.112L642.12 29.968C642.456 29.968 642.624 30.064 642.624 30.256C642.624 30.304 642.528 30.496 642.336 30.832L636.504 38.68C636.456 39.688 636 40.696 635.136 41.704C633.936 43.096 632.832 44.464 631.824 45.808C631.392 46.192 631.056 46.552 630.816 46.888L630.6 47.32C630.504 47.464 630.432 47.584 630.384 47.68C630.336 47.872 630.336 48.064 630.384 48.256C630.624 48.832 631.08 49.12 631.752 49.12C632.664 49.12 633.792 48.472 635.136 47.176C635.424 46.84 635.688 46.528 635.928 46.24C636.408 45.664 636.84 45.16 637.224 44.728C637.368 44.584 637.488 44.464 637.584 44.368C638.016 43.792 638.448 43.192 638.88 42.568L643.128 36.664L646.944 31.336L647.448 30.616C647.592 30.376 647.712 30.232 647.808 30.184C647.952 30.136 648.192 30.112 648.528 30.112L651.408 29.968C651.696 29.968 651.84 30.088 651.84 30.328C651.84 30.424 651.816 30.496 651.768 30.544L643.056 43.288C641.856 44.968 640.896 46.48 640.176 47.824C639.888 48.304 639.672 48.736 639.528 49.12C639.624 49.12 639.768 49.12 639.96 49.12C641.88 49.12 644.448 46.672 647.664 41.776L648.312 42.064ZM629.592 50.2C629.592 50.728 629.88 50.992 630.456 50.992C630.984 50.992 631.92 50.416 633.264 49.264C632.784 49.456 632.304 49.552 631.824 49.552C630.96 49.552 630.336 49.24 629.952 48.616C629.712 49.288 629.592 49.816 629.592 50.2Z" fill="url(#paint0_linear)"/>
</g>
<defs>
<filter id="filter0_d" x="0.952026" y="0.328125" width="657.888" height="88.88" filterUnits="userSpaceOnUse" color-interpolation-filters="sRGB">
<feFlood flood-opacity="0" result="BackgroundImageFix"/>
<feColorMatrix in="SourceAlpha" type="matrix" values="0 0 0 0 0 0 0 0 0 0 0 0 0 0 0 0 0 0 127 0"/>
<feOffset dy="4"/>
<feGaussianBlur stdDeviation="3.5"/>
<feColorMatrix type="matrix" values="0 0 0 0 0 0 0 0 0 0 0 0 0 0 0 0 0 0 0.62 0"/>
<feBlend mode="normal" in2="BackgroundImageFix" result="effect1_dropShadow"/>
<feBlend mode="normal" in="SourceGraphic" in2="effect1_dropShadow" result="shape"/>
</filter>
<linearGradient id="paint0_linear" x1="327.5" y1="104.432" x2="327.5" y2="2.86364" gradientUnits="userSpaceOnUse">
<stop stop-color="#A27227"/>
<stop offset="0.0485093" stop-color="#FEDA5B"/>
<stop offset="0.122132" stop-color="#FEDA5B"/>
<stop offset="0.22188" stop-color="#CD953D"/>
<stop offset="0.347751" stop-color="#C99C39"/>
<stop offset="0.421875" stop-color="#FEDA5B"/>
<stop offset="0.601869" stop-color="#EDC84C"/>
<stop offset="0.753865" stop-color="#A27227"/>
<stop offset="1" stop-color="#EDC84C"/>
</linearGradient>
</defs>
</svg>
