<svg width="20" height="21" viewBox="0 0 20 21" fill="none" xmlns="http://www.w3.org/2000/svg">
<path d="M4.56795 1.68976C4.49416 1.59315 4.40101 1.51363 4.29471 1.45648C4.1884 1.39933 4.07136 1.36585 3.95136 1.35827C3.83137 1.35069 3.71116 1.36918 3.59872 1.41252C3.48629 1.45585 3.3842 1.52304 3.29924 1.60961L2.00678 2.92626C1.40304 3.54197 1.18055 4.41338 1.44429 5.17792C2.53893 8.34244 4.31957 11.2155 6.65413 13.5841C8.98146 15.96 11.8045 17.7722 14.9139 18.8863C15.6651 19.1548 16.5213 18.9283 17.1263 18.3139L18.4188 16.9985C18.5038 16.912 18.5698 16.8081 18.6124 16.6937C18.655 16.5793 18.6732 16.4569 18.6657 16.3348C18.6583 16.2127 18.6254 16.0936 18.5692 15.9854C18.5131 15.8772 18.4349 15.7824 18.34 15.7073L15.4564 13.4251C15.3549 13.3451 15.237 13.2895 15.1114 13.2626C14.9858 13.2357 14.8559 13.2382 14.7314 13.2699L11.994 13.9658C11.6286 14.0587 11.2458 14.0538 10.8828 13.9514C10.5198 13.8491 10.1891 13.6529 9.92278 13.3819L6.85287 10.2562C6.58634 9.98533 6.3933 9.64878 6.29253 9.27938C6.19177 8.90998 6.18672 8.52031 6.27789 8.14833L6.96287 5.36238C6.994 5.23567 6.99645 5.10342 6.97004 4.97561C6.94362 4.84779 6.88903 4.72776 6.81038 4.62455L4.56795 1.68976ZM2.35551 0.650431C2.57425 0.427745 2.83703 0.254966 3.12641 0.143567C3.41579 0.0321683 3.72515 -0.0153014 4.03394 0.00431C4.34273 0.0239214 4.64388 0.110165 4.91741 0.257315C5.19094 0.404464 5.43058 0.609152 5.62041 0.857787L7.86284 3.79131C8.27408 4.32942 8.41908 5.03036 8.25658 5.69186L7.57285 8.47781C7.5375 8.62211 7.53941 8.77326 7.57839 8.91658C7.61738 9.05991 7.69211 9.19054 7.79534 9.29579L10.8665 12.4214C10.97 12.5267 11.0986 12.6029 11.2397 12.6425C11.3807 12.6822 11.5295 12.684 11.6715 12.6478L14.4076 11.952C14.7284 11.8704 15.0632 11.864 15.3867 11.9334C15.7102 12.0029 16.014 12.1462 16.2751 12.3527L19.1575 14.6349C20.1937 15.4554 20.2887 17.0138 19.3612 17.9564L18.0688 19.2718C17.1438 20.2132 15.7613 20.6266 14.4726 20.1648C11.1742 18.9837 8.17942 17.0619 5.71041 14.542C3.2346 12.0296 1.34631 8.98216 0.185583 5.62571C-0.266903 4.31542 0.139334 2.90718 1.06431 1.96581L2.35676 0.650431H2.35551Z" fill="white" fill-opacity="0.9"/>
</svg>
