<svg width="11" height="19" viewBox="0 0 11 19" fill="none" xmlns="http://www.w3.org/2000/svg">
<path d="M0.711199 1.40095C0.475571 1.38355 0.239382 1.37484 0.00311279 1.37482V0C0.273336 0.000131746 0.543463 0.0102206 0.812943 0.0302461L0.711199 1.40095ZM3.46655 2.01962C3.02581 1.84956 2.57315 1.71216 2.11225 1.60854L2.41336 0.266716C2.93995 0.384951 3.4583 0.541681 3.96152 0.736906L3.46655 2.01962ZM5.35019 2.99574C5.15361 2.86465 4.95228 2.74083 4.7466 2.62454L5.42444 1.42844C5.89453 1.6948 6.34443 1.99532 6.77049 2.32758L5.92491 3.41232C5.73851 3.2669 5.5468 3.12841 5.35019 2.99712V2.99574ZM7.8718 5.45668C7.59984 5.07032 7.29975 4.70454 6.97398 4.36232L7.96942 3.41369C8.34065 3.80552 8.68438 4.22484 8.99649 4.66478L7.8718 5.45668ZM8.89475 7.31544C8.8045 7.09748 8.70636 6.88286 8.60051 6.67202L9.82832 6.05335C10.0711 6.53603 10.2779 7.036 10.447 7.54916L9.14086 7.97948C9.06697 7.7552 8.98488 7.53371 8.89475 7.31544ZM9.62346 10.7621C9.61234 10.2897 9.56638 9.81865 9.48596 9.35293L10.8403 9.11921C10.9324 9.64989 10.986 10.1888 10.9998 10.7278L9.62483 10.7621H9.62346ZM9.44334 12.8766C9.48871 12.6429 9.52584 12.4105 9.55471 12.1754L10.92 12.3446C10.854 12.8809 10.7483 13.4117 10.6038 13.9325L9.27835 13.5654C9.3416 13.3385 9.39659 13.109 9.44334 12.8766ZM8.13441 16.1473C8.3874 15.7486 8.61014 15.3307 8.80263 14.899L10.0593 15.4558C9.83932 15.9507 9.58496 16.4264 9.29622 16.8828L8.13441 16.1473ZM6.80899 17.804C6.97673 17.6363 7.13759 17.463 7.29021 17.2843L8.3324 18.1821C8.15591 18.3867 7.97201 18.5848 7.78106 18.776L6.80899 17.804Z" fill="white" fill-opacity="0.9"/>
</svg>
