<svg width="94" height="54" viewBox="0 0 94 54" fill="none" xmlns="http://www.w3.org/2000/svg">
<g filter="url(#filter0_d)">
<path d="M7.04102 43V40.6636L11.4185 40.3145V6.61084L7.04102 6.26172V3.89844H11.4185H14.6411L36.8237 37.3872L36.9849 37.3335V6.61084L32.6074 6.26172V3.89844H40.2075H44.585V6.26172L40.2075 6.61084V43H36.9849L14.8022 9.45752L14.6411 9.51123V40.3145L19.0186 40.6636V43H7.04102ZM47.7271 32.6875V30.1094H62.3364V32.6875H47.7271ZM54.79 24.5771C52.1224 24.5771 50.0008 23.7536 48.4253 22.1064C46.8498 20.4414 46.062 18.2751 46.062 15.6074V12.4653C46.062 10.6929 46.4201 9.13525 47.1362 7.79248C47.8524 6.4318 48.855 5.37549 50.144 4.62354C51.451 3.85368 52.9818 3.46875 54.7363 3.46875C56.5267 3.46875 58.0664 3.85368 59.3555 4.62354C60.6624 5.37549 61.665 6.4318 62.3633 7.79248C63.0794 9.13525 63.4375 10.6929 63.4375 12.4653V15.6074C63.4375 18.2751 62.6587 20.4414 61.1011 22.1064C59.5435 23.7536 57.4398 24.5771 54.79 24.5771ZM54.79 22.0527C56.6341 22.0527 58.0485 21.453 59.0332 20.2534C60.0358 19.0539 60.5371 17.5052 60.5371 15.6074V12.4653C60.5371 10.6034 60.0358 9.06364 59.0332 7.84619C58.0485 6.62874 56.6162 6.02002 54.7363 6.02002C52.8743 6.02002 51.451 6.62874 50.4663 7.84619C49.4816 9.06364 48.9893 10.6034 48.9893 12.4653V15.6074C48.9893 17.5231 49.4727 19.0807 50.4395 20.2803C51.4242 21.4619 52.8743 22.0527 54.79 22.0527ZM69.3457 43V40.6636L76.3818 40.3145V7.22852L68.6475 8.3833V6.12744L79.6045 3.79102V40.3145L86.6138 40.6636V43H69.3457Z" fill="url(#paint0_linear)"/>
</g>
<defs>
<filter id="filter0_d" x="0.0410156" y="0.46875" width="93.5728" height="53.5312" filterUnits="userSpaceOnUse" color-interpolation-filters="sRGB">
<feFlood flood-opacity="0" result="BackgroundImageFix"/>
<feColorMatrix in="SourceAlpha" type="matrix" values="0 0 0 0 0 0 0 0 0 0 0 0 0 0 0 0 0 0 127 0"/>
<feOffset dy="4"/>
<feGaussianBlur stdDeviation="3.5"/>
<feColorMatrix type="matrix" values="0 0 0 0 0 0 0 0 0 0 0 0 0 0 0 0 0 0 0.62 0"/>
<feBlend mode="normal" in2="BackgroundImageFix" result="effect1_dropShadow"/>
<feBlend mode="normal" in="SourceGraphic" in2="effect1_dropShadow" result="shape"/>
</filter>
<linearGradient id="paint0_linear" x1="47" y1="62.9773" x2="47.0002" y2="-5.04545" gradientUnits="userSpaceOnUse">
<stop stop-color="#A27227"/>
<stop offset="0.0485093" stop-color="#FEDA5B"/>
<stop offset="0.122132" stop-color="#FEDA5B"/>
<stop offset="0.22188" stop-color="#CD953D"/>
<stop offset="0.347751" stop-color="#C99C39"/>
<stop offset="0.421875" stop-color="#FEDA5B"/>
<stop offset="0.601869" stop-color="#EDC84C"/>
<stop offset="0.753865" stop-color="#A27227"/>
<stop offset="1" stop-color="#EDC84C"/>
</linearGradient>
</defs>
</svg>
