<svg width="124" height="111" viewBox="0 0 124 111" fill="none" xmlns="http://www.w3.org/2000/svg">
<g filter="url(#filter0_d)">
<path d="M20.6719 88V82.0938L31.2188 80.7812V29.6406L20.4844 29.8281V24.0625L40.4531 19.75V80.7812L50.9531 82.0938V88H20.6719ZM81.9844 88.9844C75.2969 88.9844 70 86.6562 66.0938 82C62.1875 77.3438 60.2344 70.6719 60.2344 61.9844V45.8125C60.2344 37.125 62.1719 30.4531 66.0469 25.7969C69.9219 21.1094 75.2031 18.7656 81.8906 18.7656C88.6094 18.7656 93.9219 21.1094 97.8281 25.7969C101.734 30.4531 103.688 37.125 103.688 45.8125V61.9844C103.688 70.7031 101.75 77.3906 97.875 82.0469C94 86.6719 88.7031 88.9844 81.9844 88.9844ZM81.9844 81.7656C86.0781 81.7656 89.1719 80.2656 91.2656 77.2656C93.3906 74.2656 94.4531 69.7969 94.4531 63.8594V43.8438C94.4531 37.9375 93.375 33.5 91.2188 30.5312C89.0938 27.5312 85.9844 26.0312 81.8906 26.0312C77.8594 26.0312 74.7812 27.5312 72.6562 30.5312C70.5312 33.5 69.4688 37.9375 69.4688 43.8438V63.8594C69.4688 69.7656 70.5469 74.2344 72.7031 77.2656C74.8594 80.2656 77.9531 81.7656 81.9844 81.7656Z" fill="url(#paint0_linear)"/>
</g>
<defs>
<filter id="filter0_d" x="0.484375" y="0.765625" width="123.203" height="110.219" filterUnits="userSpaceOnUse" color-interpolation-filters="sRGB">
<feFlood flood-opacity="0" result="BackgroundImageFix"/>
<feColorMatrix in="SourceAlpha" type="matrix" values="0 0 0 0 0 0 0 0 0 0 0 0 0 0 0 0 0 0 127 0"/>
<feOffset dy="2"/>
<feGaussianBlur stdDeviation="10"/>
<feColorMatrix type="matrix" values="0 0 0 0 0.635294 0 0 0 0 0.447059 0 0 0 0 0.152941 0 0 0 0.36 0"/>
<feBlend mode="normal" in2="BackgroundImageFix" result="effect1_dropShadow"/>
<feBlend mode="normal" in="SourceGraphic" in2="effect1_dropShadow" result="shape"/>
</filter>
<linearGradient id="paint0_linear" x1="62.4279" y1="100.467" x2="62.4293" y2="-27.5738" gradientUnits="userSpaceOnUse">
<stop stop-color="#A27227"/>
<stop offset="0.0485093" stop-color="#FEDA5B"/>
<stop offset="0.122132" stop-color="#FEDA5B"/>
<stop offset="0.22188" stop-color="#CD953D"/>
<stop offset="0.347751" stop-color="#C99C39"/>
<stop offset="0.421875" stop-color="#FEDA5B"/>
<stop offset="0.601869" stop-color="#EDC84C"/>
<stop offset="0.753865" stop-color="#A27227"/>
<stop offset="1" stop-color="#EDC84C"/>
</linearGradient>
</defs>
</svg>
