<svg width="26" height="26" viewBox="0 0 26 26" fill="none" xmlns="http://www.w3.org/2000/svg">
<path fill-rule="evenodd" clip-rule="evenodd" d="M3.08341 13C3.08341 11.0387 3.66502 9.12138 4.75467 7.4906C5.84433 5.85981 7.3931 4.58876 9.20514 3.83819C11.0172 3.08763 13.0111 2.89124 14.9347 3.27388C16.8584 3.65652 18.6254 4.60099 20.0122 5.98786C21.3991 7.37473 22.3436 9.14171 22.7262 11.0654C23.1088 12.989 22.9125 14.9829 22.1619 16.7949C21.4113 18.607 20.1403 20.1557 18.5095 21.2454C16.8787 22.3351 14.9614 22.9167 13.0001 22.9167C11.1239 22.92 9.28568 22.3882 7.70108 21.3837C7.56013 21.2945 7.40169 21.2366 7.23646 21.2139C7.07123 21.1911 6.90305 21.2041 6.74325 21.2518L3.38325 22.254L4.64908 19.2942C4.72266 19.1218 4.75365 18.9343 4.73943 18.7475C4.72522 18.5607 4.66621 18.38 4.56741 18.2208C3.59433 16.6535 3.08021 14.8448 3.08341 13ZM13.0001 0.75C6.23458 0.75 0.75008 6.2345 0.75008 13C0.75008 15.1443 1.30191 17.1627 2.27258 18.9185L0.26008 23.6248C0.172976 23.8287 0.145763 24.0532 0.181628 24.2719C0.217492 24.4907 0.31495 24.6948 0.462586 24.8601C0.610223 25.0255 0.801927 25.1454 1.01525 25.2058C1.22857 25.2662 1.45467 25.2645 1.66708 25.201L6.91708 23.6353C8.76861 24.6964 10.8661 25.2531 13.0001 25.25C19.7656 25.25 25.2501 19.7655 25.2501 13C25.2501 6.2345 19.7656 0.75 13.0001 0.75ZM15.6752 15.5457L14.1411 16.626C13.2958 16.1397 12.5196 15.5421 11.8334 14.8492C11.0967 14.1135 10.4597 13.2843 9.93875 12.3828L10.9129 11.5557C11.1159 11.3834 11.2539 11.147 11.304 10.8855C11.3541 10.6241 11.3132 10.3534 11.1882 10.1183L9.94691 7.785C9.86431 7.63004 9.74778 7.49572 9.60604 7.39207C9.46428 7.28841 9.30097 7.2181 9.12825 7.18636C8.95554 7.15462 8.77789 7.16228 8.60855 7.20876C8.43921 7.25525 8.28255 7.33936 8.15025 7.45483L7.78158 7.77567C6.89608 8.548 6.37225 9.81733 6.80625 11.103C7.5045 13.1366 8.65997 14.983 10.1837 16.5C12.2989 18.6152 14.4479 19.4482 15.7056 19.7725C16.7182 20.0327 17.6761 19.6838 18.3516 19.1332L19.0411 18.5708C19.1864 18.4523 19.3011 18.3005 19.3753 18.1282C19.4495 17.9559 19.4811 17.7683 19.4673 17.5812C19.4536 17.3942 19.3949 17.2132 19.2964 17.0536C19.1978 16.894 19.0622 16.7605 18.9011 16.6645L16.9434 15.4978C16.7498 15.3823 16.5269 15.3254 16.3017 15.3339C16.0764 15.3423 15.8584 15.4159 15.6741 15.5457H15.6752Z" fill="white" fill-opacity="0.9"/>
</svg>
