<svg width="24" height="24" viewBox="0 0 24 24" fill="none" xmlns="http://www.w3.org/2000/svg">
<path fill-rule="evenodd" clip-rule="evenodd" d="M0.333313 4.99992C0.333313 3.76224 0.824978 2.57526 1.70015 1.70009C2.57532 0.824917 3.7623 0.333252 4.99998 0.333252H19C20.2377 0.333252 21.4246 0.824917 22.2998 1.70009C23.175 2.57526 23.6666 3.76224 23.6666 4.99992V18.9999C23.6666 20.2376 23.175 21.4246 22.2998 22.2998C21.4246 23.1749 20.2377 23.6666 19 23.6666H4.99998C3.7623 23.6666 2.57532 23.1749 1.70015 22.2998C0.824978 21.4246 0.333313 20.2376 0.333313 18.9999V4.99992ZM4.99998 2.66659C4.38114 2.66659 3.78765 2.91242 3.35006 3.35C2.91248 3.78759 2.66665 4.38108 2.66665 4.99992V18.9999C2.66665 19.6188 2.91248 20.2122 3.35006 20.6498C3.78765 21.0874 4.38114 21.3333 4.99998 21.3333H12V13.1666H10.8333C10.5239 13.1666 10.2271 13.0437 10.0084 12.8249C9.78956 12.6061 9.66665 12.3093 9.66665 11.9999C9.66665 11.6905 9.78956 11.3938 10.0084 11.175C10.2271 10.9562 10.5239 10.8333 10.8333 10.8333H12V9.08325C12 8.00029 12.4302 6.96167 13.196 6.1959C13.9617 5.43013 15.0003 4.99992 16.0833 4.99992H16.7833C17.0927 4.99992 17.3895 5.12284 17.6083 5.34163C17.8271 5.56042 17.95 5.85717 17.95 6.16659C17.95 6.47601 17.8271 6.77275 17.6083 6.99154C17.3895 7.21034 17.0927 7.33325 16.7833 7.33325H16.0833C15.8535 7.33325 15.6259 7.37852 15.4136 7.46646C15.2013 7.55441 15.0084 7.68331 14.8459 7.84582C14.6834 8.00832 14.5545 8.20124 14.4665 8.41356C14.3786 8.62588 14.3333 8.85344 14.3333 9.08325V10.8333H16.7833C17.0927 10.8333 17.3895 10.9562 17.6083 11.175C17.8271 11.3938 17.95 11.6905 17.95 11.9999C17.95 12.3093 17.8271 12.6061 17.6083 12.8249C17.3895 13.0437 17.0927 13.1666 16.7833 13.1666H14.3333V21.3333H19C19.6188 21.3333 20.2123 21.0874 20.6499 20.6498C21.0875 20.2122 21.3333 19.6188 21.3333 18.9999V4.99992C21.3333 4.38108 21.0875 3.78759 20.6499 3.35C20.2123 2.91242 19.6188 2.66659 19 2.66659H4.99998Z" fill="white" fill-opacity="0.9"/>
</svg>
