<svg width="19" height="22" viewBox="0 0 19 22" fill="none" xmlns="http://www.w3.org/2000/svg">
<path d="M11.0036 1.37483C9.42095 1.37494 7.8627 1.76534 6.46693 2.51145C5.07116 3.25756 3.88094 4.33635 3.0017 5.65226C2.12245 6.96818 1.58132 8.4806 1.42623 10.0556C1.27114 11.6306 1.50688 13.2195 2.11256 14.6816C2.71825 16.1437 3.67519 17.4339 4.89863 18.4379C6.12206 19.4419 7.57423 20.1287 9.12651 20.4375C10.6788 20.7462 12.2833 20.6675 13.7978 20.2081C15.3124 19.7488 16.6903 18.923 17.8095 17.804L18.7816 18.776C17.5025 20.0557 15.9276 21.0001 14.1963 21.5257C12.4649 22.0512 10.6307 22.1416 8.85611 21.7889C7.08149 21.4362 5.42128 20.6513 4.02256 19.5036C2.62385 18.356 1.52982 16.8811 0.837405 15.2096C0.144995 13.5381 -0.124416 11.7216 0.0530415 9.92113C0.230499 8.12064 0.849347 6.39171 1.85475 4.88754C2.86016 3.38336 4.22108 2.15038 5.81694 1.29784C7.41279 0.4453 9.19431 -0.000479447 11.0036 3.86957e-07V1.37483Z" fill="white" fill-opacity="0.9"/>
</svg>
