<svg width="10" height="10" viewBox="0 0 10 10" fill="none" xmlns="http://www.w3.org/2000/svg">
<path d="M5 8.02775C4.20435 8.02775 3.44129 7.71094 2.87868 7.14702C2.31607 6.5831 2 5.81826 2 5.02075C2 4.22325 2.31607 3.4584 2.87868 2.89448C3.44129 2.33056 4.20435 2.01375 5 2.01375C5.79565 2.01375 6.55871 2.33056 7.12132 2.89448C7.68393 3.4584 8 4.22325 8 5.02075C8 5.81826 7.68393 6.5831 7.12132 7.14702C6.55871 7.71094 5.79565 8.02775 5 8.02775ZM5 9.53125C6.19347 9.53125 7.33807 9.05604 8.18198 8.21016C9.0259 7.36427 9.5 6.21701 9.5 5.02075C9.5 3.82449 9.0259 2.67723 8.18198 1.83135C7.33807 0.985466 6.19347 0.510254 5 0.510254C3.80653 0.510254 2.66193 0.985466 1.81802 1.83135C0.974106 2.67723 0.5 3.82449 0.5 5.02075C0.5 6.21701 0.974106 7.36427 1.81802 8.21016C2.66193 9.05604 3.80653 9.53125 5 9.53125Z" fill="white" fill-opacity="0.9"/>
</svg>
